G04 #@! TF.GenerationSoftware,KiCad,Pcbnew,(5.1.2)-1*
G04 #@! TF.CreationDate,2019-05-06T21:39:49-07:00*
G04 #@! TF.ProjectId,12v1a_psu,31327631-615f-4707-9375-2e6b69636164,rev?*
G04 #@! TF.SameCoordinates,Original*
G04 #@! TF.FileFunction,Soldermask,Top*
G04 #@! TF.FilePolarity,Negative*
%FSLAX46Y46*%
G04 Gerber Fmt 4.6, Leading zero omitted, Abs format (unit mm)*
G04 Created by KiCad (PCBNEW (5.1.2)-1) date 2019-05-06 21:39:49*
%MOMM*%
%LPD*%
G04 APERTURE LIST*
%ADD10C,0.100000*%
G04 APERTURE END LIST*
D10*
G36*
X205315878Y-140379487D02*
G01*
X205481579Y-140412447D01*
X205782042Y-140536903D01*
X206052451Y-140717585D01*
X206282415Y-140947549D01*
X206463097Y-141217958D01*
X206587553Y-141518421D01*
X206600905Y-141585546D01*
X206651000Y-141837389D01*
X206651000Y-142162611D01*
X206639066Y-142222605D01*
X206587553Y-142481579D01*
X206499550Y-142694037D01*
X206465022Y-142777396D01*
X206463097Y-142782042D01*
X206282415Y-143052451D01*
X206052451Y-143282415D01*
X205782042Y-143463097D01*
X205481579Y-143587553D01*
X205375256Y-143608702D01*
X205162611Y-143651000D01*
X204837389Y-143651000D01*
X204624744Y-143608702D01*
X204518421Y-143587553D01*
X204217958Y-143463097D01*
X203947549Y-143282415D01*
X203717585Y-143052451D01*
X203536903Y-142782042D01*
X203534979Y-142777396D01*
X203500450Y-142694037D01*
X203412447Y-142481579D01*
X203360934Y-142222605D01*
X203349000Y-142162611D01*
X203349000Y-141837389D01*
X203399095Y-141585546D01*
X203412447Y-141518421D01*
X203536903Y-141217958D01*
X203717585Y-140947549D01*
X203947549Y-140717585D01*
X204217958Y-140536903D01*
X204518421Y-140412447D01*
X204684122Y-140379487D01*
X204837389Y-140349000D01*
X205162611Y-140349000D01*
X205315878Y-140379487D01*
X205315878Y-140379487D01*
G37*
G36*
X83315878Y-140379487D02*
G01*
X83481579Y-140412447D01*
X83782042Y-140536903D01*
X84052451Y-140717585D01*
X84282415Y-140947549D01*
X84463097Y-141217958D01*
X84587553Y-141518421D01*
X84600905Y-141585546D01*
X84651000Y-141837389D01*
X84651000Y-142162611D01*
X84639066Y-142222605D01*
X84587553Y-142481579D01*
X84499550Y-142694037D01*
X84465022Y-142777396D01*
X84463097Y-142782042D01*
X84282415Y-143052451D01*
X84052451Y-143282415D01*
X83782042Y-143463097D01*
X83481579Y-143587553D01*
X83375256Y-143608702D01*
X83162611Y-143651000D01*
X82837389Y-143651000D01*
X82624744Y-143608702D01*
X82518421Y-143587553D01*
X82217958Y-143463097D01*
X81947549Y-143282415D01*
X81717585Y-143052451D01*
X81536903Y-142782042D01*
X81534979Y-142777396D01*
X81500450Y-142694037D01*
X81412447Y-142481579D01*
X81360934Y-142222605D01*
X81349000Y-142162611D01*
X81349000Y-141837389D01*
X81399095Y-141585546D01*
X81412447Y-141518421D01*
X81536903Y-141217958D01*
X81717585Y-140947549D01*
X81947549Y-140717585D01*
X82217958Y-140536903D01*
X82518421Y-140412447D01*
X82684122Y-140379487D01*
X82837389Y-140349000D01*
X83162611Y-140349000D01*
X83315878Y-140379487D01*
X83315878Y-140379487D01*
G37*
G36*
X156411000Y-143451000D02*
G01*
X154509000Y-143451000D01*
X154509000Y-141549000D01*
X156411000Y-141549000D01*
X156411000Y-143451000D01*
X156411000Y-143451000D01*
G37*
G36*
X158277395Y-141585546D02*
G01*
X158450466Y-141657234D01*
X158450467Y-141657235D01*
X158606227Y-141761310D01*
X158738690Y-141893773D01*
X158738691Y-141893775D01*
X158842766Y-142049534D01*
X158914454Y-142222605D01*
X158951000Y-142406333D01*
X158951000Y-142593667D01*
X158914454Y-142777395D01*
X158842766Y-142950466D01*
X158842765Y-142950467D01*
X158738690Y-143106227D01*
X158606227Y-143238690D01*
X158540788Y-143282415D01*
X158450466Y-143342766D01*
X158277395Y-143414454D01*
X158093667Y-143451000D01*
X157906333Y-143451000D01*
X157722605Y-143414454D01*
X157549534Y-143342766D01*
X157459212Y-143282415D01*
X157393773Y-143238690D01*
X157261310Y-143106227D01*
X157157235Y-142950467D01*
X157157234Y-142950466D01*
X157085546Y-142777395D01*
X157049000Y-142593667D01*
X157049000Y-142406333D01*
X157085546Y-142222605D01*
X157157234Y-142049534D01*
X157261309Y-141893775D01*
X157261310Y-141893773D01*
X157393773Y-141761310D01*
X157549533Y-141657235D01*
X157549534Y-141657234D01*
X157722605Y-141585546D01*
X157906333Y-141549000D01*
X158093667Y-141549000D01*
X158277395Y-141585546D01*
X158277395Y-141585546D01*
G37*
G36*
X148259487Y-138748996D02*
G01*
X148496253Y-138847068D01*
X148496255Y-138847069D01*
X148709339Y-138989447D01*
X148890553Y-139170661D01*
X149032932Y-139383747D01*
X149131004Y-139620513D01*
X149181000Y-139871861D01*
X149181000Y-140128139D01*
X149131004Y-140379487D01*
X149117351Y-140412447D01*
X149032931Y-140616255D01*
X148890553Y-140829339D01*
X148709339Y-141010553D01*
X148496255Y-141152931D01*
X148496254Y-141152932D01*
X148496253Y-141152932D01*
X148259487Y-141251004D01*
X148008139Y-141301000D01*
X147751861Y-141301000D01*
X147500513Y-141251004D01*
X147263747Y-141152932D01*
X147263746Y-141152932D01*
X147263745Y-141152931D01*
X147050661Y-141010553D01*
X146869447Y-140829339D01*
X146727069Y-140616255D01*
X146642649Y-140412447D01*
X146628996Y-140379487D01*
X146579000Y-140128139D01*
X146579000Y-139871861D01*
X146628996Y-139620513D01*
X146727068Y-139383747D01*
X146869447Y-139170661D01*
X147050661Y-138989447D01*
X147263745Y-138847069D01*
X147263747Y-138847068D01*
X147500513Y-138748996D01*
X147751861Y-138699000D01*
X148008139Y-138699000D01*
X148259487Y-138748996D01*
X148259487Y-138748996D01*
G37*
G36*
X93301000Y-141301000D02*
G01*
X90699000Y-141301000D01*
X90699000Y-138699000D01*
X93301000Y-138699000D01*
X93301000Y-141301000D01*
X93301000Y-141301000D01*
G37*
G36*
X97379487Y-138748996D02*
G01*
X97616253Y-138847068D01*
X97616255Y-138847069D01*
X97829339Y-138989447D01*
X98010553Y-139170661D01*
X98152932Y-139383747D01*
X98251004Y-139620513D01*
X98301000Y-139871861D01*
X98301000Y-140128139D01*
X98251004Y-140379487D01*
X98237351Y-140412447D01*
X98152931Y-140616255D01*
X98010553Y-140829339D01*
X97829339Y-141010553D01*
X97616255Y-141152931D01*
X97616254Y-141152932D01*
X97616253Y-141152932D01*
X97379487Y-141251004D01*
X97128139Y-141301000D01*
X96871861Y-141301000D01*
X96620513Y-141251004D01*
X96383747Y-141152932D01*
X96383746Y-141152932D01*
X96383745Y-141152931D01*
X96170661Y-141010553D01*
X95989447Y-140829339D01*
X95847069Y-140616255D01*
X95762649Y-140412447D01*
X95748996Y-140379487D01*
X95699000Y-140128139D01*
X95699000Y-139871861D01*
X95748996Y-139620513D01*
X95847068Y-139383747D01*
X95989447Y-139170661D01*
X96170661Y-138989447D01*
X96383745Y-138847069D01*
X96383747Y-138847068D01*
X96620513Y-138748996D01*
X96871861Y-138699000D01*
X97128139Y-138699000D01*
X97379487Y-138748996D01*
X97379487Y-138748996D01*
G37*
G36*
X144101000Y-141301000D02*
G01*
X141499000Y-141301000D01*
X141499000Y-138699000D01*
X144101000Y-138699000D01*
X144101000Y-141301000D01*
X144101000Y-141301000D01*
G37*
G36*
X155256823Y-132411313D02*
G01*
X155417242Y-132459976D01*
X155484361Y-132495852D01*
X155565078Y-132538996D01*
X155694659Y-132645341D01*
X155801004Y-132774922D01*
X155801005Y-132774924D01*
X155880024Y-132922758D01*
X155928687Y-133083177D01*
X155945117Y-133250000D01*
X155928687Y-133416823D01*
X155880024Y-133577242D01*
X155839477Y-133653100D01*
X155801004Y-133725078D01*
X155694659Y-133854659D01*
X155565078Y-133961004D01*
X155565076Y-133961005D01*
X155417242Y-134040024D01*
X155256823Y-134088687D01*
X155131804Y-134101000D01*
X155048196Y-134101000D01*
X154923177Y-134088687D01*
X154762758Y-134040024D01*
X154614924Y-133961005D01*
X154614922Y-133961004D01*
X154485341Y-133854659D01*
X154378996Y-133725078D01*
X154340523Y-133653100D01*
X154299976Y-133577242D01*
X154251313Y-133416823D01*
X154234883Y-133250000D01*
X154251313Y-133083177D01*
X154299976Y-132922758D01*
X154378995Y-132774924D01*
X154378996Y-132774922D01*
X154485341Y-132645341D01*
X154614922Y-132538996D01*
X154695639Y-132495852D01*
X154762758Y-132459976D01*
X154923177Y-132411313D01*
X155048196Y-132399000D01*
X155131804Y-132399000D01*
X155256823Y-132411313D01*
X155256823Y-132411313D01*
G37*
G36*
X165498228Y-132431703D02*
G01*
X165653100Y-132495853D01*
X165792481Y-132588985D01*
X165911015Y-132707519D01*
X166004147Y-132846900D01*
X166068297Y-133001772D01*
X166101000Y-133166184D01*
X166101000Y-133333816D01*
X166068297Y-133498228D01*
X166004147Y-133653100D01*
X165911015Y-133792481D01*
X165792481Y-133911015D01*
X165653100Y-134004147D01*
X165498228Y-134068297D01*
X165333816Y-134101000D01*
X165166184Y-134101000D01*
X165001772Y-134068297D01*
X164846900Y-134004147D01*
X164707519Y-133911015D01*
X164588985Y-133792481D01*
X164495853Y-133653100D01*
X164431703Y-133498228D01*
X164399000Y-133333816D01*
X164399000Y-133166184D01*
X164431703Y-133001772D01*
X164495853Y-132846900D01*
X164588985Y-132707519D01*
X164707519Y-132588985D01*
X164846900Y-132495853D01*
X165001772Y-132431703D01*
X165166184Y-132399000D01*
X165333816Y-132399000D01*
X165498228Y-132431703D01*
X165498228Y-132431703D01*
G37*
G36*
X183576823Y-132411313D02*
G01*
X183737242Y-132459976D01*
X183804361Y-132495852D01*
X183885078Y-132538996D01*
X184014659Y-132645341D01*
X184121004Y-132774922D01*
X184121005Y-132774924D01*
X184200024Y-132922758D01*
X184248687Y-133083177D01*
X184265117Y-133250000D01*
X184248687Y-133416823D01*
X184200024Y-133577242D01*
X184159477Y-133653100D01*
X184121004Y-133725078D01*
X184014659Y-133854659D01*
X183885078Y-133961004D01*
X183885076Y-133961005D01*
X183737242Y-134040024D01*
X183576823Y-134088687D01*
X183451804Y-134101000D01*
X183368196Y-134101000D01*
X183243177Y-134088687D01*
X183082758Y-134040024D01*
X182934924Y-133961005D01*
X182934922Y-133961004D01*
X182805341Y-133854659D01*
X182698996Y-133725078D01*
X182660523Y-133653100D01*
X182619976Y-133577242D01*
X182571313Y-133416823D01*
X182554883Y-133250000D01*
X182571313Y-133083177D01*
X182619976Y-132922758D01*
X182698995Y-132774924D01*
X182698996Y-132774922D01*
X182805341Y-132645341D01*
X182934922Y-132538996D01*
X183015639Y-132495852D01*
X183082758Y-132459976D01*
X183243177Y-132411313D01*
X183368196Y-132399000D01*
X183451804Y-132399000D01*
X183576823Y-132411313D01*
X183576823Y-132411313D01*
G37*
G36*
X173498228Y-132431703D02*
G01*
X173653100Y-132495853D01*
X173792481Y-132588985D01*
X173911015Y-132707519D01*
X174004147Y-132846900D01*
X174068297Y-133001772D01*
X174101000Y-133166184D01*
X174101000Y-133333816D01*
X174068297Y-133498228D01*
X174004147Y-133653100D01*
X173911015Y-133792481D01*
X173792481Y-133911015D01*
X173653100Y-134004147D01*
X173498228Y-134068297D01*
X173333816Y-134101000D01*
X173166184Y-134101000D01*
X173001772Y-134068297D01*
X172846900Y-134004147D01*
X172707519Y-133911015D01*
X172588985Y-133792481D01*
X172495853Y-133653100D01*
X172431703Y-133498228D01*
X172399000Y-133333816D01*
X172399000Y-133166184D01*
X172431703Y-133001772D01*
X172495853Y-132846900D01*
X172588985Y-132707519D01*
X172707519Y-132588985D01*
X172846900Y-132495853D01*
X173001772Y-132431703D01*
X173166184Y-132399000D01*
X173333816Y-132399000D01*
X173498228Y-132431703D01*
X173498228Y-132431703D01*
G37*
G36*
X197146425Y-129562760D02*
G01*
X197146428Y-129562761D01*
X197146429Y-129562761D01*
X197325693Y-129617140D01*
X197325696Y-129617142D01*
X197325697Y-129617142D01*
X197490903Y-129705446D01*
X197635712Y-129824288D01*
X197754554Y-129969097D01*
X197842858Y-130134303D01*
X197842860Y-130134307D01*
X197897239Y-130313571D01*
X197897240Y-130313575D01*
X197915601Y-130500000D01*
X197897240Y-130686425D01*
X197897239Y-130686428D01*
X197897239Y-130686429D01*
X197842860Y-130865693D01*
X197842858Y-130865696D01*
X197842858Y-130865697D01*
X197754554Y-131030903D01*
X197635712Y-131175712D01*
X197490903Y-131294554D01*
X197325697Y-131382858D01*
X197325693Y-131382860D01*
X197146429Y-131437239D01*
X197146428Y-131437239D01*
X197146425Y-131437240D01*
X197006718Y-131451000D01*
X196913282Y-131451000D01*
X196773575Y-131437240D01*
X196773572Y-131437239D01*
X196773571Y-131437239D01*
X196594307Y-131382860D01*
X196594303Y-131382858D01*
X196429097Y-131294554D01*
X196284288Y-131175712D01*
X196165446Y-131030903D01*
X196077142Y-130865697D01*
X196077142Y-130865696D01*
X196077140Y-130865693D01*
X196022761Y-130686429D01*
X196022761Y-130686428D01*
X196022760Y-130686425D01*
X196004399Y-130500000D01*
X196022760Y-130313575D01*
X196022761Y-130313571D01*
X196077140Y-130134307D01*
X196077142Y-130134303D01*
X196165446Y-129969097D01*
X196284288Y-129824288D01*
X196429097Y-129705446D01*
X196594303Y-129617142D01*
X196594304Y-129617142D01*
X196594307Y-129617140D01*
X196773571Y-129562761D01*
X196773572Y-129562761D01*
X196773575Y-129562760D01*
X196913282Y-129549000D01*
X197006718Y-129549000D01*
X197146425Y-129562760D01*
X197146425Y-129562760D01*
G37*
G36*
X199686425Y-129562760D02*
G01*
X199686428Y-129562761D01*
X199686429Y-129562761D01*
X199865693Y-129617140D01*
X199865696Y-129617142D01*
X199865697Y-129617142D01*
X200030903Y-129705446D01*
X200175712Y-129824288D01*
X200294554Y-129969097D01*
X200382858Y-130134303D01*
X200382860Y-130134307D01*
X200437239Y-130313571D01*
X200437240Y-130313575D01*
X200455601Y-130500000D01*
X200437240Y-130686425D01*
X200437239Y-130686428D01*
X200437239Y-130686429D01*
X200382860Y-130865693D01*
X200382858Y-130865696D01*
X200382858Y-130865697D01*
X200294554Y-131030903D01*
X200175712Y-131175712D01*
X200030903Y-131294554D01*
X199865697Y-131382858D01*
X199865693Y-131382860D01*
X199686429Y-131437239D01*
X199686428Y-131437239D01*
X199686425Y-131437240D01*
X199546718Y-131451000D01*
X199453282Y-131451000D01*
X199313575Y-131437240D01*
X199313572Y-131437239D01*
X199313571Y-131437239D01*
X199134307Y-131382860D01*
X199134303Y-131382858D01*
X198969097Y-131294554D01*
X198824288Y-131175712D01*
X198705446Y-131030903D01*
X198617142Y-130865697D01*
X198617142Y-130865696D01*
X198617140Y-130865693D01*
X198562761Y-130686429D01*
X198562761Y-130686428D01*
X198562760Y-130686425D01*
X198544399Y-130500000D01*
X198562760Y-130313575D01*
X198562761Y-130313571D01*
X198617140Y-130134307D01*
X198617142Y-130134303D01*
X198705446Y-129969097D01*
X198824288Y-129824288D01*
X198969097Y-129705446D01*
X199134303Y-129617142D01*
X199134304Y-129617142D01*
X199134307Y-129617140D01*
X199313571Y-129562761D01*
X199313572Y-129562761D01*
X199313575Y-129562760D01*
X199453282Y-129549000D01*
X199546718Y-129549000D01*
X199686425Y-129562760D01*
X199686425Y-129562760D01*
G37*
G36*
X195371000Y-131451000D02*
G01*
X193469000Y-131451000D01*
X193469000Y-129549000D01*
X195371000Y-129549000D01*
X195371000Y-131451000D01*
X195371000Y-131451000D01*
G37*
G36*
X156401000Y-127901000D02*
G01*
X154099000Y-127901000D01*
X154099000Y-125599000D01*
X156401000Y-125599000D01*
X156401000Y-127901000D01*
X156401000Y-127901000D01*
G37*
G36*
X165579271Y-125610103D02*
G01*
X165635635Y-125615654D01*
X165852600Y-125681470D01*
X165852602Y-125681471D01*
X166052555Y-125788347D01*
X166227818Y-125932182D01*
X166371653Y-126107445D01*
X166478529Y-126307398D01*
X166544346Y-126524366D01*
X166566569Y-126750000D01*
X166544346Y-126975634D01*
X166478529Y-127192602D01*
X166371653Y-127392555D01*
X166227818Y-127567818D01*
X166052555Y-127711653D01*
X165852602Y-127818529D01*
X165852600Y-127818530D01*
X165635635Y-127884346D01*
X165579271Y-127889897D01*
X165466545Y-127901000D01*
X165353455Y-127901000D01*
X165240729Y-127889897D01*
X165184365Y-127884346D01*
X164967400Y-127818530D01*
X164967398Y-127818529D01*
X164767445Y-127711653D01*
X164592182Y-127567818D01*
X164448347Y-127392555D01*
X164341471Y-127192602D01*
X164275654Y-126975634D01*
X164253431Y-126750000D01*
X164275654Y-126524366D01*
X164341471Y-126307398D01*
X164448347Y-126107445D01*
X164592182Y-125932182D01*
X164767445Y-125788347D01*
X164967398Y-125681471D01*
X164967400Y-125681470D01*
X165184365Y-125615654D01*
X165240729Y-125610103D01*
X165353455Y-125599000D01*
X165466545Y-125599000D01*
X165579271Y-125610103D01*
X165579271Y-125610103D01*
G37*
G36*
X173259271Y-125610103D02*
G01*
X173315635Y-125615654D01*
X173532600Y-125681470D01*
X173532602Y-125681471D01*
X173732555Y-125788347D01*
X173907818Y-125932182D01*
X174051653Y-126107445D01*
X174158529Y-126307398D01*
X174224346Y-126524366D01*
X174246569Y-126750000D01*
X174224346Y-126975634D01*
X174158529Y-127192602D01*
X174051653Y-127392555D01*
X173907818Y-127567818D01*
X173732555Y-127711653D01*
X173532602Y-127818529D01*
X173532600Y-127818530D01*
X173315635Y-127884346D01*
X173259271Y-127889897D01*
X173146545Y-127901000D01*
X173033455Y-127901000D01*
X172920729Y-127889897D01*
X172864365Y-127884346D01*
X172647400Y-127818530D01*
X172647398Y-127818529D01*
X172447445Y-127711653D01*
X172272182Y-127567818D01*
X172128347Y-127392555D01*
X172021471Y-127192602D01*
X171955654Y-126975634D01*
X171933431Y-126750000D01*
X171955654Y-126524366D01*
X172021471Y-126307398D01*
X172128347Y-126107445D01*
X172272182Y-125932182D01*
X172447445Y-125788347D01*
X172647398Y-125681471D01*
X172647400Y-125681470D01*
X172864365Y-125615654D01*
X172920729Y-125610103D01*
X173033455Y-125599000D01*
X173146545Y-125599000D01*
X173259271Y-125610103D01*
X173259271Y-125610103D01*
G37*
G36*
X184401000Y-127901000D02*
G01*
X182099000Y-127901000D01*
X182099000Y-125599000D01*
X184401000Y-125599000D01*
X184401000Y-127901000D01*
X184401000Y-127901000D01*
G37*
G36*
X165579271Y-118610103D02*
G01*
X165635635Y-118615654D01*
X165852600Y-118681470D01*
X165852602Y-118681471D01*
X166052555Y-118788347D01*
X166227818Y-118932182D01*
X166371653Y-119107445D01*
X166478529Y-119307398D01*
X166544346Y-119524366D01*
X166566569Y-119750000D01*
X166544346Y-119975634D01*
X166478529Y-120192602D01*
X166371653Y-120392555D01*
X166227818Y-120567818D01*
X166052555Y-120711653D01*
X165852602Y-120818529D01*
X165852600Y-120818530D01*
X165635635Y-120884346D01*
X165579271Y-120889897D01*
X165466545Y-120901000D01*
X165353455Y-120901000D01*
X165240729Y-120889897D01*
X165184365Y-120884346D01*
X164967400Y-120818530D01*
X164967398Y-120818529D01*
X164767445Y-120711653D01*
X164592182Y-120567818D01*
X164448347Y-120392555D01*
X164341471Y-120192602D01*
X164275654Y-119975634D01*
X164253431Y-119750000D01*
X164275654Y-119524366D01*
X164341471Y-119307398D01*
X164448347Y-119107445D01*
X164592182Y-118932182D01*
X164767445Y-118788347D01*
X164967398Y-118681471D01*
X164967400Y-118681470D01*
X165184365Y-118615654D01*
X165240729Y-118610103D01*
X165353455Y-118599000D01*
X165466545Y-118599000D01*
X165579271Y-118610103D01*
X165579271Y-118610103D01*
G37*
G36*
X173259271Y-118610103D02*
G01*
X173315635Y-118615654D01*
X173532600Y-118681470D01*
X173532602Y-118681471D01*
X173732555Y-118788347D01*
X173907818Y-118932182D01*
X174051653Y-119107445D01*
X174158529Y-119307398D01*
X174224346Y-119524366D01*
X174246569Y-119750000D01*
X174224346Y-119975634D01*
X174158529Y-120192602D01*
X174051653Y-120392555D01*
X173907818Y-120567818D01*
X173732555Y-120711653D01*
X173532602Y-120818529D01*
X173532600Y-120818530D01*
X173315635Y-120884346D01*
X173259271Y-120889897D01*
X173146545Y-120901000D01*
X173033455Y-120901000D01*
X172920729Y-120889897D01*
X172864365Y-120884346D01*
X172647400Y-120818530D01*
X172647398Y-120818529D01*
X172447445Y-120711653D01*
X172272182Y-120567818D01*
X172128347Y-120392555D01*
X172021471Y-120192602D01*
X171955654Y-119975634D01*
X171933431Y-119750000D01*
X171955654Y-119524366D01*
X172021471Y-119307398D01*
X172128347Y-119107445D01*
X172272182Y-118932182D01*
X172447445Y-118788347D01*
X172647398Y-118681471D01*
X172647400Y-118681470D01*
X172864365Y-118615654D01*
X172920729Y-118610103D01*
X173033455Y-118599000D01*
X173146545Y-118599000D01*
X173259271Y-118610103D01*
X173259271Y-118610103D01*
G37*
G36*
X156401000Y-120901000D02*
G01*
X154099000Y-120901000D01*
X154099000Y-118599000D01*
X156401000Y-118599000D01*
X156401000Y-120901000D01*
X156401000Y-120901000D01*
G37*
G36*
X184401000Y-120901000D02*
G01*
X182099000Y-120901000D01*
X182099000Y-118599000D01*
X184401000Y-118599000D01*
X184401000Y-120901000D01*
X184401000Y-120901000D01*
G37*
G36*
X194298228Y-95781703D02*
G01*
X194453100Y-95845853D01*
X194592481Y-95938985D01*
X194711015Y-96057519D01*
X194804147Y-96196900D01*
X194868297Y-96351772D01*
X194901000Y-96516184D01*
X194901000Y-96683816D01*
X194868297Y-96848228D01*
X194804147Y-97003100D01*
X194711015Y-97142481D01*
X194592481Y-97261015D01*
X194453100Y-97354147D01*
X194298228Y-97418297D01*
X194133816Y-97451000D01*
X193966184Y-97451000D01*
X193801772Y-97418297D01*
X193646900Y-97354147D01*
X193507519Y-97261015D01*
X193388985Y-97142481D01*
X193295853Y-97003100D01*
X193231703Y-96848228D01*
X193199000Y-96683816D01*
X193199000Y-96516184D01*
X193231703Y-96351772D01*
X193295853Y-96196900D01*
X193388985Y-96057519D01*
X193507519Y-95938985D01*
X193646900Y-95845853D01*
X193801772Y-95781703D01*
X193966184Y-95749000D01*
X194133816Y-95749000D01*
X194298228Y-95781703D01*
X194298228Y-95781703D01*
G37*
G36*
X202598228Y-95781703D02*
G01*
X202753100Y-95845853D01*
X202892481Y-95938985D01*
X203011015Y-96057519D01*
X203104147Y-96196900D01*
X203168297Y-96351772D01*
X203201000Y-96516184D01*
X203201000Y-96683816D01*
X203168297Y-96848228D01*
X203104147Y-97003100D01*
X203011015Y-97142481D01*
X202892481Y-97261015D01*
X202753100Y-97354147D01*
X202598228Y-97418297D01*
X202433816Y-97451000D01*
X202266184Y-97451000D01*
X202101772Y-97418297D01*
X201946900Y-97354147D01*
X201807519Y-97261015D01*
X201688985Y-97142481D01*
X201595853Y-97003100D01*
X201531703Y-96848228D01*
X201499000Y-96683816D01*
X201499000Y-96516184D01*
X201531703Y-96351772D01*
X201595853Y-96196900D01*
X201688985Y-96057519D01*
X201807519Y-95938985D01*
X201946900Y-95845853D01*
X202101772Y-95781703D01*
X202266184Y-95749000D01*
X202433816Y-95749000D01*
X202598228Y-95781703D01*
X202598228Y-95781703D01*
G37*
G36*
X191798228Y-95781703D02*
G01*
X191953100Y-95845853D01*
X192092481Y-95938985D01*
X192211015Y-96057519D01*
X192304147Y-96196900D01*
X192368297Y-96351772D01*
X192401000Y-96516184D01*
X192401000Y-96683816D01*
X192368297Y-96848228D01*
X192304147Y-97003100D01*
X192211015Y-97142481D01*
X192092481Y-97261015D01*
X191953100Y-97354147D01*
X191798228Y-97418297D01*
X191633816Y-97451000D01*
X191466184Y-97451000D01*
X191301772Y-97418297D01*
X191146900Y-97354147D01*
X191007519Y-97261015D01*
X190888985Y-97142481D01*
X190795853Y-97003100D01*
X190731703Y-96848228D01*
X190699000Y-96683816D01*
X190699000Y-96516184D01*
X190731703Y-96351772D01*
X190795853Y-96196900D01*
X190888985Y-96057519D01*
X191007519Y-95938985D01*
X191146900Y-95845853D01*
X191301772Y-95781703D01*
X191466184Y-95749000D01*
X191633816Y-95749000D01*
X191798228Y-95781703D01*
X191798228Y-95781703D01*
G37*
G36*
X200098228Y-95781703D02*
G01*
X200253100Y-95845853D01*
X200392481Y-95938985D01*
X200511015Y-96057519D01*
X200604147Y-96196900D01*
X200668297Y-96351772D01*
X200701000Y-96516184D01*
X200701000Y-96683816D01*
X200668297Y-96848228D01*
X200604147Y-97003100D01*
X200511015Y-97142481D01*
X200392481Y-97261015D01*
X200253100Y-97354147D01*
X200098228Y-97418297D01*
X199933816Y-97451000D01*
X199766184Y-97451000D01*
X199601772Y-97418297D01*
X199446900Y-97354147D01*
X199307519Y-97261015D01*
X199188985Y-97142481D01*
X199095853Y-97003100D01*
X199031703Y-96848228D01*
X198999000Y-96683816D01*
X198999000Y-96516184D01*
X199031703Y-96351772D01*
X199095853Y-96196900D01*
X199188985Y-96057519D01*
X199307519Y-95938985D01*
X199446900Y-95845853D01*
X199601772Y-95781703D01*
X199766184Y-95749000D01*
X199933816Y-95749000D01*
X200098228Y-95781703D01*
X200098228Y-95781703D01*
G37*
G36*
X164998254Y-89627818D02*
G01*
X165371511Y-89782426D01*
X165371513Y-89782427D01*
X165707436Y-90006884D01*
X165993116Y-90292564D01*
X166217574Y-90628489D01*
X166372182Y-91001746D01*
X166451000Y-91397993D01*
X166451000Y-91802007D01*
X166372182Y-92198254D01*
X166303784Y-92363381D01*
X166217573Y-92571513D01*
X165993116Y-92907436D01*
X165707436Y-93193116D01*
X165371513Y-93417573D01*
X165371512Y-93417574D01*
X165371511Y-93417574D01*
X164998254Y-93572182D01*
X164602007Y-93651000D01*
X164197993Y-93651000D01*
X163801746Y-93572182D01*
X163428489Y-93417574D01*
X163428488Y-93417574D01*
X163428487Y-93417573D01*
X163092564Y-93193116D01*
X162806884Y-92907436D01*
X162582427Y-92571513D01*
X162496216Y-92363381D01*
X162427818Y-92198254D01*
X162349000Y-91802007D01*
X162349000Y-91397993D01*
X162427818Y-91001746D01*
X162582426Y-90628489D01*
X162806884Y-90292564D01*
X163092564Y-90006884D01*
X163428487Y-89782427D01*
X163428489Y-89782426D01*
X163801746Y-89627818D01*
X164197993Y-89549000D01*
X164602007Y-89549000D01*
X164998254Y-89627818D01*
X164998254Y-89627818D01*
G37*
G36*
X176451000Y-93651000D02*
G01*
X172349000Y-93651000D01*
X172349000Y-89549000D01*
X176451000Y-89549000D01*
X176451000Y-93651000D01*
X176451000Y-93651000D01*
G37*
G36*
X197192588Y-90893520D02*
G01*
X197381749Y-90950901D01*
X197381752Y-90950902D01*
X197474202Y-91000318D01*
X197556081Y-91044083D01*
X197708884Y-91169485D01*
X197834286Y-91322288D01*
X197927468Y-91496619D01*
X197984849Y-91685780D01*
X197999369Y-91833206D01*
X197999369Y-92026793D01*
X197984849Y-92174219D01*
X197927468Y-92363380D01*
X197927467Y-92363383D01*
X197878051Y-92455833D01*
X197834286Y-92537712D01*
X197708884Y-92690515D01*
X197556081Y-92815917D01*
X197381750Y-92909099D01*
X197192589Y-92966480D01*
X196995869Y-92985855D01*
X196799150Y-92966480D01*
X196609989Y-92909099D01*
X196435657Y-92815917D01*
X196282854Y-92690515D01*
X196157452Y-92537712D01*
X196064270Y-92363381D01*
X196006889Y-92174220D01*
X195992369Y-92026794D01*
X195992369Y-91833207D01*
X196006889Y-91685781D01*
X196064270Y-91496620D01*
X196064271Y-91496617D01*
X196113687Y-91404167D01*
X196157452Y-91322288D01*
X196282854Y-91169485D01*
X196435657Y-91044083D01*
X196609988Y-90950901D01*
X196799149Y-90893520D01*
X196995869Y-90874145D01*
X197192588Y-90893520D01*
X197192588Y-90893520D01*
G37*
G36*
X199732588Y-90893520D02*
G01*
X199921749Y-90950901D01*
X199921752Y-90950902D01*
X200014202Y-91000318D01*
X200096081Y-91044083D01*
X200248884Y-91169485D01*
X200374286Y-91322288D01*
X200467468Y-91496619D01*
X200524849Y-91685780D01*
X200539369Y-91833206D01*
X200539369Y-92026793D01*
X200524849Y-92174219D01*
X200467468Y-92363380D01*
X200467467Y-92363383D01*
X200418051Y-92455833D01*
X200374286Y-92537712D01*
X200248884Y-92690515D01*
X200096081Y-92815917D01*
X199921750Y-92909099D01*
X199732589Y-92966480D01*
X199535869Y-92985855D01*
X199339150Y-92966480D01*
X199149989Y-92909099D01*
X198975657Y-92815917D01*
X198822854Y-92690515D01*
X198697452Y-92537712D01*
X198604270Y-92363381D01*
X198546889Y-92174220D01*
X198532369Y-92026794D01*
X198532369Y-91833207D01*
X198546889Y-91685781D01*
X198604270Y-91496620D01*
X198604271Y-91496617D01*
X198653687Y-91404167D01*
X198697452Y-91322288D01*
X198822854Y-91169485D01*
X198975657Y-91044083D01*
X199149988Y-90950901D01*
X199339149Y-90893520D01*
X199535869Y-90874145D01*
X199732588Y-90893520D01*
X199732588Y-90893520D01*
G37*
G36*
X195459369Y-92981000D02*
G01*
X193452369Y-92981000D01*
X193452369Y-90879000D01*
X195459369Y-90879000D01*
X195459369Y-92981000D01*
X195459369Y-92981000D01*
G37*
G36*
X93301000Y-85421000D02*
G01*
X90699000Y-85421000D01*
X90699000Y-82819000D01*
X93301000Y-82819000D01*
X93301000Y-85421000D01*
X93301000Y-85421000D01*
G37*
G36*
X148259487Y-82868996D02*
G01*
X148496253Y-82967068D01*
X148496255Y-82967069D01*
X148709339Y-83109447D01*
X148890553Y-83290661D01*
X149032932Y-83503747D01*
X149131004Y-83740513D01*
X149181000Y-83991861D01*
X149181000Y-84248139D01*
X149131004Y-84499487D01*
X149032932Y-84736253D01*
X149032931Y-84736255D01*
X148890553Y-84949339D01*
X148709339Y-85130553D01*
X148496255Y-85272931D01*
X148496254Y-85272932D01*
X148496253Y-85272932D01*
X148259487Y-85371004D01*
X148008139Y-85421000D01*
X147751861Y-85421000D01*
X147500513Y-85371004D01*
X147263747Y-85272932D01*
X147263746Y-85272932D01*
X147263745Y-85272931D01*
X147050661Y-85130553D01*
X146869447Y-84949339D01*
X146727069Y-84736255D01*
X146727068Y-84736253D01*
X146628996Y-84499487D01*
X146579000Y-84248139D01*
X146579000Y-83991861D01*
X146628996Y-83740513D01*
X146727068Y-83503747D01*
X146869447Y-83290661D01*
X147050661Y-83109447D01*
X147263745Y-82967069D01*
X147263747Y-82967068D01*
X147500513Y-82868996D01*
X147751861Y-82819000D01*
X148008139Y-82819000D01*
X148259487Y-82868996D01*
X148259487Y-82868996D01*
G37*
G36*
X144101000Y-85421000D02*
G01*
X141499000Y-85421000D01*
X141499000Y-82819000D01*
X144101000Y-82819000D01*
X144101000Y-85421000D01*
X144101000Y-85421000D01*
G37*
G36*
X97459487Y-82868996D02*
G01*
X97696253Y-82967068D01*
X97696255Y-82967069D01*
X97909339Y-83109447D01*
X98090553Y-83290661D01*
X98232932Y-83503747D01*
X98331004Y-83740513D01*
X98381000Y-83991861D01*
X98381000Y-84248139D01*
X98331004Y-84499487D01*
X98232932Y-84736253D01*
X98232931Y-84736255D01*
X98090553Y-84949339D01*
X97909339Y-85130553D01*
X97696255Y-85272931D01*
X97696254Y-85272932D01*
X97696253Y-85272932D01*
X97459487Y-85371004D01*
X97208139Y-85421000D01*
X96951861Y-85421000D01*
X96700513Y-85371004D01*
X96463747Y-85272932D01*
X96463746Y-85272932D01*
X96463745Y-85272931D01*
X96250661Y-85130553D01*
X96069447Y-84949339D01*
X95927069Y-84736255D01*
X95927068Y-84736253D01*
X95828996Y-84499487D01*
X95779000Y-84248139D01*
X95779000Y-83991861D01*
X95828996Y-83740513D01*
X95927068Y-83503747D01*
X96069447Y-83290661D01*
X96250661Y-83109447D01*
X96463745Y-82967069D01*
X96463747Y-82967068D01*
X96700513Y-82868996D01*
X96951861Y-82819000D01*
X97208139Y-82819000D01*
X97459487Y-82868996D01*
X97459487Y-82868996D01*
G37*
G36*
X111726905Y-74458789D02*
G01*
X112025350Y-74518153D01*
X112353122Y-74653921D01*
X112648109Y-74851025D01*
X112898975Y-75101891D01*
X113096079Y-75396878D01*
X113231847Y-75724650D01*
X113301060Y-76072611D01*
X113301060Y-76427389D01*
X113231847Y-76775350D01*
X113096079Y-77103122D01*
X112898975Y-77398109D01*
X112648109Y-77648975D01*
X112353122Y-77846079D01*
X112025350Y-77981847D01*
X111726905Y-78041211D01*
X111677390Y-78051060D01*
X111322610Y-78051060D01*
X111273095Y-78041211D01*
X110974650Y-77981847D01*
X110646878Y-77846079D01*
X110351891Y-77648975D01*
X110101025Y-77398109D01*
X109903921Y-77103122D01*
X109768153Y-76775350D01*
X109698940Y-76427389D01*
X109698940Y-76072611D01*
X109768153Y-75724650D01*
X109903921Y-75396878D01*
X110101025Y-75101891D01*
X110351891Y-74851025D01*
X110646878Y-74653921D01*
X110974650Y-74518153D01*
X111273095Y-74458789D01*
X111322610Y-74448940D01*
X111677390Y-74448940D01*
X111726905Y-74458789D01*
X111726905Y-74458789D01*
G37*
G36*
X100221060Y-78051060D02*
G01*
X96618940Y-78051060D01*
X96618940Y-74448940D01*
X100221060Y-74448940D01*
X100221060Y-78051060D01*
X100221060Y-78051060D01*
G37*
G36*
X103726905Y-74458789D02*
G01*
X104025350Y-74518153D01*
X104353122Y-74653921D01*
X104648109Y-74851025D01*
X104898975Y-75101891D01*
X105096079Y-75396878D01*
X105231847Y-75724650D01*
X105301060Y-76072611D01*
X105301060Y-76427389D01*
X105231847Y-76775350D01*
X105096079Y-77103122D01*
X104898975Y-77398109D01*
X104648109Y-77648975D01*
X104353122Y-77846079D01*
X104025350Y-77981847D01*
X103726905Y-78041211D01*
X103677390Y-78051060D01*
X103322610Y-78051060D01*
X103273095Y-78041211D01*
X102974650Y-77981847D01*
X102646878Y-77846079D01*
X102351891Y-77648975D01*
X102101025Y-77398109D01*
X101903921Y-77103122D01*
X101768153Y-76775350D01*
X101698940Y-76427389D01*
X101698940Y-76072611D01*
X101768153Y-75724650D01*
X101903921Y-75396878D01*
X102101025Y-75101891D01*
X102351891Y-74851025D01*
X102646878Y-74653921D01*
X102974650Y-74518153D01*
X103273095Y-74458789D01*
X103322610Y-74448940D01*
X103677390Y-74448940D01*
X103726905Y-74458789D01*
X103726905Y-74458789D01*
G37*
G36*
X124646905Y-74458789D02*
G01*
X124945350Y-74518153D01*
X125273122Y-74653921D01*
X125568109Y-74851025D01*
X125818975Y-75101891D01*
X126016079Y-75396878D01*
X126151847Y-75724650D01*
X126221060Y-76072611D01*
X126221060Y-76427389D01*
X126151847Y-76775350D01*
X126016079Y-77103122D01*
X125818975Y-77398109D01*
X125568109Y-77648975D01*
X125273122Y-77846079D01*
X124945350Y-77981847D01*
X124646905Y-78041211D01*
X124597390Y-78051060D01*
X124242610Y-78051060D01*
X124193095Y-78041211D01*
X123894650Y-77981847D01*
X123566878Y-77846079D01*
X123271891Y-77648975D01*
X123021025Y-77398109D01*
X122823921Y-77103122D01*
X122688153Y-76775350D01*
X122618940Y-76427389D01*
X122618940Y-76072611D01*
X122688153Y-75724650D01*
X122823921Y-75396878D01*
X123021025Y-75101891D01*
X123271891Y-74851025D01*
X123566878Y-74653921D01*
X123894650Y-74518153D01*
X124193095Y-74458789D01*
X124242610Y-74448940D01*
X124597390Y-74448940D01*
X124646905Y-74458789D01*
X124646905Y-74458789D01*
G37*
G36*
X131301060Y-78051060D02*
G01*
X127698940Y-78051060D01*
X127698940Y-74448940D01*
X131301060Y-74448940D01*
X131301060Y-78051060D01*
X131301060Y-78051060D01*
G37*
G36*
X139301060Y-78051060D02*
G01*
X135698940Y-78051060D01*
X135698940Y-74448940D01*
X139301060Y-74448940D01*
X139301060Y-78051060D01*
X139301060Y-78051060D01*
G37*
G36*
X142806905Y-74458789D02*
G01*
X143105350Y-74518153D01*
X143433122Y-74653921D01*
X143728109Y-74851025D01*
X143978975Y-75101891D01*
X144176079Y-75396878D01*
X144311847Y-75724650D01*
X144381060Y-76072611D01*
X144381060Y-76427389D01*
X144311847Y-76775350D01*
X144176079Y-77103122D01*
X143978975Y-77398109D01*
X143728109Y-77648975D01*
X143433122Y-77846079D01*
X143105350Y-77981847D01*
X142806905Y-78041211D01*
X142757390Y-78051060D01*
X142402610Y-78051060D01*
X142353095Y-78041211D01*
X142054650Y-77981847D01*
X141726878Y-77846079D01*
X141431891Y-77648975D01*
X141181025Y-77398109D01*
X140983921Y-77103122D01*
X140848153Y-76775350D01*
X140778940Y-76427389D01*
X140778940Y-76072611D01*
X140848153Y-75724650D01*
X140983921Y-75396878D01*
X141181025Y-75101891D01*
X141431891Y-74851025D01*
X141726878Y-74653921D01*
X142054650Y-74518153D01*
X142353095Y-74458789D01*
X142402610Y-74448940D01*
X142757390Y-74448940D01*
X142806905Y-74458789D01*
X142806905Y-74458789D01*
G37*
G36*
X118381060Y-78051060D02*
G01*
X114778940Y-78051060D01*
X114778940Y-74448940D01*
X118381060Y-74448940D01*
X118381060Y-78051060D01*
X118381060Y-78051060D01*
G37*
G36*
X181801000Y-61801000D02*
G01*
X178199000Y-61801000D01*
X178199000Y-58199000D01*
X181801000Y-58199000D01*
X181801000Y-61801000D01*
X181801000Y-61801000D01*
G37*
G36*
X176426366Y-55215695D02*
G01*
X176583460Y-55263349D01*
X176728231Y-55340731D01*
X176855128Y-55444872D01*
X176959269Y-55571769D01*
X177036651Y-55716540D01*
X177084305Y-55873634D01*
X177101000Y-56043140D01*
X177101000Y-57956860D01*
X177084305Y-58126366D01*
X177036651Y-58283460D01*
X176959269Y-58428231D01*
X176855128Y-58555128D01*
X176728231Y-58659269D01*
X176583460Y-58736651D01*
X176426366Y-58784305D01*
X176256860Y-58801000D01*
X174343140Y-58801000D01*
X174173634Y-58784305D01*
X174016540Y-58736651D01*
X173871769Y-58659269D01*
X173744872Y-58555128D01*
X173640731Y-58428231D01*
X173563349Y-58283460D01*
X173515695Y-58126366D01*
X173499000Y-57956860D01*
X173499000Y-56043140D01*
X173515695Y-55873634D01*
X173563349Y-55716540D01*
X173640731Y-55571769D01*
X173744872Y-55444872D01*
X173871769Y-55340731D01*
X174016540Y-55263349D01*
X174173634Y-55215695D01*
X174343140Y-55199000D01*
X176256860Y-55199000D01*
X176426366Y-55215695D01*
X176426366Y-55215695D01*
G37*
G36*
X181226979Y-52463293D02*
G01*
X181360625Y-52503834D01*
X181483784Y-52569664D01*
X181591740Y-52658260D01*
X181680336Y-52766216D01*
X181746166Y-52889375D01*
X181786707Y-53023021D01*
X181801000Y-53168140D01*
X181801000Y-54831860D01*
X181786707Y-54976979D01*
X181746166Y-55110625D01*
X181680336Y-55233784D01*
X181591740Y-55341740D01*
X181483784Y-55430336D01*
X181360625Y-55496166D01*
X181226979Y-55536707D01*
X181081860Y-55551000D01*
X178918140Y-55551000D01*
X178773021Y-55536707D01*
X178639375Y-55496166D01*
X178516216Y-55430336D01*
X178408260Y-55341740D01*
X178319664Y-55233784D01*
X178253834Y-55110625D01*
X178213293Y-54976979D01*
X178199000Y-54831860D01*
X178199000Y-53168140D01*
X178213293Y-53023021D01*
X178253834Y-52889375D01*
X178319664Y-52766216D01*
X178408260Y-52658260D01*
X178516216Y-52569664D01*
X178639375Y-52503834D01*
X178773021Y-52463293D01*
X178918140Y-52449000D01*
X181081860Y-52449000D01*
X181226979Y-52463293D01*
X181226979Y-52463293D01*
G37*
G36*
X205375256Y-48391298D02*
G01*
X205481579Y-48412447D01*
X205782042Y-48536903D01*
X206052451Y-48717585D01*
X206282415Y-48947549D01*
X206463097Y-49217958D01*
X206587553Y-49518421D01*
X206651000Y-49837391D01*
X206651000Y-50162609D01*
X206587553Y-50481579D01*
X206463097Y-50782042D01*
X206282415Y-51052451D01*
X206052451Y-51282415D01*
X205782042Y-51463097D01*
X205481579Y-51587553D01*
X205375256Y-51608702D01*
X205162611Y-51651000D01*
X204837389Y-51651000D01*
X204624744Y-51608702D01*
X204518421Y-51587553D01*
X204217958Y-51463097D01*
X203947549Y-51282415D01*
X203717585Y-51052451D01*
X203536903Y-50782042D01*
X203412447Y-50481579D01*
X203349000Y-50162609D01*
X203349000Y-49837391D01*
X203412447Y-49518421D01*
X203536903Y-49217958D01*
X203717585Y-48947549D01*
X203947549Y-48717585D01*
X204217958Y-48536903D01*
X204518421Y-48412447D01*
X204624744Y-48391298D01*
X204837389Y-48349000D01*
X205162611Y-48349000D01*
X205375256Y-48391298D01*
X205375256Y-48391298D01*
G37*
G36*
X83375256Y-48391298D02*
G01*
X83481579Y-48412447D01*
X83782042Y-48536903D01*
X84052451Y-48717585D01*
X84282415Y-48947549D01*
X84463097Y-49217958D01*
X84587553Y-49518421D01*
X84651000Y-49837391D01*
X84651000Y-50162609D01*
X84587553Y-50481579D01*
X84463097Y-50782042D01*
X84282415Y-51052451D01*
X84052451Y-51282415D01*
X83782042Y-51463097D01*
X83481579Y-51587553D01*
X83375256Y-51608702D01*
X83162611Y-51651000D01*
X82837389Y-51651000D01*
X82624744Y-51608702D01*
X82518421Y-51587553D01*
X82217958Y-51463097D01*
X81947549Y-51282415D01*
X81717585Y-51052451D01*
X81536903Y-50782042D01*
X81412447Y-50481579D01*
X81349000Y-50162609D01*
X81349000Y-49837391D01*
X81412447Y-49518421D01*
X81536903Y-49217958D01*
X81717585Y-48947549D01*
X81947549Y-48717585D01*
X82217958Y-48536903D01*
X82518421Y-48412447D01*
X82624744Y-48391298D01*
X82837389Y-48349000D01*
X83162611Y-48349000D01*
X83375256Y-48391298D01*
X83375256Y-48391298D01*
G37*
M02*
