G04 #@! TF.GenerationSoftware,KiCad,Pcbnew,(5.1.2)-1*
G04 #@! TF.CreationDate,2019-05-06T21:39:49-07:00*
G04 #@! TF.ProjectId,12v1a_psu,31327631-615f-4707-9375-2e6b69636164,rev?*
G04 #@! TF.SameCoordinates,Original*
G04 #@! TF.FileFunction,Legend,Bot*
G04 #@! TF.FilePolarity,Positive*
%FSLAX46Y46*%
G04 Gerber Fmt 4.6, Leading zero omitted, Abs format (unit mm)*
G04 Created by KiCad (PCBNEW (5.1.2)-1) date 2019-05-06 21:39:49*
%MOMM*%
%LPD*%
G04 APERTURE LIST*
%ADD10C,0.200000*%
G04 APERTURE END LIST*
D10*
X148272500Y-96858750D02*
X148167773Y-96955342D01*
X148167773Y-96955342D02*
X148058058Y-97051254D01*
X148058058Y-97051254D02*
X147949543Y-97143460D01*
X147949543Y-97143460D02*
X147931250Y-97158750D01*
X137446250Y-95133750D02*
X137313033Y-95216595D01*
X137313033Y-95216595D02*
X137185663Y-95295776D01*
X137185663Y-95295776D02*
X137060444Y-95372650D01*
X137060444Y-95372650D02*
X136933496Y-95446543D01*
X136933496Y-95446543D02*
X136795403Y-95508652D01*
X136795403Y-95508652D02*
X136607758Y-95524935D01*
X136607758Y-95524935D02*
X136542500Y-95523750D01*
X137795000Y-94946250D02*
X137656988Y-95008350D01*
X137656988Y-95008350D02*
X137528832Y-95082466D01*
X137528832Y-95082466D02*
X137446250Y-95133750D01*
X138413750Y-94665000D02*
X138281591Y-94734617D01*
X138281591Y-94734617D02*
X138145667Y-94801054D01*
X138145667Y-94801054D02*
X138006563Y-94865112D01*
X138006563Y-94865112D02*
X137864602Y-94924887D01*
X137864602Y-94924887D02*
X137795000Y-94946250D01*
X139606250Y-94155000D02*
X139513369Y-94046532D01*
X139513369Y-94046532D02*
X139417551Y-93939538D01*
X139417551Y-93939538D02*
X139319621Y-93833804D01*
X139319621Y-93833804D02*
X139220633Y-93730005D01*
X139220633Y-93730005D02*
X139120688Y-93628164D01*
X139120688Y-93628164D02*
X139018539Y-93527419D01*
X139018539Y-93527419D02*
X138914094Y-93428954D01*
X138914094Y-93428954D02*
X138806351Y-93336150D01*
X138806351Y-93336150D02*
X138740000Y-93296249D01*
X143045000Y-94998750D02*
X142872358Y-94970585D01*
X142872358Y-94970585D02*
X142685645Y-94956260D01*
X142685645Y-94956260D02*
X142489698Y-94949468D01*
X142489698Y-94949468D02*
X142288666Y-94949173D01*
X142288666Y-94949173D02*
X142094509Y-94955775D01*
X142094509Y-94955775D02*
X141909649Y-94972118D01*
X141909649Y-94972118D02*
X141811250Y-94991250D01*
X144241250Y-96652500D02*
X144174967Y-96514123D01*
X144174967Y-96514123D02*
X144106315Y-96381588D01*
X144106315Y-96381588D02*
X144034338Y-96252653D01*
X144034338Y-96252653D02*
X143982500Y-96168749D01*
X149832500Y-95426250D02*
X149729990Y-95526161D01*
X149729990Y-95526161D02*
X149623309Y-95622109D01*
X149623309Y-95622109D02*
X149513625Y-95714481D01*
X149513625Y-95714481D02*
X149431250Y-95778750D01*
X154501250Y-92295000D02*
X154367823Y-92363056D01*
X154367823Y-92363056D02*
X154234481Y-92431524D01*
X154234481Y-92431524D02*
X154097796Y-92502232D01*
X154097796Y-92502232D02*
X153965060Y-92571468D01*
X153965060Y-92571468D02*
X153829347Y-92642903D01*
X153829347Y-92642903D02*
X153697476Y-92713013D01*
X153697476Y-92713013D02*
X153562848Y-92785372D01*
X153562848Y-92785372D02*
X153431842Y-92856624D01*
X153431842Y-92856624D02*
X153298139Y-92930277D01*
X153298139Y-92930277D02*
X153167701Y-93003125D01*
X153167701Y-93003125D02*
X153034435Y-93078645D01*
X153034435Y-93078645D02*
X152903928Y-93153751D01*
X152903928Y-93153751D02*
X152764719Y-93235196D01*
X152764719Y-93235196D02*
X152638637Y-93310201D01*
X152638637Y-93310201D02*
X152508648Y-93388815D01*
X152508648Y-93388815D02*
X152379129Y-93468462D01*
X152379129Y-93468462D02*
X152250956Y-93548595D01*
X152250956Y-93548595D02*
X152123651Y-93629464D01*
X152123651Y-93629464D02*
X152000764Y-93708707D01*
X152000764Y-93708707D02*
X151877216Y-93789508D01*
X151877216Y-93789508D02*
X151756679Y-93869377D01*
X151756679Y-93869377D02*
X151636142Y-93950214D01*
X151636142Y-93950214D02*
X151515292Y-94032156D01*
X151515292Y-94032156D02*
X151456250Y-94072499D01*
X157343750Y-90678750D02*
X157287500Y-90671250D01*
X154347500Y-95441250D02*
X154405162Y-95298310D01*
X154405162Y-95298310D02*
X154474874Y-95167136D01*
X154474874Y-95167136D02*
X154556403Y-95047348D01*
X154556403Y-95047348D02*
X154647500Y-94953750D01*
X150871250Y-94462500D02*
X150757377Y-94553058D01*
X150757377Y-94553058D02*
X150649256Y-94648777D01*
X150649256Y-94648777D02*
X150542387Y-94745746D01*
X150542387Y-94745746D02*
X150433204Y-94846355D01*
X150433204Y-94846355D02*
X150328605Y-94943908D01*
X150328605Y-94943908D02*
X150223321Y-95043202D01*
X150223321Y-95043202D02*
X150120591Y-95141234D01*
X150120591Y-95141234D02*
X150015557Y-95242898D01*
X150015557Y-95242898D02*
X149914582Y-95342611D01*
X149914582Y-95342611D02*
X149832500Y-95426250D01*
X153766250Y-96258750D02*
X153840219Y-96132093D01*
X153840219Y-96132093D02*
X153920601Y-96010967D01*
X153920601Y-96010967D02*
X154011498Y-95892653D01*
X154011498Y-95892653D02*
X154105469Y-95784779D01*
X154105469Y-95784779D02*
X154167500Y-95718749D01*
X147931250Y-97158750D02*
X147820702Y-97251620D01*
X147820702Y-97251620D02*
X147712568Y-97344100D01*
X147712568Y-97344100D02*
X147605383Y-97439652D01*
X147605383Y-97439652D02*
X147500859Y-97536246D01*
X147500859Y-97536246D02*
X147390781Y-97639439D01*
X147390781Y-97639439D02*
X147286311Y-97737733D01*
X147286311Y-97737733D02*
X147260000Y-97762500D01*
X145163750Y-99461249D02*
X145175000Y-99472500D01*
X145118750Y-99446250D02*
X145163750Y-99461249D01*
X145186250Y-99423749D02*
X145118750Y-99446250D01*
X147260000Y-97762500D02*
X147153547Y-97859564D01*
X147153547Y-97859564D02*
X147044258Y-97952212D01*
X147044258Y-97952212D02*
X146930454Y-98040931D01*
X146930454Y-98040931D02*
X146847500Y-98096250D01*
X157718750Y-91987500D02*
X157815699Y-91882549D01*
X157815699Y-91882549D02*
X157910379Y-91775611D01*
X157910379Y-91775611D02*
X158002673Y-91666810D01*
X158002673Y-91666810D02*
X158092391Y-91554551D01*
X158092391Y-91554551D02*
X158138750Y-91488750D01*
X157006250Y-93030000D02*
X157064396Y-92887207D01*
X157064396Y-92887207D02*
X157131598Y-92752005D01*
X157131598Y-92752005D02*
X157205719Y-92625227D01*
X157205719Y-92625227D02*
X157286675Y-92503623D01*
X157286675Y-92503623D02*
X157371661Y-92388454D01*
X157371661Y-92388454D02*
X157460903Y-92276956D01*
X157460903Y-92276956D02*
X157553442Y-92168573D01*
X157553442Y-92168573D02*
X157649479Y-92061778D01*
X157649479Y-92061778D02*
X157718750Y-91987500D01*
X156402500Y-93952500D02*
X156507128Y-93856784D01*
X156507128Y-93856784D02*
X156602341Y-93750625D01*
X156602341Y-93750625D02*
X156684755Y-93632941D01*
X156684755Y-93632941D02*
X156754742Y-93501633D01*
X156754742Y-93501633D02*
X156766250Y-93476250D01*
X154647500Y-94953750D02*
X154766435Y-94870744D01*
X154766435Y-94870744D02*
X154889764Y-94792497D01*
X154889764Y-94792497D02*
X155015653Y-94716944D01*
X155015653Y-94716944D02*
X155146362Y-94641865D01*
X155146362Y-94641865D02*
X155277478Y-94569646D01*
X155277478Y-94569646D02*
X155410429Y-94499901D01*
X155410429Y-94499901D02*
X155546370Y-94433845D01*
X155546370Y-94433845D02*
X155686250Y-94383750D01*
X156766250Y-93476250D02*
X156833750Y-93342965D01*
X156833750Y-93342965D02*
X156882500Y-93277499D01*
X144976250Y-99554999D02*
X144798572Y-99577573D01*
X144798572Y-99577573D02*
X144758750Y-99554999D01*
X157287500Y-90671250D02*
X157111250Y-90663750D01*
X157823750Y-90761250D02*
X157686779Y-90697041D01*
X157686779Y-90697041D02*
X157532969Y-90650605D01*
X157532969Y-90650605D02*
X157346849Y-90664850D01*
X157346849Y-90664850D02*
X157343750Y-90678750D01*
X145568750Y-99217499D02*
X145448977Y-99299681D01*
X145448977Y-99299681D02*
X145324074Y-99376448D01*
X145324074Y-99376448D02*
X145186250Y-99423749D01*
X157111250Y-90663750D02*
X156947737Y-90702863D01*
X156947737Y-90702863D02*
X156803750Y-90727500D01*
X139936250Y-94327500D02*
X139764027Y-94299063D01*
X139764027Y-94299063D02*
X139652491Y-94209592D01*
X139652491Y-94209592D02*
X139606250Y-94155000D01*
X143982500Y-96168749D02*
X143912283Y-96037348D01*
X143912283Y-96037348D02*
X143854779Y-95893409D01*
X143854779Y-95893409D02*
X143817500Y-95756249D01*
X141811250Y-94991250D02*
X141630244Y-95011036D01*
X141630244Y-95011036D02*
X141456318Y-94984375D01*
X141456318Y-94984375D02*
X141302516Y-94936543D01*
X141302516Y-94936543D02*
X141160302Y-94877222D01*
X141160302Y-94877222D02*
X141024964Y-94809916D01*
X141024964Y-94809916D02*
X140896143Y-94737556D01*
X140896143Y-94737556D02*
X140771099Y-94660590D01*
X140771099Y-94660590D02*
X140697500Y-94612500D01*
X146847500Y-98096250D02*
X146730005Y-98179093D01*
X146730005Y-98179093D02*
X146621278Y-98271802D01*
X146621278Y-98271802D02*
X146516504Y-98368558D01*
X146516504Y-98368558D02*
X146415402Y-98468281D01*
X146415402Y-98468281D02*
X146412500Y-98471250D01*
X143813750Y-99562500D02*
X143781484Y-99394475D01*
X143781484Y-99394475D02*
X143800518Y-99212984D01*
X143800518Y-99212984D02*
X143829827Y-99039355D01*
X143829827Y-99039355D02*
X143864901Y-98872485D01*
X143864901Y-98872485D02*
X143905123Y-98709367D01*
X143905123Y-98709367D02*
X143949751Y-98552818D01*
X143949751Y-98552818D02*
X144001017Y-98399012D01*
X144001017Y-98399012D02*
X144050000Y-98276250D01*
X145175000Y-99472500D02*
X145037141Y-99535421D01*
X145037141Y-99535421D02*
X144976250Y-99554999D01*
X153481250Y-96652500D02*
X153563615Y-96533051D01*
X153563615Y-96533051D02*
X153578750Y-96517500D01*
X151456250Y-94072499D02*
X151335819Y-94155054D01*
X151335819Y-94155054D02*
X151213448Y-94238401D01*
X151213448Y-94238401D02*
X151093007Y-94319712D01*
X151093007Y-94319712D02*
X150972262Y-94399948D01*
X150972262Y-94399948D02*
X150871250Y-94462500D01*
X156125000Y-90960000D02*
X156004630Y-91041128D01*
X156004630Y-91041128D02*
X155893947Y-91131227D01*
X155893947Y-91131227D02*
X155786726Y-91224799D01*
X155786726Y-91224799D02*
X155680676Y-91320565D01*
X155680676Y-91320565D02*
X155576065Y-91416884D01*
X155576065Y-91416884D02*
X155469161Y-91516535D01*
X155469161Y-91516535D02*
X155375000Y-91605000D01*
X156882500Y-93277499D02*
X156956014Y-93148502D01*
X156956014Y-93148502D02*
X157006250Y-93030000D01*
X156803750Y-90727500D02*
X156635531Y-90761888D01*
X156635531Y-90761888D02*
X156480749Y-90808175D01*
X156480749Y-90808175D02*
X156332718Y-90862872D01*
X156332718Y-90862872D02*
X156192980Y-90924863D01*
X156192980Y-90924863D02*
X156125000Y-90960000D01*
X154167500Y-95718749D02*
X154258501Y-95603473D01*
X154258501Y-95603473D02*
X154333045Y-95477633D01*
X154333045Y-95477633D02*
X154347500Y-95441250D01*
X155375000Y-91605000D02*
X155270989Y-91703267D01*
X155270989Y-91703267D02*
X155167365Y-91799695D01*
X155167365Y-91799695D02*
X155061095Y-91896130D01*
X155061095Y-91896130D02*
X154953038Y-91990134D01*
X154953038Y-91990134D02*
X154841583Y-92080489D01*
X154841583Y-92080489D02*
X154723056Y-92166180D01*
X154723056Y-92166180D02*
X154598153Y-92243205D01*
X154598153Y-92243205D02*
X154501250Y-92295000D01*
X158138750Y-91488750D02*
X158192787Y-91342634D01*
X158192787Y-91342634D02*
X158187025Y-91148021D01*
X158187025Y-91148021D02*
X158121976Y-91012828D01*
X158121976Y-91012828D02*
X158028224Y-90906463D01*
X158028224Y-90906463D02*
X157914201Y-90816982D01*
X157914201Y-90816982D02*
X157823750Y-90761250D01*
X138481250Y-94211250D02*
X138479601Y-94411963D01*
X138479601Y-94411963D02*
X138463381Y-94596169D01*
X138463381Y-94596169D02*
X138413750Y-94665000D01*
X144050000Y-98276250D02*
X144111309Y-98133802D01*
X144111309Y-98133802D02*
X144169752Y-97989498D01*
X144169752Y-97989498D02*
X144224362Y-97843705D01*
X144224362Y-97843705D02*
X144274841Y-97693925D01*
X144274841Y-97693925D02*
X144319950Y-97537291D01*
X144319950Y-97537291D02*
X144356151Y-97372138D01*
X144356151Y-97372138D02*
X144375930Y-97191398D01*
X144375930Y-97191398D02*
X144376250Y-97177500D01*
X144706250Y-99554999D02*
X144535488Y-99584284D01*
X144535488Y-99584284D02*
X144335598Y-99584651D01*
X144335598Y-99584651D02*
X144137997Y-99578776D01*
X144137997Y-99578776D02*
X143944328Y-99569804D01*
X143944328Y-99569804D02*
X143813750Y-99562500D01*
X149431250Y-95778750D02*
X149320733Y-95869539D01*
X149320733Y-95869539D02*
X149212326Y-95964889D01*
X149212326Y-95964889D02*
X149106394Y-96061563D01*
X149106394Y-96061563D02*
X148998707Y-96161938D01*
X148998707Y-96161938D02*
X148891847Y-96262844D01*
X148891847Y-96262844D02*
X148784315Y-96365265D01*
X148784315Y-96365265D02*
X148676565Y-96468499D01*
X148676565Y-96468499D02*
X148564482Y-96576351D01*
X148564482Y-96576351D02*
X148457007Y-96680097D01*
X148457007Y-96680097D02*
X148353122Y-96780614D01*
X148353122Y-96780614D02*
X148272500Y-96858750D01*
X155686250Y-94383750D02*
X155822510Y-94317848D01*
X155822510Y-94317848D02*
X155949940Y-94244523D01*
X155949940Y-94244523D02*
X156077116Y-94167983D01*
X156077116Y-94167983D02*
X156200805Y-94090738D01*
X156200805Y-94090738D02*
X156322077Y-94011167D01*
X156322077Y-94011167D02*
X156402500Y-93952500D01*
X153083750Y-97143750D02*
X153178848Y-97035887D01*
X153178848Y-97035887D02*
X153273373Y-96925841D01*
X153273373Y-96925841D02*
X153364906Y-96815518D01*
X153364906Y-96815518D02*
X153452287Y-96702464D01*
X153452287Y-96702464D02*
X153481250Y-96652500D01*
X135875000Y-95265000D02*
X135766728Y-95173045D01*
X135766728Y-95173045D02*
X135656403Y-95082677D01*
X135656403Y-95082677D02*
X135542354Y-94991268D01*
X135542354Y-94991268D02*
X135428652Y-94901617D01*
X135428652Y-94901617D02*
X135313744Y-94812281D01*
X135313744Y-94812281D02*
X135199134Y-94724369D01*
X135199134Y-94724369D02*
X135081879Y-94635708D01*
X135081879Y-94635708D02*
X134965277Y-94549009D01*
X134965277Y-94549009D02*
X134847343Y-94463242D01*
X134847343Y-94463242D02*
X134729505Y-94380515D01*
X134729505Y-94380515D02*
X134637500Y-94320000D01*
X146412500Y-98471250D02*
X146312513Y-98572705D01*
X146312513Y-98572705D02*
X146211871Y-98674028D01*
X146211871Y-98674028D02*
X146109260Y-98775459D01*
X146109260Y-98775459D02*
X146005729Y-98873811D01*
X146005729Y-98873811D02*
X145898801Y-98968108D01*
X145898801Y-98968108D02*
X145786907Y-99057590D01*
X145786907Y-99057590D02*
X145670655Y-99143988D01*
X145670655Y-99143988D02*
X145568750Y-99217499D01*
X136542500Y-95523750D02*
X136351998Y-95511654D01*
X136351998Y-95511654D02*
X136190476Y-95473132D01*
X136190476Y-95473132D02*
X136056284Y-95406536D01*
X136056284Y-95406536D02*
X135940530Y-95321653D01*
X135940530Y-95321653D02*
X135875000Y-95265000D01*
X138740000Y-93296249D02*
X138621277Y-93377641D01*
X138621277Y-93377641D02*
X138559810Y-93516564D01*
X138559810Y-93516564D02*
X138520980Y-93679581D01*
X138520980Y-93679581D02*
X138497057Y-93856730D01*
X138497057Y-93856730D02*
X138484423Y-94045163D01*
X138484423Y-94045163D02*
X138481250Y-94211250D01*
X143817500Y-95756249D02*
X143770765Y-95601520D01*
X143770765Y-95601520D02*
X143702922Y-95466881D01*
X143702922Y-95466881D02*
X143618176Y-95349763D01*
X143618176Y-95349763D02*
X143517713Y-95247164D01*
X143517713Y-95247164D02*
X143404323Y-95159749D01*
X143404323Y-95159749D02*
X143276728Y-95085886D01*
X143276728Y-95085886D02*
X143134973Y-95026424D01*
X143134973Y-95026424D02*
X143045000Y-94998750D01*
X140697500Y-94612500D02*
X140573687Y-94534826D01*
X140573687Y-94534826D02*
X140442692Y-94465264D01*
X140442692Y-94465264D02*
X140301533Y-94405797D01*
X140301533Y-94405797D02*
X140147350Y-94359685D01*
X140147350Y-94359685D02*
X139974772Y-94330830D01*
X139974772Y-94330830D02*
X139936250Y-94327500D01*
X144376250Y-97177500D02*
X144364523Y-96988393D01*
X144364523Y-96988393D02*
X144319588Y-96832897D01*
X144319588Y-96832897D02*
X144258866Y-96690406D01*
X144258866Y-96690406D02*
X144241250Y-96652500D01*
X144758750Y-99554999D02*
X144706250Y-99554999D01*
X153578750Y-96517500D02*
X153671898Y-96407737D01*
X153671898Y-96407737D02*
X153751283Y-96286202D01*
X153751283Y-96286202D02*
X153766250Y-96258750D01*
X148962500Y-102195000D02*
X149060291Y-102090810D01*
X149060291Y-102090810D02*
X149131250Y-102000000D01*
X155318750Y-116392500D02*
X155505162Y-116378261D01*
X155505162Y-116378261D02*
X155688201Y-116397045D01*
X155688201Y-116397045D02*
X155727500Y-116403750D01*
X146922500Y-105581250D02*
X146959123Y-105416232D01*
X146959123Y-105416232D02*
X147003711Y-105259277D01*
X147003711Y-105259277D02*
X147052588Y-105106091D01*
X147052588Y-105106091D02*
X147104912Y-104957383D01*
X147104912Y-104957383D02*
X147110000Y-104943750D01*
X156541250Y-116212500D02*
X156635678Y-116106364D01*
X156635678Y-116106364D02*
X156716028Y-115986137D01*
X156716028Y-115986137D02*
X156781777Y-115850463D01*
X156781777Y-115850463D02*
X156832441Y-115697888D01*
X156832441Y-115697888D02*
X156867098Y-115530153D01*
X156867098Y-115530153D02*
X156886250Y-115346250D01*
X146873750Y-111288750D02*
X146814346Y-111147067D01*
X146814346Y-111147067D02*
X146787138Y-110973949D01*
X146787138Y-110973949D02*
X146776649Y-110783956D01*
X146776649Y-110783956D02*
X146775490Y-110584523D01*
X146775490Y-110584523D02*
X146779671Y-110388061D01*
X146779671Y-110388061D02*
X146786912Y-110194727D01*
X146786912Y-110194727D02*
X146796064Y-110003849D01*
X146796064Y-110003849D02*
X146806736Y-109810493D01*
X146806736Y-109810493D02*
X146810000Y-109755000D01*
X156410000Y-113748750D02*
X156387500Y-113651250D01*
X145216250Y-119752500D02*
X145203203Y-119562628D01*
X145203203Y-119562628D02*
X145194209Y-119369632D01*
X145194209Y-119369632D02*
X145187867Y-119174585D01*
X145187867Y-119174585D02*
X145183516Y-118978483D01*
X145183516Y-118978483D02*
X145180725Y-118776462D01*
X145180725Y-118776462D02*
X145179384Y-118571670D01*
X145179384Y-118571670D02*
X145179396Y-118365099D01*
X145179396Y-118365099D02*
X145180664Y-118163056D01*
X145180664Y-118163056D02*
X145183118Y-117964180D01*
X145183118Y-117964180D02*
X145186906Y-117760805D01*
X145186906Y-117760805D02*
X145191980Y-117562139D01*
X145191980Y-117562139D02*
X145198461Y-117367762D01*
X145198461Y-117367762D02*
X145206708Y-117175381D01*
X145206708Y-117175381D02*
X145217425Y-116983115D01*
X145217425Y-116983115D02*
X145231721Y-116794763D01*
X145231721Y-116794763D02*
X145252970Y-116614752D01*
X145252970Y-116614752D02*
X145253750Y-116610000D01*
X151737500Y-112087500D02*
X151588322Y-112036393D01*
X151588322Y-112036393D02*
X151431497Y-111991378D01*
X151431497Y-111991378D02*
X151267100Y-111951945D01*
X151267100Y-111951945D02*
X151099364Y-111918261D01*
X151099364Y-111918261D02*
X150927676Y-111889265D01*
X150927676Y-111889265D02*
X150752552Y-111864271D01*
X150752552Y-111864271D02*
X150571506Y-111842356D01*
X150571506Y-111842356D02*
X150389298Y-111823568D01*
X150389298Y-111823568D02*
X150201518Y-111807013D01*
X150201518Y-111807013D02*
X150013855Y-111792813D01*
X150013855Y-111792813D02*
X149822577Y-111780342D01*
X149822577Y-111780342D02*
X149627972Y-111769391D01*
X149627972Y-111769391D02*
X149435666Y-111760014D01*
X149435666Y-111760014D02*
X149240416Y-111751743D01*
X149240416Y-111751743D02*
X149046388Y-111744587D01*
X149046388Y-111744587D02*
X148850998Y-111738301D01*
X148850998Y-111738301D02*
X148654922Y-111732793D01*
X148654922Y-111732793D02*
X148453526Y-111727862D01*
X148453526Y-111727862D02*
X148437500Y-111727500D01*
X154073750Y-112466250D02*
X153918367Y-112421408D01*
X153918367Y-112421408D02*
X153743278Y-112395695D01*
X153743278Y-112395695D02*
X153555878Y-112381511D01*
X153555878Y-112381511D02*
X153363696Y-112372848D01*
X153363696Y-112372848D02*
X153237500Y-112368750D01*
X154932500Y-116715000D02*
X155083667Y-116664582D01*
X155083667Y-116664582D02*
X155196132Y-116576958D01*
X155196132Y-116576958D02*
X155228750Y-116523750D01*
X154268750Y-112575000D02*
X154145236Y-112496505D01*
X154145236Y-112496505D02*
X154073750Y-112466250D01*
X156432500Y-113763750D02*
X156410000Y-113748750D01*
X154058750Y-116643750D02*
X154210591Y-116693213D01*
X154210591Y-116693213D02*
X154381568Y-116726394D01*
X154381568Y-116726394D02*
X154403750Y-116730000D01*
X154403750Y-116730000D02*
X154580445Y-116753962D01*
X154580445Y-116753962D02*
X154778012Y-116751307D01*
X154778012Y-116751307D02*
X154932500Y-116715000D01*
X154850000Y-112796250D02*
X154689291Y-112755544D01*
X154689291Y-112755544D02*
X154542404Y-112701501D01*
X154542404Y-112701501D02*
X154512500Y-112687500D01*
X155727500Y-116403750D02*
X155910675Y-116421836D01*
X155910675Y-116421836D02*
X156100201Y-116411046D01*
X156100201Y-116411046D02*
X156263855Y-116374102D01*
X156263855Y-116374102D02*
X156405336Y-116313965D01*
X156405336Y-116313965D02*
X156523148Y-116230084D01*
X156523148Y-116230084D02*
X156541250Y-116212500D01*
X153781250Y-116441250D02*
X153818750Y-116471250D01*
X146618750Y-115601250D02*
X146763302Y-115545612D01*
X146763302Y-115545612D02*
X146919815Y-115500990D01*
X146919815Y-115500990D02*
X147081069Y-115462065D01*
X147081069Y-115462065D02*
X147247279Y-115426776D01*
X147247279Y-115426776D02*
X147418356Y-115394507D01*
X147418356Y-115394507D02*
X147589791Y-115365924D01*
X147589791Y-115365924D02*
X147766783Y-115340451D01*
X147766783Y-115340451D02*
X147946820Y-115319363D01*
X147946820Y-115319363D02*
X148066250Y-115308750D01*
X153695000Y-116366250D02*
X153781250Y-116441250D01*
X146262500Y-115781250D02*
X146401380Y-115710894D01*
X146401380Y-115710894D02*
X146537483Y-115642747D01*
X146537483Y-115642747D02*
X146618750Y-115601250D01*
X156886250Y-115346250D02*
X156902809Y-115159455D01*
X156902809Y-115159455D02*
X156933446Y-114989744D01*
X156933446Y-114989744D02*
X156953750Y-114926250D01*
X154512500Y-112687500D02*
X154375640Y-112623809D01*
X154375640Y-112623809D02*
X154317500Y-112608750D01*
X147462500Y-103953750D02*
X147518722Y-103808510D01*
X147518722Y-103808510D02*
X147590061Y-103679321D01*
X147590061Y-103679321D02*
X147670671Y-103559114D01*
X147670671Y-103559114D02*
X147757012Y-103444971D01*
X147757012Y-103444971D02*
X147847352Y-103334802D01*
X147847352Y-103334802D02*
X147941781Y-103226062D01*
X147941781Y-103226062D02*
X148038279Y-103119557D01*
X148038279Y-103119557D02*
X148135155Y-103016000D01*
X148135155Y-103016000D02*
X148234102Y-102912824D01*
X148234102Y-102912824D02*
X148335919Y-102808754D01*
X148335919Y-102808754D02*
X148436185Y-102707892D01*
X148436185Y-102707892D02*
X148537014Y-102607768D01*
X148537014Y-102607768D02*
X148642724Y-102503937D01*
X148642724Y-102503937D02*
X148744957Y-102404424D01*
X148744957Y-102404424D02*
X148846726Y-102306103D01*
X148846726Y-102306103D02*
X148953385Y-102203718D01*
X148953385Y-102203718D02*
X148962500Y-102195000D01*
X147110000Y-104943750D02*
X147168360Y-104793616D01*
X147168360Y-104793616D02*
X147225803Y-104645019D01*
X147225803Y-104645019D02*
X147282477Y-104496390D01*
X147282477Y-104496390D02*
X147336782Y-104349620D01*
X147336782Y-104349620D02*
X147389331Y-104198212D01*
X147389331Y-104198212D02*
X147436867Y-104045119D01*
X147436867Y-104045119D02*
X147462500Y-103953750D01*
X146825000Y-106139999D02*
X146856791Y-105963649D01*
X146856791Y-105963649D02*
X146887259Y-105791036D01*
X146887259Y-105791036D02*
X146916527Y-105618402D01*
X146916527Y-105618402D02*
X146922500Y-105581250D01*
X154317500Y-112608750D02*
X154268750Y-112575000D01*
X146787500Y-108423750D02*
X146769615Y-108240967D01*
X146769615Y-108240967D02*
X146756113Y-108049375D01*
X146756113Y-108049375D02*
X146746839Y-107857909D01*
X146746839Y-107857909D02*
X146741059Y-107663090D01*
X146741059Y-107663090D02*
X146738582Y-107464093D01*
X146738582Y-107464093D02*
X146739414Y-107263684D01*
X146739414Y-107263684D02*
X146743546Y-107065350D01*
X146743546Y-107065350D02*
X146750925Y-106872590D01*
X146750925Y-106872590D02*
X146761987Y-106681089D01*
X146761987Y-106681089D02*
X146777213Y-106493815D01*
X146777213Y-106493815D02*
X146797388Y-106313906D01*
X146797388Y-106313906D02*
X146824820Y-106140924D01*
X146824820Y-106140924D02*
X146825000Y-106139999D01*
X146810000Y-109755000D02*
X146820756Y-109561984D01*
X146820756Y-109561984D02*
X146829839Y-109370579D01*
X146829839Y-109370579D02*
X146835406Y-109171793D01*
X146835406Y-109171793D02*
X146833609Y-108973102D01*
X146833609Y-108973102D02*
X146823118Y-108783168D01*
X146823118Y-108783168D02*
X146806561Y-108599559D01*
X146806561Y-108599559D02*
X146787500Y-108423750D01*
X155356250Y-112890000D02*
X155185614Y-112857907D01*
X155185614Y-112857907D02*
X155016273Y-112826730D01*
X155016273Y-112826730D02*
X154850000Y-112796250D01*
X148696250Y-115233750D02*
X148877045Y-115213338D01*
X148877045Y-115213338D02*
X149071775Y-115203228D01*
X149071775Y-115203228D02*
X149267320Y-115197245D01*
X149267320Y-115197245D02*
X149466445Y-115193806D01*
X149466445Y-115193806D02*
X149681081Y-115192457D01*
X149681081Y-115192457D02*
X149881071Y-115193244D01*
X149881071Y-115193244D02*
X150080973Y-115196173D01*
X150080973Y-115196173D02*
X150277923Y-115201720D01*
X150277923Y-115201720D02*
X150471008Y-115211273D01*
X150471008Y-115211273D02*
X150650000Y-115230000D01*
X156387500Y-113651250D02*
X156363851Y-113474773D01*
X156363851Y-113474773D02*
X156275561Y-113360531D01*
X156275561Y-113360531D02*
X156267500Y-113351250D01*
X150650000Y-115230000D02*
X150828121Y-115255646D01*
X150828121Y-115255646D02*
X151009884Y-115276243D01*
X151009884Y-115276243D02*
X151192648Y-115293861D01*
X151192648Y-115293861D02*
X151328750Y-115305000D01*
X145253750Y-122808750D02*
X145261050Y-122615199D01*
X145261050Y-122615199D02*
X145265575Y-122417239D01*
X145265575Y-122417239D02*
X145268714Y-122214195D01*
X145268714Y-122214195D02*
X145270832Y-122012632D01*
X145270832Y-122012632D02*
X145272189Y-121809942D01*
X145272189Y-121809942D02*
X145272884Y-121603197D01*
X145272884Y-121603197D02*
X145272932Y-121400560D01*
X145272932Y-121400560D02*
X145272335Y-121195367D01*
X145272335Y-121195367D02*
X145271069Y-120995703D01*
X145271069Y-120995703D02*
X145268999Y-120795721D01*
X145268999Y-120795721D02*
X145265860Y-120595550D01*
X145265860Y-120595550D02*
X145261173Y-120399934D01*
X145261173Y-120399934D02*
X145252967Y-120205719D01*
X145252967Y-120205719D02*
X145250000Y-120165000D01*
X144387500Y-125688750D02*
X144460703Y-125557771D01*
X144460703Y-125557771D02*
X144540273Y-125436517D01*
X144540273Y-125436517D02*
X144548750Y-125426250D01*
X145253750Y-116610000D02*
X145314575Y-116470323D01*
X145314575Y-116470323D02*
X145400906Y-116354863D01*
X145400906Y-116354863D02*
X145498528Y-116250232D01*
X145498528Y-116250232D02*
X145604829Y-116153790D01*
X145604829Y-116153790D02*
X145719401Y-116065867D01*
X145719401Y-116065867D02*
X145843237Y-115989334D01*
X145843237Y-115989334D02*
X145868750Y-115976250D01*
X156935000Y-114345000D02*
X156842708Y-114236751D01*
X156842708Y-114236751D02*
X156738923Y-114139706D01*
X156738923Y-114139706D02*
X156653750Y-114071250D01*
X156953750Y-114926250D02*
X156997950Y-114770083D01*
X156997950Y-114770083D02*
X157000964Y-114572912D01*
X157000964Y-114572912D02*
X156964995Y-114408329D01*
X156964995Y-114408329D02*
X156935000Y-114345000D01*
X153256250Y-116040000D02*
X153370875Y-116131027D01*
X153370875Y-116131027D02*
X153484191Y-116218077D01*
X153484191Y-116218077D02*
X153599710Y-116303191D01*
X153599710Y-116303191D02*
X153695000Y-116366250D01*
X151328750Y-115305000D02*
X151517599Y-115321810D01*
X151517599Y-115321810D02*
X151696002Y-115344824D01*
X151696002Y-115344824D02*
X151865240Y-115376979D01*
X151865240Y-115376979D02*
X152025552Y-115418549D01*
X152025552Y-115418549D02*
X152153750Y-115458750D01*
X156267500Y-113351250D02*
X156168928Y-113249399D01*
X156168928Y-113249399D02*
X156056219Y-113160538D01*
X156056219Y-113160538D02*
X155931629Y-113083808D01*
X155931629Y-113083808D02*
X155795766Y-113018087D01*
X155795766Y-113018087D02*
X155650445Y-112963391D01*
X155650445Y-112963391D02*
X155494673Y-112919022D01*
X155494673Y-112919022D02*
X155356250Y-112890000D01*
X152153750Y-115458750D02*
X152305073Y-115508581D01*
X152305073Y-115508581D02*
X152453253Y-115560844D01*
X152453253Y-115560844D02*
X152599260Y-115618574D01*
X152599260Y-115618574D02*
X152735962Y-115682098D01*
X152735962Y-115682098D02*
X152867064Y-115755309D01*
X152867064Y-115755309D02*
X152988387Y-115834945D01*
X152988387Y-115834945D02*
X153105203Y-115920708D01*
X153105203Y-115920708D02*
X153218884Y-116009895D01*
X153218884Y-116009895D02*
X153256250Y-116040000D01*
X144860000Y-124608750D02*
X144904970Y-124448621D01*
X144904970Y-124448621D02*
X144950703Y-124289225D01*
X144950703Y-124289225D02*
X144997049Y-124132625D01*
X144997049Y-124132625D02*
X145006250Y-124102500D01*
X147575000Y-111686250D02*
X147428968Y-111631759D01*
X147428968Y-111631759D02*
X147290937Y-111567489D01*
X147290937Y-111567489D02*
X147160324Y-111497508D01*
X147160324Y-111497508D02*
X147036160Y-111421654D01*
X147036160Y-111421654D02*
X146920422Y-111336319D01*
X146920422Y-111336319D02*
X146873750Y-111288750D01*
X145006250Y-124102500D02*
X145052462Y-123947915D01*
X145052462Y-123947915D02*
X145097265Y-123789807D01*
X145097265Y-123789807D02*
X145139057Y-123628597D01*
X145139057Y-123628597D02*
X145176054Y-123463646D01*
X145176054Y-123463646D02*
X145206476Y-123293902D01*
X145206476Y-123293902D02*
X145230154Y-123111560D01*
X145230154Y-123111560D02*
X145246325Y-122926550D01*
X145246325Y-122926550D02*
X145253750Y-122808750D01*
X156653750Y-114071250D02*
X156542793Y-113981403D01*
X156542793Y-113981403D02*
X156445118Y-113878365D01*
X156445118Y-113878365D02*
X156432500Y-113763750D01*
X145868750Y-115976250D02*
X146005109Y-115910010D01*
X146005109Y-115910010D02*
X146143608Y-115841469D01*
X146143608Y-115841469D02*
X146262500Y-115781250D01*
X145250000Y-120165000D02*
X145234602Y-119971877D01*
X145234602Y-119971877D02*
X145219175Y-119785580D01*
X145219175Y-119785580D02*
X145216250Y-119752500D01*
X155228750Y-116523750D02*
X155307278Y-116402249D01*
X155307278Y-116402249D02*
X155318750Y-116392500D01*
X144548750Y-125426250D02*
X144618519Y-125295380D01*
X144618519Y-125295380D02*
X144677824Y-125152921D01*
X144677824Y-125152921D02*
X144733189Y-125004870D01*
X144733189Y-125004870D02*
X144784774Y-124854612D01*
X144784774Y-124854612D02*
X144832821Y-124702112D01*
X144832821Y-124702112D02*
X144860000Y-124608750D01*
X152273750Y-98145000D02*
X152355632Y-98025384D01*
X152355632Y-98025384D02*
X152440304Y-97909226D01*
X152440304Y-97909226D02*
X152528162Y-97795019D01*
X152528162Y-97795019D02*
X152619501Y-97681354D01*
X152619501Y-97681354D02*
X152713224Y-97568597D01*
X152713224Y-97568597D02*
X152806516Y-97459153D01*
X152806516Y-97459153D02*
X152900646Y-97350746D01*
X152900646Y-97350746D02*
X152994332Y-97244322D01*
X152994332Y-97244322D02*
X153083750Y-97143750D01*
X150713750Y-100016250D02*
X150803926Y-99906311D01*
X150803926Y-99906311D02*
X150896429Y-99797696D01*
X150896429Y-99797696D02*
X150991920Y-99687357D01*
X150991920Y-99687357D02*
X151087827Y-99577719D01*
X151087827Y-99577719D02*
X151182624Y-99470284D01*
X151182624Y-99470284D02*
X151278153Y-99362871D01*
X151278153Y-99362871D02*
X151375363Y-99254445D01*
X151375363Y-99254445D02*
X151385000Y-99243750D01*
X153237500Y-112368750D02*
X153045028Y-112360486D01*
X153045028Y-112360486D02*
X152855116Y-112347921D01*
X152855116Y-112347921D02*
X152672885Y-112329708D01*
X152672885Y-112329708D02*
X152496487Y-112304159D01*
X152496487Y-112304159D02*
X152329285Y-112271090D01*
X152329285Y-112271090D02*
X152169392Y-112230838D01*
X152169392Y-112230838D02*
X152013297Y-112184003D01*
X152013297Y-112184003D02*
X151862922Y-112133144D01*
X151862922Y-112133144D02*
X151737500Y-112087500D01*
X152078750Y-98392500D02*
X152174271Y-98278944D01*
X152174271Y-98278944D02*
X152260695Y-98163825D01*
X152260695Y-98163825D02*
X152273750Y-98145000D01*
X151940000Y-98591250D02*
X152017034Y-98468081D01*
X152017034Y-98468081D02*
X152078750Y-98392500D01*
X151385000Y-99243750D02*
X151482588Y-99135899D01*
X151482588Y-99135899D02*
X151577199Y-99029407D01*
X151577199Y-99029407D02*
X151670611Y-98922317D01*
X151670611Y-98922317D02*
X151763469Y-98813621D01*
X151763469Y-98813621D02*
X151854738Y-98703604D01*
X151854738Y-98703604D02*
X151940000Y-98591250D01*
X150005000Y-100935000D02*
X150016250Y-100916250D01*
X148437500Y-111727500D02*
X148242178Y-111721808D01*
X148242178Y-111721808D02*
X148047769Y-111714913D01*
X148047769Y-111714913D02*
X147855936Y-111706609D01*
X147855936Y-111706609D02*
X147664666Y-111695611D01*
X147664666Y-111695611D02*
X147575000Y-111686250D01*
X153818750Y-116471250D02*
X153945554Y-116545958D01*
X153945554Y-116545958D02*
X154054293Y-116639612D01*
X154054293Y-116639612D02*
X154058750Y-116643750D01*
X148066250Y-115308750D02*
X148253029Y-115292714D01*
X148253029Y-115292714D02*
X148436281Y-115273132D01*
X148436281Y-115273132D02*
X148614466Y-115249088D01*
X148614466Y-115249088D02*
X148696250Y-115233750D01*
X150515000Y-100233750D02*
X150616474Y-100134524D01*
X150616474Y-100134524D02*
X150707710Y-100023949D01*
X150707710Y-100023949D02*
X150713750Y-100016250D01*
X150016250Y-100916250D02*
X150081585Y-100780418D01*
X150081585Y-100780418D02*
X150162558Y-100659018D01*
X150162558Y-100659018D02*
X150251034Y-100535933D01*
X150251034Y-100535933D02*
X150338371Y-100421468D01*
X150338371Y-100421468D02*
X150429214Y-100311423D01*
X150429214Y-100311423D02*
X150515000Y-100233750D01*
X149941250Y-101002500D02*
X150005000Y-100935000D01*
X149645000Y-101388750D02*
X149740525Y-101283257D01*
X149740525Y-101283257D02*
X149831575Y-101172112D01*
X149831575Y-101172112D02*
X149914651Y-101054988D01*
X149914651Y-101054988D02*
X149941250Y-101002500D01*
X149131250Y-102000000D02*
X149213824Y-101880851D01*
X149213824Y-101880851D02*
X149302903Y-101768671D01*
X149302903Y-101768671D02*
X149396184Y-101660248D01*
X149396184Y-101660248D02*
X149492128Y-101553631D01*
X149492128Y-101553631D02*
X149589333Y-101448318D01*
X149589333Y-101448318D02*
X149645000Y-101388750D01*
X143825000Y-131658750D02*
X143731250Y-131621250D01*
X143881250Y-131677500D02*
X143825000Y-131658750D01*
X143997500Y-131700000D02*
X143881250Y-131677500D01*
X144252500Y-131760000D02*
X144082357Y-131728280D01*
X144082357Y-131728280D02*
X143997500Y-131700000D01*
X129140000Y-133477500D02*
X129264406Y-133397849D01*
X129264406Y-133397849D02*
X129390342Y-133323665D01*
X129390342Y-133323665D02*
X129436250Y-133297500D01*
X127306250Y-134355000D02*
X127456614Y-134303348D01*
X127456614Y-134303348D02*
X127572500Y-134272500D01*
X144481250Y-131808750D02*
X144318053Y-131768879D01*
X144318053Y-131768879D02*
X144252500Y-131760000D01*
X145156250Y-131846250D02*
X144960011Y-131851467D01*
X144960011Y-131851467D02*
X144763866Y-131847098D01*
X144763866Y-131847098D02*
X144578786Y-131831392D01*
X144578786Y-131831392D02*
X144481250Y-131808750D01*
X132740000Y-131587500D02*
X132905724Y-131625001D01*
X132905724Y-131625001D02*
X133059297Y-131671455D01*
X133059297Y-131671455D02*
X133200669Y-131732045D01*
X133200669Y-131732045D02*
X133329085Y-131806850D01*
X133329085Y-131806850D02*
X133445624Y-131890692D01*
X133445624Y-131890692D02*
X133556382Y-131981205D01*
X133556382Y-131981205D02*
X133664665Y-132076481D01*
X133664665Y-132076481D02*
X133769501Y-132172642D01*
X133769501Y-132172642D02*
X133797500Y-132198750D01*
X128971250Y-133571250D02*
X129102679Y-133501734D01*
X129102679Y-133501734D02*
X129140000Y-133477500D01*
X133797500Y-132198750D02*
X133902915Y-132295757D01*
X133902915Y-132295757D02*
X134011575Y-132391137D01*
X134011575Y-132391137D02*
X134122088Y-132483286D01*
X134122088Y-132483286D02*
X134235971Y-132571026D01*
X134235971Y-132571026D02*
X134303750Y-132615000D01*
X145475000Y-131835000D02*
X145275661Y-131839958D01*
X145275661Y-131839958D02*
X145156250Y-131846250D01*
X146712500Y-131846250D02*
X146505165Y-131843843D01*
X146505165Y-131843843D02*
X146299619Y-131841658D01*
X146299619Y-131841658D02*
X146095107Y-131839670D01*
X146095107Y-131839670D02*
X145894776Y-131837899D01*
X145894776Y-131837899D02*
X145687668Y-131836266D01*
X145687668Y-131836266D02*
X145487933Y-131835026D01*
X145487933Y-131835026D02*
X145475000Y-131835000D01*
X150095000Y-134223750D02*
X150282521Y-134237601D01*
X150282521Y-134237601D02*
X150475277Y-134228157D01*
X150475277Y-134228157D02*
X150586250Y-134208750D01*
X138608750Y-133687500D02*
X138623750Y-133713750D01*
X120443750Y-134883750D02*
X120571660Y-134811419D01*
X120571660Y-134811419D02*
X120711741Y-134750535D01*
X120711741Y-134750535D02*
X120858499Y-134695805D01*
X120858499Y-134695805D02*
X121010953Y-134645616D01*
X121010953Y-134645616D02*
X121167153Y-134600190D01*
X121167153Y-134600190D02*
X121328279Y-134559823D01*
X121328279Y-134559823D02*
X121496726Y-134526298D01*
X121496726Y-134526298D02*
X121512500Y-134523750D01*
X150893750Y-133987500D02*
X150951537Y-133844430D01*
X150951537Y-133844430D02*
X150996137Y-133687983D01*
X150996137Y-133687983D02*
X151029569Y-133517824D01*
X151029569Y-133517824D02*
X151048594Y-133334589D01*
X151048594Y-133334589D02*
X151040000Y-133143750D01*
X150586250Y-134208750D02*
X150746058Y-134168532D01*
X150746058Y-134168532D02*
X150850015Y-134071744D01*
X150850015Y-134071744D02*
X150893750Y-133987500D01*
X146191250Y-134227500D02*
X146374683Y-134209502D01*
X146374683Y-134209502D02*
X146565885Y-134200390D01*
X146565885Y-134200390D02*
X146761886Y-134193264D01*
X146761886Y-134193264D02*
X146957052Y-134187430D01*
X146957052Y-134187430D02*
X147155145Y-134182436D01*
X147155145Y-134182436D02*
X147351151Y-134178245D01*
X147351151Y-134178245D02*
X147547758Y-134174708D01*
X147547758Y-134174708D02*
X147745098Y-134171798D01*
X147745098Y-134171798D02*
X147949171Y-134169471D01*
X147949171Y-134169471D02*
X148152334Y-134167894D01*
X148152334Y-134167894D02*
X148231250Y-134167500D01*
X120312500Y-134958750D02*
X120440237Y-134886156D01*
X120440237Y-134886156D02*
X120443750Y-134883750D01*
X127572500Y-134272500D02*
X127725049Y-134223401D01*
X127725049Y-134223401D02*
X127870337Y-134166196D01*
X127870337Y-134166196D02*
X128011766Y-134105510D01*
X128011766Y-134105510D02*
X128150899Y-134042271D01*
X128150899Y-134042271D02*
X128287938Y-133976939D01*
X128287938Y-133976939D02*
X128423941Y-133909010D01*
X128423941Y-133909010D02*
X128555957Y-133839527D01*
X128555957Y-133839527D02*
X128685241Y-133766479D01*
X128685241Y-133766479D02*
X128806867Y-133687992D01*
X128806867Y-133687992D02*
X128836250Y-133665000D01*
X129436250Y-133297500D02*
X129568306Y-133224180D01*
X129568306Y-133224180D02*
X129698015Y-133147848D01*
X129698015Y-133147848D02*
X129824531Y-133070485D01*
X129824531Y-133070485D02*
X129953735Y-132989028D01*
X129953735Y-132989028D02*
X130075307Y-132910275D01*
X130075307Y-132910275D02*
X130196534Y-132829616D01*
X130196534Y-132829616D02*
X130316765Y-132747153D01*
X130316765Y-132747153D02*
X130433688Y-132663684D01*
X130433688Y-132663684D02*
X130547917Y-132576356D01*
X130547917Y-132576356D02*
X130595000Y-132536250D01*
X126803750Y-134430000D02*
X126968842Y-134394818D01*
X126968842Y-134394818D02*
X127066250Y-134388750D01*
X142662500Y-134283750D02*
X142859809Y-134278018D01*
X142859809Y-134278018D02*
X143060847Y-134273153D01*
X143060847Y-134273153D02*
X143257925Y-134269489D01*
X143257925Y-134269489D02*
X143462929Y-134267097D01*
X143462929Y-134267097D02*
X143664375Y-134266610D01*
X143664375Y-134266610D02*
X143864539Y-134268886D01*
X143864539Y-134268886D02*
X144057500Y-134276166D01*
X144057500Y-134276166D02*
X144200000Y-134295000D01*
X128836250Y-133665000D02*
X128951602Y-133579766D01*
X128951602Y-133579766D02*
X128971250Y-133571250D01*
X138623750Y-133713750D02*
X138733050Y-133805298D01*
X138733050Y-133805298D02*
X138777500Y-133863750D01*
X134303750Y-132615000D02*
X134432634Y-132688128D01*
X134432634Y-132688128D02*
X134553780Y-132767548D01*
X134553780Y-132767548D02*
X134663750Y-132847500D01*
X139456250Y-134152500D02*
X139639615Y-134173794D01*
X139639615Y-134173794D02*
X139825178Y-134189694D01*
X139825178Y-134189694D02*
X140014765Y-134203310D01*
X140014765Y-134203310D02*
X140203146Y-134215190D01*
X140203146Y-134215190D02*
X140395753Y-134226096D01*
X140395753Y-134226096D02*
X140590858Y-134236117D01*
X140590858Y-134236117D02*
X140782221Y-134245085D01*
X140782221Y-134245085D02*
X140975508Y-134253359D01*
X140975508Y-134253359D02*
X141184867Y-134261464D01*
X141184867Y-134261464D02*
X141384033Y-134268361D01*
X141384033Y-134268361D02*
X141580330Y-134274345D01*
X141580330Y-134274345D02*
X141778724Y-134279493D01*
X141778724Y-134279493D02*
X141975933Y-134283579D01*
X141975933Y-134283579D02*
X142174425Y-134286412D01*
X142174425Y-134286412D02*
X142379093Y-134287519D01*
X142379093Y-134287519D02*
X142579872Y-134285801D01*
X142579872Y-134285801D02*
X142662500Y-134283750D01*
X144200000Y-134295000D02*
X144218750Y-134291250D01*
X135683750Y-133248750D02*
X135872786Y-133260854D01*
X135872786Y-133260854D02*
X136065642Y-133269336D01*
X136065642Y-133269336D02*
X136260716Y-133275786D01*
X136260716Y-133275786D02*
X136459922Y-133280731D01*
X136459922Y-133280731D02*
X136676289Y-133284446D01*
X136676289Y-133284446D02*
X136875038Y-133286339D01*
X136875038Y-133286339D02*
X137079024Y-133286609D01*
X137079024Y-133286609D02*
X137150000Y-133286250D01*
X145831250Y-134208750D02*
X145998452Y-134175668D01*
X145998452Y-134175668D02*
X146101250Y-134216250D01*
X138777500Y-133863750D02*
X138869511Y-133972344D01*
X138869511Y-133972344D02*
X138989646Y-134052413D01*
X138989646Y-134052413D02*
X139144540Y-134099839D01*
X139144540Y-134099839D02*
X139315083Y-134131253D01*
X139315083Y-134131253D02*
X139456250Y-134152500D01*
X145617500Y-134238750D02*
X145804142Y-134225030D01*
X145804142Y-134225030D02*
X145831250Y-134208750D01*
X144218750Y-134291250D02*
X144387753Y-134259440D01*
X144387753Y-134259440D02*
X144579998Y-134249361D01*
X144579998Y-134249361D02*
X144774699Y-134243328D01*
X144774699Y-134243328D02*
X144972062Y-134239645D01*
X144972062Y-134239645D02*
X145174207Y-134237723D01*
X145174207Y-134237723D02*
X145374625Y-134237350D01*
X145374625Y-134237350D02*
X145577236Y-134238380D01*
X145577236Y-134238380D02*
X145617500Y-134238750D01*
X137150000Y-133286250D02*
X137356759Y-133285479D01*
X137356759Y-133285479D02*
X137556761Y-133285551D01*
X137556761Y-133285551D02*
X137756152Y-133287167D01*
X137756152Y-133287167D02*
X137951880Y-133292066D01*
X137951880Y-133292066D02*
X138137792Y-133306373D01*
X138137792Y-133306373D02*
X138218750Y-133327500D01*
X132188750Y-131568750D02*
X132360048Y-131538959D01*
X132360048Y-131538959D02*
X132546996Y-131553118D01*
X132546996Y-131553118D02*
X132720044Y-131583708D01*
X132720044Y-131583708D02*
X132740000Y-131587500D01*
X127066250Y-134388750D02*
X127247793Y-134370174D01*
X127247793Y-134370174D02*
X127306250Y-134355000D01*
X121512500Y-134523750D02*
X121691635Y-134501816D01*
X121691635Y-134501816D02*
X121876078Y-134485775D01*
X121876078Y-134485775D02*
X122064302Y-134473054D01*
X122064302Y-134473054D02*
X122256876Y-134462654D01*
X122256876Y-134462654D02*
X122460979Y-134453905D01*
X122460979Y-134453905D02*
X122662304Y-134447279D01*
X122662304Y-134447279D02*
X122863060Y-134442566D01*
X122863060Y-134442566D02*
X123061451Y-134439863D01*
X123061451Y-134439863D02*
X123261152Y-134439406D01*
X123261152Y-134439406D02*
X123460832Y-134441923D01*
X123460832Y-134441923D02*
X123654388Y-134448831D01*
X123654388Y-134448831D02*
X123830000Y-134463750D01*
X144256250Y-125883750D02*
X144341505Y-125767300D01*
X144341505Y-125767300D02*
X144387500Y-125688750D01*
X146101250Y-134216250D02*
X146191250Y-134227500D01*
X143862500Y-126483750D02*
X143948716Y-126367808D01*
X143948716Y-126367808D02*
X144030009Y-126247020D01*
X144030009Y-126247020D02*
X144107108Y-126121348D01*
X144107108Y-126121348D02*
X144128750Y-126082500D01*
X143206250Y-130695000D02*
X143217162Y-130503444D01*
X143217162Y-130503444D02*
X143238344Y-130321084D01*
X143238344Y-130321084D02*
X143264080Y-130146543D01*
X143264080Y-130146543D02*
X143293444Y-129975001D01*
X143293444Y-129975001D02*
X143326661Y-129803608D01*
X143326661Y-129803608D02*
X143363155Y-129637723D01*
X143363155Y-129637723D02*
X143404487Y-129478111D01*
X143404487Y-129478111D02*
X143458107Y-129331205D01*
X143458107Y-129331205D02*
X143468750Y-129315000D01*
X143476250Y-131441250D02*
X143379798Y-131336472D01*
X143379798Y-131336472D02*
X143300343Y-131215000D01*
X143300343Y-131215000D02*
X143244820Y-131070427D01*
X143244820Y-131070427D02*
X143215056Y-130900094D01*
X143215056Y-130900094D02*
X143206270Y-130706777D01*
X143206270Y-130706777D02*
X143206250Y-130695000D01*
X151040000Y-133143750D02*
X151001496Y-132981989D01*
X151001496Y-132981989D02*
X150946999Y-132833269D01*
X150946999Y-132833269D02*
X150877656Y-132700104D01*
X150877656Y-132700104D02*
X150794712Y-132581296D01*
X150794712Y-132581296D02*
X150699937Y-132475410D01*
X150699937Y-132475410D02*
X150594577Y-132380228D01*
X150594577Y-132380228D02*
X150480174Y-132294132D01*
X150480174Y-132294132D02*
X150357460Y-132215241D01*
X150357460Y-132215241D02*
X150228470Y-132142829D01*
X150228470Y-132142829D02*
X150095070Y-132076125D01*
X150095070Y-132076125D02*
X150068750Y-132063750D01*
X138218750Y-133327500D02*
X138340779Y-133407272D01*
X138340779Y-133407272D02*
X138451694Y-133497633D01*
X138451694Y-133497633D02*
X138553836Y-133596300D01*
X138553836Y-133596300D02*
X138608750Y-133687500D01*
X150068750Y-132063750D02*
X149931896Y-131999919D01*
X149931896Y-131999919D02*
X149792717Y-131937113D01*
X149792717Y-131937113D02*
X149651864Y-131876738D01*
X149651864Y-131876738D02*
X149506076Y-131819145D01*
X149506076Y-131819145D02*
X149356161Y-131767301D01*
X149356161Y-131767301D02*
X149198489Y-131723844D01*
X149198489Y-131723844D02*
X149024879Y-131692785D01*
X149024879Y-131692785D02*
X148836154Y-131681473D01*
X148836154Y-131681473D02*
X148644360Y-131692165D01*
X148644360Y-131692165D02*
X148466773Y-131717089D01*
X148466773Y-131717089D02*
X148298700Y-131749289D01*
X148298700Y-131749289D02*
X148231250Y-131763750D01*
X148231250Y-134167500D02*
X148438014Y-134168356D01*
X148438014Y-134168356D02*
X148642552Y-134170618D01*
X148642552Y-134170618D02*
X148843070Y-134173949D01*
X148843070Y-134173949D02*
X149042078Y-134178230D01*
X149042078Y-134178230D02*
X149238134Y-134183373D01*
X149238134Y-134183373D02*
X149435361Y-134189527D01*
X149435361Y-134189527D02*
X149633008Y-134196864D01*
X149633008Y-134196864D02*
X149826039Y-134205584D01*
X149826039Y-134205584D02*
X150016530Y-134216996D01*
X150016530Y-134216996D02*
X150095000Y-134223750D01*
X134663750Y-132847500D02*
X134782207Y-132934270D01*
X134782207Y-132934270D02*
X134899378Y-133017488D01*
X134899378Y-133017488D02*
X135021147Y-133095756D01*
X135021147Y-133095756D02*
X135155552Y-133161438D01*
X135155552Y-133161438D02*
X135313734Y-133205133D01*
X135313734Y-133205133D02*
X135490483Y-133229966D01*
X135490483Y-133229966D02*
X135677524Y-133248179D01*
X135677524Y-133248179D02*
X135683750Y-133248750D01*
X119588750Y-135266250D02*
X119719585Y-135195743D01*
X119719585Y-135195743D02*
X119859774Y-135132990D01*
X119859774Y-135132990D02*
X120000404Y-135073296D01*
X120000404Y-135073296D02*
X120145135Y-135014945D01*
X120145135Y-135014945D02*
X120293334Y-134962365D01*
X120293334Y-134962365D02*
X120312500Y-134958750D01*
X144128750Y-126082500D02*
X144200531Y-125954204D01*
X144200531Y-125954204D02*
X144256250Y-125883750D01*
X143731250Y-131621250D02*
X143601360Y-131550164D01*
X143601360Y-131550164D02*
X143492676Y-131457358D01*
X143492676Y-131457358D02*
X143476250Y-131441250D01*
X123830000Y-134463750D02*
X124010967Y-134482825D01*
X124010967Y-134482825D02*
X124200504Y-134495139D01*
X124200504Y-134495139D02*
X124393878Y-134503640D01*
X124393878Y-134503640D02*
X124592349Y-134509594D01*
X124592349Y-134509594D02*
X124790912Y-134513450D01*
X124790912Y-134513450D02*
X124993103Y-134515615D01*
X124993103Y-134515615D02*
X125193439Y-134516216D01*
X125193439Y-134516216D02*
X125394542Y-134515370D01*
X125394542Y-134515370D02*
X125592493Y-134513127D01*
X125592493Y-134513127D02*
X125789454Y-134509426D01*
X125789454Y-134509426D02*
X125984891Y-134504125D01*
X125984891Y-134504125D02*
X126185636Y-134496601D01*
X126185636Y-134496601D02*
X126377539Y-134486699D01*
X126377539Y-134486699D02*
X126564081Y-134472883D01*
X126564081Y-134472883D02*
X126742763Y-134449858D01*
X126742763Y-134449858D02*
X126803750Y-134430000D01*
X143566250Y-127451250D02*
X143531310Y-127286172D01*
X143531310Y-127286172D02*
X143535628Y-127088929D01*
X143535628Y-127088929D02*
X143579365Y-126932237D01*
X143579365Y-126932237D02*
X143644118Y-126796375D01*
X143644118Y-126796375D02*
X143721120Y-126672388D01*
X143721120Y-126672388D02*
X143806417Y-126554813D01*
X143806417Y-126554813D02*
X143862500Y-126483750D01*
X143656250Y-128490000D02*
X143667697Y-128301399D01*
X143667697Y-128301399D02*
X143664303Y-128104529D01*
X143664303Y-128104529D02*
X143650622Y-127918054D01*
X143650622Y-127918054D02*
X143628094Y-127737794D01*
X143628094Y-127737794D02*
X143596648Y-127568065D01*
X143596648Y-127568065D02*
X143566250Y-127451250D01*
X148231250Y-131763750D02*
X148064802Y-131798735D01*
X148064802Y-131798735D02*
X147890677Y-131825446D01*
X147890677Y-131825446D02*
X147704027Y-131840076D01*
X147704027Y-131840076D02*
X147510004Y-131846241D01*
X147510004Y-131846241D02*
X147310718Y-131848284D01*
X147310718Y-131848284D02*
X147109445Y-131848367D01*
X147109445Y-131848367D02*
X146905256Y-131847495D01*
X146905256Y-131847495D02*
X146712500Y-131846250D01*
X130595000Y-132536250D02*
X130708406Y-132436335D01*
X130708406Y-132436335D02*
X130819868Y-132344917D01*
X130819868Y-132344917D02*
X130933878Y-132256930D01*
X130933878Y-132256930D02*
X131050838Y-132171543D01*
X131050838Y-132171543D02*
X131171525Y-132088003D01*
X131171525Y-132088003D02*
X131293886Y-132007664D01*
X131293886Y-132007664D02*
X131420073Y-131929221D01*
X131420073Y-131929221D02*
X131547863Y-131854333D01*
X131547863Y-131854333D02*
X131678173Y-131782909D01*
X131678173Y-131782909D02*
X131812906Y-131714840D01*
X131812906Y-131714840D02*
X131951854Y-131651895D01*
X131951854Y-131651895D02*
X132097375Y-131596218D01*
X132097375Y-131596218D02*
X132188750Y-131568750D01*
X143468750Y-129315000D02*
X143522458Y-129167314D01*
X143522458Y-129167314D02*
X143562635Y-129005135D01*
X143562635Y-129005135D02*
X143598166Y-128837157D01*
X143598166Y-128837157D02*
X143629218Y-128668093D01*
X143629218Y-128668093D02*
X143656007Y-128491846D01*
X143656007Y-128491846D02*
X143656250Y-128490000D01*
X118370000Y-134670000D02*
X118455228Y-134787291D01*
X118455228Y-134787291D02*
X118547239Y-134897283D01*
X118547239Y-134897283D02*
X118641834Y-135003768D01*
X118641834Y-135003768D02*
X118662500Y-135026250D01*
X118662500Y-135026250D02*
X118913750Y-135296250D01*
X119588750Y-135266250D02*
X119588750Y-135266250D01*
X132800000Y-93783750D02*
X132803750Y-94432500D01*
X118381250Y-134002500D02*
X118337535Y-134159395D01*
X118337535Y-134159395D02*
X118325000Y-134186250D01*
X118913750Y-135296250D02*
X119243750Y-135296250D01*
X119243750Y-135296250D02*
X119438835Y-135290246D01*
X119438835Y-135290246D02*
X119588750Y-135266250D01*
X118298750Y-134583750D02*
X118370000Y-134670000D01*
X132901250Y-93690000D02*
X132800000Y-93783750D01*
X118325000Y-134186250D02*
X118279546Y-134341200D01*
X118279546Y-134341200D02*
X118271681Y-134533729D01*
X118271681Y-134533729D02*
X118298750Y-134583750D01*
X118846250Y-133282500D02*
X118749725Y-133386403D01*
X118749725Y-133386403D02*
X118655721Y-133494562D01*
X118655721Y-133494562D02*
X118566782Y-133606923D01*
X118566782Y-133606923D02*
X118485265Y-133725840D01*
X118485265Y-133725840D02*
X118416092Y-133857771D01*
X118416092Y-133857771D02*
X118381250Y-134002500D01*
X119405000Y-132787500D02*
X119290255Y-132874023D01*
X119290255Y-132874023D02*
X119179430Y-132967118D01*
X119179430Y-132967118D02*
X119072143Y-133062899D01*
X119072143Y-133062899D02*
X118969013Y-133159785D01*
X118969013Y-133159785D02*
X118866570Y-133261493D01*
X118866570Y-133261493D02*
X118846250Y-133282500D01*
X125112500Y-131985000D02*
X124914715Y-131979776D01*
X124914715Y-131979776D02*
X124715573Y-131982024D01*
X124715573Y-131982024D02*
X124522979Y-131990271D01*
X124522979Y-131990271D02*
X124400000Y-132000000D01*
X120676250Y-132262500D02*
X120515810Y-132303221D01*
X120515810Y-132303221D02*
X120362948Y-132353266D01*
X120362948Y-132353266D02*
X120213857Y-132407914D01*
X120213857Y-132407914D02*
X120064010Y-132467229D01*
X120064010Y-132467229D02*
X119923013Y-132526656D01*
X119923013Y-132526656D02*
X119784209Y-132588722D01*
X119784209Y-132588722D02*
X119647297Y-132654073D01*
X119647297Y-132654073D02*
X119514721Y-132722924D01*
X119514721Y-132722924D02*
X119405000Y-132787500D01*
X123087500Y-131985000D02*
X122891629Y-131974794D01*
X122891629Y-131974794D02*
X122695420Y-131965586D01*
X122695420Y-131965586D02*
X122500749Y-131958148D01*
X122500749Y-131958148D02*
X122303664Y-131953527D01*
X122303664Y-131953527D02*
X122103299Y-131953943D01*
X122103299Y-131953943D02*
X121908385Y-131962716D01*
X121908385Y-131962716D02*
X121727718Y-131982428D01*
X121727718Y-131982428D02*
X121558779Y-132014122D01*
X121558779Y-132014122D02*
X121398604Y-132056020D01*
X121398604Y-132056020D02*
X121244534Y-132104334D01*
X121244534Y-132104334D02*
X121231250Y-132108750D01*
X135845000Y-110403750D02*
X135760332Y-110521247D01*
X135760332Y-110521247D02*
X135682722Y-110643910D01*
X135682722Y-110643910D02*
X135610838Y-110772214D01*
X135610838Y-110772214D02*
X135575000Y-110846250D01*
X126912500Y-131730000D02*
X126742360Y-131762532D01*
X126742360Y-131762532D02*
X126571911Y-131793174D01*
X126571911Y-131793174D02*
X126392637Y-131813915D01*
X126392637Y-131813915D02*
X126376250Y-131812500D01*
X125757500Y-131943750D02*
X125585917Y-131974947D01*
X125585917Y-131974947D02*
X125400711Y-131989964D01*
X125400711Y-131989964D02*
X125201326Y-131989021D01*
X125201326Y-131989021D02*
X125112500Y-131985000D01*
X126177500Y-131883750D02*
X125993701Y-131900966D01*
X125993701Y-131900966D02*
X125819836Y-131930556D01*
X125819836Y-131930556D02*
X125757500Y-131943750D01*
X133328750Y-96675000D02*
X133408853Y-96797399D01*
X133408853Y-96797399D02*
X133484529Y-96923679D01*
X133484529Y-96923679D02*
X133508750Y-96967500D01*
X133718750Y-98126250D02*
X133741686Y-98304812D01*
X133741686Y-98304812D02*
X133775212Y-98473819D01*
X133775212Y-98473819D02*
X133812615Y-98639765D01*
X133812615Y-98639765D02*
X133852413Y-98801470D01*
X133852413Y-98801470D02*
X133865000Y-98850000D01*
X128405000Y-130983750D02*
X128270358Y-131049189D01*
X128270358Y-131049189D02*
X128138527Y-131120122D01*
X128138527Y-131120122D02*
X128006475Y-131192959D01*
X128006475Y-131192959D02*
X127877568Y-131265453D01*
X127877568Y-131265453D02*
X127750207Y-131338810D01*
X127750207Y-131338810D02*
X127625986Y-131414746D01*
X127625986Y-131414746D02*
X127606250Y-131430000D01*
X133647500Y-114903750D02*
X133598420Y-115057051D01*
X133598420Y-115057051D02*
X133547081Y-115214266D01*
X133547081Y-115214266D02*
X133496250Y-115368158D01*
X133496250Y-115368158D02*
X133443781Y-115525504D01*
X133443781Y-115525504D02*
X133392729Y-115677215D01*
X133392729Y-115677215D02*
X133338916Y-115835615D01*
X133338916Y-115835615D02*
X133286259Y-115988966D01*
X133286259Y-115988966D02*
X133242500Y-116115000D01*
X131150000Y-124908750D02*
X131121899Y-125080854D01*
X131121899Y-125080854D02*
X131100272Y-125260881D01*
X131100272Y-125260881D02*
X131093750Y-125321250D01*
X132893750Y-117183750D02*
X132850229Y-117342510D01*
X132850229Y-117342510D02*
X132803646Y-117497754D01*
X132803646Y-117497754D02*
X132756207Y-117650342D01*
X132756207Y-117650342D02*
X132706493Y-117806150D01*
X132706493Y-117806150D02*
X132656993Y-117957598D01*
X132656993Y-117957598D02*
X132642500Y-118001250D01*
X131420000Y-123596250D02*
X131380776Y-123793708D01*
X131380776Y-123793708D02*
X131347173Y-123962561D01*
X131347173Y-123962561D02*
X131313372Y-124131975D01*
X131313372Y-124131975D02*
X131277518Y-124310930D01*
X131277518Y-124310930D02*
X131243236Y-124480843D01*
X131243236Y-124480843D02*
X131207627Y-124654954D01*
X131207627Y-124654954D02*
X131172344Y-124821223D01*
X131172344Y-124821223D02*
X131150000Y-124908750D01*
X133242500Y-116115000D02*
X133190686Y-116265375D01*
X133190686Y-116265375D02*
X133138414Y-116418794D01*
X133138414Y-116418794D02*
X133086008Y-116574471D01*
X133086008Y-116574471D02*
X133035110Y-116727804D01*
X133035110Y-116727804D02*
X132984409Y-116883402D01*
X132984409Y-116883402D02*
X132935619Y-117037866D01*
X132935619Y-117037866D02*
X132893750Y-117183750D01*
X136550000Y-105952499D02*
X136597911Y-106104793D01*
X136597911Y-106104793D02*
X136647500Y-106233749D01*
X132886250Y-95471250D02*
X132923890Y-95636953D01*
X132923890Y-95636953D02*
X132965671Y-95796673D01*
X132965671Y-95796673D02*
X133011462Y-95951749D01*
X133011462Y-95951749D02*
X133061309Y-96102601D01*
X133061309Y-96102601D02*
X133115901Y-96250211D01*
X133115901Y-96250211D02*
X133174817Y-96391343D01*
X133174817Y-96391343D02*
X133240088Y-96526905D01*
X133240088Y-96526905D02*
X133314054Y-96653509D01*
X133314054Y-96653509D02*
X133328750Y-96675000D01*
X135743750Y-103215000D02*
X135759698Y-103407781D01*
X135759698Y-103407781D02*
X135776316Y-103592846D01*
X135776316Y-103592846D02*
X135798778Y-103770616D01*
X135798778Y-103770616D02*
X135826250Y-103871250D01*
X136347500Y-109481250D02*
X136321250Y-109552500D01*
X136392500Y-105521249D02*
X136451772Y-105662253D01*
X136451772Y-105662253D02*
X136506956Y-105813998D01*
X136506956Y-105813998D02*
X136550000Y-105952499D01*
X134637500Y-94320000D02*
X134516975Y-94240090D01*
X134516975Y-94240090D02*
X134397260Y-94156204D01*
X134397260Y-94156204D02*
X134300000Y-94083750D01*
X136190000Y-104988750D02*
X136242061Y-105139043D01*
X136242061Y-105139043D02*
X136296629Y-105287085D01*
X136296629Y-105287085D02*
X136353752Y-105432011D01*
X136353752Y-105432011D02*
X136392500Y-105521249D01*
X133227500Y-93596250D02*
X133040800Y-93609848D01*
X133040800Y-93609848D02*
X132911455Y-93680842D01*
X132911455Y-93680842D02*
X132901250Y-93690000D01*
X132803750Y-94432500D02*
X132804949Y-94631668D01*
X132804949Y-94631668D02*
X132809751Y-94828280D01*
X132809751Y-94828280D02*
X132820431Y-95018049D01*
X132820431Y-95018049D02*
X132839425Y-95200302D01*
X132839425Y-95200302D02*
X132867069Y-95373694D01*
X132867069Y-95373694D02*
X132886250Y-95471250D01*
X131528750Y-123161250D02*
X131482465Y-123315688D01*
X131482465Y-123315688D02*
X131443455Y-123481538D01*
X131443455Y-123481538D02*
X131420000Y-123596250D01*
X136816250Y-106796249D02*
X136859197Y-106956605D01*
X136859197Y-106956605D02*
X136898803Y-107117027D01*
X136898803Y-107117027D02*
X136929840Y-107286709D01*
X136929840Y-107286709D02*
X136940102Y-107477065D01*
X136940102Y-107477065D02*
X136932825Y-107671395D01*
X136932825Y-107671395D02*
X136932500Y-107677499D01*
X132312500Y-119111250D02*
X132264692Y-119264927D01*
X132264692Y-119264927D02*
X132220841Y-119425043D01*
X132220841Y-119425043D02*
X132180148Y-119587555D01*
X132180148Y-119587555D02*
X132141435Y-119753795D01*
X132141435Y-119753795D02*
X132105114Y-119920168D01*
X132105114Y-119920168D02*
X132070279Y-120090055D01*
X132070279Y-120090055D02*
X132037811Y-120259158D01*
X132037811Y-120259158D02*
X132007048Y-120431853D01*
X132007048Y-120431853D02*
X131978710Y-120607045D01*
X131978710Y-120607045D02*
X131953889Y-120784214D01*
X131953889Y-120784214D02*
X131937500Y-120933750D01*
X136032500Y-104576250D02*
X136093924Y-104716309D01*
X136093924Y-104716309D02*
X136148584Y-104863907D01*
X136148584Y-104863907D02*
X136190000Y-104988750D01*
X135912500Y-104208750D02*
X135955217Y-104366968D01*
X135955217Y-104366968D02*
X136005680Y-104518134D01*
X136005680Y-104518134D02*
X136032500Y-104576250D01*
X135826250Y-103871250D02*
X135869333Y-104032792D01*
X135869333Y-104032792D02*
X135910742Y-104201542D01*
X135910742Y-104201542D02*
X135912500Y-104208750D01*
X134195000Y-99712500D02*
X134270718Y-99839473D01*
X134270718Y-99839473D02*
X134345966Y-99968818D01*
X134345966Y-99968818D02*
X134421057Y-100099765D01*
X134421057Y-100099765D02*
X134494425Y-100229078D01*
X134494425Y-100229078D02*
X134566888Y-100358029D01*
X134566888Y-100358029D02*
X134581250Y-100383750D01*
X134157500Y-113696250D02*
X134088758Y-113839292D01*
X134088758Y-113839292D02*
X134023402Y-113975742D01*
X134023402Y-113975742D02*
X133958540Y-114112181D01*
X133958540Y-114112181D02*
X133892911Y-114252551D01*
X133892911Y-114252551D02*
X133830597Y-114390935D01*
X133830597Y-114390935D02*
X133771523Y-114533459D01*
X133771523Y-114533459D02*
X133717686Y-114683101D01*
X133717686Y-114683101D02*
X133668806Y-114835416D01*
X133668806Y-114835416D02*
X133647500Y-114903750D01*
X135440000Y-101771250D02*
X135497352Y-101917980D01*
X135497352Y-101917980D02*
X135555444Y-102060149D01*
X135555444Y-102060149D02*
X135597500Y-102153750D01*
X134581250Y-112815000D02*
X134509761Y-112965283D01*
X134509761Y-112965283D02*
X134444103Y-113103260D01*
X134444103Y-113103260D02*
X134378998Y-113239575D01*
X134378998Y-113239575D02*
X134311615Y-113379891D01*
X134311615Y-113379891D02*
X134242581Y-113522547D01*
X134242581Y-113522547D02*
X134174214Y-113662352D01*
X134174214Y-113662352D02*
X134157500Y-113696250D01*
X134300000Y-94083750D02*
X134180369Y-94001570D01*
X134180369Y-94001570D02*
X134057238Y-93924491D01*
X134057238Y-93924491D02*
X133930244Y-93849702D01*
X133930244Y-93849702D02*
X133801132Y-93778526D01*
X133801132Y-93778526D02*
X133782500Y-93768750D01*
X134900000Y-100875000D02*
X134993035Y-100985702D01*
X134993035Y-100985702D02*
X135079590Y-101100897D01*
X135079590Y-101100897D02*
X135160473Y-101220473D01*
X135160473Y-101220473D02*
X135236599Y-101345406D01*
X135236599Y-101345406D02*
X135307343Y-101474899D01*
X135307343Y-101474899D02*
X135372849Y-101610085D01*
X135372849Y-101610085D02*
X135432290Y-101751175D01*
X135432290Y-101751175D02*
X135440000Y-101771250D01*
X136647500Y-106233749D02*
X136697800Y-106384262D01*
X136697800Y-106384262D02*
X136744415Y-106540329D01*
X136744415Y-106540329D02*
X136789395Y-106698363D01*
X136789395Y-106698363D02*
X136816250Y-106796249D01*
X126331250Y-131846250D02*
X126177500Y-131883750D01*
X127606250Y-131430000D02*
X127482043Y-131507208D01*
X127482043Y-131507208D02*
X127345869Y-131571615D01*
X127345869Y-131571615D02*
X127202857Y-131632232D01*
X127202857Y-131632232D02*
X127057336Y-131687245D01*
X127057336Y-131687245D02*
X126912500Y-131730000D01*
X131937500Y-120933750D02*
X131918956Y-121117666D01*
X131918956Y-121117666D02*
X131892648Y-121291691D01*
X131892648Y-121291691D02*
X131885000Y-121327500D01*
X132443750Y-118665000D02*
X132402430Y-118824559D01*
X132402430Y-118824559D02*
X132354870Y-118979518D01*
X132354870Y-118979518D02*
X132312500Y-119111250D01*
X133865000Y-98850000D02*
X133907775Y-99010119D01*
X133907775Y-99010119D02*
X133953355Y-99167596D01*
X133953355Y-99167596D02*
X134003739Y-99318910D01*
X134003739Y-99318910D02*
X134062212Y-99462693D01*
X134062212Y-99462693D02*
X134128846Y-99596443D01*
X134128846Y-99596443D02*
X134195000Y-99712500D01*
X135597500Y-102153750D02*
X135640106Y-102311837D01*
X135640106Y-102311837D02*
X135668546Y-102486776D01*
X135668546Y-102486776D02*
X135691475Y-102665369D01*
X135691475Y-102665369D02*
X135711187Y-102847171D01*
X135711187Y-102847171D02*
X135728884Y-103035398D01*
X135728884Y-103035398D02*
X135743750Y-103215000D01*
X134858750Y-112233750D02*
X134792075Y-112371963D01*
X134792075Y-112371963D02*
X134723756Y-112515212D01*
X134723756Y-112515212D02*
X134651766Y-112666753D01*
X134651766Y-112666753D02*
X134586855Y-112803244D01*
X134586855Y-112803244D02*
X134581250Y-112815000D01*
X135575000Y-110846250D02*
X135508467Y-110980509D01*
X135508467Y-110980509D02*
X135439054Y-111117370D01*
X135439054Y-111117370D02*
X135370469Y-111250258D01*
X135370469Y-111250258D02*
X135300116Y-111384075D01*
X135300116Y-111384075D02*
X135228558Y-111517024D01*
X135228558Y-111517024D02*
X135226250Y-111521250D01*
X132642500Y-118001250D02*
X132592572Y-118157677D01*
X132592572Y-118157677D02*
X132544538Y-118311329D01*
X132544538Y-118311329D02*
X132496543Y-118469253D01*
X132496543Y-118469253D02*
X132452138Y-118625357D01*
X132452138Y-118625357D02*
X132443750Y-118665000D01*
X129526250Y-129975000D02*
X129425193Y-130075679D01*
X129425193Y-130075679D02*
X129325008Y-130178847D01*
X129325008Y-130178847D02*
X129225391Y-130284078D01*
X129225391Y-130284078D02*
X129128899Y-130388796D01*
X129128899Y-130388796D02*
X129050000Y-130477500D01*
X131675000Y-122448750D02*
X131646190Y-122620625D01*
X131646190Y-122620625D02*
X131615163Y-122791343D01*
X131615163Y-122791343D02*
X131581652Y-122958582D01*
X131581652Y-122958582D02*
X131542604Y-123120864D01*
X131542604Y-123120864D02*
X131528750Y-123161250D01*
X135226250Y-111521250D02*
X135155132Y-111653958D01*
X135155132Y-111653958D02*
X135084141Y-111788206D01*
X135084141Y-111788206D02*
X135013581Y-111923547D01*
X135013581Y-111923547D02*
X134945724Y-112056152D01*
X134945724Y-112056152D02*
X134878679Y-112191590D01*
X134878679Y-112191590D02*
X134858750Y-112233750D01*
X133508750Y-96967500D02*
X133558923Y-97117643D01*
X133558923Y-97117643D02*
X133597499Y-97281825D01*
X133597499Y-97281825D02*
X133631408Y-97451222D01*
X133631408Y-97451222D02*
X133661556Y-97622734D01*
X133661556Y-97622734D02*
X133688018Y-97796667D01*
X133688018Y-97796667D02*
X133709705Y-97976639D01*
X133709705Y-97976639D02*
X133718750Y-98126250D01*
X133782500Y-93768750D02*
X133648583Y-93700259D01*
X133648583Y-93700259D02*
X133508655Y-93638916D01*
X133508655Y-93638916D02*
X133345856Y-93600978D01*
X133345856Y-93600978D02*
X133227500Y-93596250D01*
X121231250Y-132108750D02*
X121075087Y-132157776D01*
X121075087Y-132157776D02*
X120917865Y-132203484D01*
X120917865Y-132203484D02*
X120758025Y-132245184D01*
X120758025Y-132245184D02*
X120676250Y-132262500D01*
X136613750Y-108914999D02*
X136558289Y-109061128D01*
X136558289Y-109061128D02*
X136500737Y-109203779D01*
X136500737Y-109203779D02*
X136438974Y-109343240D01*
X136438974Y-109343240D02*
X136366453Y-109470831D01*
X136366453Y-109470831D02*
X136347500Y-109481250D01*
X126376250Y-131812500D02*
X126331250Y-131846250D01*
X129050000Y-130477500D02*
X128952261Y-130580028D01*
X128952261Y-130580028D02*
X128848241Y-130676971D01*
X128848241Y-130676971D02*
X128738715Y-130770313D01*
X128738715Y-130770313D02*
X128625980Y-130858082D01*
X128625980Y-130858082D02*
X128506730Y-130939293D01*
X128506730Y-130939293D02*
X128405000Y-130983750D01*
X136321250Y-109552500D02*
X136270743Y-109702631D01*
X136270743Y-109702631D02*
X136204876Y-109836929D01*
X136204876Y-109836929D02*
X136133893Y-109966227D01*
X136133893Y-109966227D02*
X136059076Y-110092289D01*
X136059076Y-110092289D02*
X135980036Y-110216134D01*
X135980036Y-110216134D02*
X135897399Y-110335069D01*
X135897399Y-110335069D02*
X135845000Y-110403750D01*
X130448750Y-128527500D02*
X130383133Y-128666084D01*
X130383133Y-128666084D02*
X130316419Y-128804253D01*
X130316419Y-128804253D02*
X130249832Y-128938491D01*
X130249832Y-128938491D02*
X130181539Y-129071247D01*
X130181539Y-129071247D02*
X130109764Y-129204011D01*
X130109764Y-129204011D02*
X130035756Y-129332231D01*
X130035756Y-129332231D02*
X129958336Y-129455760D01*
X129958336Y-129455760D02*
X129875667Y-129575371D01*
X129875667Y-129575371D02*
X129788144Y-129689215D01*
X129788144Y-129689215D02*
X129694344Y-129799181D01*
X129694344Y-129799181D02*
X129596037Y-129904532D01*
X129596037Y-129904532D02*
X129526250Y-129975000D01*
X131885000Y-121327500D02*
X131845252Y-121488838D01*
X131845252Y-121488838D02*
X131811205Y-121654990D01*
X131811205Y-121654990D02*
X131779470Y-121826144D01*
X131779470Y-121826144D02*
X131748642Y-122002648D01*
X131748642Y-122002648D02*
X131719739Y-122174512D01*
X131719739Y-122174512D02*
X131691208Y-122348455D01*
X131691208Y-122348455D02*
X131675000Y-122448750D01*
X134581250Y-100383750D02*
X134654588Y-100510774D01*
X134654588Y-100510774D02*
X134730809Y-100634880D01*
X134730809Y-100634880D02*
X134811317Y-100757335D01*
X134811317Y-100757335D02*
X134897390Y-100872071D01*
X134897390Y-100872071D02*
X134900000Y-100875000D01*
X131093750Y-125321250D02*
X131072200Y-125525383D01*
X131072200Y-125525383D02*
X131052168Y-125712720D01*
X131052168Y-125712720D02*
X131032341Y-125895103D01*
X131032341Y-125895103D02*
X131012140Y-126076988D01*
X131012140Y-126076988D02*
X130991575Y-126257072D01*
X130991575Y-126257072D02*
X130970366Y-126436298D01*
X130970366Y-126436298D02*
X130948214Y-126615119D01*
X130948214Y-126615119D02*
X130924533Y-126795365D01*
X130924533Y-126795365D02*
X130899406Y-126972917D01*
X130899406Y-126972917D02*
X130871792Y-127150731D01*
X130871792Y-127150731D02*
X130841824Y-127323043D01*
X130841824Y-127323043D02*
X130808364Y-127491548D01*
X130808364Y-127491548D02*
X130770484Y-127655799D01*
X130770484Y-127655799D02*
X130727105Y-127816201D01*
X130727105Y-127816201D02*
X130678776Y-127969273D01*
X130678776Y-127969273D02*
X130625444Y-128116749D01*
X130625444Y-128116749D02*
X130567534Y-128260537D01*
X130567534Y-128260537D02*
X130505629Y-128402817D01*
X130505629Y-128402817D02*
X130448750Y-128527500D01*
X136932500Y-107677499D02*
X136916862Y-107865585D01*
X136916862Y-107865585D02*
X136890449Y-108040861D01*
X136890449Y-108040861D02*
X136853061Y-108205270D01*
X136853061Y-108205270D02*
X136808051Y-108361747D01*
X136808051Y-108361747D02*
X136758069Y-108514809D01*
X136758069Y-108514809D02*
X136704547Y-108667639D01*
X136704547Y-108667639D02*
X136650081Y-108817181D01*
X136650081Y-108817181D02*
X136613750Y-108914999D01*
X124400000Y-132000000D02*
X124213992Y-132014638D01*
X124213992Y-132014638D02*
X124016281Y-132018507D01*
X124016281Y-132018507D02*
X123818845Y-132015939D01*
X123818845Y-132015939D02*
X123624363Y-132009929D01*
X123624363Y-132009929D02*
X123427762Y-132001794D01*
X123427762Y-132001794D02*
X123236422Y-131992654D01*
X123236422Y-131992654D02*
X123087500Y-131985000D01*
M02*
