M48
; DRILL file {KiCad (5.1.2)-1} date 5/6/2019 9:40:08 PM
; FORMAT={-:-/ absolute / inch / decimal}
; #@! TF.CreationDate,2019-05-06T21:40:08-07:00
; #@! TF.GenerationSoftware,Kicad,Pcbnew,(5.1.2)-1
; #@! TF.FileFunction,Plated,1,2,PTH
FMAT,2
INCH
T1C0.0315
T2C0.0354
T3C0.0394
T4C0.0433
T5C0.0472
T6C0.0591
T7C0.0787
%
G90
G05
T1
X6.1059Y-5.2461
X7.8681Y-3.8031
X7.5413Y-3.8031
X7.6398Y-3.8031
X6.5059Y-5.2461
X6.8209Y-5.2461
X7.2209Y-5.2461
X7.9665Y-3.8031
T2
X6.1205Y-5.6102
X6.2205Y-5.6102
T3
X7.6543Y-5.1378
X7.7543Y-5.1378
X7.8543Y-5.1378
T4
X6.1122Y-4.9902
X6.5122Y-4.9902
X6.1122Y-4.7146
X6.5122Y-4.7146
X6.8146Y-4.7146
X7.2146Y-4.7146
X7.6557Y-3.6193
X7.7557Y-3.6193
X7.8557Y-3.6193
X6.8146Y-4.9902
X7.2146Y-4.9902
T5
X3.622Y-3.3118
X3.622Y-5.5118
X3.8189Y-5.5118
X3.822Y-3.3118
X5.622Y-3.3118
X5.622Y-5.5118
X5.822Y-3.3118
X5.822Y-5.5118
T6
X5.4134Y-3.002
X5.6134Y-3.002
X4.8984Y-3.002
X5.0984Y-3.002
X3.8748Y-3.002
X4.0748Y-3.002
X4.3898Y-3.002
X4.5898Y-3.002
T7
X6.4724Y-3.6063
X6.8661Y-3.6063
T3
G00X6.9016Y-2.2047
M15
G01X6.9016Y-2.2835
M16
G05
G00X7.126Y-2.126
M15
G01X7.0472Y-2.126
M16
G05
G00X7.126Y-2.3622
M15
G01X7.0472Y-2.3622
M16
G05
T0
M30
