M48
; DRILL file {KiCad (5.1.6)-1} date 12/21/20 18:53:15
; FORMAT={-:-/ absolute / inch / decimal}
; #@! TF.CreationDate,2020-12-21T18:53:15-08:00
; #@! TF.GenerationSoftware,Kicad,Pcbnew,(5.1.6)-1
FMAT,2
INCH
T1C0.0157
T2C0.0315
T3C0.0354
T4C0.0394
T5C0.0433
T6C0.0472
T7C0.0610
%
G90
G05
T1
X1.6339Y-1.0827
X1.6339Y-1.2795
X1.6339Y-1.4764
X1.6339Y-1.6732
X1.6339Y-1.8701
X1.6339Y-2.0669
X1.6339Y-2.2638
X1.6339Y-2.4606
X1.6339Y-2.6575
X1.6339Y-2.8543
X1.6339Y-3.0512
X1.6339Y-3.248
X1.6339Y-3.4449
X1.6339Y-3.6417
X1.6339Y-3.8386
X1.6339Y-4.0354
X1.6339Y-4.2323
X1.6339Y-4.4291
X1.6339Y-4.626
X1.6339Y-4.8228
X1.6339Y-5.0197
X1.6339Y-5.2165
X1.6339Y-5.4134
X1.6339Y-5.6102
X1.6339Y-5.8071
X1.6339Y-6.0039
X1.6339Y-6.2008
X1.6339Y-6.3976
X1.6339Y-6.5945
X1.6339Y-6.7913
X1.6339Y-6.9882
X1.6339Y-7.185
X1.7717Y-1.0433
X1.7717Y-7.2244
X1.9685Y-1.0433
X1.9685Y-7.2244
X2.1654Y-1.0433
X2.1654Y-7.2244
X2.3622Y-1.0433
X2.3622Y-7.2244
X2.5591Y-1.0433
X2.5591Y-7.2244
X2.7559Y-1.0433
X2.7559Y-7.2244
X2.9528Y-1.0433
X2.9528Y-7.2244
X3.1496Y-1.0433
X3.1496Y-7.2244
X3.3465Y-1.0433
X3.3465Y-7.2244
X3.5433Y-1.0433
X3.5433Y-7.2244
X3.7402Y-1.0433
X3.7402Y-7.2244
X3.937Y-1.0433
X3.937Y-7.2244
X4.1339Y-1.0433
X4.1339Y-7.2244
X4.3307Y-1.0433
X4.3307Y-7.2244
X4.5276Y-1.0433
X4.5276Y-7.2244
X4.7244Y-1.0433
X4.7244Y-7.2244
X4.9213Y-1.0433
X4.9213Y-7.2244
X5.1181Y-1.0433
X5.1181Y-7.2244
X5.315Y-1.0433
X5.315Y-7.2244
X5.4528Y-1.0827
X5.4528Y-1.2795
X5.4528Y-1.4764
X5.4528Y-1.6732
X5.4528Y-1.8701
X5.4528Y-2.0669
X5.4528Y-2.2638
X5.4528Y-2.4606
X5.4528Y-2.6575
X5.4528Y-2.8543
X5.4528Y-3.0512
X5.4528Y-3.248
X5.4528Y-3.4449
X5.4528Y-3.6417
X5.4528Y-3.8386
X5.4528Y-4.0354
X5.4528Y-4.2323
X5.4528Y-4.4291
X5.4528Y-4.626
X5.4528Y-4.8228
X5.4528Y-5.0197
X5.4528Y-5.2165
X5.4528Y-5.4134
X5.4528Y-5.6102
X5.4528Y-5.8071
X5.4528Y-6.0039
X5.4528Y-6.2008
X5.4528Y-6.3976
X5.4528Y-6.5945
X5.4528Y-6.7913
X5.4528Y-6.9882
X5.4528Y-7.185
T2
X3.878Y-6.6732
X4.0748Y-6.6732
X3.8583Y-5.9449
X4.0551Y-5.9449
X3.5173Y-6.3583
X3.9173Y-6.3583
X3.3598Y-6.8701
X3.7598Y-6.8701
T3
X3.5039Y-7.0866
X3.6039Y-7.0866
T4
X4.9213Y-1.2008
X4.9213Y-1.378
T5
X4.487Y-5.9421
X4.587Y-5.9421
X4.687Y-5.9421
X3.0252Y-5.315
X3.4252Y-5.315
X4.4866Y-6.9854
X4.5866Y-6.9854
X4.6866Y-6.9854
X3.0252Y-5.0787
X3.4252Y-5.0787
X3.6614Y-5.0787
X4.0614Y-5.0787
X3.6614Y-5.315
X4.0614Y-5.315
T6
X2.4213Y-6.437
X2.7165Y-6.437
X2.4433Y-4.8303
X2.5433Y-2.6303
X2.6433Y-4.8303
X2.7433Y-2.6303
X4.3433Y-2.6303
X4.4433Y-4.8303
X4.5433Y-2.6303
X4.6433Y-4.8303
X2.4213Y-5.6693
X2.7165Y-5.6693
X3.1693Y-5.7677
X3.1693Y-6.3583
T7
X3.4528Y-2.2736
X3.6417Y-2.2736
X4.3504Y-2.2736
X4.5394Y-2.2736
X2.5394Y-2.2736
X2.7283Y-2.2736
T4
G00X4.4409Y-1.2205
M15
G01X4.4409Y-1.2992
M16
G05
G00X4.6654Y-1.1417
M15
G01X4.5866Y-1.1417
M16
G05
G00X4.6654Y-1.378
M15
G01X4.5866Y-1.378
M16
G05
T0
M30
