G04 #@! TF.GenerationSoftware,KiCad,Pcbnew,(5.1.6)-1*
G04 #@! TF.CreationDate,2020-12-21T18:52:40-08:00*
G04 #@! TF.ProjectId,12v1a_psu,31327631-615f-4707-9375-2e6b69636164,1.0*
G04 #@! TF.SameCoordinates,Original*
G04 #@! TF.FileFunction,Legend,Top*
G04 #@! TF.FilePolarity,Positive*
%FSLAX46Y46*%
G04 Gerber Fmt 4.6, Leading zero omitted, Abs format (unit mm)*
G04 Created by KiCad (PCBNEW (5.1.6)-1) date 2020-12-21 18:52:40*
%MOMM*%
%LPD*%
G01*
G04 APERTURE LIST*
%ADD10C,0.300000*%
%ADD11C,0.120000*%
%ADD12C,0.150000*%
G04 APERTURE END LIST*
D10*
X57821428Y-177903571D02*
X56964285Y-177903571D01*
X57392857Y-177903571D02*
X57392857Y-176403571D01*
X57250000Y-176617857D01*
X57107142Y-176760714D01*
X56964285Y-176832142D01*
X58392857Y-176546428D02*
X58464285Y-176475000D01*
X58607142Y-176403571D01*
X58964285Y-176403571D01*
X59107142Y-176475000D01*
X59178571Y-176546428D01*
X59250000Y-176689285D01*
X59250000Y-176832142D01*
X59178571Y-177046428D01*
X58321428Y-177903571D01*
X59250000Y-177903571D01*
X59678571Y-176403571D02*
X60178571Y-177903571D01*
X60678571Y-176403571D01*
X63107142Y-177903571D02*
X62250000Y-177903571D01*
X62678571Y-177903571D02*
X62678571Y-176403571D01*
X62535714Y-176617857D01*
X62392857Y-176760714D01*
X62250000Y-176832142D01*
X63678571Y-177475000D02*
X64392857Y-177475000D01*
X63535714Y-177903571D02*
X64035714Y-176403571D01*
X64535714Y-177903571D01*
X66178571Y-177903571D02*
X66178571Y-176403571D01*
X66750000Y-176403571D01*
X66892857Y-176475000D01*
X66964285Y-176546428D01*
X67035714Y-176689285D01*
X67035714Y-176903571D01*
X66964285Y-177046428D01*
X66892857Y-177117857D01*
X66750000Y-177189285D01*
X66178571Y-177189285D01*
X67607142Y-177832142D02*
X67821428Y-177903571D01*
X68178571Y-177903571D01*
X68321428Y-177832142D01*
X68392857Y-177760714D01*
X68464285Y-177617857D01*
X68464285Y-177475000D01*
X68392857Y-177332142D01*
X68321428Y-177260714D01*
X68178571Y-177189285D01*
X67892857Y-177117857D01*
X67750000Y-177046428D01*
X67678571Y-176975000D01*
X67607142Y-176832142D01*
X67607142Y-176689285D01*
X67678571Y-176546428D01*
X67750000Y-176475000D01*
X67892857Y-176403571D01*
X68250000Y-176403571D01*
X68464285Y-176475000D01*
X69107142Y-176403571D02*
X69107142Y-177617857D01*
X69178571Y-177760714D01*
X69250000Y-177832142D01*
X69392857Y-177903571D01*
X69678571Y-177903571D01*
X69821428Y-177832142D01*
X69892857Y-177760714D01*
X69964285Y-177617857D01*
X69964285Y-176403571D01*
X50464285Y-180025000D02*
X51178571Y-180025000D01*
X50321428Y-180453571D02*
X50821428Y-178953571D01*
X51321428Y-180453571D01*
X52464285Y-180453571D02*
X52464285Y-179667857D01*
X52392857Y-179525000D01*
X52250000Y-179453571D01*
X51964285Y-179453571D01*
X51821428Y-179525000D01*
X52464285Y-180382142D02*
X52321428Y-180453571D01*
X51964285Y-180453571D01*
X51821428Y-180382142D01*
X51750000Y-180239285D01*
X51750000Y-180096428D01*
X51821428Y-179953571D01*
X51964285Y-179882142D01*
X52321428Y-179882142D01*
X52464285Y-179810714D01*
X53178571Y-180453571D02*
X53178571Y-179453571D01*
X53178571Y-179739285D02*
X53250000Y-179596428D01*
X53321428Y-179525000D01*
X53464285Y-179453571D01*
X53607142Y-179453571D01*
X54321428Y-180453571D02*
X54178571Y-180382142D01*
X54107142Y-180310714D01*
X54035714Y-180167857D01*
X54035714Y-179739285D01*
X54107142Y-179596428D01*
X54178571Y-179525000D01*
X54321428Y-179453571D01*
X54535714Y-179453571D01*
X54678571Y-179525000D01*
X54750000Y-179596428D01*
X54821428Y-179739285D01*
X54821428Y-180167857D01*
X54750000Y-180310714D01*
X54678571Y-180382142D01*
X54535714Y-180453571D01*
X54321428Y-180453571D01*
X55464285Y-179453571D02*
X55464285Y-180453571D01*
X55464285Y-179596428D02*
X55535714Y-179525000D01*
X55678571Y-179453571D01*
X55892857Y-179453571D01*
X56035714Y-179525000D01*
X56107142Y-179667857D01*
X56107142Y-180453571D01*
X59178571Y-180453571D02*
X59107142Y-180453571D01*
X58964285Y-180382142D01*
X58750000Y-180167857D01*
X58392857Y-179739285D01*
X58250000Y-179525000D01*
X58178571Y-179310714D01*
X58178571Y-179167857D01*
X58250000Y-179025000D01*
X58392857Y-178953571D01*
X58464285Y-178953571D01*
X58607142Y-179025000D01*
X58678571Y-179167857D01*
X58678571Y-179239285D01*
X58607142Y-179382142D01*
X58535714Y-179453571D01*
X58107142Y-179739285D01*
X58035714Y-179810714D01*
X57964285Y-179953571D01*
X57964285Y-180167857D01*
X58035714Y-180310714D01*
X58107142Y-180382142D01*
X58250000Y-180453571D01*
X58464285Y-180453571D01*
X58607142Y-180382142D01*
X58678571Y-180310714D01*
X58892857Y-180025000D01*
X58964285Y-179810714D01*
X58964285Y-179667857D01*
X61821428Y-180453571D02*
X61321428Y-179739285D01*
X60964285Y-180453571D02*
X60964285Y-178953571D01*
X61535714Y-178953571D01*
X61678571Y-179025000D01*
X61750000Y-179096428D01*
X61821428Y-179239285D01*
X61821428Y-179453571D01*
X61750000Y-179596428D01*
X61678571Y-179667857D01*
X61535714Y-179739285D01*
X60964285Y-179739285D01*
X62321428Y-179453571D02*
X62678571Y-180453571D01*
X63035714Y-179453571D02*
X62678571Y-180453571D01*
X62535714Y-180810714D01*
X62464285Y-180882142D01*
X62321428Y-180953571D01*
X64250000Y-180453571D02*
X64250000Y-179667857D01*
X64178571Y-179525000D01*
X64035714Y-179453571D01*
X63750000Y-179453571D01*
X63607142Y-179525000D01*
X64250000Y-180382142D02*
X64107142Y-180453571D01*
X63750000Y-180453571D01*
X63607142Y-180382142D01*
X63535714Y-180239285D01*
X63535714Y-180096428D01*
X63607142Y-179953571D01*
X63750000Y-179882142D01*
X64107142Y-179882142D01*
X64250000Y-179810714D01*
X64964285Y-179453571D02*
X64964285Y-180453571D01*
X64964285Y-179596428D02*
X65035714Y-179525000D01*
X65178571Y-179453571D01*
X65392857Y-179453571D01*
X65535714Y-179525000D01*
X65607142Y-179667857D01*
X65607142Y-180453571D01*
X67392857Y-180382142D02*
X67607142Y-180453571D01*
X67964285Y-180453571D01*
X68107142Y-180382142D01*
X68178571Y-180310714D01*
X68250000Y-180167857D01*
X68250000Y-180025000D01*
X68178571Y-179882142D01*
X68107142Y-179810714D01*
X67964285Y-179739285D01*
X67678571Y-179667857D01*
X67535714Y-179596428D01*
X67464285Y-179525000D01*
X67392857Y-179382142D01*
X67392857Y-179239285D01*
X67464285Y-179096428D01*
X67535714Y-179025000D01*
X67678571Y-178953571D01*
X68035714Y-178953571D01*
X68250000Y-179025000D01*
X68892857Y-180453571D02*
X68892857Y-178953571D01*
X69535714Y-180453571D02*
X69535714Y-179667857D01*
X69464285Y-179525000D01*
X69321428Y-179453571D01*
X69107142Y-179453571D01*
X68964285Y-179525000D01*
X68892857Y-179596428D01*
X70892857Y-180453571D02*
X70892857Y-179667857D01*
X70821428Y-179525000D01*
X70678571Y-179453571D01*
X70392857Y-179453571D01*
X70250000Y-179525000D01*
X70892857Y-180382142D02*
X70750000Y-180453571D01*
X70392857Y-180453571D01*
X70250000Y-180382142D01*
X70178571Y-180239285D01*
X70178571Y-180096428D01*
X70250000Y-179953571D01*
X70392857Y-179882142D01*
X70750000Y-179882142D01*
X70892857Y-179810714D01*
X71607142Y-179453571D02*
X71607142Y-180953571D01*
X71607142Y-179525000D02*
X71750000Y-179453571D01*
X72035714Y-179453571D01*
X72178571Y-179525000D01*
X72250000Y-179596428D01*
X72321428Y-179739285D01*
X72321428Y-180167857D01*
X72250000Y-180310714D01*
X72178571Y-180382142D01*
X72035714Y-180453571D01*
X71750000Y-180453571D01*
X71607142Y-180382142D01*
X72964285Y-179453571D02*
X72964285Y-180953571D01*
X72964285Y-179525000D02*
X73107142Y-179453571D01*
X73392857Y-179453571D01*
X73535714Y-179525000D01*
X73607142Y-179596428D01*
X73678571Y-179739285D01*
X73678571Y-180167857D01*
X73607142Y-180310714D01*
X73535714Y-180382142D01*
X73392857Y-180453571D01*
X73107142Y-180453571D01*
X72964285Y-180382142D01*
X74892857Y-180382142D02*
X74750000Y-180453571D01*
X74464285Y-180453571D01*
X74321428Y-180382142D01*
X74250000Y-180239285D01*
X74250000Y-179667857D01*
X74321428Y-179525000D01*
X74464285Y-179453571D01*
X74750000Y-179453571D01*
X74892857Y-179525000D01*
X74964285Y-179667857D01*
X74964285Y-179810714D01*
X74250000Y-179953571D01*
X75821428Y-180453571D02*
X75678571Y-180382142D01*
X75607142Y-180239285D01*
X75607142Y-178953571D01*
X76607142Y-180453571D02*
X76464285Y-180382142D01*
X76392857Y-180239285D01*
X76392857Y-178953571D01*
D11*
X111390000Y-147660000D02*
X121630000Y-147660000D01*
X111390000Y-152301000D02*
X121630000Y-152301000D01*
X111390000Y-147660000D02*
X111390000Y-152301000D01*
X121630000Y-147660000D02*
X121630000Y-152301000D01*
X111390000Y-149170000D02*
X121630000Y-149170000D01*
X114660000Y-147660000D02*
X114660000Y-149170000D01*
X118361000Y-147660000D02*
X118361000Y-149170000D01*
X120480000Y-125230000D02*
X120480000Y-64270000D01*
X59520000Y-125230000D02*
X120480000Y-125230000D01*
X59520000Y-64270000D02*
X59520000Y-125230000D01*
X120480000Y-64270000D02*
X59520000Y-64270000D01*
X126200000Y-30500000D02*
G75*
G03*
X126200000Y-30500000I-1200000J0D01*
G01*
X123800000Y-33800000D02*
X126200000Y-33800000D01*
X126200000Y-33800000D02*
X126200000Y-36200000D01*
X126200000Y-36200000D02*
X123800000Y-36200000D01*
X123800000Y-36200000D02*
X123800000Y-33800000D01*
X97690000Y-162870000D02*
X97690000Y-160130000D01*
X97690000Y-160130000D02*
X91150000Y-160130000D01*
X91150000Y-160130000D02*
X91150000Y-162870000D01*
X91150000Y-162870000D02*
X97690000Y-162870000D01*
X98460000Y-161500000D02*
X97690000Y-161500000D01*
X90380000Y-161500000D02*
X91150000Y-161500000D01*
X93690000Y-175870000D02*
X93690000Y-173130000D01*
X93690000Y-173130000D02*
X87150000Y-173130000D01*
X87150000Y-173130000D02*
X87150000Y-175870000D01*
X87150000Y-175870000D02*
X93690000Y-175870000D01*
X94460000Y-174500000D02*
X93690000Y-174500000D01*
X86380000Y-174500000D02*
X87150000Y-174500000D01*
X111380000Y-174160000D02*
X121620000Y-174160000D01*
X111380000Y-178801000D02*
X121620000Y-178801000D01*
X111380000Y-174160000D02*
X111380000Y-178801000D01*
X121620000Y-174160000D02*
X121620000Y-178801000D01*
X111380000Y-175670000D02*
X121620000Y-175670000D01*
X114650000Y-174160000D02*
X114650000Y-175670000D01*
X118351000Y-174160000D02*
X118351000Y-175670000D01*
X122100000Y-35900000D02*
X119500000Y-35900000D01*
X122100000Y-21200000D02*
X122100000Y-35900000D01*
X112900000Y-35900000D02*
X112900000Y-34000000D01*
X115600000Y-35900000D02*
X112900000Y-35900000D01*
X112900000Y-21200000D02*
X122100000Y-21200000D01*
X112900000Y-30000000D02*
X112900000Y-21200000D01*
X122300000Y-35050000D02*
X122300000Y-36100000D01*
X121250000Y-36100000D02*
X122300000Y-36100000D01*
X87710000Y-181210000D02*
X87710000Y-187370000D01*
X92830000Y-181210000D02*
X92830000Y-187370000D01*
X87710000Y-181210000D02*
X92830000Y-181210000D01*
X93230000Y-181210000D02*
X93230000Y-182330000D01*
X93230000Y-182330000D02*
X92830000Y-182330000D01*
X92830000Y-182330000D02*
X92830000Y-181210000D01*
X92830000Y-181210000D02*
X93230000Y-181210000D01*
X89000000Y-181080000D02*
X89000000Y-181210000D01*
X89000000Y-181210000D02*
X89000000Y-181210000D01*
X89000000Y-181210000D02*
X89000000Y-181080000D01*
X89000000Y-181080000D02*
X89000000Y-181080000D01*
X91540000Y-181080000D02*
X91540000Y-181210000D01*
X91540000Y-181210000D02*
X91540000Y-181210000D01*
X91540000Y-181210000D02*
X91540000Y-181080000D01*
X91540000Y-181080000D02*
X91540000Y-181080000D01*
X92830000Y-187370000D02*
G75*
G02*
X87710000Y-187370000I-2560000J0D01*
G01*
X100800000Y-136470000D02*
X100800000Y-133530000D01*
X100800000Y-133530000D02*
X95360000Y-133530000D01*
X95360000Y-133530000D02*
X95360000Y-136470000D01*
X95360000Y-136470000D02*
X100800000Y-136470000D01*
X101820000Y-135000000D02*
X100800000Y-135000000D01*
X94340000Y-135000000D02*
X95360000Y-135000000D01*
X99900000Y-136470000D02*
X99900000Y-133530000D01*
X99780000Y-136470000D02*
X99780000Y-133530000D01*
X100020000Y-136470000D02*
X100020000Y-133530000D01*
X79200000Y-133530000D02*
X79200000Y-136470000D01*
X79200000Y-136470000D02*
X84640000Y-136470000D01*
X84640000Y-136470000D02*
X84640000Y-133530000D01*
X84640000Y-133530000D02*
X79200000Y-133530000D01*
X78180000Y-135000000D02*
X79200000Y-135000000D01*
X85660000Y-135000000D02*
X84640000Y-135000000D01*
X80100000Y-133530000D02*
X80100000Y-136470000D01*
X80220000Y-133530000D02*
X80220000Y-136470000D01*
X79980000Y-133530000D02*
X79980000Y-136470000D01*
X100800000Y-130470000D02*
X100800000Y-127530000D01*
X100800000Y-127530000D02*
X95360000Y-127530000D01*
X95360000Y-127530000D02*
X95360000Y-130470000D01*
X95360000Y-130470000D02*
X100800000Y-130470000D01*
X101820000Y-129000000D02*
X100800000Y-129000000D01*
X94340000Y-129000000D02*
X95360000Y-129000000D01*
X99900000Y-130470000D02*
X99900000Y-127530000D01*
X99780000Y-130470000D02*
X99780000Y-127530000D01*
X100020000Y-130470000D02*
X100020000Y-127530000D01*
X79200000Y-127530000D02*
X79200000Y-130470000D01*
X79200000Y-130470000D02*
X84640000Y-130470000D01*
X84640000Y-130470000D02*
X84640000Y-127530000D01*
X84640000Y-127530000D02*
X79200000Y-127530000D01*
X78180000Y-129000000D02*
X79200000Y-129000000D01*
X85660000Y-129000000D02*
X84640000Y-129000000D01*
X80100000Y-127530000D02*
X80100000Y-130470000D01*
X80220000Y-127530000D02*
X80220000Y-130470000D01*
X79980000Y-127530000D02*
X79980000Y-130470000D01*
X104720000Y-170870000D02*
X97280000Y-170870000D01*
X104720000Y-168130000D02*
X97280000Y-168130000D01*
X104720000Y-170870000D02*
X104720000Y-168130000D01*
X97280000Y-170870000D02*
X97280000Y-168130000D01*
X104220000Y-152870000D02*
X96780000Y-152870000D01*
X104220000Y-149130000D02*
X96780000Y-149130000D01*
X104220000Y-152870000D02*
X104220000Y-149130000D01*
X96780000Y-152870000D02*
X96780000Y-149130000D01*
X76380000Y-163120000D02*
X76380000Y-144880000D01*
X84620000Y-163120000D02*
X84620000Y-144880000D01*
X76380000Y-163120000D02*
X84620000Y-163120000D01*
X76380000Y-144880000D02*
X84620000Y-144880000D01*
X73370000Y-144000000D02*
G75*
G03*
X73370000Y-144000000I-8120000J0D01*
G01*
X65250000Y-152081000D02*
X65250000Y-135919000D01*
X65210000Y-152080000D02*
X65210000Y-135920000D01*
X65170000Y-152080000D02*
X65170000Y-135920000D01*
X65130000Y-152080000D02*
X65130000Y-135920000D01*
X65090000Y-152079000D02*
X65090000Y-135921000D01*
X65050000Y-152078000D02*
X65050000Y-135922000D01*
X65010000Y-152077000D02*
X65010000Y-135923000D01*
X64970000Y-152076000D02*
X64970000Y-135924000D01*
X64930000Y-152074000D02*
X64930000Y-135926000D01*
X64890000Y-152073000D02*
X64890000Y-135927000D01*
X64850000Y-152071000D02*
X64850000Y-135929000D01*
X64810000Y-152069000D02*
X64810000Y-135931000D01*
X64770000Y-152066000D02*
X64770000Y-135934000D01*
X64730000Y-152064000D02*
X64730000Y-135936000D01*
X64690000Y-152061000D02*
X64690000Y-135939000D01*
X64650000Y-152058000D02*
X64650000Y-135942000D01*
X64610000Y-152055000D02*
X64610000Y-135945000D01*
X64570000Y-152052000D02*
X64570000Y-135948000D01*
X64529000Y-152049000D02*
X64529000Y-135951000D01*
X64489000Y-152045000D02*
X64489000Y-135955000D01*
X64449000Y-152041000D02*
X64449000Y-135959000D01*
X64409000Y-152037000D02*
X64409000Y-135963000D01*
X64369000Y-152033000D02*
X64369000Y-135967000D01*
X64329000Y-152028000D02*
X64329000Y-135972000D01*
X64289000Y-152024000D02*
X64289000Y-135976000D01*
X64249000Y-152019000D02*
X64249000Y-135981000D01*
X64209000Y-152014000D02*
X64209000Y-135986000D01*
X64169000Y-152008000D02*
X64169000Y-135992000D01*
X64129000Y-152003000D02*
X64129000Y-135997000D01*
X64089000Y-151997000D02*
X64089000Y-136003000D01*
X64049000Y-151991000D02*
X64049000Y-136009000D01*
X64009000Y-151985000D02*
X64009000Y-136015000D01*
X63969000Y-151979000D02*
X63969000Y-136021000D01*
X63929000Y-151972000D02*
X63929000Y-136028000D01*
X63889000Y-151966000D02*
X63889000Y-136034000D01*
X63849000Y-151959000D02*
X63849000Y-136041000D01*
X63809000Y-151952000D02*
X63809000Y-136048000D01*
X63769000Y-151944000D02*
X63769000Y-136056000D01*
X63729000Y-151937000D02*
X63729000Y-136063000D01*
X63689000Y-151929000D02*
X63689000Y-136071000D01*
X63649000Y-151921000D02*
X63649000Y-136079000D01*
X63609000Y-151913000D02*
X63609000Y-136087000D01*
X63569000Y-151905000D02*
X63569000Y-136095000D01*
X63529000Y-151896000D02*
X63529000Y-136104000D01*
X63489000Y-151887000D02*
X63489000Y-136113000D01*
X63449000Y-151878000D02*
X63449000Y-136122000D01*
X63409000Y-151869000D02*
X63409000Y-136131000D01*
X63369000Y-151860000D02*
X63369000Y-136140000D01*
X63329000Y-151850000D02*
X63329000Y-136150000D01*
X63289000Y-151840000D02*
X63289000Y-136160000D01*
X63249000Y-151830000D02*
X63249000Y-136170000D01*
X63209000Y-151820000D02*
X63209000Y-136180000D01*
X63169000Y-151810000D02*
X63169000Y-136190000D01*
X63129000Y-151799000D02*
X63129000Y-136201000D01*
X63089000Y-151788000D02*
X63089000Y-136212000D01*
X63049000Y-151777000D02*
X63049000Y-136223000D01*
X63009000Y-151765000D02*
X63009000Y-136235000D01*
X62969000Y-151754000D02*
X62969000Y-136246000D01*
X62929000Y-151742000D02*
X62929000Y-145440000D01*
X62929000Y-142560000D02*
X62929000Y-136258000D01*
X62889000Y-151730000D02*
X62889000Y-145440000D01*
X62889000Y-142560000D02*
X62889000Y-136270000D01*
X62849000Y-151718000D02*
X62849000Y-145440000D01*
X62849000Y-142560000D02*
X62849000Y-136282000D01*
X62809000Y-151705000D02*
X62809000Y-145440000D01*
X62809000Y-142560000D02*
X62809000Y-136295000D01*
X62769000Y-151693000D02*
X62769000Y-145440000D01*
X62769000Y-142560000D02*
X62769000Y-136307000D01*
X62729000Y-151680000D02*
X62729000Y-145440000D01*
X62729000Y-142560000D02*
X62729000Y-136320000D01*
X62689000Y-151666000D02*
X62689000Y-145440000D01*
X62689000Y-142560000D02*
X62689000Y-136334000D01*
X62649000Y-151653000D02*
X62649000Y-145440000D01*
X62649000Y-142560000D02*
X62649000Y-136347000D01*
X62609000Y-151639000D02*
X62609000Y-145440000D01*
X62609000Y-142560000D02*
X62609000Y-136361000D01*
X62569000Y-151625000D02*
X62569000Y-145440000D01*
X62569000Y-142560000D02*
X62569000Y-136375000D01*
X62529000Y-151611000D02*
X62529000Y-145440000D01*
X62529000Y-142560000D02*
X62529000Y-136389000D01*
X62489000Y-151597000D02*
X62489000Y-145440000D01*
X62489000Y-142560000D02*
X62489000Y-136403000D01*
X62449000Y-151582000D02*
X62449000Y-145440000D01*
X62449000Y-142560000D02*
X62449000Y-136418000D01*
X62409000Y-151568000D02*
X62409000Y-145440000D01*
X62409000Y-142560000D02*
X62409000Y-136432000D01*
X62369000Y-151553000D02*
X62369000Y-145440000D01*
X62369000Y-142560000D02*
X62369000Y-136447000D01*
X62329000Y-151537000D02*
X62329000Y-145440000D01*
X62329000Y-142560000D02*
X62329000Y-136463000D01*
X62289000Y-151522000D02*
X62289000Y-145440000D01*
X62289000Y-142560000D02*
X62289000Y-136478000D01*
X62249000Y-151506000D02*
X62249000Y-145440000D01*
X62249000Y-142560000D02*
X62249000Y-136494000D01*
X62209000Y-151490000D02*
X62209000Y-145440000D01*
X62209000Y-142560000D02*
X62209000Y-136510000D01*
X62169000Y-151474000D02*
X62169000Y-145440000D01*
X62169000Y-142560000D02*
X62169000Y-136526000D01*
X62129000Y-151457000D02*
X62129000Y-145440000D01*
X62129000Y-142560000D02*
X62129000Y-136543000D01*
X62089000Y-151440000D02*
X62089000Y-145440000D01*
X62089000Y-142560000D02*
X62089000Y-136560000D01*
X62049000Y-151423000D02*
X62049000Y-145440000D01*
X62049000Y-142560000D02*
X62049000Y-136577000D01*
X62009000Y-151406000D02*
X62009000Y-145440000D01*
X62009000Y-142560000D02*
X62009000Y-136594000D01*
X61969000Y-151389000D02*
X61969000Y-145440000D01*
X61969000Y-142560000D02*
X61969000Y-136611000D01*
X61929000Y-151371000D02*
X61929000Y-145440000D01*
X61929000Y-142560000D02*
X61929000Y-136629000D01*
X61889000Y-151353000D02*
X61889000Y-145440000D01*
X61889000Y-142560000D02*
X61889000Y-136647000D01*
X61849000Y-151334000D02*
X61849000Y-145440000D01*
X61849000Y-142560000D02*
X61849000Y-136666000D01*
X61809000Y-151316000D02*
X61809000Y-145440000D01*
X61809000Y-142560000D02*
X61809000Y-136684000D01*
X61769000Y-151297000D02*
X61769000Y-145440000D01*
X61769000Y-142560000D02*
X61769000Y-136703000D01*
X61729000Y-151278000D02*
X61729000Y-145440000D01*
X61729000Y-142560000D02*
X61729000Y-136722000D01*
X61689000Y-151258000D02*
X61689000Y-145440000D01*
X61689000Y-142560000D02*
X61689000Y-136742000D01*
X61649000Y-151239000D02*
X61649000Y-145440000D01*
X61649000Y-142560000D02*
X61649000Y-136761000D01*
X61609000Y-151219000D02*
X61609000Y-145440000D01*
X61609000Y-142560000D02*
X61609000Y-136781000D01*
X61569000Y-151199000D02*
X61569000Y-145440000D01*
X61569000Y-142560000D02*
X61569000Y-136801000D01*
X61529000Y-151178000D02*
X61529000Y-145440000D01*
X61529000Y-142560000D02*
X61529000Y-136822000D01*
X61489000Y-151157000D02*
X61489000Y-145440000D01*
X61489000Y-142560000D02*
X61489000Y-136843000D01*
X61449000Y-151136000D02*
X61449000Y-145440000D01*
X61449000Y-142560000D02*
X61449000Y-136864000D01*
X61409000Y-151115000D02*
X61409000Y-145440000D01*
X61409000Y-142560000D02*
X61409000Y-136885000D01*
X61369000Y-151094000D02*
X61369000Y-145440000D01*
X61369000Y-142560000D02*
X61369000Y-136906000D01*
X61329000Y-151072000D02*
X61329000Y-145440000D01*
X61329000Y-142560000D02*
X61329000Y-136928000D01*
X61289000Y-151049000D02*
X61289000Y-145440000D01*
X61289000Y-142560000D02*
X61289000Y-136951000D01*
X61249000Y-151027000D02*
X61249000Y-145440000D01*
X61249000Y-142560000D02*
X61249000Y-136973000D01*
X61209000Y-151004000D02*
X61209000Y-145440000D01*
X61209000Y-142560000D02*
X61209000Y-136996000D01*
X61169000Y-150981000D02*
X61169000Y-145440000D01*
X61169000Y-142560000D02*
X61169000Y-137019000D01*
X61129000Y-150958000D02*
X61129000Y-145440000D01*
X61129000Y-142560000D02*
X61129000Y-137042000D01*
X61089000Y-150934000D02*
X61089000Y-145440000D01*
X61089000Y-142560000D02*
X61089000Y-137066000D01*
X61049000Y-150910000D02*
X61049000Y-145440000D01*
X61049000Y-142560000D02*
X61049000Y-137090000D01*
X61009000Y-150886000D02*
X61009000Y-145440000D01*
X61009000Y-142560000D02*
X61009000Y-137114000D01*
X60969000Y-150861000D02*
X60969000Y-145440000D01*
X60969000Y-142560000D02*
X60969000Y-137139000D01*
X60929000Y-150836000D02*
X60929000Y-145440000D01*
X60929000Y-142560000D02*
X60929000Y-137164000D01*
X60889000Y-150811000D02*
X60889000Y-145440000D01*
X60889000Y-142560000D02*
X60889000Y-137189000D01*
X60849000Y-150785000D02*
X60849000Y-145440000D01*
X60849000Y-142560000D02*
X60849000Y-137215000D01*
X60809000Y-150759000D02*
X60809000Y-145440000D01*
X60809000Y-142560000D02*
X60809000Y-137241000D01*
X60769000Y-150733000D02*
X60769000Y-145440000D01*
X60769000Y-142560000D02*
X60769000Y-137267000D01*
X60729000Y-150706000D02*
X60729000Y-145440000D01*
X60729000Y-142560000D02*
X60729000Y-137294000D01*
X60689000Y-150679000D02*
X60689000Y-145440000D01*
X60689000Y-142560000D02*
X60689000Y-137321000D01*
X60649000Y-150652000D02*
X60649000Y-145440000D01*
X60649000Y-142560000D02*
X60649000Y-137348000D01*
X60609000Y-150624000D02*
X60609000Y-145440000D01*
X60609000Y-142560000D02*
X60609000Y-137376000D01*
X60569000Y-150596000D02*
X60569000Y-145440000D01*
X60569000Y-142560000D02*
X60569000Y-137404000D01*
X60529000Y-150568000D02*
X60529000Y-145440000D01*
X60529000Y-142560000D02*
X60529000Y-137432000D01*
X60489000Y-150539000D02*
X60489000Y-145440000D01*
X60489000Y-142560000D02*
X60489000Y-137461000D01*
X60449000Y-150510000D02*
X60449000Y-145440000D01*
X60449000Y-142560000D02*
X60449000Y-137490000D01*
X60409000Y-150480000D02*
X60409000Y-145440000D01*
X60409000Y-142560000D02*
X60409000Y-137520000D01*
X60369000Y-150450000D02*
X60369000Y-145440000D01*
X60369000Y-142560000D02*
X60369000Y-137550000D01*
X60329000Y-150420000D02*
X60329000Y-145440000D01*
X60329000Y-142560000D02*
X60329000Y-137580000D01*
X60289000Y-150390000D02*
X60289000Y-145440000D01*
X60289000Y-142560000D02*
X60289000Y-137610000D01*
X60249000Y-150358000D02*
X60249000Y-145440000D01*
X60249000Y-142560000D02*
X60249000Y-137642000D01*
X60209000Y-150327000D02*
X60209000Y-145440000D01*
X60209000Y-142560000D02*
X60209000Y-137673000D01*
X60169000Y-150295000D02*
X60169000Y-145440000D01*
X60169000Y-142560000D02*
X60169000Y-137705000D01*
X60129000Y-150263000D02*
X60129000Y-145440000D01*
X60129000Y-142560000D02*
X60129000Y-137737000D01*
X60089000Y-150230000D02*
X60089000Y-145440000D01*
X60089000Y-142560000D02*
X60089000Y-137770000D01*
X60049000Y-150197000D02*
X60049000Y-137803000D01*
X60009000Y-150163000D02*
X60009000Y-137837000D01*
X59969000Y-150129000D02*
X59969000Y-137871000D01*
X59929000Y-150095000D02*
X59929000Y-137905000D01*
X59889000Y-150060000D02*
X59889000Y-137940000D01*
X59849000Y-150025000D02*
X59849000Y-137975000D01*
X59809000Y-149989000D02*
X59809000Y-138011000D01*
X59769000Y-149952000D02*
X59769000Y-138048000D01*
X59729000Y-149916000D02*
X59729000Y-138084000D01*
X59689000Y-149878000D02*
X59689000Y-138122000D01*
X59649000Y-149840000D02*
X59649000Y-138160000D01*
X59609000Y-149802000D02*
X59609000Y-138198000D01*
X59569000Y-149763000D02*
X59569000Y-138237000D01*
X59529000Y-149724000D02*
X59529000Y-138276000D01*
X59489000Y-149684000D02*
X59489000Y-138316000D01*
X59449000Y-149643000D02*
X59449000Y-138357000D01*
X59409000Y-149602000D02*
X59409000Y-138398000D01*
X59369000Y-149560000D02*
X59369000Y-138440000D01*
X59329000Y-149518000D02*
X59329000Y-138482000D01*
X59289000Y-149475000D02*
X59289000Y-138525000D01*
X59249000Y-149432000D02*
X59249000Y-138568000D01*
X59209000Y-149388000D02*
X59209000Y-138612000D01*
X59169000Y-149343000D02*
X59169000Y-138657000D01*
X59129000Y-149297000D02*
X59129000Y-138703000D01*
X59089000Y-149251000D02*
X59089000Y-138749000D01*
X59049000Y-149204000D02*
X59049000Y-138796000D01*
X59009000Y-149156000D02*
X59009000Y-138844000D01*
X58969000Y-149108000D02*
X58969000Y-138892000D01*
X58929000Y-149059000D02*
X58929000Y-138941000D01*
X58889000Y-149009000D02*
X58889000Y-138991000D01*
X58849000Y-148958000D02*
X58849000Y-139042000D01*
X58809000Y-148906000D02*
X58809000Y-139094000D01*
X58769000Y-148854000D02*
X58769000Y-139146000D01*
X58729000Y-148800000D02*
X58729000Y-139200000D01*
X58689000Y-148746000D02*
X58689000Y-139254000D01*
X58649000Y-148691000D02*
X58649000Y-139309000D01*
X58609000Y-148634000D02*
X58609000Y-139366000D01*
X58569000Y-148577000D02*
X58569000Y-139423000D01*
X58529000Y-148519000D02*
X58529000Y-139481000D01*
X58489000Y-148459000D02*
X58489000Y-139541000D01*
X58449000Y-148398000D02*
X58449000Y-139602000D01*
X58409000Y-148336000D02*
X58409000Y-139664000D01*
X58369000Y-148273000D02*
X58369000Y-139727000D01*
X58329000Y-148209000D02*
X58329000Y-139791000D01*
X58289000Y-148143000D02*
X58289000Y-139857000D01*
X58249000Y-148076000D02*
X58249000Y-139924000D01*
X58209000Y-148007000D02*
X58209000Y-139993000D01*
X58169000Y-147936000D02*
X58169000Y-140064000D01*
X58129000Y-147864000D02*
X58129000Y-140136000D01*
X58089000Y-147790000D02*
X58089000Y-140210000D01*
X58049000Y-147715000D02*
X58049000Y-140285000D01*
X58009000Y-147637000D02*
X58009000Y-140363000D01*
X57969000Y-147557000D02*
X57969000Y-140443000D01*
X57929000Y-147475000D02*
X57929000Y-140525000D01*
X57889000Y-147390000D02*
X57889000Y-140610000D01*
X57849000Y-147303000D02*
X57849000Y-140697000D01*
X57809000Y-147213000D02*
X57809000Y-140787000D01*
X57769000Y-147120000D02*
X57769000Y-140880000D01*
X57729000Y-147024000D02*
X57729000Y-140976000D01*
X57689000Y-146924000D02*
X57689000Y-141076000D01*
X57649000Y-146820000D02*
X57649000Y-141180000D01*
X57609000Y-146711000D02*
X57609000Y-141289000D01*
X57569000Y-146597000D02*
X57569000Y-141403000D01*
X57529000Y-146478000D02*
X57529000Y-141522000D01*
X57489000Y-146351000D02*
X57489000Y-141649000D01*
X57449000Y-146218000D02*
X57449000Y-141782000D01*
X57409000Y-146074000D02*
X57409000Y-141926000D01*
X57369000Y-145920000D02*
X57369000Y-142080000D01*
X57329000Y-145752000D02*
X57329000Y-142248000D01*
X57289000Y-145564000D02*
X57289000Y-142436000D01*
X57249000Y-145351000D02*
X57249000Y-142649000D01*
X57209000Y-145098000D02*
X57209000Y-142902000D01*
X57169000Y-144765000D02*
X57169000Y-143235000D01*
X73939491Y-148555000D02*
X72339491Y-148555000D01*
X73139491Y-149355000D02*
X73139491Y-147755000D01*
X73370000Y-163500000D02*
G75*
G03*
X73370000Y-163500000I-8120000J0D01*
G01*
X65250000Y-171581000D02*
X65250000Y-155419000D01*
X65210000Y-171580000D02*
X65210000Y-155420000D01*
X65170000Y-171580000D02*
X65170000Y-155420000D01*
X65130000Y-171580000D02*
X65130000Y-155420000D01*
X65090000Y-171579000D02*
X65090000Y-155421000D01*
X65050000Y-171578000D02*
X65050000Y-155422000D01*
X65010000Y-171577000D02*
X65010000Y-155423000D01*
X64970000Y-171576000D02*
X64970000Y-155424000D01*
X64930000Y-171574000D02*
X64930000Y-155426000D01*
X64890000Y-171573000D02*
X64890000Y-155427000D01*
X64850000Y-171571000D02*
X64850000Y-155429000D01*
X64810000Y-171569000D02*
X64810000Y-155431000D01*
X64770000Y-171566000D02*
X64770000Y-155434000D01*
X64730000Y-171564000D02*
X64730000Y-155436000D01*
X64690000Y-171561000D02*
X64690000Y-155439000D01*
X64650000Y-171558000D02*
X64650000Y-155442000D01*
X64610000Y-171555000D02*
X64610000Y-155445000D01*
X64570000Y-171552000D02*
X64570000Y-155448000D01*
X64529000Y-171549000D02*
X64529000Y-155451000D01*
X64489000Y-171545000D02*
X64489000Y-155455000D01*
X64449000Y-171541000D02*
X64449000Y-155459000D01*
X64409000Y-171537000D02*
X64409000Y-155463000D01*
X64369000Y-171533000D02*
X64369000Y-155467000D01*
X64329000Y-171528000D02*
X64329000Y-155472000D01*
X64289000Y-171524000D02*
X64289000Y-155476000D01*
X64249000Y-171519000D02*
X64249000Y-155481000D01*
X64209000Y-171514000D02*
X64209000Y-155486000D01*
X64169000Y-171508000D02*
X64169000Y-155492000D01*
X64129000Y-171503000D02*
X64129000Y-155497000D01*
X64089000Y-171497000D02*
X64089000Y-155503000D01*
X64049000Y-171491000D02*
X64049000Y-155509000D01*
X64009000Y-171485000D02*
X64009000Y-155515000D01*
X63969000Y-171479000D02*
X63969000Y-155521000D01*
X63929000Y-171472000D02*
X63929000Y-155528000D01*
X63889000Y-171466000D02*
X63889000Y-155534000D01*
X63849000Y-171459000D02*
X63849000Y-155541000D01*
X63809000Y-171452000D02*
X63809000Y-155548000D01*
X63769000Y-171444000D02*
X63769000Y-155556000D01*
X63729000Y-171437000D02*
X63729000Y-155563000D01*
X63689000Y-171429000D02*
X63689000Y-155571000D01*
X63649000Y-171421000D02*
X63649000Y-155579000D01*
X63609000Y-171413000D02*
X63609000Y-155587000D01*
X63569000Y-171405000D02*
X63569000Y-155595000D01*
X63529000Y-171396000D02*
X63529000Y-155604000D01*
X63489000Y-171387000D02*
X63489000Y-155613000D01*
X63449000Y-171378000D02*
X63449000Y-155622000D01*
X63409000Y-171369000D02*
X63409000Y-155631000D01*
X63369000Y-171360000D02*
X63369000Y-155640000D01*
X63329000Y-171350000D02*
X63329000Y-155650000D01*
X63289000Y-171340000D02*
X63289000Y-155660000D01*
X63249000Y-171330000D02*
X63249000Y-155670000D01*
X63209000Y-171320000D02*
X63209000Y-155680000D01*
X63169000Y-171310000D02*
X63169000Y-155690000D01*
X63129000Y-171299000D02*
X63129000Y-155701000D01*
X63089000Y-171288000D02*
X63089000Y-155712000D01*
X63049000Y-171277000D02*
X63049000Y-155723000D01*
X63009000Y-171265000D02*
X63009000Y-155735000D01*
X62969000Y-171254000D02*
X62969000Y-155746000D01*
X62929000Y-171242000D02*
X62929000Y-164940000D01*
X62929000Y-162060000D02*
X62929000Y-155758000D01*
X62889000Y-171230000D02*
X62889000Y-164940000D01*
X62889000Y-162060000D02*
X62889000Y-155770000D01*
X62849000Y-171218000D02*
X62849000Y-164940000D01*
X62849000Y-162060000D02*
X62849000Y-155782000D01*
X62809000Y-171205000D02*
X62809000Y-164940000D01*
X62809000Y-162060000D02*
X62809000Y-155795000D01*
X62769000Y-171193000D02*
X62769000Y-164940000D01*
X62769000Y-162060000D02*
X62769000Y-155807000D01*
X62729000Y-171180000D02*
X62729000Y-164940000D01*
X62729000Y-162060000D02*
X62729000Y-155820000D01*
X62689000Y-171166000D02*
X62689000Y-164940000D01*
X62689000Y-162060000D02*
X62689000Y-155834000D01*
X62649000Y-171153000D02*
X62649000Y-164940000D01*
X62649000Y-162060000D02*
X62649000Y-155847000D01*
X62609000Y-171139000D02*
X62609000Y-164940000D01*
X62609000Y-162060000D02*
X62609000Y-155861000D01*
X62569000Y-171125000D02*
X62569000Y-164940000D01*
X62569000Y-162060000D02*
X62569000Y-155875000D01*
X62529000Y-171111000D02*
X62529000Y-164940000D01*
X62529000Y-162060000D02*
X62529000Y-155889000D01*
X62489000Y-171097000D02*
X62489000Y-164940000D01*
X62489000Y-162060000D02*
X62489000Y-155903000D01*
X62449000Y-171082000D02*
X62449000Y-164940000D01*
X62449000Y-162060000D02*
X62449000Y-155918000D01*
X62409000Y-171068000D02*
X62409000Y-164940000D01*
X62409000Y-162060000D02*
X62409000Y-155932000D01*
X62369000Y-171053000D02*
X62369000Y-164940000D01*
X62369000Y-162060000D02*
X62369000Y-155947000D01*
X62329000Y-171037000D02*
X62329000Y-164940000D01*
X62329000Y-162060000D02*
X62329000Y-155963000D01*
X62289000Y-171022000D02*
X62289000Y-164940000D01*
X62289000Y-162060000D02*
X62289000Y-155978000D01*
X62249000Y-171006000D02*
X62249000Y-164940000D01*
X62249000Y-162060000D02*
X62249000Y-155994000D01*
X62209000Y-170990000D02*
X62209000Y-164940000D01*
X62209000Y-162060000D02*
X62209000Y-156010000D01*
X62169000Y-170974000D02*
X62169000Y-164940000D01*
X62169000Y-162060000D02*
X62169000Y-156026000D01*
X62129000Y-170957000D02*
X62129000Y-164940000D01*
X62129000Y-162060000D02*
X62129000Y-156043000D01*
X62089000Y-170940000D02*
X62089000Y-164940000D01*
X62089000Y-162060000D02*
X62089000Y-156060000D01*
X62049000Y-170923000D02*
X62049000Y-164940000D01*
X62049000Y-162060000D02*
X62049000Y-156077000D01*
X62009000Y-170906000D02*
X62009000Y-164940000D01*
X62009000Y-162060000D02*
X62009000Y-156094000D01*
X61969000Y-170889000D02*
X61969000Y-164940000D01*
X61969000Y-162060000D02*
X61969000Y-156111000D01*
X61929000Y-170871000D02*
X61929000Y-164940000D01*
X61929000Y-162060000D02*
X61929000Y-156129000D01*
X61889000Y-170853000D02*
X61889000Y-164940000D01*
X61889000Y-162060000D02*
X61889000Y-156147000D01*
X61849000Y-170834000D02*
X61849000Y-164940000D01*
X61849000Y-162060000D02*
X61849000Y-156166000D01*
X61809000Y-170816000D02*
X61809000Y-164940000D01*
X61809000Y-162060000D02*
X61809000Y-156184000D01*
X61769000Y-170797000D02*
X61769000Y-164940000D01*
X61769000Y-162060000D02*
X61769000Y-156203000D01*
X61729000Y-170778000D02*
X61729000Y-164940000D01*
X61729000Y-162060000D02*
X61729000Y-156222000D01*
X61689000Y-170758000D02*
X61689000Y-164940000D01*
X61689000Y-162060000D02*
X61689000Y-156242000D01*
X61649000Y-170739000D02*
X61649000Y-164940000D01*
X61649000Y-162060000D02*
X61649000Y-156261000D01*
X61609000Y-170719000D02*
X61609000Y-164940000D01*
X61609000Y-162060000D02*
X61609000Y-156281000D01*
X61569000Y-170699000D02*
X61569000Y-164940000D01*
X61569000Y-162060000D02*
X61569000Y-156301000D01*
X61529000Y-170678000D02*
X61529000Y-164940000D01*
X61529000Y-162060000D02*
X61529000Y-156322000D01*
X61489000Y-170657000D02*
X61489000Y-164940000D01*
X61489000Y-162060000D02*
X61489000Y-156343000D01*
X61449000Y-170636000D02*
X61449000Y-164940000D01*
X61449000Y-162060000D02*
X61449000Y-156364000D01*
X61409000Y-170615000D02*
X61409000Y-164940000D01*
X61409000Y-162060000D02*
X61409000Y-156385000D01*
X61369000Y-170594000D02*
X61369000Y-164940000D01*
X61369000Y-162060000D02*
X61369000Y-156406000D01*
X61329000Y-170572000D02*
X61329000Y-164940000D01*
X61329000Y-162060000D02*
X61329000Y-156428000D01*
X61289000Y-170549000D02*
X61289000Y-164940000D01*
X61289000Y-162060000D02*
X61289000Y-156451000D01*
X61249000Y-170527000D02*
X61249000Y-164940000D01*
X61249000Y-162060000D02*
X61249000Y-156473000D01*
X61209000Y-170504000D02*
X61209000Y-164940000D01*
X61209000Y-162060000D02*
X61209000Y-156496000D01*
X61169000Y-170481000D02*
X61169000Y-164940000D01*
X61169000Y-162060000D02*
X61169000Y-156519000D01*
X61129000Y-170458000D02*
X61129000Y-164940000D01*
X61129000Y-162060000D02*
X61129000Y-156542000D01*
X61089000Y-170434000D02*
X61089000Y-164940000D01*
X61089000Y-162060000D02*
X61089000Y-156566000D01*
X61049000Y-170410000D02*
X61049000Y-164940000D01*
X61049000Y-162060000D02*
X61049000Y-156590000D01*
X61009000Y-170386000D02*
X61009000Y-164940000D01*
X61009000Y-162060000D02*
X61009000Y-156614000D01*
X60969000Y-170361000D02*
X60969000Y-164940000D01*
X60969000Y-162060000D02*
X60969000Y-156639000D01*
X60929000Y-170336000D02*
X60929000Y-164940000D01*
X60929000Y-162060000D02*
X60929000Y-156664000D01*
X60889000Y-170311000D02*
X60889000Y-164940000D01*
X60889000Y-162060000D02*
X60889000Y-156689000D01*
X60849000Y-170285000D02*
X60849000Y-164940000D01*
X60849000Y-162060000D02*
X60849000Y-156715000D01*
X60809000Y-170259000D02*
X60809000Y-164940000D01*
X60809000Y-162060000D02*
X60809000Y-156741000D01*
X60769000Y-170233000D02*
X60769000Y-164940000D01*
X60769000Y-162060000D02*
X60769000Y-156767000D01*
X60729000Y-170206000D02*
X60729000Y-164940000D01*
X60729000Y-162060000D02*
X60729000Y-156794000D01*
X60689000Y-170179000D02*
X60689000Y-164940000D01*
X60689000Y-162060000D02*
X60689000Y-156821000D01*
X60649000Y-170152000D02*
X60649000Y-164940000D01*
X60649000Y-162060000D02*
X60649000Y-156848000D01*
X60609000Y-170124000D02*
X60609000Y-164940000D01*
X60609000Y-162060000D02*
X60609000Y-156876000D01*
X60569000Y-170096000D02*
X60569000Y-164940000D01*
X60569000Y-162060000D02*
X60569000Y-156904000D01*
X60529000Y-170068000D02*
X60529000Y-164940000D01*
X60529000Y-162060000D02*
X60529000Y-156932000D01*
X60489000Y-170039000D02*
X60489000Y-164940000D01*
X60489000Y-162060000D02*
X60489000Y-156961000D01*
X60449000Y-170010000D02*
X60449000Y-164940000D01*
X60449000Y-162060000D02*
X60449000Y-156990000D01*
X60409000Y-169980000D02*
X60409000Y-164940000D01*
X60409000Y-162060000D02*
X60409000Y-157020000D01*
X60369000Y-169950000D02*
X60369000Y-164940000D01*
X60369000Y-162060000D02*
X60369000Y-157050000D01*
X60329000Y-169920000D02*
X60329000Y-164940000D01*
X60329000Y-162060000D02*
X60329000Y-157080000D01*
X60289000Y-169890000D02*
X60289000Y-164940000D01*
X60289000Y-162060000D02*
X60289000Y-157110000D01*
X60249000Y-169858000D02*
X60249000Y-164940000D01*
X60249000Y-162060000D02*
X60249000Y-157142000D01*
X60209000Y-169827000D02*
X60209000Y-164940000D01*
X60209000Y-162060000D02*
X60209000Y-157173000D01*
X60169000Y-169795000D02*
X60169000Y-164940000D01*
X60169000Y-162060000D02*
X60169000Y-157205000D01*
X60129000Y-169763000D02*
X60129000Y-164940000D01*
X60129000Y-162060000D02*
X60129000Y-157237000D01*
X60089000Y-169730000D02*
X60089000Y-164940000D01*
X60089000Y-162060000D02*
X60089000Y-157270000D01*
X60049000Y-169697000D02*
X60049000Y-157303000D01*
X60009000Y-169663000D02*
X60009000Y-157337000D01*
X59969000Y-169629000D02*
X59969000Y-157371000D01*
X59929000Y-169595000D02*
X59929000Y-157405000D01*
X59889000Y-169560000D02*
X59889000Y-157440000D01*
X59849000Y-169525000D02*
X59849000Y-157475000D01*
X59809000Y-169489000D02*
X59809000Y-157511000D01*
X59769000Y-169452000D02*
X59769000Y-157548000D01*
X59729000Y-169416000D02*
X59729000Y-157584000D01*
X59689000Y-169378000D02*
X59689000Y-157622000D01*
X59649000Y-169340000D02*
X59649000Y-157660000D01*
X59609000Y-169302000D02*
X59609000Y-157698000D01*
X59569000Y-169263000D02*
X59569000Y-157737000D01*
X59529000Y-169224000D02*
X59529000Y-157776000D01*
X59489000Y-169184000D02*
X59489000Y-157816000D01*
X59449000Y-169143000D02*
X59449000Y-157857000D01*
X59409000Y-169102000D02*
X59409000Y-157898000D01*
X59369000Y-169060000D02*
X59369000Y-157940000D01*
X59329000Y-169018000D02*
X59329000Y-157982000D01*
X59289000Y-168975000D02*
X59289000Y-158025000D01*
X59249000Y-168932000D02*
X59249000Y-158068000D01*
X59209000Y-168888000D02*
X59209000Y-158112000D01*
X59169000Y-168843000D02*
X59169000Y-158157000D01*
X59129000Y-168797000D02*
X59129000Y-158203000D01*
X59089000Y-168751000D02*
X59089000Y-158249000D01*
X59049000Y-168704000D02*
X59049000Y-158296000D01*
X59009000Y-168656000D02*
X59009000Y-158344000D01*
X58969000Y-168608000D02*
X58969000Y-158392000D01*
X58929000Y-168559000D02*
X58929000Y-158441000D01*
X58889000Y-168509000D02*
X58889000Y-158491000D01*
X58849000Y-168458000D02*
X58849000Y-158542000D01*
X58809000Y-168406000D02*
X58809000Y-158594000D01*
X58769000Y-168354000D02*
X58769000Y-158646000D01*
X58729000Y-168300000D02*
X58729000Y-158700000D01*
X58689000Y-168246000D02*
X58689000Y-158754000D01*
X58649000Y-168191000D02*
X58649000Y-158809000D01*
X58609000Y-168134000D02*
X58609000Y-158866000D01*
X58569000Y-168077000D02*
X58569000Y-158923000D01*
X58529000Y-168019000D02*
X58529000Y-158981000D01*
X58489000Y-167959000D02*
X58489000Y-159041000D01*
X58449000Y-167898000D02*
X58449000Y-159102000D01*
X58409000Y-167836000D02*
X58409000Y-159164000D01*
X58369000Y-167773000D02*
X58369000Y-159227000D01*
X58329000Y-167709000D02*
X58329000Y-159291000D01*
X58289000Y-167643000D02*
X58289000Y-159357000D01*
X58249000Y-167576000D02*
X58249000Y-159424000D01*
X58209000Y-167507000D02*
X58209000Y-159493000D01*
X58169000Y-167436000D02*
X58169000Y-159564000D01*
X58129000Y-167364000D02*
X58129000Y-159636000D01*
X58089000Y-167290000D02*
X58089000Y-159710000D01*
X58049000Y-167215000D02*
X58049000Y-159785000D01*
X58009000Y-167137000D02*
X58009000Y-159863000D01*
X57969000Y-167057000D02*
X57969000Y-159943000D01*
X57929000Y-166975000D02*
X57929000Y-160025000D01*
X57889000Y-166890000D02*
X57889000Y-160110000D01*
X57849000Y-166803000D02*
X57849000Y-160197000D01*
X57809000Y-166713000D02*
X57809000Y-160287000D01*
X57769000Y-166620000D02*
X57769000Y-160380000D01*
X57729000Y-166524000D02*
X57729000Y-160476000D01*
X57689000Y-166424000D02*
X57689000Y-160576000D01*
X57649000Y-166320000D02*
X57649000Y-160680000D01*
X57609000Y-166211000D02*
X57609000Y-160789000D01*
X57569000Y-166097000D02*
X57569000Y-160903000D01*
X57529000Y-165978000D02*
X57529000Y-161022000D01*
X57489000Y-165851000D02*
X57489000Y-161149000D01*
X57449000Y-165718000D02*
X57449000Y-161282000D01*
X57409000Y-165574000D02*
X57409000Y-161426000D01*
X57369000Y-165420000D02*
X57369000Y-161580000D01*
X57329000Y-165252000D02*
X57329000Y-161748000D01*
X57289000Y-165064000D02*
X57289000Y-161936000D01*
X57249000Y-164851000D02*
X57249000Y-162149000D01*
X57209000Y-164598000D02*
X57209000Y-162402000D01*
X57169000Y-164265000D02*
X57169000Y-162735000D01*
X73939491Y-168055000D02*
X72339491Y-168055000D01*
X73139491Y-168855000D02*
X73139491Y-167255000D01*
X108380000Y-130860000D02*
X124640000Y-130860000D01*
X124640000Y-147120000D02*
X124640000Y-130860000D01*
X108380000Y-147120000D02*
X108380000Y-130860000D01*
X108380000Y-147120000D02*
X124640000Y-147120000D01*
X108370000Y-157360000D02*
X124630000Y-157360000D01*
X124630000Y-173620000D02*
X124630000Y-157360000D01*
X108370000Y-173620000D02*
X108370000Y-157360000D01*
X108370000Y-173620000D02*
X124630000Y-173620000D01*
D12*
X115738095Y-152952380D02*
X115738095Y-153761904D01*
X115785714Y-153857142D01*
X115833333Y-153904761D01*
X115928571Y-153952380D01*
X116119047Y-153952380D01*
X116214285Y-153904761D01*
X116261904Y-153857142D01*
X116309523Y-153761904D01*
X116309523Y-152952380D01*
X117309523Y-153952380D02*
X116738095Y-153952380D01*
X117023809Y-153952380D02*
X117023809Y-152952380D01*
X116928571Y-153095238D01*
X116833333Y-153190476D01*
X116738095Y-153238095D01*
X90008095Y-62452380D02*
X90579523Y-62452380D01*
X90293809Y-63452380D02*
X90293809Y-62452380D01*
X91484285Y-63452380D02*
X91150952Y-62976190D01*
X90912857Y-63452380D02*
X90912857Y-62452380D01*
X91293809Y-62452380D01*
X91389047Y-62500000D01*
X91436666Y-62547619D01*
X91484285Y-62642857D01*
X91484285Y-62785714D01*
X91436666Y-62880952D01*
X91389047Y-62928571D01*
X91293809Y-62976190D01*
X90912857Y-62976190D01*
X92436666Y-63452380D02*
X91865238Y-63452380D01*
X92150952Y-63452380D02*
X92150952Y-62452380D01*
X92055714Y-62595238D01*
X91960476Y-62690476D01*
X91865238Y-62738095D01*
X63838095Y-126904761D02*
X63980952Y-126952380D01*
X64219047Y-126952380D01*
X64314285Y-126904761D01*
X64361904Y-126857142D01*
X64409523Y-126761904D01*
X64409523Y-126666666D01*
X64361904Y-126571428D01*
X64314285Y-126523809D01*
X64219047Y-126476190D01*
X64028571Y-126428571D01*
X63933333Y-126380952D01*
X63885714Y-126333333D01*
X63838095Y-126238095D01*
X63838095Y-126142857D01*
X63885714Y-126047619D01*
X63933333Y-126000000D01*
X64028571Y-125952380D01*
X64266666Y-125952380D01*
X64409523Y-126000000D01*
X64790476Y-126047619D02*
X64838095Y-126000000D01*
X64933333Y-125952380D01*
X65171428Y-125952380D01*
X65266666Y-126000000D01*
X65314285Y-126047619D01*
X65361904Y-126142857D01*
X65361904Y-126238095D01*
X65314285Y-126380952D01*
X64742857Y-126952380D01*
X65361904Y-126952380D01*
X114638095Y-126904761D02*
X114780952Y-126952380D01*
X115019047Y-126952380D01*
X115114285Y-126904761D01*
X115161904Y-126857142D01*
X115209523Y-126761904D01*
X115209523Y-126666666D01*
X115161904Y-126571428D01*
X115114285Y-126523809D01*
X115019047Y-126476190D01*
X114828571Y-126428571D01*
X114733333Y-126380952D01*
X114685714Y-126333333D01*
X114638095Y-126238095D01*
X114638095Y-126142857D01*
X114685714Y-126047619D01*
X114733333Y-126000000D01*
X114828571Y-125952380D01*
X115066666Y-125952380D01*
X115209523Y-126000000D01*
X116161904Y-126952380D02*
X115590476Y-126952380D01*
X115876190Y-126952380D02*
X115876190Y-125952380D01*
X115780952Y-126095238D01*
X115685714Y-126190476D01*
X115590476Y-126238095D01*
X112121904Y-63452380D02*
X112121904Y-62452380D01*
X112502857Y-62452380D01*
X112598095Y-62500000D01*
X112645714Y-62547619D01*
X112693333Y-62642857D01*
X112693333Y-62785714D01*
X112645714Y-62880952D01*
X112598095Y-62928571D01*
X112502857Y-62976190D01*
X112121904Y-62976190D01*
X113074285Y-62547619D02*
X113121904Y-62500000D01*
X113217142Y-62452380D01*
X113455238Y-62452380D01*
X113550476Y-62500000D01*
X113598095Y-62547619D01*
X113645714Y-62642857D01*
X113645714Y-62738095D01*
X113598095Y-62880952D01*
X113026666Y-63452380D01*
X113645714Y-63452380D01*
X66401904Y-63452380D02*
X66401904Y-62452380D01*
X66782857Y-62452380D01*
X66878095Y-62500000D01*
X66925714Y-62547619D01*
X66973333Y-62642857D01*
X66973333Y-62785714D01*
X66925714Y-62880952D01*
X66878095Y-62928571D01*
X66782857Y-62976190D01*
X66401904Y-62976190D01*
X67925714Y-63452380D02*
X67354285Y-63452380D01*
X67640000Y-63452380D02*
X67640000Y-62452380D01*
X67544761Y-62595238D01*
X67449523Y-62690476D01*
X67354285Y-62738095D01*
X123738095Y-27954380D02*
X124309523Y-27954380D01*
X124023809Y-28954380D02*
X124023809Y-27954380D01*
X124642857Y-28954380D02*
X124642857Y-27954380D01*
X125023809Y-27954380D01*
X125119047Y-28002000D01*
X125166666Y-28049619D01*
X125214285Y-28144857D01*
X125214285Y-28287714D01*
X125166666Y-28382952D01*
X125119047Y-28430571D01*
X125023809Y-28478190D01*
X124642857Y-28478190D01*
X125595238Y-28049619D02*
X125642857Y-28002000D01*
X125738095Y-27954380D01*
X125976190Y-27954380D01*
X126071428Y-28002000D01*
X126119047Y-28049619D01*
X126166666Y-28144857D01*
X126166666Y-28240095D01*
X126119047Y-28382952D01*
X125547619Y-28954380D01*
X126166666Y-28954380D01*
X123738095Y-32454380D02*
X124309523Y-32454380D01*
X124023809Y-33454380D02*
X124023809Y-32454380D01*
X124642857Y-33454380D02*
X124642857Y-32454380D01*
X125023809Y-32454380D01*
X125119047Y-32502000D01*
X125166666Y-32549619D01*
X125214285Y-32644857D01*
X125214285Y-32787714D01*
X125166666Y-32882952D01*
X125119047Y-32930571D01*
X125023809Y-32978190D01*
X124642857Y-32978190D01*
X126166666Y-33454380D02*
X125595238Y-33454380D01*
X125880952Y-33454380D02*
X125880952Y-32454380D01*
X125785714Y-32597238D01*
X125690476Y-32692476D01*
X125595238Y-32740095D01*
X94253333Y-164322380D02*
X93920000Y-163846190D01*
X93681904Y-164322380D02*
X93681904Y-163322380D01*
X94062857Y-163322380D01*
X94158095Y-163370000D01*
X94205714Y-163417619D01*
X94253333Y-163512857D01*
X94253333Y-163655714D01*
X94205714Y-163750952D01*
X94158095Y-163798571D01*
X94062857Y-163846190D01*
X93681904Y-163846190D01*
X94634285Y-163417619D02*
X94681904Y-163370000D01*
X94777142Y-163322380D01*
X95015238Y-163322380D01*
X95110476Y-163370000D01*
X95158095Y-163417619D01*
X95205714Y-163512857D01*
X95205714Y-163608095D01*
X95158095Y-163750952D01*
X94586666Y-164322380D01*
X95205714Y-164322380D01*
X90333333Y-177452380D02*
X90000000Y-176976190D01*
X89761904Y-177452380D02*
X89761904Y-176452380D01*
X90142857Y-176452380D01*
X90238095Y-176500000D01*
X90285714Y-176547619D01*
X90333333Y-176642857D01*
X90333333Y-176785714D01*
X90285714Y-176880952D01*
X90238095Y-176928571D01*
X90142857Y-176976190D01*
X89761904Y-176976190D01*
X91285714Y-177452380D02*
X90714285Y-177452380D01*
X91000000Y-177452380D02*
X91000000Y-176452380D01*
X90904761Y-176595238D01*
X90809523Y-176690476D01*
X90714285Y-176738095D01*
X116404761Y-180547619D02*
X116309523Y-180500000D01*
X116214285Y-180404761D01*
X116071428Y-180261904D01*
X115976190Y-180214285D01*
X115880952Y-180214285D01*
X115928571Y-180452380D02*
X115833333Y-180404761D01*
X115738095Y-180309523D01*
X115690476Y-180119047D01*
X115690476Y-179785714D01*
X115738095Y-179595238D01*
X115833333Y-179500000D01*
X115928571Y-179452380D01*
X116119047Y-179452380D01*
X116214285Y-179500000D01*
X116309523Y-179595238D01*
X116357142Y-179785714D01*
X116357142Y-180119047D01*
X116309523Y-180309523D01*
X116214285Y-180404761D01*
X116119047Y-180452380D01*
X115928571Y-180452380D01*
X117309523Y-180452380D02*
X116738095Y-180452380D01*
X117023809Y-180452380D02*
X117023809Y-179452380D01*
X116928571Y-179595238D01*
X116833333Y-179690476D01*
X116738095Y-179738095D01*
X111416666Y-27452380D02*
X111416666Y-28166666D01*
X111369047Y-28309523D01*
X111273809Y-28404761D01*
X111130952Y-28452380D01*
X111035714Y-28452380D01*
X112321428Y-27785714D02*
X112321428Y-28452380D01*
X112083333Y-27404761D02*
X111845238Y-28119047D01*
X112464285Y-28119047D01*
X112666666Y-54452380D02*
X112666666Y-55166666D01*
X112619047Y-55309523D01*
X112523809Y-55404761D01*
X112380952Y-55452380D01*
X112285714Y-55452380D01*
X113047619Y-54452380D02*
X113666666Y-54452380D01*
X113333333Y-54833333D01*
X113476190Y-54833333D01*
X113571428Y-54880952D01*
X113619047Y-54928571D01*
X113666666Y-55023809D01*
X113666666Y-55261904D01*
X113619047Y-55357142D01*
X113571428Y-55404761D01*
X113476190Y-55452380D01*
X113190476Y-55452380D01*
X113095238Y-55404761D01*
X113047619Y-55357142D01*
X66566666Y-54452380D02*
X66566666Y-55166666D01*
X66519047Y-55309523D01*
X66423809Y-55404761D01*
X66280952Y-55452380D01*
X66185714Y-55452380D01*
X66995238Y-54547619D02*
X67042857Y-54500000D01*
X67138095Y-54452380D01*
X67376190Y-54452380D01*
X67471428Y-54500000D01*
X67519047Y-54547619D01*
X67566666Y-54642857D01*
X67566666Y-54738095D01*
X67519047Y-54880952D01*
X66947619Y-55452380D01*
X67566666Y-55452380D01*
X89666666Y-54452380D02*
X89666666Y-55166666D01*
X89619047Y-55309523D01*
X89523809Y-55404761D01*
X89380952Y-55452380D01*
X89285714Y-55452380D01*
X90666666Y-55452380D02*
X90095238Y-55452380D01*
X90380952Y-55452380D02*
X90380952Y-54452380D01*
X90285714Y-54595238D01*
X90190476Y-54690476D01*
X90095238Y-54738095D01*
X85261904Y-181452380D02*
X85261904Y-180452380D01*
X85500000Y-180452380D01*
X85642857Y-180500000D01*
X85738095Y-180595238D01*
X85785714Y-180690476D01*
X85833333Y-180880952D01*
X85833333Y-181023809D01*
X85785714Y-181214285D01*
X85738095Y-181309523D01*
X85642857Y-181404761D01*
X85500000Y-181452380D01*
X85261904Y-181452380D01*
X86738095Y-180452380D02*
X86261904Y-180452380D01*
X86214285Y-180928571D01*
X86261904Y-180880952D01*
X86357142Y-180833333D01*
X86595238Y-180833333D01*
X86690476Y-180880952D01*
X86738095Y-180928571D01*
X86785714Y-181023809D01*
X86785714Y-181261904D01*
X86738095Y-181357142D01*
X86690476Y-181404761D01*
X86595238Y-181452380D01*
X86357142Y-181452380D01*
X86261904Y-181404761D01*
X86214285Y-181357142D01*
X97341904Y-137922380D02*
X97341904Y-136922380D01*
X97580000Y-136922380D01*
X97722857Y-136970000D01*
X97818095Y-137065238D01*
X97865714Y-137160476D01*
X97913333Y-137350952D01*
X97913333Y-137493809D01*
X97865714Y-137684285D01*
X97818095Y-137779523D01*
X97722857Y-137874761D01*
X97580000Y-137922380D01*
X97341904Y-137922380D01*
X98770476Y-137255714D02*
X98770476Y-137922380D01*
X98532380Y-136874761D02*
X98294285Y-137589047D01*
X98913333Y-137589047D01*
X102898095Y-137452380D02*
X102898095Y-136452380D01*
X103469523Y-137452380D02*
X103040952Y-136880952D01*
X103469523Y-136452380D02*
X102898095Y-137023809D01*
X81181904Y-137952380D02*
X81181904Y-136952380D01*
X81420000Y-136952380D01*
X81562857Y-137000000D01*
X81658095Y-137095238D01*
X81705714Y-137190476D01*
X81753333Y-137380952D01*
X81753333Y-137523809D01*
X81705714Y-137714285D01*
X81658095Y-137809523D01*
X81562857Y-137904761D01*
X81420000Y-137952380D01*
X81181904Y-137952380D01*
X82086666Y-136952380D02*
X82705714Y-136952380D01*
X82372380Y-137333333D01*
X82515238Y-137333333D01*
X82610476Y-137380952D01*
X82658095Y-137428571D01*
X82705714Y-137523809D01*
X82705714Y-137761904D01*
X82658095Y-137857142D01*
X82610476Y-137904761D01*
X82515238Y-137952380D01*
X82229523Y-137952380D01*
X82134285Y-137904761D01*
X82086666Y-137857142D01*
X76578095Y-137452380D02*
X76578095Y-136452380D01*
X77149523Y-137452380D02*
X76720952Y-136880952D01*
X77149523Y-136452380D02*
X76578095Y-137023809D01*
X97341904Y-131952380D02*
X97341904Y-130952380D01*
X97580000Y-130952380D01*
X97722857Y-131000000D01*
X97818095Y-131095238D01*
X97865714Y-131190476D01*
X97913333Y-131380952D01*
X97913333Y-131523809D01*
X97865714Y-131714285D01*
X97818095Y-131809523D01*
X97722857Y-131904761D01*
X97580000Y-131952380D01*
X97341904Y-131952380D01*
X98294285Y-131047619D02*
X98341904Y-131000000D01*
X98437142Y-130952380D01*
X98675238Y-130952380D01*
X98770476Y-131000000D01*
X98818095Y-131047619D01*
X98865714Y-131142857D01*
X98865714Y-131238095D01*
X98818095Y-131380952D01*
X98246666Y-131952380D01*
X98865714Y-131952380D01*
X102898095Y-131452380D02*
X102898095Y-130452380D01*
X103469523Y-131452380D02*
X103040952Y-130880952D01*
X103469523Y-130452380D02*
X102898095Y-131023809D01*
X81181904Y-131952380D02*
X81181904Y-130952380D01*
X81420000Y-130952380D01*
X81562857Y-131000000D01*
X81658095Y-131095238D01*
X81705714Y-131190476D01*
X81753333Y-131380952D01*
X81753333Y-131523809D01*
X81705714Y-131714285D01*
X81658095Y-131809523D01*
X81562857Y-131904761D01*
X81420000Y-131952380D01*
X81181904Y-131952380D01*
X82705714Y-131952380D02*
X82134285Y-131952380D01*
X82420000Y-131952380D02*
X82420000Y-130952380D01*
X82324761Y-131095238D01*
X82229523Y-131190476D01*
X82134285Y-131238095D01*
X76578095Y-131452380D02*
X76578095Y-130452380D01*
X77149523Y-131452380D02*
X76720952Y-130880952D01*
X77149523Y-130452380D02*
X76578095Y-131023809D01*
X100833333Y-172357142D02*
X100785714Y-172404761D01*
X100642857Y-172452380D01*
X100547619Y-172452380D01*
X100404761Y-172404761D01*
X100309523Y-172309523D01*
X100261904Y-172214285D01*
X100214285Y-172023809D01*
X100214285Y-171880952D01*
X100261904Y-171690476D01*
X100309523Y-171595238D01*
X100404761Y-171500000D01*
X100547619Y-171452380D01*
X100642857Y-171452380D01*
X100785714Y-171500000D01*
X100833333Y-171547619D01*
X101738095Y-171452380D02*
X101261904Y-171452380D01*
X101214285Y-171928571D01*
X101261904Y-171880952D01*
X101357142Y-171833333D01*
X101595238Y-171833333D01*
X101690476Y-171880952D01*
X101738095Y-171928571D01*
X101785714Y-172023809D01*
X101785714Y-172261904D01*
X101738095Y-172357142D01*
X101690476Y-172404761D01*
X101595238Y-172452380D01*
X101357142Y-172452380D01*
X101261904Y-172404761D01*
X101214285Y-172357142D01*
X100833333Y-154357142D02*
X100785714Y-154404761D01*
X100642857Y-154452380D01*
X100547619Y-154452380D01*
X100404761Y-154404761D01*
X100309523Y-154309523D01*
X100261904Y-154214285D01*
X100214285Y-154023809D01*
X100214285Y-153880952D01*
X100261904Y-153690476D01*
X100309523Y-153595238D01*
X100404761Y-153500000D01*
X100547619Y-153452380D01*
X100642857Y-153452380D01*
X100785714Y-153500000D01*
X100833333Y-153547619D01*
X101690476Y-153785714D02*
X101690476Y-154452380D01*
X101452380Y-153404761D02*
X101214285Y-154119047D01*
X101833333Y-154119047D01*
X80333333Y-164857142D02*
X80285714Y-164904761D01*
X80142857Y-164952380D01*
X80047619Y-164952380D01*
X79904761Y-164904761D01*
X79809523Y-164809523D01*
X79761904Y-164714285D01*
X79714285Y-164523809D01*
X79714285Y-164380952D01*
X79761904Y-164190476D01*
X79809523Y-164095238D01*
X79904761Y-164000000D01*
X80047619Y-163952380D01*
X80142857Y-163952380D01*
X80285714Y-164000000D01*
X80333333Y-164047619D01*
X80666666Y-163952380D02*
X81285714Y-163952380D01*
X80952380Y-164333333D01*
X81095238Y-164333333D01*
X81190476Y-164380952D01*
X81238095Y-164428571D01*
X81285714Y-164523809D01*
X81285714Y-164761904D01*
X81238095Y-164857142D01*
X81190476Y-164904761D01*
X81095238Y-164952380D01*
X80809523Y-164952380D01*
X80714285Y-164904761D01*
X80666666Y-164857142D01*
X65333333Y-153857142D02*
X65285714Y-153904761D01*
X65142857Y-153952380D01*
X65047619Y-153952380D01*
X64904761Y-153904761D01*
X64809523Y-153809523D01*
X64761904Y-153714285D01*
X64714285Y-153523809D01*
X64714285Y-153380952D01*
X64761904Y-153190476D01*
X64809523Y-153095238D01*
X64904761Y-153000000D01*
X65047619Y-152952380D01*
X65142857Y-152952380D01*
X65285714Y-153000000D01*
X65333333Y-153047619D01*
X65714285Y-153047619D02*
X65761904Y-153000000D01*
X65857142Y-152952380D01*
X66095238Y-152952380D01*
X66190476Y-153000000D01*
X66238095Y-153047619D01*
X66285714Y-153142857D01*
X66285714Y-153238095D01*
X66238095Y-153380952D01*
X65666666Y-153952380D01*
X66285714Y-153952380D01*
X65333333Y-173357142D02*
X65285714Y-173404761D01*
X65142857Y-173452380D01*
X65047619Y-173452380D01*
X64904761Y-173404761D01*
X64809523Y-173309523D01*
X64761904Y-173214285D01*
X64714285Y-173023809D01*
X64714285Y-172880952D01*
X64761904Y-172690476D01*
X64809523Y-172595238D01*
X64904761Y-172500000D01*
X65047619Y-172452380D01*
X65142857Y-172452380D01*
X65285714Y-172500000D01*
X65333333Y-172547619D01*
X66285714Y-173452380D02*
X65714285Y-173452380D01*
X66000000Y-173452380D02*
X66000000Y-172452380D01*
X65904761Y-172595238D01*
X65809523Y-172690476D01*
X65714285Y-172738095D01*
M02*
