G04 #@! TF.GenerationSoftware,KiCad,Pcbnew,(5.1.6)-1*
G04 #@! TF.CreationDate,2020-12-21T18:52:40-08:00*
G04 #@! TF.ProjectId,12v1a_psu,31327631-615f-4707-9375-2e6b69636164,1.0*
G04 #@! TF.SameCoordinates,Original*
G04 #@! TF.FileFunction,Soldermask,Top*
G04 #@! TF.FilePolarity,Negative*
%FSLAX46Y46*%
G04 Gerber Fmt 4.6, Leading zero omitted, Abs format (unit mm)*
G04 Created by KiCad (PCBNEW (5.1.6)-1) date 2020-12-21 18:52:40*
%MOMM*%
%LPD*%
G01*
G04 APERTURE LIST*
%ADD10C,0.100000*%
G04 APERTURE END LIST*
D10*
G36*
X43000000Y-185000000D02*
G01*
X40000000Y-185000000D01*
X40000000Y-25000000D01*
X43000000Y-25000000D01*
X43000000Y-185000000D01*
G37*
G36*
X140000000Y-185000000D02*
G01*
X137000000Y-185000000D01*
X137000000Y-25000000D01*
X140000000Y-25000000D01*
X140000000Y-185000000D01*
G37*
G36*
X91817395Y-179085546D02*
G01*
X91990466Y-179157234D01*
X91990467Y-179157235D01*
X92146227Y-179261310D01*
X92278690Y-179393773D01*
X92278691Y-179393775D01*
X92382766Y-179549534D01*
X92454454Y-179722605D01*
X92491000Y-179906333D01*
X92491000Y-180093667D01*
X92454454Y-180277395D01*
X92382766Y-180450466D01*
X92382765Y-180450467D01*
X92278690Y-180606227D01*
X92146227Y-180738690D01*
X92067818Y-180791081D01*
X91990466Y-180842766D01*
X91817395Y-180914454D01*
X91633667Y-180951000D01*
X91446333Y-180951000D01*
X91262605Y-180914454D01*
X91089534Y-180842766D01*
X91012182Y-180791081D01*
X90933773Y-180738690D01*
X90801310Y-180606227D01*
X90697235Y-180450467D01*
X90697234Y-180450466D01*
X90625546Y-180277395D01*
X90589000Y-180093667D01*
X90589000Y-179906333D01*
X90625546Y-179722605D01*
X90697234Y-179549534D01*
X90801309Y-179393775D01*
X90801310Y-179393773D01*
X90933773Y-179261310D01*
X91089533Y-179157235D01*
X91089534Y-179157234D01*
X91262605Y-179085546D01*
X91446333Y-179049000D01*
X91633667Y-179049000D01*
X91817395Y-179085546D01*
G37*
G36*
X89951000Y-180951000D02*
G01*
X88049000Y-180951000D01*
X88049000Y-179049000D01*
X89951000Y-179049000D01*
X89951000Y-180951000D01*
G37*
G36*
X119236719Y-176393520D02*
G01*
X119425880Y-176450901D01*
X119425883Y-176450902D01*
X119518333Y-176500318D01*
X119600212Y-176544083D01*
X119753015Y-176669485D01*
X119878417Y-176822288D01*
X119971599Y-176996619D01*
X120028980Y-177185780D01*
X120043500Y-177333206D01*
X120043500Y-177526793D01*
X120028980Y-177674219D01*
X119971599Y-177863380D01*
X119971598Y-177863383D01*
X119922182Y-177955833D01*
X119878417Y-178037712D01*
X119753015Y-178190515D01*
X119600212Y-178315917D01*
X119425881Y-178409099D01*
X119236720Y-178466480D01*
X119040000Y-178485855D01*
X118843281Y-178466480D01*
X118654120Y-178409099D01*
X118479788Y-178315917D01*
X118326985Y-178190515D01*
X118201583Y-178037712D01*
X118108401Y-177863381D01*
X118051020Y-177674220D01*
X118036500Y-177526794D01*
X118036500Y-177333207D01*
X118051020Y-177185781D01*
X118108401Y-176996620D01*
X118108402Y-176996617D01*
X118157818Y-176904167D01*
X118201583Y-176822288D01*
X118326985Y-176669485D01*
X118479788Y-176544083D01*
X118654119Y-176450901D01*
X118843280Y-176393520D01*
X119040000Y-176374145D01*
X119236719Y-176393520D01*
G37*
G36*
X116696719Y-176393520D02*
G01*
X116885880Y-176450901D01*
X116885883Y-176450902D01*
X116978333Y-176500318D01*
X117060212Y-176544083D01*
X117213015Y-176669485D01*
X117338417Y-176822288D01*
X117431599Y-176996619D01*
X117488980Y-177185780D01*
X117503500Y-177333206D01*
X117503500Y-177526793D01*
X117488980Y-177674219D01*
X117431599Y-177863380D01*
X117431598Y-177863383D01*
X117382182Y-177955833D01*
X117338417Y-178037712D01*
X117213015Y-178190515D01*
X117060212Y-178315917D01*
X116885881Y-178409099D01*
X116696720Y-178466480D01*
X116500000Y-178485855D01*
X116303281Y-178466480D01*
X116114120Y-178409099D01*
X115939788Y-178315917D01*
X115786985Y-178190515D01*
X115661583Y-178037712D01*
X115568401Y-177863381D01*
X115511020Y-177674220D01*
X115496500Y-177526794D01*
X115496500Y-177333207D01*
X115511020Y-177185781D01*
X115568401Y-176996620D01*
X115568402Y-176996617D01*
X115617818Y-176904167D01*
X115661583Y-176822288D01*
X115786985Y-176669485D01*
X115939788Y-176544083D01*
X116114119Y-176450901D01*
X116303280Y-176393520D01*
X116500000Y-176374145D01*
X116696719Y-176393520D01*
G37*
G36*
X114963500Y-178481000D02*
G01*
X112956500Y-178481000D01*
X112956500Y-176379000D01*
X114963500Y-176379000D01*
X114963500Y-178481000D01*
G37*
G36*
X85588228Y-173681703D02*
G01*
X85743100Y-173745853D01*
X85882481Y-173838985D01*
X86001015Y-173957519D01*
X86094147Y-174096900D01*
X86158297Y-174251772D01*
X86191000Y-174416184D01*
X86191000Y-174583816D01*
X86158297Y-174748228D01*
X86094147Y-174903100D01*
X86001015Y-175042481D01*
X85882481Y-175161015D01*
X85743100Y-175254147D01*
X85588228Y-175318297D01*
X85423816Y-175351000D01*
X85256184Y-175351000D01*
X85091772Y-175318297D01*
X84936900Y-175254147D01*
X84797519Y-175161015D01*
X84678985Y-175042481D01*
X84585853Y-174903100D01*
X84521703Y-174748228D01*
X84489000Y-174583816D01*
X84489000Y-174416184D01*
X84521703Y-174251772D01*
X84585853Y-174096900D01*
X84678985Y-173957519D01*
X84797519Y-173838985D01*
X84936900Y-173745853D01*
X85091772Y-173681703D01*
X85256184Y-173649000D01*
X85423816Y-173649000D01*
X85588228Y-173681703D01*
G37*
G36*
X95748228Y-173681703D02*
G01*
X95903100Y-173745853D01*
X96042481Y-173838985D01*
X96161015Y-173957519D01*
X96254147Y-174096900D01*
X96318297Y-174251772D01*
X96351000Y-174416184D01*
X96351000Y-174583816D01*
X96318297Y-174748228D01*
X96254147Y-174903100D01*
X96161015Y-175042481D01*
X96042481Y-175161015D01*
X95903100Y-175254147D01*
X95748228Y-175318297D01*
X95583816Y-175351000D01*
X95416184Y-175351000D01*
X95251772Y-175318297D01*
X95096900Y-175254147D01*
X94957519Y-175161015D01*
X94838985Y-175042481D01*
X94745853Y-174903100D01*
X94681703Y-174748228D01*
X94649000Y-174583816D01*
X94649000Y-174416184D01*
X94681703Y-174251772D01*
X94745853Y-174096900D01*
X94838985Y-173957519D01*
X94957519Y-173838985D01*
X95096900Y-173745853D01*
X95251772Y-173681703D01*
X95416184Y-173649000D01*
X95583816Y-173649000D01*
X95748228Y-173681703D01*
G37*
G36*
X98748228Y-168681703D02*
G01*
X98903100Y-168745853D01*
X99042481Y-168838985D01*
X99161015Y-168957519D01*
X99254147Y-169096900D01*
X99318297Y-169251772D01*
X99351000Y-169416184D01*
X99351000Y-169583816D01*
X99318297Y-169748228D01*
X99254147Y-169903100D01*
X99161015Y-170042481D01*
X99042481Y-170161015D01*
X98903100Y-170254147D01*
X98748228Y-170318297D01*
X98583816Y-170351000D01*
X98416184Y-170351000D01*
X98251772Y-170318297D01*
X98096900Y-170254147D01*
X97957519Y-170161015D01*
X97838985Y-170042481D01*
X97745853Y-169903100D01*
X97681703Y-169748228D01*
X97649000Y-169583816D01*
X97649000Y-169416184D01*
X97681703Y-169251772D01*
X97745853Y-169096900D01*
X97838985Y-168957519D01*
X97957519Y-168838985D01*
X98096900Y-168745853D01*
X98251772Y-168681703D01*
X98416184Y-168649000D01*
X98583816Y-168649000D01*
X98748228Y-168681703D01*
G37*
G36*
X103748228Y-168681703D02*
G01*
X103903100Y-168745853D01*
X104042481Y-168838985D01*
X104161015Y-168957519D01*
X104254147Y-169096900D01*
X104318297Y-169251772D01*
X104351000Y-169416184D01*
X104351000Y-169583816D01*
X104318297Y-169748228D01*
X104254147Y-169903100D01*
X104161015Y-170042481D01*
X104042481Y-170161015D01*
X103903100Y-170254147D01*
X103748228Y-170318297D01*
X103583816Y-170351000D01*
X103416184Y-170351000D01*
X103251772Y-170318297D01*
X103096900Y-170254147D01*
X102957519Y-170161015D01*
X102838985Y-170042481D01*
X102745853Y-169903100D01*
X102681703Y-169748228D01*
X102649000Y-169583816D01*
X102649000Y-169416184D01*
X102681703Y-169251772D01*
X102745853Y-169096900D01*
X102838985Y-168957519D01*
X102957519Y-168838985D01*
X103096900Y-168745853D01*
X103251772Y-168681703D01*
X103416184Y-168649000D01*
X103583816Y-168649000D01*
X103748228Y-168681703D01*
G37*
G36*
X61864903Y-162297075D02*
G01*
X62092571Y-162391378D01*
X62297466Y-162528285D01*
X62471715Y-162702534D01*
X62608622Y-162907429D01*
X62702925Y-163135097D01*
X62751000Y-163376787D01*
X62751000Y-163623213D01*
X62702925Y-163864903D01*
X62608622Y-164092571D01*
X62471715Y-164297466D01*
X62297466Y-164471715D01*
X62092571Y-164608622D01*
X62092570Y-164608623D01*
X62092569Y-164608623D01*
X61864903Y-164702925D01*
X61623214Y-164751000D01*
X61376786Y-164751000D01*
X61135097Y-164702925D01*
X60907431Y-164608623D01*
X60907430Y-164608623D01*
X60907429Y-164608622D01*
X60702534Y-164471715D01*
X60528285Y-164297466D01*
X60391378Y-164092571D01*
X60297075Y-163864903D01*
X60249000Y-163623213D01*
X60249000Y-163376787D01*
X60297075Y-163135097D01*
X60391378Y-162907429D01*
X60528285Y-162702534D01*
X60702534Y-162528285D01*
X60907429Y-162391378D01*
X61135097Y-162297075D01*
X61376786Y-162249000D01*
X61623214Y-162249000D01*
X61864903Y-162297075D01*
G37*
G36*
X70251000Y-164751000D02*
G01*
X67749000Y-164751000D01*
X67749000Y-162249000D01*
X70251000Y-162249000D01*
X70251000Y-164751000D01*
G37*
G36*
X80864903Y-160297075D02*
G01*
X81092571Y-160391378D01*
X81297466Y-160528285D01*
X81471715Y-160702534D01*
X81608622Y-160907429D01*
X81702925Y-161135097D01*
X81751000Y-161376787D01*
X81751000Y-161623213D01*
X81702925Y-161864903D01*
X81608622Y-162092571D01*
X81471715Y-162297466D01*
X81297466Y-162471715D01*
X81092571Y-162608622D01*
X81092570Y-162608623D01*
X81092569Y-162608623D01*
X80864903Y-162702925D01*
X80623214Y-162751000D01*
X80376786Y-162751000D01*
X80135097Y-162702925D01*
X79907431Y-162608623D01*
X79907430Y-162608623D01*
X79907429Y-162608622D01*
X79702534Y-162471715D01*
X79528285Y-162297466D01*
X79391378Y-162092571D01*
X79297075Y-161864903D01*
X79249000Y-161623213D01*
X79249000Y-161376787D01*
X79297075Y-161135097D01*
X79391378Y-160907429D01*
X79528285Y-160702534D01*
X79702534Y-160528285D01*
X79907429Y-160391378D01*
X80135097Y-160297075D01*
X80376786Y-160249000D01*
X80623214Y-160249000D01*
X80864903Y-160297075D01*
G37*
G36*
X99748228Y-160681703D02*
G01*
X99903100Y-160745853D01*
X100042481Y-160838985D01*
X100161015Y-160957519D01*
X100254147Y-161096900D01*
X100318297Y-161251772D01*
X100351000Y-161416184D01*
X100351000Y-161583816D01*
X100318297Y-161748228D01*
X100254147Y-161903100D01*
X100161015Y-162042481D01*
X100042481Y-162161015D01*
X99903100Y-162254147D01*
X99748228Y-162318297D01*
X99583816Y-162351000D01*
X99416184Y-162351000D01*
X99251772Y-162318297D01*
X99096900Y-162254147D01*
X98957519Y-162161015D01*
X98838985Y-162042481D01*
X98745853Y-161903100D01*
X98681703Y-161748228D01*
X98649000Y-161583816D01*
X98649000Y-161416184D01*
X98681703Y-161251772D01*
X98745853Y-161096900D01*
X98838985Y-160957519D01*
X98957519Y-160838985D01*
X99096900Y-160745853D01*
X99251772Y-160681703D01*
X99416184Y-160649000D01*
X99583816Y-160649000D01*
X99748228Y-160681703D01*
G37*
G36*
X89588228Y-160681703D02*
G01*
X89743100Y-160745853D01*
X89882481Y-160838985D01*
X90001015Y-160957519D01*
X90094147Y-161096900D01*
X90158297Y-161251772D01*
X90191000Y-161416184D01*
X90191000Y-161583816D01*
X90158297Y-161748228D01*
X90094147Y-161903100D01*
X90001015Y-162042481D01*
X89882481Y-162161015D01*
X89743100Y-162254147D01*
X89588228Y-162318297D01*
X89423816Y-162351000D01*
X89256184Y-162351000D01*
X89091772Y-162318297D01*
X88936900Y-162254147D01*
X88797519Y-162161015D01*
X88678985Y-162042481D01*
X88585853Y-161903100D01*
X88521703Y-161748228D01*
X88489000Y-161583816D01*
X88489000Y-161416184D01*
X88521703Y-161251772D01*
X88585853Y-161096900D01*
X88678985Y-160957519D01*
X88797519Y-160838985D01*
X88936900Y-160745853D01*
X89091772Y-160681703D01*
X89256184Y-160649000D01*
X89423816Y-160649000D01*
X89588228Y-160681703D01*
G37*
G36*
X116706719Y-149893520D02*
G01*
X116895880Y-149950901D01*
X116895883Y-149950902D01*
X116988333Y-150000318D01*
X117070212Y-150044083D01*
X117223015Y-150169485D01*
X117348417Y-150322288D01*
X117441599Y-150496619D01*
X117498980Y-150685780D01*
X117513500Y-150833206D01*
X117513500Y-151026793D01*
X117498980Y-151174219D01*
X117476529Y-151248229D01*
X117441598Y-151363383D01*
X117392182Y-151455833D01*
X117348417Y-151537712D01*
X117223015Y-151690515D01*
X117070212Y-151815917D01*
X116895881Y-151909099D01*
X116706720Y-151966480D01*
X116510000Y-151985855D01*
X116313281Y-151966480D01*
X116124120Y-151909099D01*
X115949788Y-151815917D01*
X115796985Y-151690515D01*
X115671583Y-151537712D01*
X115578401Y-151363381D01*
X115521020Y-151174220D01*
X115506500Y-151026794D01*
X115506500Y-150833207D01*
X115521020Y-150685781D01*
X115578401Y-150496620D01*
X115578402Y-150496617D01*
X115627818Y-150404167D01*
X115671583Y-150322288D01*
X115796985Y-150169485D01*
X115949788Y-150044083D01*
X116124119Y-149950901D01*
X116313280Y-149893520D01*
X116510000Y-149874145D01*
X116706719Y-149893520D01*
G37*
G36*
X119246719Y-149893520D02*
G01*
X119435880Y-149950901D01*
X119435883Y-149950902D01*
X119528333Y-150000318D01*
X119610212Y-150044083D01*
X119763015Y-150169485D01*
X119888417Y-150322288D01*
X119981599Y-150496619D01*
X120038980Y-150685780D01*
X120053500Y-150833206D01*
X120053500Y-151026793D01*
X120038980Y-151174219D01*
X120016529Y-151248229D01*
X119981598Y-151363383D01*
X119932182Y-151455833D01*
X119888417Y-151537712D01*
X119763015Y-151690515D01*
X119610212Y-151815917D01*
X119435881Y-151909099D01*
X119246720Y-151966480D01*
X119050000Y-151985855D01*
X118853281Y-151966480D01*
X118664120Y-151909099D01*
X118489788Y-151815917D01*
X118336985Y-151690515D01*
X118211583Y-151537712D01*
X118118401Y-151363381D01*
X118061020Y-151174220D01*
X118046500Y-151026794D01*
X118046500Y-150833207D01*
X118061020Y-150685781D01*
X118118401Y-150496620D01*
X118118402Y-150496617D01*
X118167818Y-150404167D01*
X118211583Y-150322288D01*
X118336985Y-150169485D01*
X118489788Y-150044083D01*
X118664119Y-149950901D01*
X118853280Y-149893520D01*
X119050000Y-149874145D01*
X119246719Y-149893520D01*
G37*
G36*
X114973500Y-151981000D02*
G01*
X112966500Y-151981000D01*
X112966500Y-149879000D01*
X114973500Y-149879000D01*
X114973500Y-151981000D01*
G37*
G36*
X98248228Y-150181703D02*
G01*
X98403100Y-150245853D01*
X98542481Y-150338985D01*
X98661015Y-150457519D01*
X98754147Y-150596900D01*
X98818297Y-150751772D01*
X98851000Y-150916184D01*
X98851000Y-151083816D01*
X98818297Y-151248228D01*
X98754147Y-151403100D01*
X98661015Y-151542481D01*
X98542481Y-151661015D01*
X98403100Y-151754147D01*
X98248228Y-151818297D01*
X98083816Y-151851000D01*
X97916184Y-151851000D01*
X97751772Y-151818297D01*
X97596900Y-151754147D01*
X97457519Y-151661015D01*
X97338985Y-151542481D01*
X97245853Y-151403100D01*
X97181703Y-151248228D01*
X97149000Y-151083816D01*
X97149000Y-150916184D01*
X97181703Y-150751772D01*
X97245853Y-150596900D01*
X97338985Y-150457519D01*
X97457519Y-150338985D01*
X97596900Y-150245853D01*
X97751772Y-150181703D01*
X97916184Y-150149000D01*
X98083816Y-150149000D01*
X98248228Y-150181703D01*
G37*
G36*
X103248228Y-150181703D02*
G01*
X103403100Y-150245853D01*
X103542481Y-150338985D01*
X103661015Y-150457519D01*
X103754147Y-150596900D01*
X103818297Y-150751772D01*
X103851000Y-150916184D01*
X103851000Y-151083816D01*
X103818297Y-151248228D01*
X103754147Y-151403100D01*
X103661015Y-151542481D01*
X103542481Y-151661015D01*
X103403100Y-151754147D01*
X103248228Y-151818297D01*
X103083816Y-151851000D01*
X102916184Y-151851000D01*
X102751772Y-151818297D01*
X102596900Y-151754147D01*
X102457519Y-151661015D01*
X102338985Y-151542481D01*
X102245853Y-151403100D01*
X102181703Y-151248228D01*
X102149000Y-151083816D01*
X102149000Y-150916184D01*
X102181703Y-150751772D01*
X102245853Y-150596900D01*
X102338985Y-150457519D01*
X102457519Y-150338985D01*
X102596900Y-150245853D01*
X102751772Y-150181703D01*
X102916184Y-150149000D01*
X103083816Y-150149000D01*
X103248228Y-150181703D01*
G37*
G36*
X80864903Y-145297075D02*
G01*
X81092571Y-145391378D01*
X81297466Y-145528285D01*
X81471715Y-145702534D01*
X81608622Y-145907429D01*
X81702925Y-146135097D01*
X81751000Y-146376787D01*
X81751000Y-146623213D01*
X81702925Y-146864903D01*
X81608622Y-147092571D01*
X81471715Y-147297466D01*
X81297466Y-147471715D01*
X81092571Y-147608622D01*
X81092570Y-147608623D01*
X81092569Y-147608623D01*
X80864903Y-147702925D01*
X80623214Y-147751000D01*
X80376786Y-147751000D01*
X80135097Y-147702925D01*
X79907431Y-147608623D01*
X79907430Y-147608623D01*
X79907429Y-147608622D01*
X79702534Y-147471715D01*
X79528285Y-147297466D01*
X79391378Y-147092571D01*
X79297075Y-146864903D01*
X79249000Y-146623213D01*
X79249000Y-146376787D01*
X79297075Y-146135097D01*
X79391378Y-145907429D01*
X79528285Y-145702534D01*
X79702534Y-145528285D01*
X79907429Y-145391378D01*
X80135097Y-145297075D01*
X80376786Y-145249000D01*
X80623214Y-145249000D01*
X80864903Y-145297075D01*
G37*
G36*
X61864903Y-142797075D02*
G01*
X62092571Y-142891378D01*
X62297466Y-143028285D01*
X62471715Y-143202534D01*
X62608622Y-143407429D01*
X62702925Y-143635097D01*
X62751000Y-143876787D01*
X62751000Y-144123213D01*
X62702925Y-144364903D01*
X62608622Y-144592571D01*
X62471715Y-144797466D01*
X62297466Y-144971715D01*
X62092571Y-145108622D01*
X62092570Y-145108623D01*
X62092569Y-145108623D01*
X61864903Y-145202925D01*
X61623214Y-145251000D01*
X61376786Y-145251000D01*
X61135097Y-145202925D01*
X60907431Y-145108623D01*
X60907430Y-145108623D01*
X60907429Y-145108622D01*
X60702534Y-144971715D01*
X60528285Y-144797466D01*
X60391378Y-144592571D01*
X60297075Y-144364903D01*
X60249000Y-144123213D01*
X60249000Y-143876787D01*
X60297075Y-143635097D01*
X60391378Y-143407429D01*
X60528285Y-143202534D01*
X60702534Y-143028285D01*
X60907429Y-142891378D01*
X61135097Y-142797075D01*
X61376786Y-142749000D01*
X61623214Y-142749000D01*
X61864903Y-142797075D01*
G37*
G36*
X70251000Y-145251000D02*
G01*
X67749000Y-145251000D01*
X67749000Y-142749000D01*
X70251000Y-142749000D01*
X70251000Y-145251000D01*
G37*
G36*
X77991000Y-136151000D02*
G01*
X75689000Y-136151000D01*
X75689000Y-133849000D01*
X77991000Y-133849000D01*
X77991000Y-136151000D01*
G37*
G36*
X87224549Y-133871116D02*
G01*
X87335734Y-133893232D01*
X87545203Y-133979997D01*
X87733720Y-134105960D01*
X87894040Y-134266280D01*
X88020003Y-134454797D01*
X88106768Y-134664266D01*
X88151000Y-134886636D01*
X88151000Y-135113364D01*
X88106768Y-135335734D01*
X88020003Y-135545203D01*
X87894040Y-135733720D01*
X87733720Y-135894040D01*
X87545203Y-136020003D01*
X87335734Y-136106768D01*
X87224549Y-136128884D01*
X87113365Y-136151000D01*
X86886635Y-136151000D01*
X86775451Y-136128884D01*
X86664266Y-136106768D01*
X86454797Y-136020003D01*
X86266280Y-135894040D01*
X86105960Y-135733720D01*
X85979997Y-135545203D01*
X85893232Y-135335734D01*
X85849000Y-135113364D01*
X85849000Y-134886636D01*
X85893232Y-134664266D01*
X85979997Y-134454797D01*
X86105960Y-134266280D01*
X86266280Y-134105960D01*
X86454797Y-133979997D01*
X86664266Y-133893232D01*
X86775451Y-133871116D01*
X86886635Y-133849000D01*
X87113365Y-133849000D01*
X87224549Y-133871116D01*
G37*
G36*
X93224549Y-133871116D02*
G01*
X93335734Y-133893232D01*
X93545203Y-133979997D01*
X93733720Y-134105960D01*
X93894040Y-134266280D01*
X94020003Y-134454797D01*
X94106768Y-134664266D01*
X94151000Y-134886636D01*
X94151000Y-135113364D01*
X94106768Y-135335734D01*
X94020003Y-135545203D01*
X93894040Y-135733720D01*
X93733720Y-135894040D01*
X93545203Y-136020003D01*
X93335734Y-136106768D01*
X93224549Y-136128884D01*
X93113365Y-136151000D01*
X92886635Y-136151000D01*
X92775451Y-136128884D01*
X92664266Y-136106768D01*
X92454797Y-136020003D01*
X92266280Y-135894040D01*
X92105960Y-135733720D01*
X91979997Y-135545203D01*
X91893232Y-135335734D01*
X91849000Y-135113364D01*
X91849000Y-134886636D01*
X91893232Y-134664266D01*
X91979997Y-134454797D01*
X92105960Y-134266280D01*
X92266280Y-134105960D01*
X92454797Y-133979997D01*
X92664266Y-133893232D01*
X92775451Y-133871116D01*
X92886635Y-133849000D01*
X93113365Y-133849000D01*
X93224549Y-133871116D01*
G37*
G36*
X104311000Y-136151000D02*
G01*
X102009000Y-136151000D01*
X102009000Y-133849000D01*
X104311000Y-133849000D01*
X104311000Y-136151000D01*
G37*
G36*
X77991000Y-130151000D02*
G01*
X75689000Y-130151000D01*
X75689000Y-127849000D01*
X77991000Y-127849000D01*
X77991000Y-130151000D01*
G37*
G36*
X104311000Y-130151000D02*
G01*
X102009000Y-130151000D01*
X102009000Y-127849000D01*
X104311000Y-127849000D01*
X104311000Y-130151000D01*
G37*
G36*
X93224549Y-127871116D02*
G01*
X93335734Y-127893232D01*
X93545203Y-127979997D01*
X93733720Y-128105960D01*
X93894040Y-128266280D01*
X94020003Y-128454797D01*
X94106768Y-128664266D01*
X94151000Y-128886636D01*
X94151000Y-129113364D01*
X94106768Y-129335734D01*
X94020003Y-129545203D01*
X93894040Y-129733720D01*
X93733720Y-129894040D01*
X93545203Y-130020003D01*
X93335734Y-130106768D01*
X93224549Y-130128884D01*
X93113365Y-130151000D01*
X92886635Y-130151000D01*
X92775451Y-130128884D01*
X92664266Y-130106768D01*
X92454797Y-130020003D01*
X92266280Y-129894040D01*
X92105960Y-129733720D01*
X91979997Y-129545203D01*
X91893232Y-129335734D01*
X91849000Y-129113364D01*
X91849000Y-128886636D01*
X91893232Y-128664266D01*
X91979997Y-128454797D01*
X92105960Y-128266280D01*
X92266280Y-128105960D01*
X92454797Y-127979997D01*
X92664266Y-127893232D01*
X92775451Y-127871116D01*
X92886635Y-127849000D01*
X93113365Y-127849000D01*
X93224549Y-127871116D01*
G37*
G36*
X87224549Y-127871116D02*
G01*
X87335734Y-127893232D01*
X87545203Y-127979997D01*
X87733720Y-128105960D01*
X87894040Y-128266280D01*
X88020003Y-128454797D01*
X88106768Y-128664266D01*
X88151000Y-128886636D01*
X88151000Y-129113364D01*
X88106768Y-129335734D01*
X88020003Y-129545203D01*
X87894040Y-129733720D01*
X87733720Y-129894040D01*
X87545203Y-130020003D01*
X87335734Y-130106768D01*
X87224549Y-130128884D01*
X87113365Y-130151000D01*
X86886635Y-130151000D01*
X86775451Y-130128884D01*
X86664266Y-130106768D01*
X86454797Y-130020003D01*
X86266280Y-129894040D01*
X86105960Y-129733720D01*
X85979997Y-129545203D01*
X85893232Y-129335734D01*
X85849000Y-129113364D01*
X85849000Y-128886636D01*
X85893232Y-128664266D01*
X85979997Y-128454797D01*
X86105960Y-128266280D01*
X86266280Y-128105960D01*
X86454797Y-127979997D01*
X86664266Y-127893232D01*
X86775451Y-127871116D01*
X86886635Y-127849000D01*
X87113365Y-127849000D01*
X87224549Y-127871116D01*
G37*
G36*
X113239487Y-121438996D02*
G01*
X113476253Y-121537068D01*
X113476255Y-121537069D01*
X113689339Y-121679447D01*
X113870553Y-121860661D01*
X114012932Y-122073747D01*
X114111004Y-122310513D01*
X114161000Y-122561861D01*
X114161000Y-122818139D01*
X114111004Y-123069487D01*
X114012932Y-123306253D01*
X114012931Y-123306255D01*
X113870553Y-123519339D01*
X113689339Y-123700553D01*
X113476255Y-123842931D01*
X113476254Y-123842932D01*
X113476253Y-123842932D01*
X113239487Y-123941004D01*
X112988139Y-123991000D01*
X112731861Y-123991000D01*
X112480513Y-123941004D01*
X112243747Y-123842932D01*
X112243746Y-123842932D01*
X112243745Y-123842931D01*
X112030661Y-123700553D01*
X111849447Y-123519339D01*
X111707069Y-123306255D01*
X111707068Y-123306253D01*
X111608996Y-123069487D01*
X111559000Y-122818139D01*
X111559000Y-122561861D01*
X111608996Y-122310513D01*
X111707068Y-122073747D01*
X111849447Y-121860661D01*
X112030661Y-121679447D01*
X112243745Y-121537069D01*
X112243747Y-121537068D01*
X112480513Y-121438996D01*
X112731861Y-121389000D01*
X112988139Y-121389000D01*
X113239487Y-121438996D01*
G37*
G36*
X67519487Y-121438996D02*
G01*
X67756253Y-121537068D01*
X67756255Y-121537069D01*
X67969339Y-121679447D01*
X68150553Y-121860661D01*
X68292932Y-122073747D01*
X68391004Y-122310513D01*
X68441000Y-122561861D01*
X68441000Y-122818139D01*
X68391004Y-123069487D01*
X68292932Y-123306253D01*
X68292931Y-123306255D01*
X68150553Y-123519339D01*
X67969339Y-123700553D01*
X67756255Y-123842931D01*
X67756254Y-123842932D01*
X67756253Y-123842932D01*
X67519487Y-123941004D01*
X67268139Y-123991000D01*
X67011861Y-123991000D01*
X66760513Y-123941004D01*
X66523747Y-123842932D01*
X66523746Y-123842932D01*
X66523745Y-123842931D01*
X66310661Y-123700553D01*
X66129447Y-123519339D01*
X65987069Y-123306255D01*
X65987068Y-123306253D01*
X65888996Y-123069487D01*
X65839000Y-122818139D01*
X65839000Y-122561861D01*
X65888996Y-122310513D01*
X65987068Y-122073747D01*
X66129447Y-121860661D01*
X66310661Y-121679447D01*
X66523745Y-121537069D01*
X66523747Y-121537068D01*
X66760513Y-121438996D01*
X67011861Y-121389000D01*
X67268139Y-121389000D01*
X67519487Y-121438996D01*
G37*
G36*
X62439487Y-121438996D02*
G01*
X62676253Y-121537068D01*
X62676255Y-121537069D01*
X62889339Y-121679447D01*
X63070553Y-121860661D01*
X63212932Y-122073747D01*
X63311004Y-122310513D01*
X63361000Y-122561861D01*
X63361000Y-122818139D01*
X63311004Y-123069487D01*
X63212932Y-123306253D01*
X63212931Y-123306255D01*
X63070553Y-123519339D01*
X62889339Y-123700553D01*
X62676255Y-123842931D01*
X62676254Y-123842932D01*
X62676253Y-123842932D01*
X62439487Y-123941004D01*
X62188139Y-123991000D01*
X61931861Y-123991000D01*
X61680513Y-123941004D01*
X61443747Y-123842932D01*
X61443746Y-123842932D01*
X61443745Y-123842931D01*
X61230661Y-123700553D01*
X61049447Y-123519339D01*
X60907069Y-123306255D01*
X60907068Y-123306253D01*
X60808996Y-123069487D01*
X60759000Y-122818139D01*
X60759000Y-122561861D01*
X60808996Y-122310513D01*
X60907068Y-122073747D01*
X61049447Y-121860661D01*
X61230661Y-121679447D01*
X61443745Y-121537069D01*
X61443747Y-121537068D01*
X61680513Y-121438996D01*
X61931861Y-121389000D01*
X62188139Y-121389000D01*
X62439487Y-121438996D01*
G37*
G36*
X118319487Y-121438996D02*
G01*
X118556253Y-121537068D01*
X118556255Y-121537069D01*
X118769339Y-121679447D01*
X118950553Y-121860661D01*
X119092932Y-122073747D01*
X119191004Y-122310513D01*
X119241000Y-122561861D01*
X119241000Y-122818139D01*
X119191004Y-123069487D01*
X119092932Y-123306253D01*
X119092931Y-123306255D01*
X118950553Y-123519339D01*
X118769339Y-123700553D01*
X118556255Y-123842931D01*
X118556254Y-123842932D01*
X118556253Y-123842932D01*
X118319487Y-123941004D01*
X118068139Y-123991000D01*
X117811861Y-123991000D01*
X117560513Y-123941004D01*
X117323747Y-123842932D01*
X117323746Y-123842932D01*
X117323745Y-123842931D01*
X117110661Y-123700553D01*
X116929447Y-123519339D01*
X116787069Y-123306255D01*
X116787068Y-123306253D01*
X116688996Y-123069487D01*
X116639000Y-122818139D01*
X116639000Y-122561861D01*
X116688996Y-122310513D01*
X116787068Y-122073747D01*
X116929447Y-121860661D01*
X117110661Y-121679447D01*
X117323745Y-121537069D01*
X117323747Y-121537068D01*
X117560513Y-121438996D01*
X117811861Y-121389000D01*
X118068139Y-121389000D01*
X118319487Y-121438996D01*
G37*
G36*
X115779487Y-65558996D02*
G01*
X116016253Y-65657068D01*
X116016255Y-65657069D01*
X116229339Y-65799447D01*
X116410553Y-65980661D01*
X116552932Y-66193747D01*
X116651004Y-66430513D01*
X116701000Y-66681861D01*
X116701000Y-66938139D01*
X116651004Y-67189487D01*
X116552932Y-67426253D01*
X116552931Y-67426255D01*
X116410553Y-67639339D01*
X116229339Y-67820553D01*
X116016255Y-67962931D01*
X116016254Y-67962932D01*
X116016253Y-67962932D01*
X115779487Y-68061004D01*
X115528139Y-68111000D01*
X115271861Y-68111000D01*
X115020513Y-68061004D01*
X114783747Y-67962932D01*
X114783746Y-67962932D01*
X114783745Y-67962931D01*
X114570661Y-67820553D01*
X114389447Y-67639339D01*
X114247069Y-67426255D01*
X114247068Y-67426253D01*
X114148996Y-67189487D01*
X114099000Y-66938139D01*
X114099000Y-66681861D01*
X114148996Y-66430513D01*
X114247068Y-66193747D01*
X114389447Y-65980661D01*
X114570661Y-65799447D01*
X114783745Y-65657069D01*
X114783747Y-65657068D01*
X115020513Y-65558996D01*
X115271861Y-65509000D01*
X115528139Y-65509000D01*
X115779487Y-65558996D01*
G37*
G36*
X64979487Y-65558996D02*
G01*
X65216253Y-65657068D01*
X65216255Y-65657069D01*
X65429339Y-65799447D01*
X65610553Y-65980661D01*
X65752932Y-66193747D01*
X65851004Y-66430513D01*
X65901000Y-66681861D01*
X65901000Y-66938139D01*
X65851004Y-67189487D01*
X65752932Y-67426253D01*
X65752931Y-67426255D01*
X65610553Y-67639339D01*
X65429339Y-67820553D01*
X65216255Y-67962931D01*
X65216254Y-67962932D01*
X65216253Y-67962932D01*
X64979487Y-68061004D01*
X64728139Y-68111000D01*
X64471861Y-68111000D01*
X64220513Y-68061004D01*
X63983747Y-67962932D01*
X63983746Y-67962932D01*
X63983745Y-67962931D01*
X63770661Y-67820553D01*
X63589447Y-67639339D01*
X63447069Y-67426255D01*
X63447068Y-67426253D01*
X63348996Y-67189487D01*
X63299000Y-66938139D01*
X63299000Y-66681861D01*
X63348996Y-66430513D01*
X63447068Y-66193747D01*
X63589447Y-65980661D01*
X63770661Y-65799447D01*
X63983745Y-65657069D01*
X63983747Y-65657068D01*
X64220513Y-65558996D01*
X64471861Y-65509000D01*
X64728139Y-65509000D01*
X64979487Y-65558996D01*
G37*
G36*
X70059487Y-65558996D02*
G01*
X70296253Y-65657068D01*
X70296255Y-65657069D01*
X70509339Y-65799447D01*
X70690553Y-65980661D01*
X70832932Y-66193747D01*
X70931004Y-66430513D01*
X70981000Y-66681861D01*
X70981000Y-66938139D01*
X70931004Y-67189487D01*
X70832932Y-67426253D01*
X70832931Y-67426255D01*
X70690553Y-67639339D01*
X70509339Y-67820553D01*
X70296255Y-67962931D01*
X70296254Y-67962932D01*
X70296253Y-67962932D01*
X70059487Y-68061004D01*
X69808139Y-68111000D01*
X69551861Y-68111000D01*
X69300513Y-68061004D01*
X69063747Y-67962932D01*
X69063746Y-67962932D01*
X69063745Y-67962931D01*
X68850661Y-67820553D01*
X68669447Y-67639339D01*
X68527069Y-67426255D01*
X68527068Y-67426253D01*
X68428996Y-67189487D01*
X68379000Y-66938139D01*
X68379000Y-66681861D01*
X68428996Y-66430513D01*
X68527068Y-66193747D01*
X68669447Y-65980661D01*
X68850661Y-65799447D01*
X69063745Y-65657069D01*
X69063747Y-65657068D01*
X69300513Y-65558996D01*
X69551861Y-65509000D01*
X69808139Y-65509000D01*
X70059487Y-65558996D01*
G37*
G36*
X110699487Y-65558996D02*
G01*
X110936253Y-65657068D01*
X110936255Y-65657069D01*
X111149339Y-65799447D01*
X111330553Y-65980661D01*
X111472932Y-66193747D01*
X111571004Y-66430513D01*
X111621000Y-66681861D01*
X111621000Y-66938139D01*
X111571004Y-67189487D01*
X111472932Y-67426253D01*
X111472931Y-67426255D01*
X111330553Y-67639339D01*
X111149339Y-67820553D01*
X110936255Y-67962931D01*
X110936254Y-67962932D01*
X110936253Y-67962932D01*
X110699487Y-68061004D01*
X110448139Y-68111000D01*
X110191861Y-68111000D01*
X109940513Y-68061004D01*
X109703747Y-67962932D01*
X109703746Y-67962932D01*
X109703745Y-67962931D01*
X109490661Y-67820553D01*
X109309447Y-67639339D01*
X109167069Y-67426255D01*
X109167068Y-67426253D01*
X109068996Y-67189487D01*
X109019000Y-66938139D01*
X109019000Y-66681861D01*
X109068996Y-66430513D01*
X109167068Y-66193747D01*
X109309447Y-65980661D01*
X109490661Y-65799447D01*
X109703745Y-65657069D01*
X109703747Y-65657068D01*
X109940513Y-65558996D01*
X110191861Y-65509000D01*
X110448139Y-65509000D01*
X110699487Y-65558996D01*
G37*
G36*
X115494453Y-56436701D02*
G01*
X115686780Y-56474957D01*
X115928097Y-56574914D01*
X116145276Y-56720029D01*
X116329971Y-56904724D01*
X116475086Y-57121903D01*
X116575043Y-57363220D01*
X116626000Y-57619400D01*
X116626000Y-57880600D01*
X116575043Y-58136780D01*
X116475086Y-58378097D01*
X116329971Y-58595276D01*
X116145276Y-58779971D01*
X115928097Y-58925086D01*
X115686780Y-59025043D01*
X115568280Y-59048614D01*
X115430601Y-59076000D01*
X115169399Y-59076000D01*
X115031720Y-59048614D01*
X114913220Y-59025043D01*
X114671903Y-58925086D01*
X114454724Y-58779971D01*
X114270029Y-58595276D01*
X114124914Y-58378097D01*
X114024957Y-58136780D01*
X113974000Y-57880600D01*
X113974000Y-57619400D01*
X114024957Y-57363220D01*
X114124914Y-57121903D01*
X114270029Y-56904724D01*
X114454724Y-56720029D01*
X114671903Y-56574914D01*
X114913220Y-56474957D01*
X115105547Y-56436701D01*
X115169399Y-56424000D01*
X115430601Y-56424000D01*
X115494453Y-56436701D01*
G37*
G36*
X65697490Y-56427658D02*
G01*
X65727302Y-56436701D01*
X65754775Y-56451386D01*
X65778854Y-56471146D01*
X65798614Y-56495225D01*
X65813299Y-56522698D01*
X65822342Y-56552510D01*
X65826000Y-56589650D01*
X65826000Y-58910350D01*
X65822342Y-58947490D01*
X65813299Y-58977302D01*
X65798614Y-59004775D01*
X65778854Y-59028854D01*
X65754775Y-59048614D01*
X65727302Y-59063299D01*
X65697490Y-59072342D01*
X65660350Y-59076000D01*
X63339650Y-59076000D01*
X63302510Y-59072342D01*
X63272698Y-59063299D01*
X63245225Y-59048614D01*
X63221146Y-59028854D01*
X63201386Y-59004775D01*
X63186701Y-58977302D01*
X63177658Y-58947490D01*
X63174000Y-58910350D01*
X63174000Y-56589650D01*
X63177658Y-56552510D01*
X63186701Y-56522698D01*
X63201386Y-56495225D01*
X63221146Y-56471146D01*
X63245225Y-56451386D01*
X63272698Y-56436701D01*
X63302510Y-56427658D01*
X63339650Y-56424000D01*
X65660350Y-56424000D01*
X65697490Y-56427658D01*
G37*
G36*
X69494453Y-56436701D02*
G01*
X69686780Y-56474957D01*
X69928097Y-56574914D01*
X70145276Y-56720029D01*
X70329971Y-56904724D01*
X70475086Y-57121903D01*
X70575043Y-57363220D01*
X70626000Y-57619400D01*
X70626000Y-57880600D01*
X70575043Y-58136780D01*
X70475086Y-58378097D01*
X70329971Y-58595276D01*
X70145276Y-58779971D01*
X69928097Y-58925086D01*
X69686780Y-59025043D01*
X69568280Y-59048614D01*
X69430601Y-59076000D01*
X69169399Y-59076000D01*
X69031720Y-59048614D01*
X68913220Y-59025043D01*
X68671903Y-58925086D01*
X68454724Y-58779971D01*
X68270029Y-58595276D01*
X68124914Y-58378097D01*
X68024957Y-58136780D01*
X67974000Y-57880600D01*
X67974000Y-57619400D01*
X68024957Y-57363220D01*
X68124914Y-57121903D01*
X68270029Y-56904724D01*
X68454724Y-56720029D01*
X68671903Y-56574914D01*
X68913220Y-56474957D01*
X69105547Y-56436701D01*
X69169399Y-56424000D01*
X69430601Y-56424000D01*
X69494453Y-56436701D01*
G37*
G36*
X87894453Y-56436701D02*
G01*
X88086780Y-56474957D01*
X88328097Y-56574914D01*
X88545276Y-56720029D01*
X88729971Y-56904724D01*
X88875086Y-57121903D01*
X88975043Y-57363220D01*
X89026000Y-57619400D01*
X89026000Y-57880600D01*
X88975043Y-58136780D01*
X88875086Y-58378097D01*
X88729971Y-58595276D01*
X88545276Y-58779971D01*
X88328097Y-58925086D01*
X88086780Y-59025043D01*
X87968280Y-59048614D01*
X87830601Y-59076000D01*
X87569399Y-59076000D01*
X87431720Y-59048614D01*
X87313220Y-59025043D01*
X87071903Y-58925086D01*
X86854724Y-58779971D01*
X86670029Y-58595276D01*
X86524914Y-58378097D01*
X86424957Y-58136780D01*
X86374000Y-57880600D01*
X86374000Y-57619400D01*
X86424957Y-57363220D01*
X86524914Y-57121903D01*
X86670029Y-56904724D01*
X86854724Y-56720029D01*
X87071903Y-56574914D01*
X87313220Y-56474957D01*
X87505547Y-56436701D01*
X87569399Y-56424000D01*
X87830601Y-56424000D01*
X87894453Y-56436701D01*
G37*
G36*
X93697490Y-56427658D02*
G01*
X93727302Y-56436701D01*
X93754775Y-56451386D01*
X93778854Y-56471146D01*
X93798614Y-56495225D01*
X93813299Y-56522698D01*
X93822342Y-56552510D01*
X93826000Y-56589650D01*
X93826000Y-58910350D01*
X93822342Y-58947490D01*
X93813299Y-58977302D01*
X93798614Y-59004775D01*
X93778854Y-59028854D01*
X93754775Y-59048614D01*
X93727302Y-59063299D01*
X93697490Y-59072342D01*
X93660350Y-59076000D01*
X91339650Y-59076000D01*
X91302510Y-59072342D01*
X91272698Y-59063299D01*
X91245225Y-59048614D01*
X91221146Y-59028854D01*
X91201386Y-59004775D01*
X91186701Y-58977302D01*
X91177658Y-58947490D01*
X91174000Y-58910350D01*
X91174000Y-56589650D01*
X91177658Y-56552510D01*
X91186701Y-56522698D01*
X91201386Y-56495225D01*
X91221146Y-56471146D01*
X91245225Y-56451386D01*
X91272698Y-56436701D01*
X91302510Y-56427658D01*
X91339650Y-56424000D01*
X93660350Y-56424000D01*
X93697490Y-56427658D01*
G37*
G36*
X111697490Y-56427658D02*
G01*
X111727302Y-56436701D01*
X111754775Y-56451386D01*
X111778854Y-56471146D01*
X111798614Y-56495225D01*
X111813299Y-56522698D01*
X111822342Y-56552510D01*
X111826000Y-56589650D01*
X111826000Y-58910350D01*
X111822342Y-58947490D01*
X111813299Y-58977302D01*
X111798614Y-59004775D01*
X111778854Y-59028854D01*
X111754775Y-59048614D01*
X111727302Y-59063299D01*
X111697490Y-59072342D01*
X111660350Y-59076000D01*
X109339650Y-59076000D01*
X109302510Y-59072342D01*
X109272698Y-59063299D01*
X109245225Y-59048614D01*
X109221146Y-59028854D01*
X109201386Y-59004775D01*
X109186701Y-58977302D01*
X109177658Y-58947490D01*
X109174000Y-58910350D01*
X109174000Y-56589650D01*
X109177658Y-56552510D01*
X109186701Y-56522698D01*
X109201386Y-56495225D01*
X109221146Y-56471146D01*
X109245225Y-56451386D01*
X109272698Y-56436701D01*
X109302510Y-56427658D01*
X109339650Y-56424000D01*
X111660350Y-56424000D01*
X111697490Y-56427658D01*
G37*
G36*
X119301000Y-36801000D02*
G01*
X115699000Y-36801000D01*
X115699000Y-33199000D01*
X119301000Y-33199000D01*
X119301000Y-36801000D01*
G37*
G36*
X126051000Y-36051000D02*
G01*
X123949000Y-36051000D01*
X123949000Y-33949000D01*
X126051000Y-33949000D01*
X126051000Y-36051000D01*
G37*
G36*
X113926366Y-30215695D02*
G01*
X114083460Y-30263349D01*
X114228231Y-30340731D01*
X114355128Y-30444872D01*
X114459269Y-30571769D01*
X114536651Y-30716540D01*
X114584305Y-30873634D01*
X114601000Y-31043140D01*
X114601000Y-32956860D01*
X114584305Y-33126366D01*
X114536651Y-33283460D01*
X114459269Y-33428231D01*
X114355128Y-33555128D01*
X114228231Y-33659269D01*
X114083460Y-33736651D01*
X113926366Y-33784305D01*
X113756860Y-33801000D01*
X111843140Y-33801000D01*
X111673634Y-33784305D01*
X111516540Y-33736651D01*
X111371769Y-33659269D01*
X111244872Y-33555128D01*
X111140731Y-33428231D01*
X111063349Y-33283460D01*
X111015695Y-33126366D01*
X110999000Y-32956860D01*
X110999000Y-31043140D01*
X111015695Y-30873634D01*
X111063349Y-30716540D01*
X111140731Y-30571769D01*
X111244872Y-30444872D01*
X111371769Y-30340731D01*
X111516540Y-30263349D01*
X111673634Y-30215695D01*
X111843140Y-30199000D01*
X113756860Y-30199000D01*
X113926366Y-30215695D01*
G37*
G36*
X125306564Y-29489389D02*
G01*
X125497833Y-29568615D01*
X125497835Y-29568616D01*
X125669973Y-29683635D01*
X125816365Y-29830027D01*
X125931385Y-30002167D01*
X126010611Y-30193436D01*
X126051000Y-30396484D01*
X126051000Y-30603516D01*
X126010611Y-30806564D01*
X125931385Y-30997833D01*
X125931384Y-30997835D01*
X125816365Y-31169973D01*
X125669973Y-31316365D01*
X125497835Y-31431384D01*
X125497834Y-31431385D01*
X125497833Y-31431385D01*
X125306564Y-31510611D01*
X125103516Y-31551000D01*
X124896484Y-31551000D01*
X124693436Y-31510611D01*
X124502167Y-31431385D01*
X124502166Y-31431385D01*
X124502165Y-31431384D01*
X124330027Y-31316365D01*
X124183635Y-31169973D01*
X124068616Y-30997835D01*
X124068615Y-30997833D01*
X123989389Y-30806564D01*
X123949000Y-30603516D01*
X123949000Y-30396484D01*
X123989389Y-30193436D01*
X124068615Y-30002167D01*
X124183635Y-29830027D01*
X124330027Y-29683635D01*
X124502165Y-29568616D01*
X124502167Y-29568615D01*
X124693436Y-29489389D01*
X124896484Y-29449000D01*
X125103516Y-29449000D01*
X125306564Y-29489389D01*
G37*
G36*
X118726979Y-27463293D02*
G01*
X118860625Y-27503834D01*
X118983784Y-27569664D01*
X119091740Y-27658260D01*
X119180336Y-27766216D01*
X119246166Y-27889375D01*
X119286707Y-28023021D01*
X119301000Y-28168140D01*
X119301000Y-29831860D01*
X119286707Y-29976979D01*
X119246166Y-30110625D01*
X119180336Y-30233784D01*
X119091740Y-30341740D01*
X118983784Y-30430336D01*
X118860625Y-30496166D01*
X118726979Y-30536707D01*
X118581860Y-30551000D01*
X116418140Y-30551000D01*
X116273021Y-30536707D01*
X116139375Y-30496166D01*
X116016216Y-30430336D01*
X115908260Y-30341740D01*
X115819664Y-30233784D01*
X115753834Y-30110625D01*
X115713293Y-29976979D01*
X115699000Y-29831860D01*
X115699000Y-28168140D01*
X115713293Y-28023021D01*
X115753834Y-27889375D01*
X115819664Y-27766216D01*
X115908260Y-27658260D01*
X116016216Y-27569664D01*
X116139375Y-27503834D01*
X116273021Y-27463293D01*
X116418140Y-27449000D01*
X118581860Y-27449000D01*
X118726979Y-27463293D01*
G37*
M02*
