G04 #@! TF.GenerationSoftware,KiCad,Pcbnew,(5.1.6)-1*
G04 #@! TF.CreationDate,2020-12-21T18:52:40-08:00*
G04 #@! TF.ProjectId,12v1a_psu,31327631-615f-4707-9375-2e6b69636164,1.0*
G04 #@! TF.SameCoordinates,Original*
G04 #@! TF.FileFunction,Copper,L3,Inr*
G04 #@! TF.FilePolarity,Positive*
%FSLAX46Y46*%
G04 Gerber Fmt 4.6, Leading zero omitted, Abs format (unit mm)*
G04 Created by KiCad (PCBNEW (5.1.6)-1) date 2020-12-21 18:52:40*
%MOMM*%
%LPD*%
G01*
G04 APERTURE LIST*
G04 #@! TA.AperFunction,ViaPad*
%ADD10O,1.905000X2.000000*%
G04 #@! TD*
G04 #@! TA.AperFunction,ViaPad*
%ADD11R,1.905000X2.000000*%
G04 #@! TD*
G04 #@! TA.AperFunction,ViaPad*
%ADD12C,2.500000*%
G04 #@! TD*
G04 #@! TA.AperFunction,ViaPad*
%ADD13C,2.000000*%
G04 #@! TD*
G04 #@! TA.AperFunction,ViaPad*
%ADD14R,2.000000X2.000000*%
G04 #@! TD*
G04 #@! TA.AperFunction,ViaPad*
%ADD15O,1.600000X1.600000*%
G04 #@! TD*
G04 #@! TA.AperFunction,ViaPad*
%ADD16C,1.600000*%
G04 #@! TD*
G04 #@! TA.AperFunction,ViaPad*
%ADD17R,3.500000X3.500000*%
G04 #@! TD*
G04 #@! TA.AperFunction,ViaPad*
%ADD18C,2.550000*%
G04 #@! TD*
G04 #@! TA.AperFunction,ViaPad*
%ADD19C,1.800000*%
G04 #@! TD*
G04 #@! TA.AperFunction,ViaPad*
%ADD20R,1.800000X1.800000*%
G04 #@! TD*
G04 #@! TA.AperFunction,ViaPad*
%ADD21O,2.200000X2.200000*%
G04 #@! TD*
G04 #@! TA.AperFunction,ViaPad*
%ADD22R,2.200000X2.200000*%
G04 #@! TD*
G04 #@! TA.AperFunction,ViaPad*
%ADD23C,2.400000*%
G04 #@! TD*
G04 #@! TA.AperFunction,ViaPad*
%ADD24R,2.400000X2.400000*%
G04 #@! TD*
G04 #@! TA.AperFunction,ViaPad*
%ADD25C,0.800000*%
G04 #@! TD*
G04 #@! TA.AperFunction,Conductor*
%ADD26C,0.254000*%
G04 #@! TD*
G04 APERTURE END LIST*
D10*
X119050000Y-150930000D03*
X116510000Y-150930000D03*
D11*
X113970000Y-150930000D03*
D12*
X62060000Y-122690000D03*
X67140000Y-122690000D03*
X112860000Y-122690000D03*
X117940000Y-122690000D03*
X115400000Y-66810000D03*
X110320000Y-66810000D03*
X64600000Y-66810000D03*
X69680000Y-66810000D03*
D13*
X125000000Y-30500000D03*
D14*
X125000000Y-35000000D03*
D15*
X89340000Y-161500000D03*
D16*
X99500000Y-161500000D03*
D15*
X85340000Y-174500000D03*
D16*
X95500000Y-174500000D03*
D10*
X119040000Y-177430000D03*
X116500000Y-177430000D03*
D11*
X113960000Y-177430000D03*
D17*
X117500000Y-35000000D03*
G04 #@! TA.AperFunction,ViaPad*
G36*
G01*
X116500000Y-27500000D02*
X118500000Y-27500000D01*
G75*
G02*
X119250000Y-28250000I0J-750000D01*
G01*
X119250000Y-29750000D01*
G75*
G02*
X118500000Y-30500000I-750000J0D01*
G01*
X116500000Y-30500000D01*
G75*
G02*
X115750000Y-29750000I0J750000D01*
G01*
X115750000Y-28250000D01*
G75*
G02*
X116500000Y-27500000I750000J0D01*
G01*
G37*
G04 #@! TD.AperFunction*
G04 #@! TA.AperFunction,ViaPad*
G36*
G01*
X111925000Y-30250000D02*
X113675000Y-30250000D01*
G75*
G02*
X114550000Y-31125000I0J-875000D01*
G01*
X114550000Y-32875000D01*
G75*
G02*
X113675000Y-33750000I-875000J0D01*
G01*
X111925000Y-33750000D01*
G75*
G02*
X111050000Y-32875000I0J875000D01*
G01*
X111050000Y-31125000D01*
G75*
G02*
X111925000Y-30250000I875000J0D01*
G01*
G37*
G04 #@! TD.AperFunction*
D18*
X115300000Y-57750000D03*
G04 #@! TA.AperFunction,ViaPad*
G36*
G01*
X109225000Y-58775001D02*
X109225000Y-56724999D01*
G75*
G02*
X109474999Y-56475000I249999J0D01*
G01*
X111525001Y-56475000D01*
G75*
G02*
X111775000Y-56724999I0J-249999D01*
G01*
X111775000Y-58775001D01*
G75*
G02*
X111525001Y-59025000I-249999J0D01*
G01*
X109474999Y-59025000D01*
G75*
G02*
X109225000Y-58775001I0J249999D01*
G01*
G37*
G04 #@! TD.AperFunction*
X69300000Y-57750000D03*
G04 #@! TA.AperFunction,ViaPad*
G36*
G01*
X63225000Y-58775001D02*
X63225000Y-56724999D01*
G75*
G02*
X63474999Y-56475000I249999J0D01*
G01*
X65525001Y-56475000D01*
G75*
G02*
X65775000Y-56724999I0J-249999D01*
G01*
X65775000Y-58775001D01*
G75*
G02*
X65525001Y-59025000I-249999J0D01*
G01*
X63474999Y-59025000D01*
G75*
G02*
X63225000Y-58775001I0J249999D01*
G01*
G37*
G04 #@! TD.AperFunction*
X87700000Y-57750000D03*
G04 #@! TA.AperFunction,ViaPad*
G36*
G01*
X93775000Y-56724999D02*
X93775000Y-58775001D01*
G75*
G02*
X93525001Y-59025000I-249999J0D01*
G01*
X91474999Y-59025000D01*
G75*
G02*
X91225000Y-58775001I0J249999D01*
G01*
X91225000Y-56724999D01*
G75*
G02*
X91474999Y-56475000I249999J0D01*
G01*
X93525001Y-56475000D01*
G75*
G02*
X93775000Y-56724999I0J-249999D01*
G01*
G37*
G04 #@! TD.AperFunction*
D19*
X91540000Y-180000000D03*
D20*
X89000000Y-180000000D03*
D21*
X93000000Y-135000000D03*
D22*
X103160000Y-135000000D03*
D21*
X87000000Y-135000000D03*
D22*
X76840000Y-135000000D03*
D21*
X93000000Y-129000000D03*
D22*
X103160000Y-129000000D03*
D21*
X87000000Y-129000000D03*
D22*
X76840000Y-129000000D03*
D16*
X98500000Y-169500000D03*
X103500000Y-169500000D03*
X98000000Y-151000000D03*
X103000000Y-151000000D03*
D23*
X80500000Y-146500000D03*
X80500000Y-161500000D03*
X61500000Y-144000000D03*
D24*
X69000000Y-144000000D03*
D23*
X61500000Y-163500000D03*
D24*
X69000000Y-163500000D03*
D25*
X138500000Y-27500000D03*
X138500000Y-32500000D03*
X138500000Y-37500000D03*
X138500000Y-42500000D03*
X138500000Y-47500000D03*
X138500000Y-52500000D03*
X138500000Y-57500000D03*
X138500000Y-62500000D03*
X138500000Y-67500000D03*
X138500000Y-72500000D03*
X138500000Y-77500000D03*
X138500000Y-82500000D03*
X138500000Y-87500000D03*
X138500000Y-92500000D03*
X138500000Y-97500000D03*
X138500000Y-102500000D03*
X138500000Y-107500000D03*
X138500000Y-112500000D03*
X138500000Y-117500000D03*
X138500000Y-122500000D03*
X138500000Y-127500000D03*
X138500000Y-132500000D03*
X138500000Y-137500000D03*
X138500000Y-142500000D03*
X138500000Y-147500000D03*
X138500000Y-152500000D03*
X138500000Y-157500000D03*
X138500000Y-162500000D03*
X138500000Y-167500000D03*
X138500000Y-172500000D03*
X138500000Y-177500000D03*
X135000000Y-183500000D03*
X130000000Y-183500000D03*
X125000000Y-183500000D03*
X120000000Y-183500000D03*
X115000000Y-183500000D03*
X90000000Y-183500000D03*
X100000000Y-183500000D03*
X95000000Y-183500000D03*
X110000000Y-183500000D03*
X105000000Y-183500000D03*
X80000000Y-183500000D03*
X85000000Y-183500000D03*
X75000000Y-183500000D03*
X70000000Y-183500000D03*
X65000000Y-183500000D03*
X55000000Y-183500000D03*
X50000000Y-183500000D03*
X60000000Y-183500000D03*
X45000000Y-183500000D03*
X138500000Y-182500000D03*
X41500000Y-27500000D03*
X41500000Y-167500000D03*
X41500000Y-122500000D03*
X41500000Y-157500000D03*
X41500000Y-107500000D03*
X41500000Y-67500000D03*
X41500000Y-147500000D03*
X41500000Y-117500000D03*
X41500000Y-102500000D03*
X41500000Y-57500000D03*
X41500000Y-177500000D03*
X41500000Y-172500000D03*
X41500000Y-47500000D03*
X41500000Y-62500000D03*
X41500000Y-127500000D03*
X41500000Y-162500000D03*
X41500000Y-72500000D03*
X41500000Y-152500000D03*
X41500000Y-82500000D03*
X41500000Y-37500000D03*
X41500000Y-137500000D03*
X41500000Y-87500000D03*
X41500000Y-77500000D03*
X41500000Y-97500000D03*
X41500000Y-52500000D03*
X41500000Y-112500000D03*
X41500000Y-32500000D03*
X41500000Y-42500000D03*
X41500000Y-92500000D03*
X41500000Y-132500000D03*
X41500000Y-142500000D03*
X41500000Y-182500000D03*
X115000000Y-26500000D03*
X125000000Y-26500000D03*
X120000000Y-26500000D03*
X135000000Y-26500000D03*
X130000000Y-26500000D03*
X80000000Y-26500000D03*
X105000000Y-26500000D03*
X75000000Y-26500000D03*
X50000000Y-26500000D03*
X65000000Y-26500000D03*
X110000000Y-26500000D03*
X85000000Y-26500000D03*
X70000000Y-26500000D03*
X45000000Y-26500000D03*
X60000000Y-26500000D03*
X100000000Y-26500000D03*
X95000000Y-26500000D03*
X55000000Y-26500000D03*
X90000000Y-26500000D03*
D26*
G36*
X139340001Y-184340000D02*
G01*
X40660000Y-184340000D01*
X40660000Y-180900000D01*
X87461928Y-180900000D01*
X87474188Y-181024482D01*
X87510498Y-181144180D01*
X87569463Y-181254494D01*
X87648815Y-181351185D01*
X87745506Y-181430537D01*
X87855820Y-181489502D01*
X87975518Y-181525812D01*
X88100000Y-181538072D01*
X88714250Y-181535000D01*
X88873000Y-181376250D01*
X88873000Y-180127000D01*
X87623750Y-180127000D01*
X87465000Y-180285750D01*
X87461928Y-180900000D01*
X40660000Y-180900000D01*
X40660000Y-179100000D01*
X87461928Y-179100000D01*
X87465000Y-179714250D01*
X87623750Y-179873000D01*
X88873000Y-179873000D01*
X88873000Y-178623750D01*
X89127000Y-178623750D01*
X89127000Y-179873000D01*
X89147000Y-179873000D01*
X89147000Y-180127000D01*
X89127000Y-180127000D01*
X89127000Y-181376250D01*
X89285750Y-181535000D01*
X89900000Y-181538072D01*
X90024482Y-181525812D01*
X90144180Y-181489502D01*
X90254494Y-181430537D01*
X90327145Y-181370914D01*
X90375355Y-181419124D01*
X90674591Y-181619066D01*
X91007084Y-181756789D01*
X91360056Y-181827000D01*
X91719944Y-181827000D01*
X92072916Y-181756789D01*
X92405409Y-181619066D01*
X92704645Y-181419124D01*
X92959124Y-181164645D01*
X93159066Y-180865409D01*
X93296789Y-180532916D01*
X93367000Y-180179944D01*
X93367000Y-179820056D01*
X93296789Y-179467084D01*
X93159066Y-179134591D01*
X92959124Y-178835355D01*
X92704645Y-178580876D01*
X92405409Y-178380934D01*
X92072916Y-178243211D01*
X91719944Y-178173000D01*
X91360056Y-178173000D01*
X91007084Y-178243211D01*
X90674591Y-178380934D01*
X90375355Y-178580876D01*
X90327145Y-178629086D01*
X90254494Y-178569463D01*
X90144180Y-178510498D01*
X90024482Y-178474188D01*
X89900000Y-178461928D01*
X89285750Y-178465000D01*
X89127000Y-178623750D01*
X88873000Y-178623750D01*
X88714250Y-178465000D01*
X88100000Y-178461928D01*
X87975518Y-178474188D01*
X87855820Y-178510498D01*
X87745506Y-178569463D01*
X87648815Y-178648815D01*
X87569463Y-178745506D01*
X87510498Y-178855820D01*
X87474188Y-178975518D01*
X87461928Y-179100000D01*
X40660000Y-179100000D01*
X40660000Y-176430000D01*
X112076015Y-176430000D01*
X112076015Y-178430000D01*
X112093913Y-178611724D01*
X112146920Y-178786464D01*
X112232999Y-178947505D01*
X112348841Y-179088659D01*
X112489995Y-179204501D01*
X112651036Y-179290580D01*
X112825776Y-179343587D01*
X113007500Y-179361485D01*
X114912500Y-179361485D01*
X115094224Y-179343587D01*
X115268964Y-179290580D01*
X115430005Y-179204501D01*
X115553812Y-179102895D01*
X115777267Y-179222333D01*
X116131555Y-179329805D01*
X116500000Y-179366094D01*
X116868446Y-179329805D01*
X117222734Y-179222333D01*
X117549247Y-179047809D01*
X117770000Y-178866642D01*
X117990753Y-179047809D01*
X118317267Y-179222333D01*
X118671555Y-179329805D01*
X119040000Y-179366094D01*
X119408446Y-179329805D01*
X119762734Y-179222333D01*
X120089247Y-179047809D01*
X120375438Y-178812938D01*
X120610309Y-178526747D01*
X120784833Y-178200233D01*
X120892305Y-177845945D01*
X120919500Y-177569831D01*
X120919500Y-177290168D01*
X120892305Y-177014054D01*
X120784833Y-176659766D01*
X120610309Y-176333253D01*
X120375438Y-176047062D01*
X120089247Y-175812191D01*
X119762733Y-175637667D01*
X119408445Y-175530195D01*
X119040000Y-175493906D01*
X118671554Y-175530195D01*
X118317266Y-175637667D01*
X117990753Y-175812191D01*
X117770000Y-175993358D01*
X117549247Y-175812191D01*
X117222733Y-175637667D01*
X116868445Y-175530195D01*
X116500000Y-175493906D01*
X116131554Y-175530195D01*
X115777266Y-175637667D01*
X115553812Y-175757105D01*
X115430005Y-175655499D01*
X115268964Y-175569420D01*
X115094224Y-175516413D01*
X114912500Y-175498515D01*
X113007500Y-175498515D01*
X112825776Y-175516413D01*
X112651036Y-175569420D01*
X112489995Y-175655499D01*
X112348841Y-175771341D01*
X112232999Y-175912495D01*
X112146920Y-176073536D01*
X112093913Y-176248276D01*
X112076015Y-176430000D01*
X40660000Y-176430000D01*
X40660000Y-174329905D01*
X83613000Y-174329905D01*
X83613000Y-174670095D01*
X83679368Y-175003747D01*
X83809553Y-175318041D01*
X83998552Y-175600898D01*
X84239102Y-175841448D01*
X84521959Y-176030447D01*
X84836253Y-176160632D01*
X85169905Y-176227000D01*
X85510095Y-176227000D01*
X85843747Y-176160632D01*
X86158041Y-176030447D01*
X86440898Y-175841448D01*
X86681448Y-175600898D01*
X86870447Y-175318041D01*
X87000632Y-175003747D01*
X87067000Y-174670095D01*
X87067000Y-174329905D01*
X93773000Y-174329905D01*
X93773000Y-174670095D01*
X93839368Y-175003747D01*
X93969553Y-175318041D01*
X94158552Y-175600898D01*
X94399102Y-175841448D01*
X94681959Y-176030447D01*
X94996253Y-176160632D01*
X95329905Y-176227000D01*
X95670095Y-176227000D01*
X96003747Y-176160632D01*
X96318041Y-176030447D01*
X96600898Y-175841448D01*
X96841448Y-175600898D01*
X97030447Y-175318041D01*
X97160632Y-175003747D01*
X97227000Y-174670095D01*
X97227000Y-174329905D01*
X97160632Y-173996253D01*
X97030447Y-173681959D01*
X96841448Y-173399102D01*
X96600898Y-173158552D01*
X96318041Y-172969553D01*
X96003747Y-172839368D01*
X95670095Y-172773000D01*
X95329905Y-172773000D01*
X94996253Y-172839368D01*
X94681959Y-172969553D01*
X94399102Y-173158552D01*
X94158552Y-173399102D01*
X93969553Y-173681959D01*
X93839368Y-173996253D01*
X93773000Y-174329905D01*
X87067000Y-174329905D01*
X87000632Y-173996253D01*
X86870447Y-173681959D01*
X86681448Y-173399102D01*
X86440898Y-173158552D01*
X86158041Y-172969553D01*
X85843747Y-172839368D01*
X85510095Y-172773000D01*
X85169905Y-172773000D01*
X84836253Y-172839368D01*
X84521959Y-172969553D01*
X84239102Y-173158552D01*
X83998552Y-173399102D01*
X83809553Y-173681959D01*
X83679368Y-173996253D01*
X83613000Y-174329905D01*
X40660000Y-174329905D01*
X40660000Y-170492702D01*
X97686903Y-170492702D01*
X97758486Y-170736671D01*
X98013996Y-170857571D01*
X98288184Y-170926300D01*
X98570512Y-170940217D01*
X98850130Y-170898787D01*
X99116292Y-170803603D01*
X99241514Y-170736671D01*
X99313097Y-170492702D01*
X98500000Y-169679605D01*
X97686903Y-170492702D01*
X40660000Y-170492702D01*
X40660000Y-169570512D01*
X97059783Y-169570512D01*
X97101213Y-169850130D01*
X97196397Y-170116292D01*
X97263329Y-170241514D01*
X97507298Y-170313097D01*
X98320395Y-169500000D01*
X98679605Y-169500000D01*
X99492702Y-170313097D01*
X99736671Y-170241514D01*
X99857571Y-169986004D01*
X99926300Y-169711816D01*
X99940217Y-169429488D01*
X99925463Y-169329905D01*
X101773000Y-169329905D01*
X101773000Y-169670095D01*
X101839368Y-170003747D01*
X101969553Y-170318041D01*
X102158552Y-170600898D01*
X102399102Y-170841448D01*
X102681959Y-171030447D01*
X102996253Y-171160632D01*
X103329905Y-171227000D01*
X103670095Y-171227000D01*
X104003747Y-171160632D01*
X104318041Y-171030447D01*
X104600898Y-170841448D01*
X104841448Y-170600898D01*
X105030447Y-170318041D01*
X105160632Y-170003747D01*
X105227000Y-169670095D01*
X105227000Y-169329905D01*
X105160632Y-168996253D01*
X105030447Y-168681959D01*
X104841448Y-168399102D01*
X104600898Y-168158552D01*
X104318041Y-167969553D01*
X104003747Y-167839368D01*
X103670095Y-167773000D01*
X103329905Y-167773000D01*
X102996253Y-167839368D01*
X102681959Y-167969553D01*
X102399102Y-168158552D01*
X102158552Y-168399102D01*
X101969553Y-168681959D01*
X101839368Y-168996253D01*
X101773000Y-169329905D01*
X99925463Y-169329905D01*
X99898787Y-169149870D01*
X99803603Y-168883708D01*
X99736671Y-168758486D01*
X99492702Y-168686903D01*
X98679605Y-169500000D01*
X98320395Y-169500000D01*
X97507298Y-168686903D01*
X97263329Y-168758486D01*
X97142429Y-169013996D01*
X97073700Y-169288184D01*
X97059783Y-169570512D01*
X40660000Y-169570512D01*
X40660000Y-168507298D01*
X97686903Y-168507298D01*
X98500000Y-169320395D01*
X99313097Y-168507298D01*
X99241514Y-168263329D01*
X98986004Y-168142429D01*
X98711816Y-168073700D01*
X98429488Y-168059783D01*
X98149870Y-168101213D01*
X97883708Y-168196397D01*
X97758486Y-168263329D01*
X97686903Y-168507298D01*
X40660000Y-168507298D01*
X40660000Y-164777980D01*
X60401626Y-164777980D01*
X60521514Y-165062836D01*
X60845210Y-165223699D01*
X61194069Y-165318322D01*
X61554684Y-165343067D01*
X61913198Y-165296985D01*
X62255833Y-165181846D01*
X62478486Y-165062836D01*
X62598374Y-164777980D01*
X61500000Y-163679605D01*
X60401626Y-164777980D01*
X40660000Y-164777980D01*
X40660000Y-163554684D01*
X59656933Y-163554684D01*
X59703015Y-163913198D01*
X59818154Y-164255833D01*
X59937164Y-164478486D01*
X60222020Y-164598374D01*
X61320395Y-163500000D01*
X61679605Y-163500000D01*
X62777980Y-164598374D01*
X63062836Y-164478486D01*
X63223699Y-164154790D01*
X63318322Y-163805931D01*
X63343067Y-163445316D01*
X63296985Y-163086802D01*
X63181846Y-162744167D01*
X63062836Y-162521514D01*
X62777980Y-162401626D01*
X61679605Y-163500000D01*
X61320395Y-163500000D01*
X60222020Y-162401626D01*
X59937164Y-162521514D01*
X59776301Y-162845210D01*
X59681678Y-163194069D01*
X59656933Y-163554684D01*
X40660000Y-163554684D01*
X40660000Y-162222020D01*
X60401626Y-162222020D01*
X61500000Y-163320395D01*
X62520394Y-162300000D01*
X66868515Y-162300000D01*
X66868515Y-164700000D01*
X66886413Y-164881724D01*
X66939420Y-165056464D01*
X67025499Y-165217505D01*
X67141341Y-165358659D01*
X67282495Y-165474501D01*
X67443536Y-165560580D01*
X67618276Y-165613587D01*
X67800000Y-165631485D01*
X70200000Y-165631485D01*
X70381724Y-165613587D01*
X70556464Y-165560580D01*
X70717505Y-165474501D01*
X70858659Y-165358659D01*
X70974501Y-165217505D01*
X71060580Y-165056464D01*
X71113587Y-164881724D01*
X71131485Y-164700000D01*
X71131485Y-162300000D01*
X71113587Y-162118276D01*
X71060580Y-161943536D01*
X70974501Y-161782495D01*
X70858659Y-161641341D01*
X70717505Y-161525499D01*
X70556464Y-161439420D01*
X70381724Y-161386413D01*
X70200000Y-161368515D01*
X67800000Y-161368515D01*
X67618276Y-161386413D01*
X67443536Y-161439420D01*
X67282495Y-161525499D01*
X67141341Y-161641341D01*
X67025499Y-161782495D01*
X66939420Y-161943536D01*
X66886413Y-162118276D01*
X66868515Y-162300000D01*
X62520394Y-162300000D01*
X62598374Y-162222020D01*
X62478486Y-161937164D01*
X62154790Y-161776301D01*
X61805931Y-161681678D01*
X61445316Y-161656933D01*
X61086802Y-161703015D01*
X60744167Y-161818154D01*
X60521514Y-161937164D01*
X60401626Y-162222020D01*
X40660000Y-162222020D01*
X40660000Y-161290509D01*
X78373000Y-161290509D01*
X78373000Y-161709491D01*
X78454739Y-162120423D01*
X78615077Y-162507512D01*
X78847851Y-162855884D01*
X79144116Y-163152149D01*
X79492488Y-163384923D01*
X79879577Y-163545261D01*
X80290509Y-163627000D01*
X80709491Y-163627000D01*
X81120423Y-163545261D01*
X81507512Y-163384923D01*
X81855884Y-163152149D01*
X82152149Y-162855884D01*
X82384923Y-162507512D01*
X82545261Y-162120423D01*
X82627000Y-161709491D01*
X82627000Y-161329905D01*
X87613000Y-161329905D01*
X87613000Y-161670095D01*
X87679368Y-162003747D01*
X87809553Y-162318041D01*
X87998552Y-162600898D01*
X88239102Y-162841448D01*
X88521959Y-163030447D01*
X88836253Y-163160632D01*
X89169905Y-163227000D01*
X89510095Y-163227000D01*
X89843747Y-163160632D01*
X90158041Y-163030447D01*
X90440898Y-162841448D01*
X90681448Y-162600898D01*
X90870447Y-162318041D01*
X91000632Y-162003747D01*
X91067000Y-161670095D01*
X91067000Y-161329905D01*
X97773000Y-161329905D01*
X97773000Y-161670095D01*
X97839368Y-162003747D01*
X97969553Y-162318041D01*
X98158552Y-162600898D01*
X98399102Y-162841448D01*
X98681959Y-163030447D01*
X98996253Y-163160632D01*
X99329905Y-163227000D01*
X99670095Y-163227000D01*
X100003747Y-163160632D01*
X100318041Y-163030447D01*
X100600898Y-162841448D01*
X100841448Y-162600898D01*
X101030447Y-162318041D01*
X101160632Y-162003747D01*
X101227000Y-161670095D01*
X101227000Y-161329905D01*
X101160632Y-160996253D01*
X101030447Y-160681959D01*
X100841448Y-160399102D01*
X100600898Y-160158552D01*
X100318041Y-159969553D01*
X100003747Y-159839368D01*
X99670095Y-159773000D01*
X99329905Y-159773000D01*
X98996253Y-159839368D01*
X98681959Y-159969553D01*
X98399102Y-160158552D01*
X98158552Y-160399102D01*
X97969553Y-160681959D01*
X97839368Y-160996253D01*
X97773000Y-161329905D01*
X91067000Y-161329905D01*
X91000632Y-160996253D01*
X90870447Y-160681959D01*
X90681448Y-160399102D01*
X90440898Y-160158552D01*
X90158041Y-159969553D01*
X89843747Y-159839368D01*
X89510095Y-159773000D01*
X89169905Y-159773000D01*
X88836253Y-159839368D01*
X88521959Y-159969553D01*
X88239102Y-160158552D01*
X87998552Y-160399102D01*
X87809553Y-160681959D01*
X87679368Y-160996253D01*
X87613000Y-161329905D01*
X82627000Y-161329905D01*
X82627000Y-161290509D01*
X82545261Y-160879577D01*
X82384923Y-160492488D01*
X82152149Y-160144116D01*
X81855884Y-159847851D01*
X81507512Y-159615077D01*
X81120423Y-159454739D01*
X80709491Y-159373000D01*
X80290509Y-159373000D01*
X79879577Y-159454739D01*
X79492488Y-159615077D01*
X79144116Y-159847851D01*
X78847851Y-160144116D01*
X78615077Y-160492488D01*
X78454739Y-160879577D01*
X78373000Y-161290509D01*
X40660000Y-161290509D01*
X40660000Y-151992702D01*
X97186903Y-151992702D01*
X97258486Y-152236671D01*
X97513996Y-152357571D01*
X97788184Y-152426300D01*
X98070512Y-152440217D01*
X98350130Y-152398787D01*
X98616292Y-152303603D01*
X98741514Y-152236671D01*
X98813097Y-151992702D01*
X98000000Y-151179605D01*
X97186903Y-151992702D01*
X40660000Y-151992702D01*
X40660000Y-151070512D01*
X96559783Y-151070512D01*
X96601213Y-151350130D01*
X96696397Y-151616292D01*
X96763329Y-151741514D01*
X97007298Y-151813097D01*
X97820395Y-151000000D01*
X98179605Y-151000000D01*
X98992702Y-151813097D01*
X99236671Y-151741514D01*
X99357571Y-151486004D01*
X99426300Y-151211816D01*
X99440217Y-150929488D01*
X99425463Y-150829905D01*
X101273000Y-150829905D01*
X101273000Y-151170095D01*
X101339368Y-151503747D01*
X101469553Y-151818041D01*
X101658552Y-152100898D01*
X101899102Y-152341448D01*
X102181959Y-152530447D01*
X102496253Y-152660632D01*
X102829905Y-152727000D01*
X103170095Y-152727000D01*
X103503747Y-152660632D01*
X103818041Y-152530447D01*
X104100898Y-152341448D01*
X104341448Y-152100898D01*
X104530447Y-151818041D01*
X104660632Y-151503747D01*
X104727000Y-151170095D01*
X104727000Y-150829905D01*
X104660632Y-150496253D01*
X104530447Y-150181959D01*
X104362094Y-149930000D01*
X112086015Y-149930000D01*
X112086015Y-151930000D01*
X112103913Y-152111724D01*
X112156920Y-152286464D01*
X112242999Y-152447505D01*
X112358841Y-152588659D01*
X112499995Y-152704501D01*
X112661036Y-152790580D01*
X112835776Y-152843587D01*
X113017500Y-152861485D01*
X114922500Y-152861485D01*
X115104224Y-152843587D01*
X115278964Y-152790580D01*
X115440005Y-152704501D01*
X115581159Y-152588659D01*
X115697001Y-152447505D01*
X115744445Y-152358743D01*
X115918906Y-152449571D01*
X116137020Y-152520563D01*
X116383000Y-152400594D01*
X116383000Y-151057000D01*
X116363000Y-151057000D01*
X116363000Y-150803000D01*
X116383000Y-150803000D01*
X116383000Y-149459406D01*
X116637000Y-149459406D01*
X116637000Y-150803000D01*
X116657000Y-150803000D01*
X116657000Y-151057000D01*
X116637000Y-151057000D01*
X116637000Y-152400594D01*
X116882980Y-152520563D01*
X117101094Y-152449571D01*
X117376923Y-152305969D01*
X117577029Y-152145354D01*
X117714562Y-152312938D01*
X118000753Y-152547809D01*
X118327267Y-152722333D01*
X118681555Y-152829805D01*
X119050000Y-152866094D01*
X119418446Y-152829805D01*
X119772734Y-152722333D01*
X120099247Y-152547809D01*
X120385438Y-152312938D01*
X120620309Y-152026747D01*
X120794833Y-151700233D01*
X120902305Y-151345945D01*
X120929500Y-151069831D01*
X120929500Y-150790168D01*
X120902305Y-150514054D01*
X120794833Y-150159766D01*
X120620309Y-149833253D01*
X120385438Y-149547062D01*
X120099247Y-149312191D01*
X119772733Y-149137667D01*
X119418445Y-149030195D01*
X119050000Y-148993906D01*
X118681554Y-149030195D01*
X118327266Y-149137667D01*
X118000753Y-149312191D01*
X117714562Y-149547062D01*
X117577029Y-149714646D01*
X117376923Y-149554031D01*
X117101094Y-149410429D01*
X116882980Y-149339437D01*
X116637000Y-149459406D01*
X116383000Y-149459406D01*
X116137020Y-149339437D01*
X115918906Y-149410429D01*
X115744445Y-149501257D01*
X115697001Y-149412495D01*
X115581159Y-149271341D01*
X115440005Y-149155499D01*
X115278964Y-149069420D01*
X115104224Y-149016413D01*
X114922500Y-148998515D01*
X113017500Y-148998515D01*
X112835776Y-149016413D01*
X112661036Y-149069420D01*
X112499995Y-149155499D01*
X112358841Y-149271341D01*
X112242999Y-149412495D01*
X112156920Y-149573536D01*
X112103913Y-149748276D01*
X112086015Y-149930000D01*
X104362094Y-149930000D01*
X104341448Y-149899102D01*
X104100898Y-149658552D01*
X103818041Y-149469553D01*
X103503747Y-149339368D01*
X103170095Y-149273000D01*
X102829905Y-149273000D01*
X102496253Y-149339368D01*
X102181959Y-149469553D01*
X101899102Y-149658552D01*
X101658552Y-149899102D01*
X101469553Y-150181959D01*
X101339368Y-150496253D01*
X101273000Y-150829905D01*
X99425463Y-150829905D01*
X99398787Y-150649870D01*
X99303603Y-150383708D01*
X99236671Y-150258486D01*
X98992702Y-150186903D01*
X98179605Y-151000000D01*
X97820395Y-151000000D01*
X97007298Y-150186903D01*
X96763329Y-150258486D01*
X96642429Y-150513996D01*
X96573700Y-150788184D01*
X96559783Y-151070512D01*
X40660000Y-151070512D01*
X40660000Y-150007298D01*
X97186903Y-150007298D01*
X98000000Y-150820395D01*
X98813097Y-150007298D01*
X98741514Y-149763329D01*
X98486004Y-149642429D01*
X98211816Y-149573700D01*
X97929488Y-149559783D01*
X97649870Y-149601213D01*
X97383708Y-149696397D01*
X97258486Y-149763329D01*
X97186903Y-150007298D01*
X40660000Y-150007298D01*
X40660000Y-147777980D01*
X79401626Y-147777980D01*
X79521514Y-148062836D01*
X79845210Y-148223699D01*
X80194069Y-148318322D01*
X80554684Y-148343067D01*
X80913198Y-148296985D01*
X81255833Y-148181846D01*
X81478486Y-148062836D01*
X81598374Y-147777980D01*
X80500000Y-146679605D01*
X79401626Y-147777980D01*
X40660000Y-147777980D01*
X40660000Y-146554684D01*
X78656933Y-146554684D01*
X78703015Y-146913198D01*
X78818154Y-147255833D01*
X78937164Y-147478486D01*
X79222020Y-147598374D01*
X80320395Y-146500000D01*
X80679605Y-146500000D01*
X81777980Y-147598374D01*
X82062836Y-147478486D01*
X82223699Y-147154790D01*
X82318322Y-146805931D01*
X82343067Y-146445316D01*
X82296985Y-146086802D01*
X82181846Y-145744167D01*
X82062836Y-145521514D01*
X81777980Y-145401626D01*
X80679605Y-146500000D01*
X80320395Y-146500000D01*
X79222020Y-145401626D01*
X78937164Y-145521514D01*
X78776301Y-145845210D01*
X78681678Y-146194069D01*
X78656933Y-146554684D01*
X40660000Y-146554684D01*
X40660000Y-145277980D01*
X60401626Y-145277980D01*
X60521514Y-145562836D01*
X60845210Y-145723699D01*
X61194069Y-145818322D01*
X61554684Y-145843067D01*
X61913198Y-145796985D01*
X62255833Y-145681846D01*
X62478486Y-145562836D01*
X62598374Y-145277980D01*
X61500000Y-144179605D01*
X60401626Y-145277980D01*
X40660000Y-145277980D01*
X40660000Y-144054684D01*
X59656933Y-144054684D01*
X59703015Y-144413198D01*
X59818154Y-144755833D01*
X59937164Y-144978486D01*
X60222020Y-145098374D01*
X61320395Y-144000000D01*
X61679605Y-144000000D01*
X62777980Y-145098374D01*
X63062836Y-144978486D01*
X63223699Y-144654790D01*
X63318322Y-144305931D01*
X63343067Y-143945316D01*
X63296985Y-143586802D01*
X63181846Y-143244167D01*
X63062836Y-143021514D01*
X62777980Y-142901626D01*
X61679605Y-144000000D01*
X61320395Y-144000000D01*
X60222020Y-142901626D01*
X59937164Y-143021514D01*
X59776301Y-143345210D01*
X59681678Y-143694069D01*
X59656933Y-144054684D01*
X40660000Y-144054684D01*
X40660000Y-142722020D01*
X60401626Y-142722020D01*
X61500000Y-143820395D01*
X62520394Y-142800000D01*
X66868515Y-142800000D01*
X66868515Y-145200000D01*
X66886413Y-145381724D01*
X66939420Y-145556464D01*
X67025499Y-145717505D01*
X67141341Y-145858659D01*
X67282495Y-145974501D01*
X67443536Y-146060580D01*
X67618276Y-146113587D01*
X67800000Y-146131485D01*
X70200000Y-146131485D01*
X70381724Y-146113587D01*
X70556464Y-146060580D01*
X70717505Y-145974501D01*
X70858659Y-145858659D01*
X70974501Y-145717505D01*
X71060580Y-145556464D01*
X71113587Y-145381724D01*
X71129316Y-145222020D01*
X79401626Y-145222020D01*
X80500000Y-146320395D01*
X81598374Y-145222020D01*
X81478486Y-144937164D01*
X81154790Y-144776301D01*
X80805931Y-144681678D01*
X80445316Y-144656933D01*
X80086802Y-144703015D01*
X79744167Y-144818154D01*
X79521514Y-144937164D01*
X79401626Y-145222020D01*
X71129316Y-145222020D01*
X71131485Y-145200000D01*
X71131485Y-142800000D01*
X71113587Y-142618276D01*
X71060580Y-142443536D01*
X70974501Y-142282495D01*
X70858659Y-142141341D01*
X70717505Y-142025499D01*
X70556464Y-141939420D01*
X70381724Y-141886413D01*
X70200000Y-141868515D01*
X67800000Y-141868515D01*
X67618276Y-141886413D01*
X67443536Y-141939420D01*
X67282495Y-142025499D01*
X67141341Y-142141341D01*
X67025499Y-142282495D01*
X66939420Y-142443536D01*
X66886413Y-142618276D01*
X66868515Y-142800000D01*
X62520394Y-142800000D01*
X62598374Y-142722020D01*
X62478486Y-142437164D01*
X62154790Y-142276301D01*
X61805931Y-142181678D01*
X61445316Y-142156933D01*
X61086802Y-142203015D01*
X60744167Y-142318154D01*
X60521514Y-142437164D01*
X60401626Y-142722020D01*
X40660000Y-142722020D01*
X40660000Y-133900000D01*
X74808515Y-133900000D01*
X74808515Y-136100000D01*
X74826413Y-136281724D01*
X74879420Y-136456464D01*
X74965499Y-136617505D01*
X75081341Y-136758659D01*
X75222495Y-136874501D01*
X75383536Y-136960580D01*
X75558276Y-137013587D01*
X75740000Y-137031485D01*
X77940000Y-137031485D01*
X78121724Y-137013587D01*
X78296464Y-136960580D01*
X78457505Y-136874501D01*
X78598659Y-136758659D01*
X78714501Y-136617505D01*
X78800580Y-136456464D01*
X78853587Y-136281724D01*
X78871485Y-136100000D01*
X78871485Y-134800358D01*
X84973000Y-134800358D01*
X84973000Y-135199642D01*
X85050896Y-135591254D01*
X85203696Y-135960145D01*
X85425526Y-136292137D01*
X85707863Y-136574474D01*
X86039855Y-136796304D01*
X86408746Y-136949104D01*
X86800358Y-137027000D01*
X87199642Y-137027000D01*
X87591254Y-136949104D01*
X87960145Y-136796304D01*
X88292137Y-136574474D01*
X88574474Y-136292137D01*
X88796304Y-135960145D01*
X88949104Y-135591254D01*
X89027000Y-135199642D01*
X89027000Y-134800358D01*
X90973000Y-134800358D01*
X90973000Y-135199642D01*
X91050896Y-135591254D01*
X91203696Y-135960145D01*
X91425526Y-136292137D01*
X91707863Y-136574474D01*
X92039855Y-136796304D01*
X92408746Y-136949104D01*
X92800358Y-137027000D01*
X93199642Y-137027000D01*
X93591254Y-136949104D01*
X93960145Y-136796304D01*
X94292137Y-136574474D01*
X94574474Y-136292137D01*
X94796304Y-135960145D01*
X94949104Y-135591254D01*
X95027000Y-135199642D01*
X95027000Y-134800358D01*
X94949104Y-134408746D01*
X94796304Y-134039855D01*
X94702856Y-133900000D01*
X101128515Y-133900000D01*
X101128515Y-136100000D01*
X101146413Y-136281724D01*
X101199420Y-136456464D01*
X101285499Y-136617505D01*
X101401341Y-136758659D01*
X101542495Y-136874501D01*
X101703536Y-136960580D01*
X101878276Y-137013587D01*
X102060000Y-137031485D01*
X104260000Y-137031485D01*
X104441724Y-137013587D01*
X104616464Y-136960580D01*
X104777505Y-136874501D01*
X104918659Y-136758659D01*
X105034501Y-136617505D01*
X105120580Y-136456464D01*
X105173587Y-136281724D01*
X105191485Y-136100000D01*
X105191485Y-133900000D01*
X105173587Y-133718276D01*
X105120580Y-133543536D01*
X105034501Y-133382495D01*
X104918659Y-133241341D01*
X104777505Y-133125499D01*
X104616464Y-133039420D01*
X104441724Y-132986413D01*
X104260000Y-132968515D01*
X102060000Y-132968515D01*
X101878276Y-132986413D01*
X101703536Y-133039420D01*
X101542495Y-133125499D01*
X101401341Y-133241341D01*
X101285499Y-133382495D01*
X101199420Y-133543536D01*
X101146413Y-133718276D01*
X101128515Y-133900000D01*
X94702856Y-133900000D01*
X94574474Y-133707863D01*
X94292137Y-133425526D01*
X93960145Y-133203696D01*
X93591254Y-133050896D01*
X93199642Y-132973000D01*
X92800358Y-132973000D01*
X92408746Y-133050896D01*
X92039855Y-133203696D01*
X91707863Y-133425526D01*
X91425526Y-133707863D01*
X91203696Y-134039855D01*
X91050896Y-134408746D01*
X90973000Y-134800358D01*
X89027000Y-134800358D01*
X88949104Y-134408746D01*
X88796304Y-134039855D01*
X88574474Y-133707863D01*
X88292137Y-133425526D01*
X87960145Y-133203696D01*
X87591254Y-133050896D01*
X87199642Y-132973000D01*
X86800358Y-132973000D01*
X86408746Y-133050896D01*
X86039855Y-133203696D01*
X85707863Y-133425526D01*
X85425526Y-133707863D01*
X85203696Y-134039855D01*
X85050896Y-134408746D01*
X84973000Y-134800358D01*
X78871485Y-134800358D01*
X78871485Y-133900000D01*
X78853587Y-133718276D01*
X78800580Y-133543536D01*
X78714501Y-133382495D01*
X78598659Y-133241341D01*
X78457505Y-133125499D01*
X78296464Y-133039420D01*
X78121724Y-132986413D01*
X77940000Y-132968515D01*
X75740000Y-132968515D01*
X75558276Y-132986413D01*
X75383536Y-133039420D01*
X75222495Y-133125499D01*
X75081341Y-133241341D01*
X74965499Y-133382495D01*
X74879420Y-133543536D01*
X74826413Y-133718276D01*
X74808515Y-133900000D01*
X40660000Y-133900000D01*
X40660000Y-127900000D01*
X74808515Y-127900000D01*
X74808515Y-130100000D01*
X74826413Y-130281724D01*
X74879420Y-130456464D01*
X74965499Y-130617505D01*
X75081341Y-130758659D01*
X75222495Y-130874501D01*
X75383536Y-130960580D01*
X75558276Y-131013587D01*
X75740000Y-131031485D01*
X77940000Y-131031485D01*
X78121724Y-131013587D01*
X78296464Y-130960580D01*
X78457505Y-130874501D01*
X78598659Y-130758659D01*
X78714501Y-130617505D01*
X78800580Y-130456464D01*
X78853587Y-130281724D01*
X78871485Y-130100000D01*
X78871485Y-129396122D01*
X85310825Y-129396122D01*
X85375425Y-129609094D01*
X85525469Y-129914329D01*
X85732178Y-130184427D01*
X85987609Y-130409008D01*
X86281946Y-130579442D01*
X86603877Y-130689179D01*
X86873000Y-130571600D01*
X86873000Y-129127000D01*
X87127000Y-129127000D01*
X87127000Y-130571600D01*
X87396123Y-130689179D01*
X87718054Y-130579442D01*
X88012391Y-130409008D01*
X88267822Y-130184427D01*
X88474531Y-129914329D01*
X88624575Y-129609094D01*
X88689175Y-129396122D01*
X91310825Y-129396122D01*
X91375425Y-129609094D01*
X91525469Y-129914329D01*
X91732178Y-130184427D01*
X91987609Y-130409008D01*
X92281946Y-130579442D01*
X92603877Y-130689179D01*
X92873000Y-130571600D01*
X92873000Y-129127000D01*
X93127000Y-129127000D01*
X93127000Y-130571600D01*
X93396123Y-130689179D01*
X93718054Y-130579442D01*
X94012391Y-130409008D01*
X94267822Y-130184427D01*
X94474531Y-129914329D01*
X94624575Y-129609094D01*
X94689175Y-129396122D01*
X94571125Y-129127000D01*
X93127000Y-129127000D01*
X92873000Y-129127000D01*
X91428875Y-129127000D01*
X91310825Y-129396122D01*
X88689175Y-129396122D01*
X88571125Y-129127000D01*
X87127000Y-129127000D01*
X86873000Y-129127000D01*
X85428875Y-129127000D01*
X85310825Y-129396122D01*
X78871485Y-129396122D01*
X78871485Y-128603878D01*
X85310825Y-128603878D01*
X85428875Y-128873000D01*
X86873000Y-128873000D01*
X86873000Y-127428400D01*
X87127000Y-127428400D01*
X87127000Y-128873000D01*
X88571125Y-128873000D01*
X88689175Y-128603878D01*
X91310825Y-128603878D01*
X91428875Y-128873000D01*
X92873000Y-128873000D01*
X92873000Y-127428400D01*
X93127000Y-127428400D01*
X93127000Y-128873000D01*
X94571125Y-128873000D01*
X94689175Y-128603878D01*
X94624575Y-128390906D01*
X94474531Y-128085671D01*
X94332435Y-127900000D01*
X101128515Y-127900000D01*
X101128515Y-130100000D01*
X101146413Y-130281724D01*
X101199420Y-130456464D01*
X101285499Y-130617505D01*
X101401341Y-130758659D01*
X101542495Y-130874501D01*
X101703536Y-130960580D01*
X101878276Y-131013587D01*
X102060000Y-131031485D01*
X104260000Y-131031485D01*
X104441724Y-131013587D01*
X104616464Y-130960580D01*
X104777505Y-130874501D01*
X104918659Y-130758659D01*
X105034501Y-130617505D01*
X105120580Y-130456464D01*
X105173587Y-130281724D01*
X105191485Y-130100000D01*
X105191485Y-127900000D01*
X105173587Y-127718276D01*
X105120580Y-127543536D01*
X105034501Y-127382495D01*
X104918659Y-127241341D01*
X104777505Y-127125499D01*
X104616464Y-127039420D01*
X104441724Y-126986413D01*
X104260000Y-126968515D01*
X102060000Y-126968515D01*
X101878276Y-126986413D01*
X101703536Y-127039420D01*
X101542495Y-127125499D01*
X101401341Y-127241341D01*
X101285499Y-127382495D01*
X101199420Y-127543536D01*
X101146413Y-127718276D01*
X101128515Y-127900000D01*
X94332435Y-127900000D01*
X94267822Y-127815573D01*
X94012391Y-127590992D01*
X93718054Y-127420558D01*
X93396123Y-127310821D01*
X93127000Y-127428400D01*
X92873000Y-127428400D01*
X92603877Y-127310821D01*
X92281946Y-127420558D01*
X91987609Y-127590992D01*
X91732178Y-127815573D01*
X91525469Y-128085671D01*
X91375425Y-128390906D01*
X91310825Y-128603878D01*
X88689175Y-128603878D01*
X88624575Y-128390906D01*
X88474531Y-128085671D01*
X88267822Y-127815573D01*
X88012391Y-127590992D01*
X87718054Y-127420558D01*
X87396123Y-127310821D01*
X87127000Y-127428400D01*
X86873000Y-127428400D01*
X86603877Y-127310821D01*
X86281946Y-127420558D01*
X85987609Y-127590992D01*
X85732178Y-127815573D01*
X85525469Y-128085671D01*
X85375425Y-128390906D01*
X85310825Y-128603878D01*
X78871485Y-128603878D01*
X78871485Y-127900000D01*
X78853587Y-127718276D01*
X78800580Y-127543536D01*
X78714501Y-127382495D01*
X78598659Y-127241341D01*
X78457505Y-127125499D01*
X78296464Y-127039420D01*
X78121724Y-126986413D01*
X77940000Y-126968515D01*
X75740000Y-126968515D01*
X75558276Y-126986413D01*
X75383536Y-127039420D01*
X75222495Y-127125499D01*
X75081341Y-127241341D01*
X74965499Y-127382495D01*
X74879420Y-127543536D01*
X74826413Y-127718276D01*
X74808515Y-127900000D01*
X40660000Y-127900000D01*
X40660000Y-122475584D01*
X59883000Y-122475584D01*
X59883000Y-122904416D01*
X59966660Y-123325008D01*
X60130767Y-123721196D01*
X60369013Y-124077757D01*
X60672243Y-124380987D01*
X61028804Y-124619233D01*
X61424992Y-124783340D01*
X61845584Y-124867000D01*
X62274416Y-124867000D01*
X62695008Y-124783340D01*
X63091196Y-124619233D01*
X63447757Y-124380987D01*
X63750987Y-124077757D01*
X63989233Y-123721196D01*
X64153340Y-123325008D01*
X64237000Y-122904416D01*
X64237000Y-122475584D01*
X64963000Y-122475584D01*
X64963000Y-122904416D01*
X65046660Y-123325008D01*
X65210767Y-123721196D01*
X65449013Y-124077757D01*
X65752243Y-124380987D01*
X66108804Y-124619233D01*
X66504992Y-124783340D01*
X66925584Y-124867000D01*
X67354416Y-124867000D01*
X67775008Y-124783340D01*
X68171196Y-124619233D01*
X68527757Y-124380987D01*
X68830987Y-124077757D01*
X69069233Y-123721196D01*
X69233340Y-123325008D01*
X69317000Y-122904416D01*
X69317000Y-122475584D01*
X110683000Y-122475584D01*
X110683000Y-122904416D01*
X110766660Y-123325008D01*
X110930767Y-123721196D01*
X111169013Y-124077757D01*
X111472243Y-124380987D01*
X111828804Y-124619233D01*
X112224992Y-124783340D01*
X112645584Y-124867000D01*
X113074416Y-124867000D01*
X113495008Y-124783340D01*
X113891196Y-124619233D01*
X114247757Y-124380987D01*
X114550987Y-124077757D01*
X114789233Y-123721196D01*
X114953340Y-123325008D01*
X115037000Y-122904416D01*
X115037000Y-122475584D01*
X115763000Y-122475584D01*
X115763000Y-122904416D01*
X115846660Y-123325008D01*
X116010767Y-123721196D01*
X116249013Y-124077757D01*
X116552243Y-124380987D01*
X116908804Y-124619233D01*
X117304992Y-124783340D01*
X117725584Y-124867000D01*
X118154416Y-124867000D01*
X118575008Y-124783340D01*
X118971196Y-124619233D01*
X119327757Y-124380987D01*
X119630987Y-124077757D01*
X119869233Y-123721196D01*
X120033340Y-123325008D01*
X120117000Y-122904416D01*
X120117000Y-122475584D01*
X120033340Y-122054992D01*
X119869233Y-121658804D01*
X119630987Y-121302243D01*
X119327757Y-120999013D01*
X118971196Y-120760767D01*
X118575008Y-120596660D01*
X118154416Y-120513000D01*
X117725584Y-120513000D01*
X117304992Y-120596660D01*
X116908804Y-120760767D01*
X116552243Y-120999013D01*
X116249013Y-121302243D01*
X116010767Y-121658804D01*
X115846660Y-122054992D01*
X115763000Y-122475584D01*
X115037000Y-122475584D01*
X114953340Y-122054992D01*
X114789233Y-121658804D01*
X114550987Y-121302243D01*
X114247757Y-120999013D01*
X113891196Y-120760767D01*
X113495008Y-120596660D01*
X113074416Y-120513000D01*
X112645584Y-120513000D01*
X112224992Y-120596660D01*
X111828804Y-120760767D01*
X111472243Y-120999013D01*
X111169013Y-121302243D01*
X110930767Y-121658804D01*
X110766660Y-122054992D01*
X110683000Y-122475584D01*
X69317000Y-122475584D01*
X69233340Y-122054992D01*
X69069233Y-121658804D01*
X68830987Y-121302243D01*
X68527757Y-120999013D01*
X68171196Y-120760767D01*
X67775008Y-120596660D01*
X67354416Y-120513000D01*
X66925584Y-120513000D01*
X66504992Y-120596660D01*
X66108804Y-120760767D01*
X65752243Y-120999013D01*
X65449013Y-121302243D01*
X65210767Y-121658804D01*
X65046660Y-122054992D01*
X64963000Y-122475584D01*
X64237000Y-122475584D01*
X64153340Y-122054992D01*
X63989233Y-121658804D01*
X63750987Y-121302243D01*
X63447757Y-120999013D01*
X63091196Y-120760767D01*
X62695008Y-120596660D01*
X62274416Y-120513000D01*
X61845584Y-120513000D01*
X61424992Y-120596660D01*
X61028804Y-120760767D01*
X60672243Y-120999013D01*
X60369013Y-121302243D01*
X60130767Y-121658804D01*
X59966660Y-122054992D01*
X59883000Y-122475584D01*
X40660000Y-122475584D01*
X40660000Y-66595584D01*
X62423000Y-66595584D01*
X62423000Y-67024416D01*
X62506660Y-67445008D01*
X62670767Y-67841196D01*
X62909013Y-68197757D01*
X63212243Y-68500987D01*
X63568804Y-68739233D01*
X63964992Y-68903340D01*
X64385584Y-68987000D01*
X64814416Y-68987000D01*
X65235008Y-68903340D01*
X65631196Y-68739233D01*
X65987757Y-68500987D01*
X66290987Y-68197757D01*
X66529233Y-67841196D01*
X66693340Y-67445008D01*
X66777000Y-67024416D01*
X66777000Y-66595584D01*
X67503000Y-66595584D01*
X67503000Y-67024416D01*
X67586660Y-67445008D01*
X67750767Y-67841196D01*
X67989013Y-68197757D01*
X68292243Y-68500987D01*
X68648804Y-68739233D01*
X69044992Y-68903340D01*
X69465584Y-68987000D01*
X69894416Y-68987000D01*
X70315008Y-68903340D01*
X70711196Y-68739233D01*
X71067757Y-68500987D01*
X71370987Y-68197757D01*
X71609233Y-67841196D01*
X71773340Y-67445008D01*
X71857000Y-67024416D01*
X71857000Y-66595584D01*
X108143000Y-66595584D01*
X108143000Y-67024416D01*
X108226660Y-67445008D01*
X108390767Y-67841196D01*
X108629013Y-68197757D01*
X108932243Y-68500987D01*
X109288804Y-68739233D01*
X109684992Y-68903340D01*
X110105584Y-68987000D01*
X110534416Y-68987000D01*
X110955008Y-68903340D01*
X111351196Y-68739233D01*
X111707757Y-68500987D01*
X112010987Y-68197757D01*
X112249233Y-67841196D01*
X112413340Y-67445008D01*
X112497000Y-67024416D01*
X112497000Y-66595584D01*
X113223000Y-66595584D01*
X113223000Y-67024416D01*
X113306660Y-67445008D01*
X113470767Y-67841196D01*
X113709013Y-68197757D01*
X114012243Y-68500987D01*
X114368804Y-68739233D01*
X114764992Y-68903340D01*
X115185584Y-68987000D01*
X115614416Y-68987000D01*
X116035008Y-68903340D01*
X116431196Y-68739233D01*
X116787757Y-68500987D01*
X117090987Y-68197757D01*
X117329233Y-67841196D01*
X117493340Y-67445008D01*
X117577000Y-67024416D01*
X117577000Y-66595584D01*
X117493340Y-66174992D01*
X117329233Y-65778804D01*
X117090987Y-65422243D01*
X116787757Y-65119013D01*
X116431196Y-64880767D01*
X116035008Y-64716660D01*
X115614416Y-64633000D01*
X115185584Y-64633000D01*
X114764992Y-64716660D01*
X114368804Y-64880767D01*
X114012243Y-65119013D01*
X113709013Y-65422243D01*
X113470767Y-65778804D01*
X113306660Y-66174992D01*
X113223000Y-66595584D01*
X112497000Y-66595584D01*
X112413340Y-66174992D01*
X112249233Y-65778804D01*
X112010987Y-65422243D01*
X111707757Y-65119013D01*
X111351196Y-64880767D01*
X110955008Y-64716660D01*
X110534416Y-64633000D01*
X110105584Y-64633000D01*
X109684992Y-64716660D01*
X109288804Y-64880767D01*
X108932243Y-65119013D01*
X108629013Y-65422243D01*
X108390767Y-65778804D01*
X108226660Y-66174992D01*
X108143000Y-66595584D01*
X71857000Y-66595584D01*
X71773340Y-66174992D01*
X71609233Y-65778804D01*
X71370987Y-65422243D01*
X71067757Y-65119013D01*
X70711196Y-64880767D01*
X70315008Y-64716660D01*
X69894416Y-64633000D01*
X69465584Y-64633000D01*
X69044992Y-64716660D01*
X68648804Y-64880767D01*
X68292243Y-65119013D01*
X67989013Y-65422243D01*
X67750767Y-65778804D01*
X67586660Y-66174992D01*
X67503000Y-66595584D01*
X66777000Y-66595584D01*
X66693340Y-66174992D01*
X66529233Y-65778804D01*
X66290987Y-65422243D01*
X65987757Y-65119013D01*
X65631196Y-64880767D01*
X65235008Y-64716660D01*
X64814416Y-64633000D01*
X64385584Y-64633000D01*
X63964992Y-64716660D01*
X63568804Y-64880767D01*
X63212243Y-65119013D01*
X62909013Y-65422243D01*
X62670767Y-65778804D01*
X62506660Y-66174992D01*
X62423000Y-66595584D01*
X40660000Y-66595584D01*
X40660000Y-56724999D01*
X62293515Y-56724999D01*
X62293515Y-58775001D01*
X62316217Y-59005497D01*
X62383450Y-59227135D01*
X62492631Y-59431398D01*
X62639564Y-59610436D01*
X62818602Y-59757369D01*
X63022865Y-59866550D01*
X63244503Y-59933783D01*
X63474999Y-59956485D01*
X65525001Y-59956485D01*
X65755497Y-59933783D01*
X65977135Y-59866550D01*
X66181398Y-59757369D01*
X66360436Y-59610436D01*
X66507369Y-59431398D01*
X66616550Y-59227135D01*
X66683783Y-59005497D01*
X66706485Y-58775001D01*
X66706485Y-57533122D01*
X67098000Y-57533122D01*
X67098000Y-57966878D01*
X67182621Y-58392300D01*
X67348613Y-58793038D01*
X67589595Y-59153693D01*
X67896307Y-59460405D01*
X68256962Y-59701387D01*
X68657700Y-59867379D01*
X69083122Y-59952000D01*
X69516878Y-59952000D01*
X69942300Y-59867379D01*
X70343038Y-59701387D01*
X70703693Y-59460405D01*
X71010405Y-59153693D01*
X71251387Y-58793038D01*
X71417379Y-58392300D01*
X71502000Y-57966878D01*
X71502000Y-57533122D01*
X85498000Y-57533122D01*
X85498000Y-57966878D01*
X85582621Y-58392300D01*
X85748613Y-58793038D01*
X85989595Y-59153693D01*
X86296307Y-59460405D01*
X86656962Y-59701387D01*
X87057700Y-59867379D01*
X87483122Y-59952000D01*
X87916878Y-59952000D01*
X88342300Y-59867379D01*
X88743038Y-59701387D01*
X89103693Y-59460405D01*
X89410405Y-59153693D01*
X89651387Y-58793038D01*
X89817379Y-58392300D01*
X89902000Y-57966878D01*
X89902000Y-57533122D01*
X89817379Y-57107700D01*
X89658859Y-56724999D01*
X90293515Y-56724999D01*
X90293515Y-58775001D01*
X90316217Y-59005497D01*
X90383450Y-59227135D01*
X90492631Y-59431398D01*
X90639564Y-59610436D01*
X90818602Y-59757369D01*
X91022865Y-59866550D01*
X91244503Y-59933783D01*
X91474999Y-59956485D01*
X93525001Y-59956485D01*
X93755497Y-59933783D01*
X93977135Y-59866550D01*
X94181398Y-59757369D01*
X94360436Y-59610436D01*
X94507369Y-59431398D01*
X94616550Y-59227135D01*
X94683783Y-59005497D01*
X94706485Y-58775001D01*
X94706485Y-56724999D01*
X108293515Y-56724999D01*
X108293515Y-58775001D01*
X108316217Y-59005497D01*
X108383450Y-59227135D01*
X108492631Y-59431398D01*
X108639564Y-59610436D01*
X108818602Y-59757369D01*
X109022865Y-59866550D01*
X109244503Y-59933783D01*
X109474999Y-59956485D01*
X111525001Y-59956485D01*
X111755497Y-59933783D01*
X111977135Y-59866550D01*
X112181398Y-59757369D01*
X112360436Y-59610436D01*
X112507369Y-59431398D01*
X112616550Y-59227135D01*
X112683783Y-59005497D01*
X112706485Y-58775001D01*
X112706485Y-57533122D01*
X113098000Y-57533122D01*
X113098000Y-57966878D01*
X113182621Y-58392300D01*
X113348613Y-58793038D01*
X113589595Y-59153693D01*
X113896307Y-59460405D01*
X114256962Y-59701387D01*
X114657700Y-59867379D01*
X115083122Y-59952000D01*
X115516878Y-59952000D01*
X115942300Y-59867379D01*
X116343038Y-59701387D01*
X116703693Y-59460405D01*
X117010405Y-59153693D01*
X117251387Y-58793038D01*
X117417379Y-58392300D01*
X117502000Y-57966878D01*
X117502000Y-57533122D01*
X117417379Y-57107700D01*
X117251387Y-56706962D01*
X117010405Y-56346307D01*
X116703693Y-56039595D01*
X116343038Y-55798613D01*
X115942300Y-55632621D01*
X115516878Y-55548000D01*
X115083122Y-55548000D01*
X114657700Y-55632621D01*
X114256962Y-55798613D01*
X113896307Y-56039595D01*
X113589595Y-56346307D01*
X113348613Y-56706962D01*
X113182621Y-57107700D01*
X113098000Y-57533122D01*
X112706485Y-57533122D01*
X112706485Y-56724999D01*
X112683783Y-56494503D01*
X112616550Y-56272865D01*
X112507369Y-56068602D01*
X112360436Y-55889564D01*
X112181398Y-55742631D01*
X111977135Y-55633450D01*
X111755497Y-55566217D01*
X111525001Y-55543515D01*
X109474999Y-55543515D01*
X109244503Y-55566217D01*
X109022865Y-55633450D01*
X108818602Y-55742631D01*
X108639564Y-55889564D01*
X108492631Y-56068602D01*
X108383450Y-56272865D01*
X108316217Y-56494503D01*
X108293515Y-56724999D01*
X94706485Y-56724999D01*
X94683783Y-56494503D01*
X94616550Y-56272865D01*
X94507369Y-56068602D01*
X94360436Y-55889564D01*
X94181398Y-55742631D01*
X93977135Y-55633450D01*
X93755497Y-55566217D01*
X93525001Y-55543515D01*
X91474999Y-55543515D01*
X91244503Y-55566217D01*
X91022865Y-55633450D01*
X90818602Y-55742631D01*
X90639564Y-55889564D01*
X90492631Y-56068602D01*
X90383450Y-56272865D01*
X90316217Y-56494503D01*
X90293515Y-56724999D01*
X89658859Y-56724999D01*
X89651387Y-56706962D01*
X89410405Y-56346307D01*
X89103693Y-56039595D01*
X88743038Y-55798613D01*
X88342300Y-55632621D01*
X87916878Y-55548000D01*
X87483122Y-55548000D01*
X87057700Y-55632621D01*
X86656962Y-55798613D01*
X86296307Y-56039595D01*
X85989595Y-56346307D01*
X85748613Y-56706962D01*
X85582621Y-57107700D01*
X85498000Y-57533122D01*
X71502000Y-57533122D01*
X71417379Y-57107700D01*
X71251387Y-56706962D01*
X71010405Y-56346307D01*
X70703693Y-56039595D01*
X70343038Y-55798613D01*
X69942300Y-55632621D01*
X69516878Y-55548000D01*
X69083122Y-55548000D01*
X68657700Y-55632621D01*
X68256962Y-55798613D01*
X67896307Y-56039595D01*
X67589595Y-56346307D01*
X67348613Y-56706962D01*
X67182621Y-57107700D01*
X67098000Y-57533122D01*
X66706485Y-57533122D01*
X66706485Y-56724999D01*
X66683783Y-56494503D01*
X66616550Y-56272865D01*
X66507369Y-56068602D01*
X66360436Y-55889564D01*
X66181398Y-55742631D01*
X65977135Y-55633450D01*
X65755497Y-55566217D01*
X65525001Y-55543515D01*
X63474999Y-55543515D01*
X63244503Y-55566217D01*
X63022865Y-55633450D01*
X62818602Y-55742631D01*
X62639564Y-55889564D01*
X62492631Y-56068602D01*
X62383450Y-56272865D01*
X62316217Y-56494503D01*
X62293515Y-56724999D01*
X40660000Y-56724999D01*
X40660000Y-33750000D01*
X110411928Y-33750000D01*
X110424188Y-33874482D01*
X110460498Y-33994180D01*
X110519463Y-34104494D01*
X110598815Y-34201185D01*
X110695506Y-34280537D01*
X110805820Y-34339502D01*
X110925518Y-34375812D01*
X111050000Y-34388072D01*
X112514250Y-34385000D01*
X112673000Y-34226250D01*
X112673000Y-32127000D01*
X112927000Y-32127000D01*
X112927000Y-34226250D01*
X113085750Y-34385000D01*
X114550000Y-34388072D01*
X114674482Y-34375812D01*
X114794180Y-34339502D01*
X114818515Y-34326494D01*
X114818515Y-36750000D01*
X114836413Y-36931724D01*
X114889420Y-37106464D01*
X114975499Y-37267505D01*
X115091341Y-37408659D01*
X115232495Y-37524501D01*
X115393536Y-37610580D01*
X115568276Y-37663587D01*
X115750000Y-37681485D01*
X119250000Y-37681485D01*
X119431724Y-37663587D01*
X119606464Y-37610580D01*
X119767505Y-37524501D01*
X119908659Y-37408659D01*
X120024501Y-37267505D01*
X120110580Y-37106464D01*
X120163587Y-36931724D01*
X120181485Y-36750000D01*
X120181485Y-36000000D01*
X123361928Y-36000000D01*
X123374188Y-36124482D01*
X123410498Y-36244180D01*
X123469463Y-36354494D01*
X123548815Y-36451185D01*
X123645506Y-36530537D01*
X123755820Y-36589502D01*
X123875518Y-36625812D01*
X124000000Y-36638072D01*
X124714250Y-36635000D01*
X124873000Y-36476250D01*
X124873000Y-35127000D01*
X125127000Y-35127000D01*
X125127000Y-36476250D01*
X125285750Y-36635000D01*
X126000000Y-36638072D01*
X126124482Y-36625812D01*
X126244180Y-36589502D01*
X126354494Y-36530537D01*
X126451185Y-36451185D01*
X126530537Y-36354494D01*
X126589502Y-36244180D01*
X126625812Y-36124482D01*
X126638072Y-36000000D01*
X126635000Y-35285750D01*
X126476250Y-35127000D01*
X125127000Y-35127000D01*
X124873000Y-35127000D01*
X123523750Y-35127000D01*
X123365000Y-35285750D01*
X123361928Y-36000000D01*
X120181485Y-36000000D01*
X120181485Y-34000000D01*
X123361928Y-34000000D01*
X123365000Y-34714250D01*
X123523750Y-34873000D01*
X124873000Y-34873000D01*
X124873000Y-33523750D01*
X125127000Y-33523750D01*
X125127000Y-34873000D01*
X126476250Y-34873000D01*
X126635000Y-34714250D01*
X126638072Y-34000000D01*
X126625812Y-33875518D01*
X126589502Y-33755820D01*
X126530537Y-33645506D01*
X126451185Y-33548815D01*
X126354494Y-33469463D01*
X126244180Y-33410498D01*
X126124482Y-33374188D01*
X126000000Y-33361928D01*
X125285750Y-33365000D01*
X125127000Y-33523750D01*
X124873000Y-33523750D01*
X124714250Y-33365000D01*
X124000000Y-33361928D01*
X123875518Y-33374188D01*
X123755820Y-33410498D01*
X123645506Y-33469463D01*
X123548815Y-33548815D01*
X123469463Y-33645506D01*
X123410498Y-33755820D01*
X123374188Y-33875518D01*
X123361928Y-34000000D01*
X120181485Y-34000000D01*
X120181485Y-33250000D01*
X120163587Y-33068276D01*
X120110580Y-32893536D01*
X120024501Y-32732495D01*
X119908659Y-32591341D01*
X119767505Y-32475499D01*
X119606464Y-32389420D01*
X119431724Y-32336413D01*
X119250000Y-32318515D01*
X115750000Y-32318515D01*
X115568276Y-32336413D01*
X115393536Y-32389420D01*
X115232495Y-32475499D01*
X115185479Y-32514084D01*
X115185000Y-32285750D01*
X115026250Y-32127000D01*
X112927000Y-32127000D01*
X112673000Y-32127000D01*
X110573750Y-32127000D01*
X110415000Y-32285750D01*
X110411928Y-33750000D01*
X40660000Y-33750000D01*
X40660000Y-30250000D01*
X110411928Y-30250000D01*
X110415000Y-31714250D01*
X110573750Y-31873000D01*
X112673000Y-31873000D01*
X112673000Y-29773750D01*
X112927000Y-29773750D01*
X112927000Y-31873000D01*
X115026250Y-31873000D01*
X115185000Y-31714250D01*
X115186931Y-30793633D01*
X115219463Y-30854494D01*
X115298815Y-30951185D01*
X115395506Y-31030537D01*
X115505820Y-31089502D01*
X115625518Y-31125812D01*
X115750000Y-31138072D01*
X117214250Y-31135000D01*
X117373000Y-30976250D01*
X117373000Y-29127000D01*
X117627000Y-29127000D01*
X117627000Y-30976250D01*
X117785750Y-31135000D01*
X119250000Y-31138072D01*
X119374482Y-31125812D01*
X119494180Y-31089502D01*
X119604494Y-31030537D01*
X119701185Y-30951185D01*
X119780537Y-30854494D01*
X119839502Y-30744180D01*
X119875812Y-30624482D01*
X119888072Y-30500000D01*
X119887592Y-30310207D01*
X123073000Y-30310207D01*
X123073000Y-30689793D01*
X123147053Y-31062085D01*
X123292315Y-31412777D01*
X123503201Y-31728391D01*
X123771609Y-31996799D01*
X124087223Y-32207685D01*
X124437915Y-32352947D01*
X124810207Y-32427000D01*
X125189793Y-32427000D01*
X125562085Y-32352947D01*
X125912777Y-32207685D01*
X126228391Y-31996799D01*
X126496799Y-31728391D01*
X126707685Y-31412777D01*
X126852947Y-31062085D01*
X126927000Y-30689793D01*
X126927000Y-30310207D01*
X126852947Y-29937915D01*
X126707685Y-29587223D01*
X126496799Y-29271609D01*
X126228391Y-29003201D01*
X125912777Y-28792315D01*
X125562085Y-28647053D01*
X125189793Y-28573000D01*
X124810207Y-28573000D01*
X124437915Y-28647053D01*
X124087223Y-28792315D01*
X123771609Y-29003201D01*
X123503201Y-29271609D01*
X123292315Y-29587223D01*
X123147053Y-29937915D01*
X123073000Y-30310207D01*
X119887592Y-30310207D01*
X119885000Y-29285750D01*
X119726250Y-29127000D01*
X117627000Y-29127000D01*
X117373000Y-29127000D01*
X115273750Y-29127000D01*
X115115000Y-29285750D01*
X115113302Y-29956805D01*
X115080537Y-29895506D01*
X115001185Y-29798815D01*
X114904494Y-29719463D01*
X114794180Y-29660498D01*
X114674482Y-29624188D01*
X114550000Y-29611928D01*
X113085750Y-29615000D01*
X112927000Y-29773750D01*
X112673000Y-29773750D01*
X112514250Y-29615000D01*
X111050000Y-29611928D01*
X110925518Y-29624188D01*
X110805820Y-29660498D01*
X110695506Y-29719463D01*
X110598815Y-29798815D01*
X110519463Y-29895506D01*
X110460498Y-30005820D01*
X110424188Y-30125518D01*
X110411928Y-30250000D01*
X40660000Y-30250000D01*
X40660000Y-27500000D01*
X115111928Y-27500000D01*
X115115000Y-28714250D01*
X115273750Y-28873000D01*
X117373000Y-28873000D01*
X117373000Y-27023750D01*
X117627000Y-27023750D01*
X117627000Y-28873000D01*
X119726250Y-28873000D01*
X119885000Y-28714250D01*
X119888072Y-27500000D01*
X119875812Y-27375518D01*
X119839502Y-27255820D01*
X119780537Y-27145506D01*
X119701185Y-27048815D01*
X119604494Y-26969463D01*
X119494180Y-26910498D01*
X119374482Y-26874188D01*
X119250000Y-26861928D01*
X117785750Y-26865000D01*
X117627000Y-27023750D01*
X117373000Y-27023750D01*
X117214250Y-26865000D01*
X115750000Y-26861928D01*
X115625518Y-26874188D01*
X115505820Y-26910498D01*
X115395506Y-26969463D01*
X115298815Y-27048815D01*
X115219463Y-27145506D01*
X115160498Y-27255820D01*
X115124188Y-27375518D01*
X115111928Y-27500000D01*
X40660000Y-27500000D01*
X40660000Y-25660000D01*
X139340000Y-25660000D01*
X139340001Y-184340000D01*
G37*
X139340001Y-184340000D02*
X40660000Y-184340000D01*
X40660000Y-180900000D01*
X87461928Y-180900000D01*
X87474188Y-181024482D01*
X87510498Y-181144180D01*
X87569463Y-181254494D01*
X87648815Y-181351185D01*
X87745506Y-181430537D01*
X87855820Y-181489502D01*
X87975518Y-181525812D01*
X88100000Y-181538072D01*
X88714250Y-181535000D01*
X88873000Y-181376250D01*
X88873000Y-180127000D01*
X87623750Y-180127000D01*
X87465000Y-180285750D01*
X87461928Y-180900000D01*
X40660000Y-180900000D01*
X40660000Y-179100000D01*
X87461928Y-179100000D01*
X87465000Y-179714250D01*
X87623750Y-179873000D01*
X88873000Y-179873000D01*
X88873000Y-178623750D01*
X89127000Y-178623750D01*
X89127000Y-179873000D01*
X89147000Y-179873000D01*
X89147000Y-180127000D01*
X89127000Y-180127000D01*
X89127000Y-181376250D01*
X89285750Y-181535000D01*
X89900000Y-181538072D01*
X90024482Y-181525812D01*
X90144180Y-181489502D01*
X90254494Y-181430537D01*
X90327145Y-181370914D01*
X90375355Y-181419124D01*
X90674591Y-181619066D01*
X91007084Y-181756789D01*
X91360056Y-181827000D01*
X91719944Y-181827000D01*
X92072916Y-181756789D01*
X92405409Y-181619066D01*
X92704645Y-181419124D01*
X92959124Y-181164645D01*
X93159066Y-180865409D01*
X93296789Y-180532916D01*
X93367000Y-180179944D01*
X93367000Y-179820056D01*
X93296789Y-179467084D01*
X93159066Y-179134591D01*
X92959124Y-178835355D01*
X92704645Y-178580876D01*
X92405409Y-178380934D01*
X92072916Y-178243211D01*
X91719944Y-178173000D01*
X91360056Y-178173000D01*
X91007084Y-178243211D01*
X90674591Y-178380934D01*
X90375355Y-178580876D01*
X90327145Y-178629086D01*
X90254494Y-178569463D01*
X90144180Y-178510498D01*
X90024482Y-178474188D01*
X89900000Y-178461928D01*
X89285750Y-178465000D01*
X89127000Y-178623750D01*
X88873000Y-178623750D01*
X88714250Y-178465000D01*
X88100000Y-178461928D01*
X87975518Y-178474188D01*
X87855820Y-178510498D01*
X87745506Y-178569463D01*
X87648815Y-178648815D01*
X87569463Y-178745506D01*
X87510498Y-178855820D01*
X87474188Y-178975518D01*
X87461928Y-179100000D01*
X40660000Y-179100000D01*
X40660000Y-176430000D01*
X112076015Y-176430000D01*
X112076015Y-178430000D01*
X112093913Y-178611724D01*
X112146920Y-178786464D01*
X112232999Y-178947505D01*
X112348841Y-179088659D01*
X112489995Y-179204501D01*
X112651036Y-179290580D01*
X112825776Y-179343587D01*
X113007500Y-179361485D01*
X114912500Y-179361485D01*
X115094224Y-179343587D01*
X115268964Y-179290580D01*
X115430005Y-179204501D01*
X115553812Y-179102895D01*
X115777267Y-179222333D01*
X116131555Y-179329805D01*
X116500000Y-179366094D01*
X116868446Y-179329805D01*
X117222734Y-179222333D01*
X117549247Y-179047809D01*
X117770000Y-178866642D01*
X117990753Y-179047809D01*
X118317267Y-179222333D01*
X118671555Y-179329805D01*
X119040000Y-179366094D01*
X119408446Y-179329805D01*
X119762734Y-179222333D01*
X120089247Y-179047809D01*
X120375438Y-178812938D01*
X120610309Y-178526747D01*
X120784833Y-178200233D01*
X120892305Y-177845945D01*
X120919500Y-177569831D01*
X120919500Y-177290168D01*
X120892305Y-177014054D01*
X120784833Y-176659766D01*
X120610309Y-176333253D01*
X120375438Y-176047062D01*
X120089247Y-175812191D01*
X119762733Y-175637667D01*
X119408445Y-175530195D01*
X119040000Y-175493906D01*
X118671554Y-175530195D01*
X118317266Y-175637667D01*
X117990753Y-175812191D01*
X117770000Y-175993358D01*
X117549247Y-175812191D01*
X117222733Y-175637667D01*
X116868445Y-175530195D01*
X116500000Y-175493906D01*
X116131554Y-175530195D01*
X115777266Y-175637667D01*
X115553812Y-175757105D01*
X115430005Y-175655499D01*
X115268964Y-175569420D01*
X115094224Y-175516413D01*
X114912500Y-175498515D01*
X113007500Y-175498515D01*
X112825776Y-175516413D01*
X112651036Y-175569420D01*
X112489995Y-175655499D01*
X112348841Y-175771341D01*
X112232999Y-175912495D01*
X112146920Y-176073536D01*
X112093913Y-176248276D01*
X112076015Y-176430000D01*
X40660000Y-176430000D01*
X40660000Y-174329905D01*
X83613000Y-174329905D01*
X83613000Y-174670095D01*
X83679368Y-175003747D01*
X83809553Y-175318041D01*
X83998552Y-175600898D01*
X84239102Y-175841448D01*
X84521959Y-176030447D01*
X84836253Y-176160632D01*
X85169905Y-176227000D01*
X85510095Y-176227000D01*
X85843747Y-176160632D01*
X86158041Y-176030447D01*
X86440898Y-175841448D01*
X86681448Y-175600898D01*
X86870447Y-175318041D01*
X87000632Y-175003747D01*
X87067000Y-174670095D01*
X87067000Y-174329905D01*
X93773000Y-174329905D01*
X93773000Y-174670095D01*
X93839368Y-175003747D01*
X93969553Y-175318041D01*
X94158552Y-175600898D01*
X94399102Y-175841448D01*
X94681959Y-176030447D01*
X94996253Y-176160632D01*
X95329905Y-176227000D01*
X95670095Y-176227000D01*
X96003747Y-176160632D01*
X96318041Y-176030447D01*
X96600898Y-175841448D01*
X96841448Y-175600898D01*
X97030447Y-175318041D01*
X97160632Y-175003747D01*
X97227000Y-174670095D01*
X97227000Y-174329905D01*
X97160632Y-173996253D01*
X97030447Y-173681959D01*
X96841448Y-173399102D01*
X96600898Y-173158552D01*
X96318041Y-172969553D01*
X96003747Y-172839368D01*
X95670095Y-172773000D01*
X95329905Y-172773000D01*
X94996253Y-172839368D01*
X94681959Y-172969553D01*
X94399102Y-173158552D01*
X94158552Y-173399102D01*
X93969553Y-173681959D01*
X93839368Y-173996253D01*
X93773000Y-174329905D01*
X87067000Y-174329905D01*
X87000632Y-173996253D01*
X86870447Y-173681959D01*
X86681448Y-173399102D01*
X86440898Y-173158552D01*
X86158041Y-172969553D01*
X85843747Y-172839368D01*
X85510095Y-172773000D01*
X85169905Y-172773000D01*
X84836253Y-172839368D01*
X84521959Y-172969553D01*
X84239102Y-173158552D01*
X83998552Y-173399102D01*
X83809553Y-173681959D01*
X83679368Y-173996253D01*
X83613000Y-174329905D01*
X40660000Y-174329905D01*
X40660000Y-170492702D01*
X97686903Y-170492702D01*
X97758486Y-170736671D01*
X98013996Y-170857571D01*
X98288184Y-170926300D01*
X98570512Y-170940217D01*
X98850130Y-170898787D01*
X99116292Y-170803603D01*
X99241514Y-170736671D01*
X99313097Y-170492702D01*
X98500000Y-169679605D01*
X97686903Y-170492702D01*
X40660000Y-170492702D01*
X40660000Y-169570512D01*
X97059783Y-169570512D01*
X97101213Y-169850130D01*
X97196397Y-170116292D01*
X97263329Y-170241514D01*
X97507298Y-170313097D01*
X98320395Y-169500000D01*
X98679605Y-169500000D01*
X99492702Y-170313097D01*
X99736671Y-170241514D01*
X99857571Y-169986004D01*
X99926300Y-169711816D01*
X99940217Y-169429488D01*
X99925463Y-169329905D01*
X101773000Y-169329905D01*
X101773000Y-169670095D01*
X101839368Y-170003747D01*
X101969553Y-170318041D01*
X102158552Y-170600898D01*
X102399102Y-170841448D01*
X102681959Y-171030447D01*
X102996253Y-171160632D01*
X103329905Y-171227000D01*
X103670095Y-171227000D01*
X104003747Y-171160632D01*
X104318041Y-171030447D01*
X104600898Y-170841448D01*
X104841448Y-170600898D01*
X105030447Y-170318041D01*
X105160632Y-170003747D01*
X105227000Y-169670095D01*
X105227000Y-169329905D01*
X105160632Y-168996253D01*
X105030447Y-168681959D01*
X104841448Y-168399102D01*
X104600898Y-168158552D01*
X104318041Y-167969553D01*
X104003747Y-167839368D01*
X103670095Y-167773000D01*
X103329905Y-167773000D01*
X102996253Y-167839368D01*
X102681959Y-167969553D01*
X102399102Y-168158552D01*
X102158552Y-168399102D01*
X101969553Y-168681959D01*
X101839368Y-168996253D01*
X101773000Y-169329905D01*
X99925463Y-169329905D01*
X99898787Y-169149870D01*
X99803603Y-168883708D01*
X99736671Y-168758486D01*
X99492702Y-168686903D01*
X98679605Y-169500000D01*
X98320395Y-169500000D01*
X97507298Y-168686903D01*
X97263329Y-168758486D01*
X97142429Y-169013996D01*
X97073700Y-169288184D01*
X97059783Y-169570512D01*
X40660000Y-169570512D01*
X40660000Y-168507298D01*
X97686903Y-168507298D01*
X98500000Y-169320395D01*
X99313097Y-168507298D01*
X99241514Y-168263329D01*
X98986004Y-168142429D01*
X98711816Y-168073700D01*
X98429488Y-168059783D01*
X98149870Y-168101213D01*
X97883708Y-168196397D01*
X97758486Y-168263329D01*
X97686903Y-168507298D01*
X40660000Y-168507298D01*
X40660000Y-164777980D01*
X60401626Y-164777980D01*
X60521514Y-165062836D01*
X60845210Y-165223699D01*
X61194069Y-165318322D01*
X61554684Y-165343067D01*
X61913198Y-165296985D01*
X62255833Y-165181846D01*
X62478486Y-165062836D01*
X62598374Y-164777980D01*
X61500000Y-163679605D01*
X60401626Y-164777980D01*
X40660000Y-164777980D01*
X40660000Y-163554684D01*
X59656933Y-163554684D01*
X59703015Y-163913198D01*
X59818154Y-164255833D01*
X59937164Y-164478486D01*
X60222020Y-164598374D01*
X61320395Y-163500000D01*
X61679605Y-163500000D01*
X62777980Y-164598374D01*
X63062836Y-164478486D01*
X63223699Y-164154790D01*
X63318322Y-163805931D01*
X63343067Y-163445316D01*
X63296985Y-163086802D01*
X63181846Y-162744167D01*
X63062836Y-162521514D01*
X62777980Y-162401626D01*
X61679605Y-163500000D01*
X61320395Y-163500000D01*
X60222020Y-162401626D01*
X59937164Y-162521514D01*
X59776301Y-162845210D01*
X59681678Y-163194069D01*
X59656933Y-163554684D01*
X40660000Y-163554684D01*
X40660000Y-162222020D01*
X60401626Y-162222020D01*
X61500000Y-163320395D01*
X62520394Y-162300000D01*
X66868515Y-162300000D01*
X66868515Y-164700000D01*
X66886413Y-164881724D01*
X66939420Y-165056464D01*
X67025499Y-165217505D01*
X67141341Y-165358659D01*
X67282495Y-165474501D01*
X67443536Y-165560580D01*
X67618276Y-165613587D01*
X67800000Y-165631485D01*
X70200000Y-165631485D01*
X70381724Y-165613587D01*
X70556464Y-165560580D01*
X70717505Y-165474501D01*
X70858659Y-165358659D01*
X70974501Y-165217505D01*
X71060580Y-165056464D01*
X71113587Y-164881724D01*
X71131485Y-164700000D01*
X71131485Y-162300000D01*
X71113587Y-162118276D01*
X71060580Y-161943536D01*
X70974501Y-161782495D01*
X70858659Y-161641341D01*
X70717505Y-161525499D01*
X70556464Y-161439420D01*
X70381724Y-161386413D01*
X70200000Y-161368515D01*
X67800000Y-161368515D01*
X67618276Y-161386413D01*
X67443536Y-161439420D01*
X67282495Y-161525499D01*
X67141341Y-161641341D01*
X67025499Y-161782495D01*
X66939420Y-161943536D01*
X66886413Y-162118276D01*
X66868515Y-162300000D01*
X62520394Y-162300000D01*
X62598374Y-162222020D01*
X62478486Y-161937164D01*
X62154790Y-161776301D01*
X61805931Y-161681678D01*
X61445316Y-161656933D01*
X61086802Y-161703015D01*
X60744167Y-161818154D01*
X60521514Y-161937164D01*
X60401626Y-162222020D01*
X40660000Y-162222020D01*
X40660000Y-161290509D01*
X78373000Y-161290509D01*
X78373000Y-161709491D01*
X78454739Y-162120423D01*
X78615077Y-162507512D01*
X78847851Y-162855884D01*
X79144116Y-163152149D01*
X79492488Y-163384923D01*
X79879577Y-163545261D01*
X80290509Y-163627000D01*
X80709491Y-163627000D01*
X81120423Y-163545261D01*
X81507512Y-163384923D01*
X81855884Y-163152149D01*
X82152149Y-162855884D01*
X82384923Y-162507512D01*
X82545261Y-162120423D01*
X82627000Y-161709491D01*
X82627000Y-161329905D01*
X87613000Y-161329905D01*
X87613000Y-161670095D01*
X87679368Y-162003747D01*
X87809553Y-162318041D01*
X87998552Y-162600898D01*
X88239102Y-162841448D01*
X88521959Y-163030447D01*
X88836253Y-163160632D01*
X89169905Y-163227000D01*
X89510095Y-163227000D01*
X89843747Y-163160632D01*
X90158041Y-163030447D01*
X90440898Y-162841448D01*
X90681448Y-162600898D01*
X90870447Y-162318041D01*
X91000632Y-162003747D01*
X91067000Y-161670095D01*
X91067000Y-161329905D01*
X97773000Y-161329905D01*
X97773000Y-161670095D01*
X97839368Y-162003747D01*
X97969553Y-162318041D01*
X98158552Y-162600898D01*
X98399102Y-162841448D01*
X98681959Y-163030447D01*
X98996253Y-163160632D01*
X99329905Y-163227000D01*
X99670095Y-163227000D01*
X100003747Y-163160632D01*
X100318041Y-163030447D01*
X100600898Y-162841448D01*
X100841448Y-162600898D01*
X101030447Y-162318041D01*
X101160632Y-162003747D01*
X101227000Y-161670095D01*
X101227000Y-161329905D01*
X101160632Y-160996253D01*
X101030447Y-160681959D01*
X100841448Y-160399102D01*
X100600898Y-160158552D01*
X100318041Y-159969553D01*
X100003747Y-159839368D01*
X99670095Y-159773000D01*
X99329905Y-159773000D01*
X98996253Y-159839368D01*
X98681959Y-159969553D01*
X98399102Y-160158552D01*
X98158552Y-160399102D01*
X97969553Y-160681959D01*
X97839368Y-160996253D01*
X97773000Y-161329905D01*
X91067000Y-161329905D01*
X91000632Y-160996253D01*
X90870447Y-160681959D01*
X90681448Y-160399102D01*
X90440898Y-160158552D01*
X90158041Y-159969553D01*
X89843747Y-159839368D01*
X89510095Y-159773000D01*
X89169905Y-159773000D01*
X88836253Y-159839368D01*
X88521959Y-159969553D01*
X88239102Y-160158552D01*
X87998552Y-160399102D01*
X87809553Y-160681959D01*
X87679368Y-160996253D01*
X87613000Y-161329905D01*
X82627000Y-161329905D01*
X82627000Y-161290509D01*
X82545261Y-160879577D01*
X82384923Y-160492488D01*
X82152149Y-160144116D01*
X81855884Y-159847851D01*
X81507512Y-159615077D01*
X81120423Y-159454739D01*
X80709491Y-159373000D01*
X80290509Y-159373000D01*
X79879577Y-159454739D01*
X79492488Y-159615077D01*
X79144116Y-159847851D01*
X78847851Y-160144116D01*
X78615077Y-160492488D01*
X78454739Y-160879577D01*
X78373000Y-161290509D01*
X40660000Y-161290509D01*
X40660000Y-151992702D01*
X97186903Y-151992702D01*
X97258486Y-152236671D01*
X97513996Y-152357571D01*
X97788184Y-152426300D01*
X98070512Y-152440217D01*
X98350130Y-152398787D01*
X98616292Y-152303603D01*
X98741514Y-152236671D01*
X98813097Y-151992702D01*
X98000000Y-151179605D01*
X97186903Y-151992702D01*
X40660000Y-151992702D01*
X40660000Y-151070512D01*
X96559783Y-151070512D01*
X96601213Y-151350130D01*
X96696397Y-151616292D01*
X96763329Y-151741514D01*
X97007298Y-151813097D01*
X97820395Y-151000000D01*
X98179605Y-151000000D01*
X98992702Y-151813097D01*
X99236671Y-151741514D01*
X99357571Y-151486004D01*
X99426300Y-151211816D01*
X99440217Y-150929488D01*
X99425463Y-150829905D01*
X101273000Y-150829905D01*
X101273000Y-151170095D01*
X101339368Y-151503747D01*
X101469553Y-151818041D01*
X101658552Y-152100898D01*
X101899102Y-152341448D01*
X102181959Y-152530447D01*
X102496253Y-152660632D01*
X102829905Y-152727000D01*
X103170095Y-152727000D01*
X103503747Y-152660632D01*
X103818041Y-152530447D01*
X104100898Y-152341448D01*
X104341448Y-152100898D01*
X104530447Y-151818041D01*
X104660632Y-151503747D01*
X104727000Y-151170095D01*
X104727000Y-150829905D01*
X104660632Y-150496253D01*
X104530447Y-150181959D01*
X104362094Y-149930000D01*
X112086015Y-149930000D01*
X112086015Y-151930000D01*
X112103913Y-152111724D01*
X112156920Y-152286464D01*
X112242999Y-152447505D01*
X112358841Y-152588659D01*
X112499995Y-152704501D01*
X112661036Y-152790580D01*
X112835776Y-152843587D01*
X113017500Y-152861485D01*
X114922500Y-152861485D01*
X115104224Y-152843587D01*
X115278964Y-152790580D01*
X115440005Y-152704501D01*
X115581159Y-152588659D01*
X115697001Y-152447505D01*
X115744445Y-152358743D01*
X115918906Y-152449571D01*
X116137020Y-152520563D01*
X116383000Y-152400594D01*
X116383000Y-151057000D01*
X116363000Y-151057000D01*
X116363000Y-150803000D01*
X116383000Y-150803000D01*
X116383000Y-149459406D01*
X116637000Y-149459406D01*
X116637000Y-150803000D01*
X116657000Y-150803000D01*
X116657000Y-151057000D01*
X116637000Y-151057000D01*
X116637000Y-152400594D01*
X116882980Y-152520563D01*
X117101094Y-152449571D01*
X117376923Y-152305969D01*
X117577029Y-152145354D01*
X117714562Y-152312938D01*
X118000753Y-152547809D01*
X118327267Y-152722333D01*
X118681555Y-152829805D01*
X119050000Y-152866094D01*
X119418446Y-152829805D01*
X119772734Y-152722333D01*
X120099247Y-152547809D01*
X120385438Y-152312938D01*
X120620309Y-152026747D01*
X120794833Y-151700233D01*
X120902305Y-151345945D01*
X120929500Y-151069831D01*
X120929500Y-150790168D01*
X120902305Y-150514054D01*
X120794833Y-150159766D01*
X120620309Y-149833253D01*
X120385438Y-149547062D01*
X120099247Y-149312191D01*
X119772733Y-149137667D01*
X119418445Y-149030195D01*
X119050000Y-148993906D01*
X118681554Y-149030195D01*
X118327266Y-149137667D01*
X118000753Y-149312191D01*
X117714562Y-149547062D01*
X117577029Y-149714646D01*
X117376923Y-149554031D01*
X117101094Y-149410429D01*
X116882980Y-149339437D01*
X116637000Y-149459406D01*
X116383000Y-149459406D01*
X116137020Y-149339437D01*
X115918906Y-149410429D01*
X115744445Y-149501257D01*
X115697001Y-149412495D01*
X115581159Y-149271341D01*
X115440005Y-149155499D01*
X115278964Y-149069420D01*
X115104224Y-149016413D01*
X114922500Y-148998515D01*
X113017500Y-148998515D01*
X112835776Y-149016413D01*
X112661036Y-149069420D01*
X112499995Y-149155499D01*
X112358841Y-149271341D01*
X112242999Y-149412495D01*
X112156920Y-149573536D01*
X112103913Y-149748276D01*
X112086015Y-149930000D01*
X104362094Y-149930000D01*
X104341448Y-149899102D01*
X104100898Y-149658552D01*
X103818041Y-149469553D01*
X103503747Y-149339368D01*
X103170095Y-149273000D01*
X102829905Y-149273000D01*
X102496253Y-149339368D01*
X102181959Y-149469553D01*
X101899102Y-149658552D01*
X101658552Y-149899102D01*
X101469553Y-150181959D01*
X101339368Y-150496253D01*
X101273000Y-150829905D01*
X99425463Y-150829905D01*
X99398787Y-150649870D01*
X99303603Y-150383708D01*
X99236671Y-150258486D01*
X98992702Y-150186903D01*
X98179605Y-151000000D01*
X97820395Y-151000000D01*
X97007298Y-150186903D01*
X96763329Y-150258486D01*
X96642429Y-150513996D01*
X96573700Y-150788184D01*
X96559783Y-151070512D01*
X40660000Y-151070512D01*
X40660000Y-150007298D01*
X97186903Y-150007298D01*
X98000000Y-150820395D01*
X98813097Y-150007298D01*
X98741514Y-149763329D01*
X98486004Y-149642429D01*
X98211816Y-149573700D01*
X97929488Y-149559783D01*
X97649870Y-149601213D01*
X97383708Y-149696397D01*
X97258486Y-149763329D01*
X97186903Y-150007298D01*
X40660000Y-150007298D01*
X40660000Y-147777980D01*
X79401626Y-147777980D01*
X79521514Y-148062836D01*
X79845210Y-148223699D01*
X80194069Y-148318322D01*
X80554684Y-148343067D01*
X80913198Y-148296985D01*
X81255833Y-148181846D01*
X81478486Y-148062836D01*
X81598374Y-147777980D01*
X80500000Y-146679605D01*
X79401626Y-147777980D01*
X40660000Y-147777980D01*
X40660000Y-146554684D01*
X78656933Y-146554684D01*
X78703015Y-146913198D01*
X78818154Y-147255833D01*
X78937164Y-147478486D01*
X79222020Y-147598374D01*
X80320395Y-146500000D01*
X80679605Y-146500000D01*
X81777980Y-147598374D01*
X82062836Y-147478486D01*
X82223699Y-147154790D01*
X82318322Y-146805931D01*
X82343067Y-146445316D01*
X82296985Y-146086802D01*
X82181846Y-145744167D01*
X82062836Y-145521514D01*
X81777980Y-145401626D01*
X80679605Y-146500000D01*
X80320395Y-146500000D01*
X79222020Y-145401626D01*
X78937164Y-145521514D01*
X78776301Y-145845210D01*
X78681678Y-146194069D01*
X78656933Y-146554684D01*
X40660000Y-146554684D01*
X40660000Y-145277980D01*
X60401626Y-145277980D01*
X60521514Y-145562836D01*
X60845210Y-145723699D01*
X61194069Y-145818322D01*
X61554684Y-145843067D01*
X61913198Y-145796985D01*
X62255833Y-145681846D01*
X62478486Y-145562836D01*
X62598374Y-145277980D01*
X61500000Y-144179605D01*
X60401626Y-145277980D01*
X40660000Y-145277980D01*
X40660000Y-144054684D01*
X59656933Y-144054684D01*
X59703015Y-144413198D01*
X59818154Y-144755833D01*
X59937164Y-144978486D01*
X60222020Y-145098374D01*
X61320395Y-144000000D01*
X61679605Y-144000000D01*
X62777980Y-145098374D01*
X63062836Y-144978486D01*
X63223699Y-144654790D01*
X63318322Y-144305931D01*
X63343067Y-143945316D01*
X63296985Y-143586802D01*
X63181846Y-143244167D01*
X63062836Y-143021514D01*
X62777980Y-142901626D01*
X61679605Y-144000000D01*
X61320395Y-144000000D01*
X60222020Y-142901626D01*
X59937164Y-143021514D01*
X59776301Y-143345210D01*
X59681678Y-143694069D01*
X59656933Y-144054684D01*
X40660000Y-144054684D01*
X40660000Y-142722020D01*
X60401626Y-142722020D01*
X61500000Y-143820395D01*
X62520394Y-142800000D01*
X66868515Y-142800000D01*
X66868515Y-145200000D01*
X66886413Y-145381724D01*
X66939420Y-145556464D01*
X67025499Y-145717505D01*
X67141341Y-145858659D01*
X67282495Y-145974501D01*
X67443536Y-146060580D01*
X67618276Y-146113587D01*
X67800000Y-146131485D01*
X70200000Y-146131485D01*
X70381724Y-146113587D01*
X70556464Y-146060580D01*
X70717505Y-145974501D01*
X70858659Y-145858659D01*
X70974501Y-145717505D01*
X71060580Y-145556464D01*
X71113587Y-145381724D01*
X71129316Y-145222020D01*
X79401626Y-145222020D01*
X80500000Y-146320395D01*
X81598374Y-145222020D01*
X81478486Y-144937164D01*
X81154790Y-144776301D01*
X80805931Y-144681678D01*
X80445316Y-144656933D01*
X80086802Y-144703015D01*
X79744167Y-144818154D01*
X79521514Y-144937164D01*
X79401626Y-145222020D01*
X71129316Y-145222020D01*
X71131485Y-145200000D01*
X71131485Y-142800000D01*
X71113587Y-142618276D01*
X71060580Y-142443536D01*
X70974501Y-142282495D01*
X70858659Y-142141341D01*
X70717505Y-142025499D01*
X70556464Y-141939420D01*
X70381724Y-141886413D01*
X70200000Y-141868515D01*
X67800000Y-141868515D01*
X67618276Y-141886413D01*
X67443536Y-141939420D01*
X67282495Y-142025499D01*
X67141341Y-142141341D01*
X67025499Y-142282495D01*
X66939420Y-142443536D01*
X66886413Y-142618276D01*
X66868515Y-142800000D01*
X62520394Y-142800000D01*
X62598374Y-142722020D01*
X62478486Y-142437164D01*
X62154790Y-142276301D01*
X61805931Y-142181678D01*
X61445316Y-142156933D01*
X61086802Y-142203015D01*
X60744167Y-142318154D01*
X60521514Y-142437164D01*
X60401626Y-142722020D01*
X40660000Y-142722020D01*
X40660000Y-133900000D01*
X74808515Y-133900000D01*
X74808515Y-136100000D01*
X74826413Y-136281724D01*
X74879420Y-136456464D01*
X74965499Y-136617505D01*
X75081341Y-136758659D01*
X75222495Y-136874501D01*
X75383536Y-136960580D01*
X75558276Y-137013587D01*
X75740000Y-137031485D01*
X77940000Y-137031485D01*
X78121724Y-137013587D01*
X78296464Y-136960580D01*
X78457505Y-136874501D01*
X78598659Y-136758659D01*
X78714501Y-136617505D01*
X78800580Y-136456464D01*
X78853587Y-136281724D01*
X78871485Y-136100000D01*
X78871485Y-134800358D01*
X84973000Y-134800358D01*
X84973000Y-135199642D01*
X85050896Y-135591254D01*
X85203696Y-135960145D01*
X85425526Y-136292137D01*
X85707863Y-136574474D01*
X86039855Y-136796304D01*
X86408746Y-136949104D01*
X86800358Y-137027000D01*
X87199642Y-137027000D01*
X87591254Y-136949104D01*
X87960145Y-136796304D01*
X88292137Y-136574474D01*
X88574474Y-136292137D01*
X88796304Y-135960145D01*
X88949104Y-135591254D01*
X89027000Y-135199642D01*
X89027000Y-134800358D01*
X90973000Y-134800358D01*
X90973000Y-135199642D01*
X91050896Y-135591254D01*
X91203696Y-135960145D01*
X91425526Y-136292137D01*
X91707863Y-136574474D01*
X92039855Y-136796304D01*
X92408746Y-136949104D01*
X92800358Y-137027000D01*
X93199642Y-137027000D01*
X93591254Y-136949104D01*
X93960145Y-136796304D01*
X94292137Y-136574474D01*
X94574474Y-136292137D01*
X94796304Y-135960145D01*
X94949104Y-135591254D01*
X95027000Y-135199642D01*
X95027000Y-134800358D01*
X94949104Y-134408746D01*
X94796304Y-134039855D01*
X94702856Y-133900000D01*
X101128515Y-133900000D01*
X101128515Y-136100000D01*
X101146413Y-136281724D01*
X101199420Y-136456464D01*
X101285499Y-136617505D01*
X101401341Y-136758659D01*
X101542495Y-136874501D01*
X101703536Y-136960580D01*
X101878276Y-137013587D01*
X102060000Y-137031485D01*
X104260000Y-137031485D01*
X104441724Y-137013587D01*
X104616464Y-136960580D01*
X104777505Y-136874501D01*
X104918659Y-136758659D01*
X105034501Y-136617505D01*
X105120580Y-136456464D01*
X105173587Y-136281724D01*
X105191485Y-136100000D01*
X105191485Y-133900000D01*
X105173587Y-133718276D01*
X105120580Y-133543536D01*
X105034501Y-133382495D01*
X104918659Y-133241341D01*
X104777505Y-133125499D01*
X104616464Y-133039420D01*
X104441724Y-132986413D01*
X104260000Y-132968515D01*
X102060000Y-132968515D01*
X101878276Y-132986413D01*
X101703536Y-133039420D01*
X101542495Y-133125499D01*
X101401341Y-133241341D01*
X101285499Y-133382495D01*
X101199420Y-133543536D01*
X101146413Y-133718276D01*
X101128515Y-133900000D01*
X94702856Y-133900000D01*
X94574474Y-133707863D01*
X94292137Y-133425526D01*
X93960145Y-133203696D01*
X93591254Y-133050896D01*
X93199642Y-132973000D01*
X92800358Y-132973000D01*
X92408746Y-133050896D01*
X92039855Y-133203696D01*
X91707863Y-133425526D01*
X91425526Y-133707863D01*
X91203696Y-134039855D01*
X91050896Y-134408746D01*
X90973000Y-134800358D01*
X89027000Y-134800358D01*
X88949104Y-134408746D01*
X88796304Y-134039855D01*
X88574474Y-133707863D01*
X88292137Y-133425526D01*
X87960145Y-133203696D01*
X87591254Y-133050896D01*
X87199642Y-132973000D01*
X86800358Y-132973000D01*
X86408746Y-133050896D01*
X86039855Y-133203696D01*
X85707863Y-133425526D01*
X85425526Y-133707863D01*
X85203696Y-134039855D01*
X85050896Y-134408746D01*
X84973000Y-134800358D01*
X78871485Y-134800358D01*
X78871485Y-133900000D01*
X78853587Y-133718276D01*
X78800580Y-133543536D01*
X78714501Y-133382495D01*
X78598659Y-133241341D01*
X78457505Y-133125499D01*
X78296464Y-133039420D01*
X78121724Y-132986413D01*
X77940000Y-132968515D01*
X75740000Y-132968515D01*
X75558276Y-132986413D01*
X75383536Y-133039420D01*
X75222495Y-133125499D01*
X75081341Y-133241341D01*
X74965499Y-133382495D01*
X74879420Y-133543536D01*
X74826413Y-133718276D01*
X74808515Y-133900000D01*
X40660000Y-133900000D01*
X40660000Y-127900000D01*
X74808515Y-127900000D01*
X74808515Y-130100000D01*
X74826413Y-130281724D01*
X74879420Y-130456464D01*
X74965499Y-130617505D01*
X75081341Y-130758659D01*
X75222495Y-130874501D01*
X75383536Y-130960580D01*
X75558276Y-131013587D01*
X75740000Y-131031485D01*
X77940000Y-131031485D01*
X78121724Y-131013587D01*
X78296464Y-130960580D01*
X78457505Y-130874501D01*
X78598659Y-130758659D01*
X78714501Y-130617505D01*
X78800580Y-130456464D01*
X78853587Y-130281724D01*
X78871485Y-130100000D01*
X78871485Y-129396122D01*
X85310825Y-129396122D01*
X85375425Y-129609094D01*
X85525469Y-129914329D01*
X85732178Y-130184427D01*
X85987609Y-130409008D01*
X86281946Y-130579442D01*
X86603877Y-130689179D01*
X86873000Y-130571600D01*
X86873000Y-129127000D01*
X87127000Y-129127000D01*
X87127000Y-130571600D01*
X87396123Y-130689179D01*
X87718054Y-130579442D01*
X88012391Y-130409008D01*
X88267822Y-130184427D01*
X88474531Y-129914329D01*
X88624575Y-129609094D01*
X88689175Y-129396122D01*
X91310825Y-129396122D01*
X91375425Y-129609094D01*
X91525469Y-129914329D01*
X91732178Y-130184427D01*
X91987609Y-130409008D01*
X92281946Y-130579442D01*
X92603877Y-130689179D01*
X92873000Y-130571600D01*
X92873000Y-129127000D01*
X93127000Y-129127000D01*
X93127000Y-130571600D01*
X93396123Y-130689179D01*
X93718054Y-130579442D01*
X94012391Y-130409008D01*
X94267822Y-130184427D01*
X94474531Y-129914329D01*
X94624575Y-129609094D01*
X94689175Y-129396122D01*
X94571125Y-129127000D01*
X93127000Y-129127000D01*
X92873000Y-129127000D01*
X91428875Y-129127000D01*
X91310825Y-129396122D01*
X88689175Y-129396122D01*
X88571125Y-129127000D01*
X87127000Y-129127000D01*
X86873000Y-129127000D01*
X85428875Y-129127000D01*
X85310825Y-129396122D01*
X78871485Y-129396122D01*
X78871485Y-128603878D01*
X85310825Y-128603878D01*
X85428875Y-128873000D01*
X86873000Y-128873000D01*
X86873000Y-127428400D01*
X87127000Y-127428400D01*
X87127000Y-128873000D01*
X88571125Y-128873000D01*
X88689175Y-128603878D01*
X91310825Y-128603878D01*
X91428875Y-128873000D01*
X92873000Y-128873000D01*
X92873000Y-127428400D01*
X93127000Y-127428400D01*
X93127000Y-128873000D01*
X94571125Y-128873000D01*
X94689175Y-128603878D01*
X94624575Y-128390906D01*
X94474531Y-128085671D01*
X94332435Y-127900000D01*
X101128515Y-127900000D01*
X101128515Y-130100000D01*
X101146413Y-130281724D01*
X101199420Y-130456464D01*
X101285499Y-130617505D01*
X101401341Y-130758659D01*
X101542495Y-130874501D01*
X101703536Y-130960580D01*
X101878276Y-131013587D01*
X102060000Y-131031485D01*
X104260000Y-131031485D01*
X104441724Y-131013587D01*
X104616464Y-130960580D01*
X104777505Y-130874501D01*
X104918659Y-130758659D01*
X105034501Y-130617505D01*
X105120580Y-130456464D01*
X105173587Y-130281724D01*
X105191485Y-130100000D01*
X105191485Y-127900000D01*
X105173587Y-127718276D01*
X105120580Y-127543536D01*
X105034501Y-127382495D01*
X104918659Y-127241341D01*
X104777505Y-127125499D01*
X104616464Y-127039420D01*
X104441724Y-126986413D01*
X104260000Y-126968515D01*
X102060000Y-126968515D01*
X101878276Y-126986413D01*
X101703536Y-127039420D01*
X101542495Y-127125499D01*
X101401341Y-127241341D01*
X101285499Y-127382495D01*
X101199420Y-127543536D01*
X101146413Y-127718276D01*
X101128515Y-127900000D01*
X94332435Y-127900000D01*
X94267822Y-127815573D01*
X94012391Y-127590992D01*
X93718054Y-127420558D01*
X93396123Y-127310821D01*
X93127000Y-127428400D01*
X92873000Y-127428400D01*
X92603877Y-127310821D01*
X92281946Y-127420558D01*
X91987609Y-127590992D01*
X91732178Y-127815573D01*
X91525469Y-128085671D01*
X91375425Y-128390906D01*
X91310825Y-128603878D01*
X88689175Y-128603878D01*
X88624575Y-128390906D01*
X88474531Y-128085671D01*
X88267822Y-127815573D01*
X88012391Y-127590992D01*
X87718054Y-127420558D01*
X87396123Y-127310821D01*
X87127000Y-127428400D01*
X86873000Y-127428400D01*
X86603877Y-127310821D01*
X86281946Y-127420558D01*
X85987609Y-127590992D01*
X85732178Y-127815573D01*
X85525469Y-128085671D01*
X85375425Y-128390906D01*
X85310825Y-128603878D01*
X78871485Y-128603878D01*
X78871485Y-127900000D01*
X78853587Y-127718276D01*
X78800580Y-127543536D01*
X78714501Y-127382495D01*
X78598659Y-127241341D01*
X78457505Y-127125499D01*
X78296464Y-127039420D01*
X78121724Y-126986413D01*
X77940000Y-126968515D01*
X75740000Y-126968515D01*
X75558276Y-126986413D01*
X75383536Y-127039420D01*
X75222495Y-127125499D01*
X75081341Y-127241341D01*
X74965499Y-127382495D01*
X74879420Y-127543536D01*
X74826413Y-127718276D01*
X74808515Y-127900000D01*
X40660000Y-127900000D01*
X40660000Y-122475584D01*
X59883000Y-122475584D01*
X59883000Y-122904416D01*
X59966660Y-123325008D01*
X60130767Y-123721196D01*
X60369013Y-124077757D01*
X60672243Y-124380987D01*
X61028804Y-124619233D01*
X61424992Y-124783340D01*
X61845584Y-124867000D01*
X62274416Y-124867000D01*
X62695008Y-124783340D01*
X63091196Y-124619233D01*
X63447757Y-124380987D01*
X63750987Y-124077757D01*
X63989233Y-123721196D01*
X64153340Y-123325008D01*
X64237000Y-122904416D01*
X64237000Y-122475584D01*
X64963000Y-122475584D01*
X64963000Y-122904416D01*
X65046660Y-123325008D01*
X65210767Y-123721196D01*
X65449013Y-124077757D01*
X65752243Y-124380987D01*
X66108804Y-124619233D01*
X66504992Y-124783340D01*
X66925584Y-124867000D01*
X67354416Y-124867000D01*
X67775008Y-124783340D01*
X68171196Y-124619233D01*
X68527757Y-124380987D01*
X68830987Y-124077757D01*
X69069233Y-123721196D01*
X69233340Y-123325008D01*
X69317000Y-122904416D01*
X69317000Y-122475584D01*
X110683000Y-122475584D01*
X110683000Y-122904416D01*
X110766660Y-123325008D01*
X110930767Y-123721196D01*
X111169013Y-124077757D01*
X111472243Y-124380987D01*
X111828804Y-124619233D01*
X112224992Y-124783340D01*
X112645584Y-124867000D01*
X113074416Y-124867000D01*
X113495008Y-124783340D01*
X113891196Y-124619233D01*
X114247757Y-124380987D01*
X114550987Y-124077757D01*
X114789233Y-123721196D01*
X114953340Y-123325008D01*
X115037000Y-122904416D01*
X115037000Y-122475584D01*
X115763000Y-122475584D01*
X115763000Y-122904416D01*
X115846660Y-123325008D01*
X116010767Y-123721196D01*
X116249013Y-124077757D01*
X116552243Y-124380987D01*
X116908804Y-124619233D01*
X117304992Y-124783340D01*
X117725584Y-124867000D01*
X118154416Y-124867000D01*
X118575008Y-124783340D01*
X118971196Y-124619233D01*
X119327757Y-124380987D01*
X119630987Y-124077757D01*
X119869233Y-123721196D01*
X120033340Y-123325008D01*
X120117000Y-122904416D01*
X120117000Y-122475584D01*
X120033340Y-122054992D01*
X119869233Y-121658804D01*
X119630987Y-121302243D01*
X119327757Y-120999013D01*
X118971196Y-120760767D01*
X118575008Y-120596660D01*
X118154416Y-120513000D01*
X117725584Y-120513000D01*
X117304992Y-120596660D01*
X116908804Y-120760767D01*
X116552243Y-120999013D01*
X116249013Y-121302243D01*
X116010767Y-121658804D01*
X115846660Y-122054992D01*
X115763000Y-122475584D01*
X115037000Y-122475584D01*
X114953340Y-122054992D01*
X114789233Y-121658804D01*
X114550987Y-121302243D01*
X114247757Y-120999013D01*
X113891196Y-120760767D01*
X113495008Y-120596660D01*
X113074416Y-120513000D01*
X112645584Y-120513000D01*
X112224992Y-120596660D01*
X111828804Y-120760767D01*
X111472243Y-120999013D01*
X111169013Y-121302243D01*
X110930767Y-121658804D01*
X110766660Y-122054992D01*
X110683000Y-122475584D01*
X69317000Y-122475584D01*
X69233340Y-122054992D01*
X69069233Y-121658804D01*
X68830987Y-121302243D01*
X68527757Y-120999013D01*
X68171196Y-120760767D01*
X67775008Y-120596660D01*
X67354416Y-120513000D01*
X66925584Y-120513000D01*
X66504992Y-120596660D01*
X66108804Y-120760767D01*
X65752243Y-120999013D01*
X65449013Y-121302243D01*
X65210767Y-121658804D01*
X65046660Y-122054992D01*
X64963000Y-122475584D01*
X64237000Y-122475584D01*
X64153340Y-122054992D01*
X63989233Y-121658804D01*
X63750987Y-121302243D01*
X63447757Y-120999013D01*
X63091196Y-120760767D01*
X62695008Y-120596660D01*
X62274416Y-120513000D01*
X61845584Y-120513000D01*
X61424992Y-120596660D01*
X61028804Y-120760767D01*
X60672243Y-120999013D01*
X60369013Y-121302243D01*
X60130767Y-121658804D01*
X59966660Y-122054992D01*
X59883000Y-122475584D01*
X40660000Y-122475584D01*
X40660000Y-66595584D01*
X62423000Y-66595584D01*
X62423000Y-67024416D01*
X62506660Y-67445008D01*
X62670767Y-67841196D01*
X62909013Y-68197757D01*
X63212243Y-68500987D01*
X63568804Y-68739233D01*
X63964992Y-68903340D01*
X64385584Y-68987000D01*
X64814416Y-68987000D01*
X65235008Y-68903340D01*
X65631196Y-68739233D01*
X65987757Y-68500987D01*
X66290987Y-68197757D01*
X66529233Y-67841196D01*
X66693340Y-67445008D01*
X66777000Y-67024416D01*
X66777000Y-66595584D01*
X67503000Y-66595584D01*
X67503000Y-67024416D01*
X67586660Y-67445008D01*
X67750767Y-67841196D01*
X67989013Y-68197757D01*
X68292243Y-68500987D01*
X68648804Y-68739233D01*
X69044992Y-68903340D01*
X69465584Y-68987000D01*
X69894416Y-68987000D01*
X70315008Y-68903340D01*
X70711196Y-68739233D01*
X71067757Y-68500987D01*
X71370987Y-68197757D01*
X71609233Y-67841196D01*
X71773340Y-67445008D01*
X71857000Y-67024416D01*
X71857000Y-66595584D01*
X108143000Y-66595584D01*
X108143000Y-67024416D01*
X108226660Y-67445008D01*
X108390767Y-67841196D01*
X108629013Y-68197757D01*
X108932243Y-68500987D01*
X109288804Y-68739233D01*
X109684992Y-68903340D01*
X110105584Y-68987000D01*
X110534416Y-68987000D01*
X110955008Y-68903340D01*
X111351196Y-68739233D01*
X111707757Y-68500987D01*
X112010987Y-68197757D01*
X112249233Y-67841196D01*
X112413340Y-67445008D01*
X112497000Y-67024416D01*
X112497000Y-66595584D01*
X113223000Y-66595584D01*
X113223000Y-67024416D01*
X113306660Y-67445008D01*
X113470767Y-67841196D01*
X113709013Y-68197757D01*
X114012243Y-68500987D01*
X114368804Y-68739233D01*
X114764992Y-68903340D01*
X115185584Y-68987000D01*
X115614416Y-68987000D01*
X116035008Y-68903340D01*
X116431196Y-68739233D01*
X116787757Y-68500987D01*
X117090987Y-68197757D01*
X117329233Y-67841196D01*
X117493340Y-67445008D01*
X117577000Y-67024416D01*
X117577000Y-66595584D01*
X117493340Y-66174992D01*
X117329233Y-65778804D01*
X117090987Y-65422243D01*
X116787757Y-65119013D01*
X116431196Y-64880767D01*
X116035008Y-64716660D01*
X115614416Y-64633000D01*
X115185584Y-64633000D01*
X114764992Y-64716660D01*
X114368804Y-64880767D01*
X114012243Y-65119013D01*
X113709013Y-65422243D01*
X113470767Y-65778804D01*
X113306660Y-66174992D01*
X113223000Y-66595584D01*
X112497000Y-66595584D01*
X112413340Y-66174992D01*
X112249233Y-65778804D01*
X112010987Y-65422243D01*
X111707757Y-65119013D01*
X111351196Y-64880767D01*
X110955008Y-64716660D01*
X110534416Y-64633000D01*
X110105584Y-64633000D01*
X109684992Y-64716660D01*
X109288804Y-64880767D01*
X108932243Y-65119013D01*
X108629013Y-65422243D01*
X108390767Y-65778804D01*
X108226660Y-66174992D01*
X108143000Y-66595584D01*
X71857000Y-66595584D01*
X71773340Y-66174992D01*
X71609233Y-65778804D01*
X71370987Y-65422243D01*
X71067757Y-65119013D01*
X70711196Y-64880767D01*
X70315008Y-64716660D01*
X69894416Y-64633000D01*
X69465584Y-64633000D01*
X69044992Y-64716660D01*
X68648804Y-64880767D01*
X68292243Y-65119013D01*
X67989013Y-65422243D01*
X67750767Y-65778804D01*
X67586660Y-66174992D01*
X67503000Y-66595584D01*
X66777000Y-66595584D01*
X66693340Y-66174992D01*
X66529233Y-65778804D01*
X66290987Y-65422243D01*
X65987757Y-65119013D01*
X65631196Y-64880767D01*
X65235008Y-64716660D01*
X64814416Y-64633000D01*
X64385584Y-64633000D01*
X63964992Y-64716660D01*
X63568804Y-64880767D01*
X63212243Y-65119013D01*
X62909013Y-65422243D01*
X62670767Y-65778804D01*
X62506660Y-66174992D01*
X62423000Y-66595584D01*
X40660000Y-66595584D01*
X40660000Y-56724999D01*
X62293515Y-56724999D01*
X62293515Y-58775001D01*
X62316217Y-59005497D01*
X62383450Y-59227135D01*
X62492631Y-59431398D01*
X62639564Y-59610436D01*
X62818602Y-59757369D01*
X63022865Y-59866550D01*
X63244503Y-59933783D01*
X63474999Y-59956485D01*
X65525001Y-59956485D01*
X65755497Y-59933783D01*
X65977135Y-59866550D01*
X66181398Y-59757369D01*
X66360436Y-59610436D01*
X66507369Y-59431398D01*
X66616550Y-59227135D01*
X66683783Y-59005497D01*
X66706485Y-58775001D01*
X66706485Y-57533122D01*
X67098000Y-57533122D01*
X67098000Y-57966878D01*
X67182621Y-58392300D01*
X67348613Y-58793038D01*
X67589595Y-59153693D01*
X67896307Y-59460405D01*
X68256962Y-59701387D01*
X68657700Y-59867379D01*
X69083122Y-59952000D01*
X69516878Y-59952000D01*
X69942300Y-59867379D01*
X70343038Y-59701387D01*
X70703693Y-59460405D01*
X71010405Y-59153693D01*
X71251387Y-58793038D01*
X71417379Y-58392300D01*
X71502000Y-57966878D01*
X71502000Y-57533122D01*
X85498000Y-57533122D01*
X85498000Y-57966878D01*
X85582621Y-58392300D01*
X85748613Y-58793038D01*
X85989595Y-59153693D01*
X86296307Y-59460405D01*
X86656962Y-59701387D01*
X87057700Y-59867379D01*
X87483122Y-59952000D01*
X87916878Y-59952000D01*
X88342300Y-59867379D01*
X88743038Y-59701387D01*
X89103693Y-59460405D01*
X89410405Y-59153693D01*
X89651387Y-58793038D01*
X89817379Y-58392300D01*
X89902000Y-57966878D01*
X89902000Y-57533122D01*
X89817379Y-57107700D01*
X89658859Y-56724999D01*
X90293515Y-56724999D01*
X90293515Y-58775001D01*
X90316217Y-59005497D01*
X90383450Y-59227135D01*
X90492631Y-59431398D01*
X90639564Y-59610436D01*
X90818602Y-59757369D01*
X91022865Y-59866550D01*
X91244503Y-59933783D01*
X91474999Y-59956485D01*
X93525001Y-59956485D01*
X93755497Y-59933783D01*
X93977135Y-59866550D01*
X94181398Y-59757369D01*
X94360436Y-59610436D01*
X94507369Y-59431398D01*
X94616550Y-59227135D01*
X94683783Y-59005497D01*
X94706485Y-58775001D01*
X94706485Y-56724999D01*
X108293515Y-56724999D01*
X108293515Y-58775001D01*
X108316217Y-59005497D01*
X108383450Y-59227135D01*
X108492631Y-59431398D01*
X108639564Y-59610436D01*
X108818602Y-59757369D01*
X109022865Y-59866550D01*
X109244503Y-59933783D01*
X109474999Y-59956485D01*
X111525001Y-59956485D01*
X111755497Y-59933783D01*
X111977135Y-59866550D01*
X112181398Y-59757369D01*
X112360436Y-59610436D01*
X112507369Y-59431398D01*
X112616550Y-59227135D01*
X112683783Y-59005497D01*
X112706485Y-58775001D01*
X112706485Y-57533122D01*
X113098000Y-57533122D01*
X113098000Y-57966878D01*
X113182621Y-58392300D01*
X113348613Y-58793038D01*
X113589595Y-59153693D01*
X113896307Y-59460405D01*
X114256962Y-59701387D01*
X114657700Y-59867379D01*
X115083122Y-59952000D01*
X115516878Y-59952000D01*
X115942300Y-59867379D01*
X116343038Y-59701387D01*
X116703693Y-59460405D01*
X117010405Y-59153693D01*
X117251387Y-58793038D01*
X117417379Y-58392300D01*
X117502000Y-57966878D01*
X117502000Y-57533122D01*
X117417379Y-57107700D01*
X117251387Y-56706962D01*
X117010405Y-56346307D01*
X116703693Y-56039595D01*
X116343038Y-55798613D01*
X115942300Y-55632621D01*
X115516878Y-55548000D01*
X115083122Y-55548000D01*
X114657700Y-55632621D01*
X114256962Y-55798613D01*
X113896307Y-56039595D01*
X113589595Y-56346307D01*
X113348613Y-56706962D01*
X113182621Y-57107700D01*
X113098000Y-57533122D01*
X112706485Y-57533122D01*
X112706485Y-56724999D01*
X112683783Y-56494503D01*
X112616550Y-56272865D01*
X112507369Y-56068602D01*
X112360436Y-55889564D01*
X112181398Y-55742631D01*
X111977135Y-55633450D01*
X111755497Y-55566217D01*
X111525001Y-55543515D01*
X109474999Y-55543515D01*
X109244503Y-55566217D01*
X109022865Y-55633450D01*
X108818602Y-55742631D01*
X108639564Y-55889564D01*
X108492631Y-56068602D01*
X108383450Y-56272865D01*
X108316217Y-56494503D01*
X108293515Y-56724999D01*
X94706485Y-56724999D01*
X94683783Y-56494503D01*
X94616550Y-56272865D01*
X94507369Y-56068602D01*
X94360436Y-55889564D01*
X94181398Y-55742631D01*
X93977135Y-55633450D01*
X93755497Y-55566217D01*
X93525001Y-55543515D01*
X91474999Y-55543515D01*
X91244503Y-55566217D01*
X91022865Y-55633450D01*
X90818602Y-55742631D01*
X90639564Y-55889564D01*
X90492631Y-56068602D01*
X90383450Y-56272865D01*
X90316217Y-56494503D01*
X90293515Y-56724999D01*
X89658859Y-56724999D01*
X89651387Y-56706962D01*
X89410405Y-56346307D01*
X89103693Y-56039595D01*
X88743038Y-55798613D01*
X88342300Y-55632621D01*
X87916878Y-55548000D01*
X87483122Y-55548000D01*
X87057700Y-55632621D01*
X86656962Y-55798613D01*
X86296307Y-56039595D01*
X85989595Y-56346307D01*
X85748613Y-56706962D01*
X85582621Y-57107700D01*
X85498000Y-57533122D01*
X71502000Y-57533122D01*
X71417379Y-57107700D01*
X71251387Y-56706962D01*
X71010405Y-56346307D01*
X70703693Y-56039595D01*
X70343038Y-55798613D01*
X69942300Y-55632621D01*
X69516878Y-55548000D01*
X69083122Y-55548000D01*
X68657700Y-55632621D01*
X68256962Y-55798613D01*
X67896307Y-56039595D01*
X67589595Y-56346307D01*
X67348613Y-56706962D01*
X67182621Y-57107700D01*
X67098000Y-57533122D01*
X66706485Y-57533122D01*
X66706485Y-56724999D01*
X66683783Y-56494503D01*
X66616550Y-56272865D01*
X66507369Y-56068602D01*
X66360436Y-55889564D01*
X66181398Y-55742631D01*
X65977135Y-55633450D01*
X65755497Y-55566217D01*
X65525001Y-55543515D01*
X63474999Y-55543515D01*
X63244503Y-55566217D01*
X63022865Y-55633450D01*
X62818602Y-55742631D01*
X62639564Y-55889564D01*
X62492631Y-56068602D01*
X62383450Y-56272865D01*
X62316217Y-56494503D01*
X62293515Y-56724999D01*
X40660000Y-56724999D01*
X40660000Y-33750000D01*
X110411928Y-33750000D01*
X110424188Y-33874482D01*
X110460498Y-33994180D01*
X110519463Y-34104494D01*
X110598815Y-34201185D01*
X110695506Y-34280537D01*
X110805820Y-34339502D01*
X110925518Y-34375812D01*
X111050000Y-34388072D01*
X112514250Y-34385000D01*
X112673000Y-34226250D01*
X112673000Y-32127000D01*
X112927000Y-32127000D01*
X112927000Y-34226250D01*
X113085750Y-34385000D01*
X114550000Y-34388072D01*
X114674482Y-34375812D01*
X114794180Y-34339502D01*
X114818515Y-34326494D01*
X114818515Y-36750000D01*
X114836413Y-36931724D01*
X114889420Y-37106464D01*
X114975499Y-37267505D01*
X115091341Y-37408659D01*
X115232495Y-37524501D01*
X115393536Y-37610580D01*
X115568276Y-37663587D01*
X115750000Y-37681485D01*
X119250000Y-37681485D01*
X119431724Y-37663587D01*
X119606464Y-37610580D01*
X119767505Y-37524501D01*
X119908659Y-37408659D01*
X120024501Y-37267505D01*
X120110580Y-37106464D01*
X120163587Y-36931724D01*
X120181485Y-36750000D01*
X120181485Y-36000000D01*
X123361928Y-36000000D01*
X123374188Y-36124482D01*
X123410498Y-36244180D01*
X123469463Y-36354494D01*
X123548815Y-36451185D01*
X123645506Y-36530537D01*
X123755820Y-36589502D01*
X123875518Y-36625812D01*
X124000000Y-36638072D01*
X124714250Y-36635000D01*
X124873000Y-36476250D01*
X124873000Y-35127000D01*
X125127000Y-35127000D01*
X125127000Y-36476250D01*
X125285750Y-36635000D01*
X126000000Y-36638072D01*
X126124482Y-36625812D01*
X126244180Y-36589502D01*
X126354494Y-36530537D01*
X126451185Y-36451185D01*
X126530537Y-36354494D01*
X126589502Y-36244180D01*
X126625812Y-36124482D01*
X126638072Y-36000000D01*
X126635000Y-35285750D01*
X126476250Y-35127000D01*
X125127000Y-35127000D01*
X124873000Y-35127000D01*
X123523750Y-35127000D01*
X123365000Y-35285750D01*
X123361928Y-36000000D01*
X120181485Y-36000000D01*
X120181485Y-34000000D01*
X123361928Y-34000000D01*
X123365000Y-34714250D01*
X123523750Y-34873000D01*
X124873000Y-34873000D01*
X124873000Y-33523750D01*
X125127000Y-33523750D01*
X125127000Y-34873000D01*
X126476250Y-34873000D01*
X126635000Y-34714250D01*
X126638072Y-34000000D01*
X126625812Y-33875518D01*
X126589502Y-33755820D01*
X126530537Y-33645506D01*
X126451185Y-33548815D01*
X126354494Y-33469463D01*
X126244180Y-33410498D01*
X126124482Y-33374188D01*
X126000000Y-33361928D01*
X125285750Y-33365000D01*
X125127000Y-33523750D01*
X124873000Y-33523750D01*
X124714250Y-33365000D01*
X124000000Y-33361928D01*
X123875518Y-33374188D01*
X123755820Y-33410498D01*
X123645506Y-33469463D01*
X123548815Y-33548815D01*
X123469463Y-33645506D01*
X123410498Y-33755820D01*
X123374188Y-33875518D01*
X123361928Y-34000000D01*
X120181485Y-34000000D01*
X120181485Y-33250000D01*
X120163587Y-33068276D01*
X120110580Y-32893536D01*
X120024501Y-32732495D01*
X119908659Y-32591341D01*
X119767505Y-32475499D01*
X119606464Y-32389420D01*
X119431724Y-32336413D01*
X119250000Y-32318515D01*
X115750000Y-32318515D01*
X115568276Y-32336413D01*
X115393536Y-32389420D01*
X115232495Y-32475499D01*
X115185479Y-32514084D01*
X115185000Y-32285750D01*
X115026250Y-32127000D01*
X112927000Y-32127000D01*
X112673000Y-32127000D01*
X110573750Y-32127000D01*
X110415000Y-32285750D01*
X110411928Y-33750000D01*
X40660000Y-33750000D01*
X40660000Y-30250000D01*
X110411928Y-30250000D01*
X110415000Y-31714250D01*
X110573750Y-31873000D01*
X112673000Y-31873000D01*
X112673000Y-29773750D01*
X112927000Y-29773750D01*
X112927000Y-31873000D01*
X115026250Y-31873000D01*
X115185000Y-31714250D01*
X115186931Y-30793633D01*
X115219463Y-30854494D01*
X115298815Y-30951185D01*
X115395506Y-31030537D01*
X115505820Y-31089502D01*
X115625518Y-31125812D01*
X115750000Y-31138072D01*
X117214250Y-31135000D01*
X117373000Y-30976250D01*
X117373000Y-29127000D01*
X117627000Y-29127000D01*
X117627000Y-30976250D01*
X117785750Y-31135000D01*
X119250000Y-31138072D01*
X119374482Y-31125812D01*
X119494180Y-31089502D01*
X119604494Y-31030537D01*
X119701185Y-30951185D01*
X119780537Y-30854494D01*
X119839502Y-30744180D01*
X119875812Y-30624482D01*
X119888072Y-30500000D01*
X119887592Y-30310207D01*
X123073000Y-30310207D01*
X123073000Y-30689793D01*
X123147053Y-31062085D01*
X123292315Y-31412777D01*
X123503201Y-31728391D01*
X123771609Y-31996799D01*
X124087223Y-32207685D01*
X124437915Y-32352947D01*
X124810207Y-32427000D01*
X125189793Y-32427000D01*
X125562085Y-32352947D01*
X125912777Y-32207685D01*
X126228391Y-31996799D01*
X126496799Y-31728391D01*
X126707685Y-31412777D01*
X126852947Y-31062085D01*
X126927000Y-30689793D01*
X126927000Y-30310207D01*
X126852947Y-29937915D01*
X126707685Y-29587223D01*
X126496799Y-29271609D01*
X126228391Y-29003201D01*
X125912777Y-28792315D01*
X125562085Y-28647053D01*
X125189793Y-28573000D01*
X124810207Y-28573000D01*
X124437915Y-28647053D01*
X124087223Y-28792315D01*
X123771609Y-29003201D01*
X123503201Y-29271609D01*
X123292315Y-29587223D01*
X123147053Y-29937915D01*
X123073000Y-30310207D01*
X119887592Y-30310207D01*
X119885000Y-29285750D01*
X119726250Y-29127000D01*
X117627000Y-29127000D01*
X117373000Y-29127000D01*
X115273750Y-29127000D01*
X115115000Y-29285750D01*
X115113302Y-29956805D01*
X115080537Y-29895506D01*
X115001185Y-29798815D01*
X114904494Y-29719463D01*
X114794180Y-29660498D01*
X114674482Y-29624188D01*
X114550000Y-29611928D01*
X113085750Y-29615000D01*
X112927000Y-29773750D01*
X112673000Y-29773750D01*
X112514250Y-29615000D01*
X111050000Y-29611928D01*
X110925518Y-29624188D01*
X110805820Y-29660498D01*
X110695506Y-29719463D01*
X110598815Y-29798815D01*
X110519463Y-29895506D01*
X110460498Y-30005820D01*
X110424188Y-30125518D01*
X110411928Y-30250000D01*
X40660000Y-30250000D01*
X40660000Y-27500000D01*
X115111928Y-27500000D01*
X115115000Y-28714250D01*
X115273750Y-28873000D01*
X117373000Y-28873000D01*
X117373000Y-27023750D01*
X117627000Y-27023750D01*
X117627000Y-28873000D01*
X119726250Y-28873000D01*
X119885000Y-28714250D01*
X119888072Y-27500000D01*
X119875812Y-27375518D01*
X119839502Y-27255820D01*
X119780537Y-27145506D01*
X119701185Y-27048815D01*
X119604494Y-26969463D01*
X119494180Y-26910498D01*
X119374482Y-26874188D01*
X119250000Y-26861928D01*
X117785750Y-26865000D01*
X117627000Y-27023750D01*
X117373000Y-27023750D01*
X117214250Y-26865000D01*
X115750000Y-26861928D01*
X115625518Y-26874188D01*
X115505820Y-26910498D01*
X115395506Y-26969463D01*
X115298815Y-27048815D01*
X115219463Y-27145506D01*
X115160498Y-27255820D01*
X115124188Y-27375518D01*
X115111928Y-27500000D01*
X40660000Y-27500000D01*
X40660000Y-25660000D01*
X139340000Y-25660000D01*
X139340001Y-184340000D01*
M02*
